<?xml version="1.0" encoding="utf-8" standalone="yes"?>
<!DOCTYPE svg PUBLIC "-//W3C//DTD SVG 1.1//EN" "http://www.w3.org/Graphics/SVG/1.1/DTD/svg11.dtd"[
	<!ENTITY E13 'stroke:none;opacity:1;fill:rgb(62,198,124);'>
	<!ENTITY E2 'stroke:none;opacity:1;fill:rgb(255,255,255);'>
	<!ENTITY E10 'stroke:rgb(0,0,0);fill:none;stroke-linecap:round;stroke-miterlimit:9;opacity:1;stroke-width:2;stroke-linejoin:round;'>
	<!ENTITY E3 'stroke:none;opacity:1;fill:rgb(60,182,230);'>
	<!ENTITY E18 'stroke:none;font-size:26pt;fill:rgb(255,255,255);font-weight:bolder;baseline-shift:-86&#37;;font-family:微软雅黑;opacity:1;'>
	<!ENTITY E4 'stroke:none;font-size:18pt;fill:rgb(255,255,255);font-weight:bolder;baseline-shift:-86&#37;;font-family:微软雅黑;opacity:1;'>
	<!ENTITY E5 'stroke:none;opacity:1;fill:rgb(250,250,250);'>
	<!ENTITY E12 'stroke:none;opacity:1;fill:rgb(93,150,255);'>
	<!ENTITY E16 'stroke:none;font-size:22pt;fill:rgb(0,0,0);font-weight:bolder;baseline-shift:-86&#37;;font-family:微软雅黑;opacity:1;'>
	<!ENTITY E8 'stroke:rgb(60,182,230);fill:none;stroke-linecap:round;stroke-miterlimit:9;opacity:1;stroke-width:2;stroke-linejoin:round;'>
	<!ENTITY E6 'stroke:rgb(255,0,0);fill:none;stroke-linecap:round;stroke-miterlimit:9;opacity:1;stroke-width:2;stroke-linejoin:round;'>
	<!ENTITY E11 'stroke:none;opacity:1;fill:rgb(255,62,65);'>
	<!ENTITY E9 'stroke:none;font-size:18pt;fill:rgb(102,102,102);font-weight:bolder;baseline-shift:-86&#37;;font-family:微软雅黑;opacity:1;'>
	<!ENTITY E1 'text-rendering:auto;shape-rendering:geometricPrecision;'>
	<!ENTITY E17 'stroke:rgb(128,128,128);fill:none;stroke-linecap:butt;stroke-miterlimit:9;opacity:1;stroke-width:2;stroke-linejoin:miter;'>
	<!ENTITY E15 'stroke:none;opacity:1;fill:rgb(211,211,211);'>
	<!ENTITY E14 'stroke:none;opacity:1;fill:rgb(247,212,0);'>
	<!ENTITY E7 'stroke:none;font-family:微软雅黑;fill:rgb(102,102,102);font-size:16pt;baseline-shift:-86&#37;;opacity:1;'>
]>
<svg height="952" width="655" id="SvgGdi_output" xmlns="http://www.w3.org/2000/svg">
  <rect id="background" height="100%" style="fill:rgb(255,255,255);" width="100%" y="0" x="0" />
  <g style="&E1;" id="root_group">
    <rect id="11410937" height="635" style="&E2;" width="655" y="0" x="0" />
    <rect id="11410938" height="37" style="&E3;" width="655" y="0" x="0" />
    <text id="11410939" style="&E4;" transform="matrix(1 0 0 1 0 0 ) " x="15" y="3">期数</text>
    <text id="11410941" style="&E4;" transform="matrix(1 0 0 1 0 0 ) " x="89" y="3">时间</text>
    <text id="11410943" style="&E4;" transform="matrix(1 0 0 1 0 0 ) " x="373" y="3">结果</text>
    <text id="11410945" style="&E4;" transform="matrix(1 0 0 1 0 0 ) " x="520" y="3">番</text>
    <rect id="11410947" height="37" style="&E5;" width="655" y="38" x="0" />
    <rect id="11410948" height="37" style="&E5;" width="655" y="118" x="0" />
    <rect id="11410949" height="37" style="&E5;" width="655" y="198" x="0" />
    <rect id="11410950" height="37" style="&E5;" width="655" y="278" x="0" />
    <rect id="11410951" height="37" style="&E5;" width="655" y="358" x="0" />
    <rect id="11410952" height="37" style="&E5;" width="655" y="438" x="0" />
    <rect id="11410953" height="37" style="&E5;" width="655" y="518" x="0" />
    <rect id="11410954" height="37" style="&E5;" width="655" y="598" x="0" />
    <rect id="11410955" height="37" style="&E5;" width="655" y="678" x="0" />
    <rect id="11410956" height="37" style="&E5;" width="655" y="758" x="0" />
    <rect id="11410957" height="37" style="&E6;" width="655" y="38" x="0" />
    <text id="11410958" style="&E7;" transform="matrix(1 0 0 1 0 0 ) " x="10" y="45">20</text>
    <text id="11410960" style="&E7;" transform="matrix(1 0 0 1 0 0 ) " x="50" y="45">16:33:40</text>
    <ellipse id="11410962" cy="57" cx="192" rx="17" ry="17" style="&E8;" />
    <text id="11410963" style="&E9;" transform="matrix(1 0 0 1 0 0 ) " x="176" y="43">03</text>
    <ellipse id="11410965" cy="57" cx="232" rx="17" ry="17" style="&E8;" />
    <text id="11410966" style="&E9;" transform="matrix(1 0 0 1 0 0 ) " x="216" y="43">09</text>
    <ellipse id="11410968" cy="57" cx="272" rx="17" ry="17" style="&E8;" />
    <text id="11410969" style="&E9;" transform="matrix(1 0 0 1 0 0 ) " x="256" y="43">10</text>
    <ellipse id="11410971" cy="57" cx="312" rx="17" ry="17" style="&E8;" />
    <text id="11410972" style="&E9;" transform="matrix(1 0 0 1 0 0 ) " x="296" y="43">13</text>
    <ellipse id="11410974" cy="57" cx="352" rx="17" ry="17" style="&E8;" />
    <text id="11410975" style="&E9;" transform="matrix(1 0 0 1 0 0 ) " x="336" y="43">11</text>
    <ellipse id="11410977" cy="57" cx="392" rx="17" ry="17" style="&E8;" />
    <text id="11410978" style="&E9;" transform="matrix(1 0 0 1 0 0 ) " x="376" y="43">02</text>
    <ellipse id="11410980" cy="57" cx="432" rx="17" ry="17" style="&E8;" />
    <text id="11410981" style="&E9;" transform="matrix(1 0 0 1 0 0 ) " x="416" y="43">17</text>
    <ellipse id="11410983" cy="57" cx="472" rx="17" ry="17" style="&E6;" />
    <text id="11410984" style="&E9;" transform="matrix(1 0 0 1 0 0 ) " x="456" y="43">08</text>
    <rect id="11410986" height="36" style="&E10;" width="36" y="40" x="512" />
    <rect id="11410987" height="34" style="&E11;" width="34" y="41" x="513" />
    <text id="11410988" style="&E4;" transform="matrix(1 0 0 1 0 0 ) " x="520" y="45">4</text>
    <text id="11410990" style="&E9;" transform="matrix(1 0 0 1 0 0 ) " x="560" y="45">小</text>
    <text id="11410992" style="&E9;" transform="matrix(1 0 0 1 0 0 ) " x="600" y="45">双</text>
    <text id="11410994" style="&E7;" transform="matrix(1 0 0 1 0 0 ) " x="10" y="85">19</text>
    <text id="11410996" style="&E7;" transform="matrix(1 0 0 1 0 0 ) " x="50" y="85">16:28:40</text>
    <ellipse id="11410998" cy="97" cx="192" rx="17" ry="17" style="&E8;" />
    <text id="11410999" style="&E9;" transform="matrix(1 0 0 1 0 0 ) " x="176" y="83">09</text>
    <ellipse id="11411001" cy="97" cx="232" rx="17" ry="17" style="&E8;" />
    <text id="11411002" style="&E9;" transform="matrix(1 0 0 1 0 0 ) " x="216" y="83">19</text>
    <ellipse id="11411004" cy="97" cx="272" rx="17" ry="17" style="&E8;" />
    <text id="11411005" style="&E9;" transform="matrix(1 0 0 1 0 0 ) " x="256" y="83">18</text>
    <ellipse id="11411007" cy="97" cx="312" rx="17" ry="17" style="&E8;" />
    <text id="11411008" style="&E9;" transform="matrix(1 0 0 1 0 0 ) " x="296" y="83">12</text>
    <ellipse id="11411010" cy="97" cx="352" rx="17" ry="17" style="&E8;" />
    <text id="11411011" style="&E9;" transform="matrix(1 0 0 1 0 0 ) " x="336" y="83">01</text>
    <ellipse id="11411013" cy="97" cx="392" rx="17" ry="17" style="&E8;" />
    <text id="11411014" style="&E9;" transform="matrix(1 0 0 1 0 0 ) " x="376" y="83">07</text>
    <ellipse id="11411016" cy="97" cx="432" rx="17" ry="17" style="&E8;" />
    <text id="11411017" style="&E9;" transform="matrix(1 0 0 1 0 0 ) " x="416" y="83">15</text>
    <ellipse id="11411019" cy="97" cx="472" rx="17" ry="17" style="&E6;" />
    <text id="11411020" style="&E9;" transform="matrix(1 0 0 1 0 0 ) " x="456" y="83">13</text>
    <rect id="11411022" height="36" style="&E10;" width="36" y="80" x="512" />
    <rect id="11411023" height="34" style="&E12;" width="34" y="81" x="513" />
    <text id="11411024" style="&E4;" transform="matrix(1 0 0 1 0 0 ) " x="520" y="85">1</text>
    <text id="11411026" style="&E9;" transform="matrix(1 0 0 1 0 0 ) " x="560" y="85">大</text>
    <text id="11411028" style="&E9;" transform="matrix(1 0 0 1 0 0 ) " x="600" y="85">单</text>
    <text id="11411030" style="&E7;" transform="matrix(1 0 0 1 0 0 ) " x="10" y="125">18</text>
    <text id="11411032" style="&E7;" transform="matrix(1 0 0 1 0 0 ) " x="50" y="125">16:23:40</text>
    <ellipse id="11411034" cy="137" cx="192" rx="17" ry="17" style="&E8;" />
    <text id="11411035" style="&E9;" transform="matrix(1 0 0 1 0 0 ) " x="176" y="123">03</text>
    <ellipse id="11411037" cy="137" cx="232" rx="17" ry="17" style="&E8;" />
    <text id="11411038" style="&E9;" transform="matrix(1 0 0 1 0 0 ) " x="216" y="123">13</text>
    <ellipse id="11411040" cy="137" cx="272" rx="17" ry="17" style="&E8;" />
    <text id="11411041" style="&E9;" transform="matrix(1 0 0 1 0 0 ) " x="256" y="123">18</text>
    <ellipse id="11411043" cy="137" cx="312" rx="17" ry="17" style="&E8;" />
    <text id="11411044" style="&E9;" transform="matrix(1 0 0 1 0 0 ) " x="296" y="123">01</text>
    <ellipse id="11411046" cy="137" cx="352" rx="17" ry="17" style="&E8;" />
    <text id="11411047" style="&E9;" transform="matrix(1 0 0 1 0 0 ) " x="336" y="123">11</text>
    <ellipse id="11411049" cy="137" cx="392" rx="17" ry="17" style="&E8;" />
    <text id="11411050" style="&E9;" transform="matrix(1 0 0 1 0 0 ) " x="376" y="123">15</text>
    <ellipse id="11411052" cy="137" cx="432" rx="17" ry="17" style="&E8;" />
    <text id="11411053" style="&E9;" transform="matrix(1 0 0 1 0 0 ) " x="416" y="123">08</text>
    <ellipse id="11411055" cy="137" cx="472" rx="17" ry="17" style="&E6;" />
    <text id="11411056" style="&E9;" transform="matrix(1 0 0 1 0 0 ) " x="456" y="123">10</text>
    <rect id="11411058" height="36" style="&E10;" width="36" y="120" x="512" />
    <rect id="11411059" height="34" style="&E13;" width="34" y="121" x="513" />
    <text id="11411060" style="&E4;" transform="matrix(1 0 0 1 0 0 ) " x="520" y="125">2</text>
    <text id="11411062" style="&E9;" transform="matrix(1 0 0 1 0 0 ) " x="560" y="125">小</text>
    <text id="11411064" style="&E9;" transform="matrix(1 0 0 1 0 0 ) " x="600" y="125">双</text>
    <text id="11411066" style="&E7;" transform="matrix(1 0 0 1 0 0 ) " x="10" y="165">17</text>
    <text id="11411068" style="&E7;" transform="matrix(1 0 0 1 0 0 ) " x="50" y="165">16:18:40</text>
    <ellipse id="11411070" cy="177" cx="192" rx="17" ry="17" style="&E8;" />
    <text id="11411071" style="&E9;" transform="matrix(1 0 0 1 0 0 ) " x="176" y="163">16</text>
    <ellipse id="11411073" cy="177" cx="232" rx="17" ry="17" style="&E8;" />
    <text id="11411074" style="&E9;" transform="matrix(1 0 0 1 0 0 ) " x="216" y="163">08</text>
    <ellipse id="11411076" cy="177" cx="272" rx="17" ry="17" style="&E8;" />
    <text id="11411077" style="&E9;" transform="matrix(1 0 0 1 0 0 ) " x="256" y="163">19</text>
    <ellipse id="11411079" cy="177" cx="312" rx="17" ry="17" style="&E8;" />
    <text id="11411080" style="&E9;" transform="matrix(1 0 0 1 0 0 ) " x="296" y="163">17</text>
    <ellipse id="11411082" cy="177" cx="352" rx="17" ry="17" style="&E8;" />
    <text id="11411083" style="&E9;" transform="matrix(1 0 0 1 0 0 ) " x="336" y="163">02</text>
    <ellipse id="11411085" cy="177" cx="392" rx="17" ry="17" style="&E8;" />
    <text id="11411086" style="&E9;" transform="matrix(1 0 0 1 0 0 ) " x="376" y="163">06</text>
    <ellipse id="11411088" cy="177" cx="432" rx="17" ry="17" style="&E8;" />
    <text id="11411089" style="&E9;" transform="matrix(1 0 0 1 0 0 ) " x="416" y="163">20</text>
    <ellipse id="11411091" cy="177" cx="472" rx="17" ry="17" style="&E6;" />
    <text id="11411092" style="&E9;" transform="matrix(1 0 0 1 0 0 ) " x="456" y="163">11</text>
    <rect id="11411094" height="36" style="&E10;" width="36" y="160" x="512" />
    <rect id="11411095" height="34" style="&E14;" width="34" y="161" x="513" />
    <text id="11411096" style="&E4;" transform="matrix(1 0 0 1 0 0 ) " x="520" y="165">3</text>
    <text id="11411098" style="&E9;" transform="matrix(1 0 0 1 0 0 ) " x="560" y="165">大</text>
    <text id="11411100" style="&E9;" transform="matrix(1 0 0 1 0 0 ) " x="600" y="165">单</text>
    <text id="11411102" style="&E7;" transform="matrix(1 0 0 1 0 0 ) " x="10" y="205">16</text>
    <text id="11411104" style="&E7;" transform="matrix(1 0 0 1 0 0 ) " x="50" y="205">16:13:40</text>
    <ellipse id="11411106" cy="217" cx="192" rx="17" ry="17" style="&E8;" />
    <text id="11411107" style="&E9;" transform="matrix(1 0 0 1 0 0 ) " x="176" y="203">10</text>
    <ellipse id="11411109" cy="217" cx="232" rx="17" ry="17" style="&E8;" />
    <text id="11411110" style="&E9;" transform="matrix(1 0 0 1 0 0 ) " x="216" y="203">17</text>
    <ellipse id="11411112" cy="217" cx="272" rx="17" ry="17" style="&E8;" />
    <text id="11411113" style="&E9;" transform="matrix(1 0 0 1 0 0 ) " x="256" y="203">07</text>
    <ellipse id="11411115" cy="217" cx="312" rx="17" ry="17" style="&E8;" />
    <text id="11411116" style="&E9;" transform="matrix(1 0 0 1 0 0 ) " x="296" y="203">09</text>
    <ellipse id="11411118" cy="217" cx="352" rx="17" ry="17" style="&E8;" />
    <text id="11411119" style="&E9;" transform="matrix(1 0 0 1 0 0 ) " x="336" y="203">13</text>
    <ellipse id="11411121" cy="217" cx="392" rx="17" ry="17" style="&E8;" />
    <text id="11411122" style="&E9;" transform="matrix(1 0 0 1 0 0 ) " x="376" y="203">02</text>
    <ellipse id="11411124" cy="217" cx="432" rx="17" ry="17" style="&E8;" />
    <text id="11411125" style="&E9;" transform="matrix(1 0 0 1 0 0 ) " x="416" y="203">01</text>
    <ellipse id="11411127" cy="217" cx="472" rx="17" ry="17" style="&E6;" />
    <text id="11411128" style="&E9;" transform="matrix(1 0 0 1 0 0 ) " x="456" y="203">16</text>
    <rect id="11411130" height="36" style="&E10;" width="36" y="200" x="512" />
    <rect id="11411131" height="34" style="&E11;" width="34" y="201" x="513" />
    <text id="11411132" style="&E4;" transform="matrix(1 0 0 1 0 0 ) " x="520" y="205">4</text>
    <text id="11411134" style="&E9;" transform="matrix(1 0 0 1 0 0 ) " x="560" y="205">大</text>
    <text id="11411136" style="&E9;" transform="matrix(1 0 0 1 0 0 ) " x="600" y="205">双</text>
    <text id="11411138" style="&E7;" transform="matrix(1 0 0 1 0 0 ) " x="10" y="245">15</text>
    <text id="11411140" style="&E7;" transform="matrix(1 0 0 1 0 0 ) " x="50" y="245">16:08:40</text>
    <ellipse id="11411142" cy="257" cx="192" rx="17" ry="17" style="&E8;" />
    <text id="11411143" style="&E9;" transform="matrix(1 0 0 1 0 0 ) " x="176" y="243">10</text>
    <ellipse id="11411145" cy="257" cx="232" rx="17" ry="17" style="&E8;" />
    <text id="11411146" style="&E9;" transform="matrix(1 0 0 1 0 0 ) " x="216" y="243">16</text>
    <ellipse id="11411148" cy="257" cx="272" rx="17" ry="17" style="&E8;" />
    <text id="11411149" style="&E9;" transform="matrix(1 0 0 1 0 0 ) " x="256" y="243">11</text>
    <ellipse id="11411151" cy="257" cx="312" rx="17" ry="17" style="&E8;" />
    <text id="11411152" style="&E9;" transform="matrix(1 0 0 1 0 0 ) " x="296" y="243">03</text>
    <ellipse id="11411154" cy="257" cx="352" rx="17" ry="17" style="&E8;" />
    <text id="11411155" style="&E9;" transform="matrix(1 0 0 1 0 0 ) " x="336" y="243">07</text>
    <ellipse id="11411157" cy="257" cx="392" rx="17" ry="17" style="&E8;" />
    <text id="11411158" style="&E9;" transform="matrix(1 0 0 1 0 0 ) " x="376" y="243">14</text>
    <ellipse id="11411160" cy="257" cx="432" rx="17" ry="17" style="&E8;" />
    <text id="11411161" style="&E9;" transform="matrix(1 0 0 1 0 0 ) " x="416" y="243">12</text>
    <ellipse id="11411163" cy="257" cx="472" rx="17" ry="17" style="&E6;" />
    <text id="11411164" style="&E9;" transform="matrix(1 0 0 1 0 0 ) " x="456" y="243">01</text>
    <rect id="11411166" height="36" style="&E10;" width="36" y="240" x="512" />
    <rect id="11411167" height="34" style="&E12;" width="34" y="241" x="513" />
    <text id="11411168" style="&E4;" transform="matrix(1 0 0 1 0 0 ) " x="520" y="245">1</text>
    <text id="11411170" style="&E9;" transform="matrix(1 0 0 1 0 0 ) " x="560" y="245">小</text>
    <text id="11411172" style="&E9;" transform="matrix(1 0 0 1 0 0 ) " x="600" y="245">单</text>
    <text id="11411174" style="&E7;" transform="matrix(1 0 0 1 0 0 ) " x="10" y="285">14</text>
    <text id="11411176" style="&E7;" transform="matrix(1 0 0 1 0 0 ) " x="50" y="285">16:03:40</text>
    <ellipse id="11411178" cy="297" cx="192" rx="17" ry="17" style="&E8;" />
    <text id="11411179" style="&E9;" transform="matrix(1 0 0 1 0 0 ) " x="176" y="283">03</text>
    <ellipse id="11411181" cy="297" cx="232" rx="17" ry="17" style="&E8;" />
    <text id="11411182" style="&E9;" transform="matrix(1 0 0 1 0 0 ) " x="216" y="283">05</text>
    <ellipse id="11411184" cy="297" cx="272" rx="17" ry="17" style="&E8;" />
    <text id="11411185" style="&E9;" transform="matrix(1 0 0 1 0 0 ) " x="256" y="283">18</text>
    <ellipse id="11411187" cy="297" cx="312" rx="17" ry="17" style="&E8;" />
    <text id="11411188" style="&E9;" transform="matrix(1 0 0 1 0 0 ) " x="296" y="283">02</text>
    <ellipse id="11411190" cy="297" cx="352" rx="17" ry="17" style="&E8;" />
    <text id="11411191" style="&E9;" transform="matrix(1 0 0 1 0 0 ) " x="336" y="283">01</text>
    <ellipse id="11411193" cy="297" cx="392" rx="17" ry="17" style="&E8;" />
    <text id="11411194" style="&E9;" transform="matrix(1 0 0 1 0 0 ) " x="376" y="283">12</text>
    <ellipse id="11411196" cy="297" cx="432" rx="17" ry="17" style="&E8;" />
    <text id="11411197" style="&E9;" transform="matrix(1 0 0 1 0 0 ) " x="416" y="283">11</text>
    <ellipse id="11411199" cy="297" cx="472" rx="17" ry="17" style="&E6;" />
    <text id="11411200" style="&E9;" transform="matrix(1 0 0 1 0 0 ) " x="456" y="283">20</text>
    <rect id="11411202" height="36" style="&E10;" width="36" y="280" x="512" />
    <rect id="11411203" height="34" style="&E11;" width="34" y="281" x="513" />
    <text id="11411204" style="&E4;" transform="matrix(1 0 0 1 0 0 ) " x="520" y="285">4</text>
    <text id="11411206" style="&E9;" transform="matrix(1 0 0 1 0 0 ) " x="560" y="285">大</text>
    <text id="11411208" style="&E9;" transform="matrix(1 0 0 1 0 0 ) " x="600" y="285">双</text>
    <text id="11411210" style="&E7;" transform="matrix(1 0 0 1 0 0 ) " x="10" y="325">13</text>
    <text id="11411212" style="&E7;" transform="matrix(1 0 0 1 0 0 ) " x="50" y="325">15:58:40</text>
    <ellipse id="11411214" cy="337" cx="192" rx="17" ry="17" style="&E8;" />
    <text id="11411215" style="&E9;" transform="matrix(1 0 0 1 0 0 ) " x="176" y="323">12</text>
    <ellipse id="11411217" cy="337" cx="232" rx="17" ry="17" style="&E8;" />
    <text id="11411218" style="&E9;" transform="matrix(1 0 0 1 0 0 ) " x="216" y="323">13</text>
    <ellipse id="11411220" cy="337" cx="272" rx="17" ry="17" style="&E8;" />
    <text id="11411221" style="&E9;" transform="matrix(1 0 0 1 0 0 ) " x="256" y="323">19</text>
    <ellipse id="11411223" cy="337" cx="312" rx="17" ry="17" style="&E8;" />
    <text id="11411224" style="&E9;" transform="matrix(1 0 0 1 0 0 ) " x="296" y="323">07</text>
    <ellipse id="11411226" cy="337" cx="352" rx="17" ry="17" style="&E8;" />
    <text id="11411227" style="&E9;" transform="matrix(1 0 0 1 0 0 ) " x="336" y="323">18</text>
    <ellipse id="11411229" cy="337" cx="392" rx="17" ry="17" style="&E8;" />
    <text id="11411230" style="&E9;" transform="matrix(1 0 0 1 0 0 ) " x="376" y="323">01</text>
    <ellipse id="11411232" cy="337" cx="432" rx="17" ry="17" style="&E8;" />
    <text id="11411233" style="&E9;" transform="matrix(1 0 0 1 0 0 ) " x="416" y="323">04</text>
    <ellipse id="11411235" cy="337" cx="472" rx="17" ry="17" style="&E6;" />
    <text id="11411236" style="&E9;" transform="matrix(1 0 0 1 0 0 ) " x="456" y="323">11</text>
    <rect id="11411238" height="36" style="&E10;" width="36" y="320" x="512" />
    <rect id="11411239" height="34" style="&E14;" width="34" y="321" x="513" />
    <text id="11411240" style="&E4;" transform="matrix(1 0 0 1 0 0 ) " x="520" y="325">3</text>
    <text id="11411242" style="&E9;" transform="matrix(1 0 0 1 0 0 ) " x="560" y="325">大</text>
    <text id="11411244" style="&E9;" transform="matrix(1 0 0 1 0 0 ) " x="600" y="325">单</text>
    <text id="11411246" style="&E7;" transform="matrix(1 0 0 1 0 0 ) " x="10" y="365">12</text>
    <text id="11411248" style="&E7;" transform="matrix(1 0 0 1 0 0 ) " x="50" y="365">15:53:40</text>
    <ellipse id="11411250" cy="377" cx="192" rx="17" ry="17" style="&E8;" />
    <text id="11411251" style="&E9;" transform="matrix(1 0 0 1 0 0 ) " x="176" y="363">02</text>
    <ellipse id="11411253" cy="377" cx="232" rx="17" ry="17" style="&E8;" />
    <text id="11411254" style="&E9;" transform="matrix(1 0 0 1 0 0 ) " x="216" y="363">18</text>
    <ellipse id="11411256" cy="377" cx="272" rx="17" ry="17" style="&E8;" />
    <text id="11411257" style="&E9;" transform="matrix(1 0 0 1 0 0 ) " x="256" y="363">17</text>
    <ellipse id="11411259" cy="377" cx="312" rx="17" ry="17" style="&E8;" />
    <text id="11411260" style="&E9;" transform="matrix(1 0 0 1 0 0 ) " x="296" y="363">20</text>
    <ellipse id="11411262" cy="377" cx="352" rx="17" ry="17" style="&E8;" />
    <text id="11411263" style="&E9;" transform="matrix(1 0 0 1 0 0 ) " x="336" y="363">03</text>
    <ellipse id="11411265" cy="377" cx="392" rx="17" ry="17" style="&E8;" />
    <text id="11411266" style="&E9;" transform="matrix(1 0 0 1 0 0 ) " x="376" y="363">07</text>
    <ellipse id="11411268" cy="377" cx="432" rx="17" ry="17" style="&E8;" />
    <text id="11411269" style="&E9;" transform="matrix(1 0 0 1 0 0 ) " x="416" y="363">08</text>
    <ellipse id="11411271" cy="377" cx="472" rx="17" ry="17" style="&E6;" />
    <text id="11411272" style="&E9;" transform="matrix(1 0 0 1 0 0 ) " x="456" y="363">05</text>
    <rect id="11411274" height="36" style="&E10;" width="36" y="360" x="512" />
    <rect id="11411275" height="34" style="&E12;" width="34" y="361" x="513" />
    <text id="11411276" style="&E4;" transform="matrix(1 0 0 1 0 0 ) " x="520" y="365">1</text>
    <text id="11411278" style="&E9;" transform="matrix(1 0 0 1 0 0 ) " x="560" y="365">小</text>
    <text id="11411280" style="&E9;" transform="matrix(1 0 0 1 0 0 ) " x="600" y="365">单</text>
    <text id="11411282" style="&E7;" transform="matrix(1 0 0 1 0 0 ) " x="10" y="405">11</text>
    <text id="11411284" style="&E7;" transform="matrix(1 0 0 1 0 0 ) " x="50" y="405">15:48:40</text>
    <ellipse id="11411286" cy="417" cx="192" rx="17" ry="17" style="&E8;" />
    <text id="11411287" style="&E9;" transform="matrix(1 0 0 1 0 0 ) " x="176" y="403">20</text>
    <ellipse id="11411289" cy="417" cx="232" rx="17" ry="17" style="&E8;" />
    <text id="11411290" style="&E9;" transform="matrix(1 0 0 1 0 0 ) " x="216" y="403">12</text>
    <ellipse id="11411292" cy="417" cx="272" rx="17" ry="17" style="&E8;" />
    <text id="11411293" style="&E9;" transform="matrix(1 0 0 1 0 0 ) " x="256" y="403">09</text>
    <ellipse id="11411295" cy="417" cx="312" rx="17" ry="17" style="&E8;" />
    <text id="11411296" style="&E9;" transform="matrix(1 0 0 1 0 0 ) " x="296" y="403">19</text>
    <ellipse id="11411298" cy="417" cx="352" rx="17" ry="17" style="&E8;" />
    <text id="11411299" style="&E9;" transform="matrix(1 0 0 1 0 0 ) " x="336" y="403">15</text>
    <ellipse id="11411301" cy="417" cx="392" rx="17" ry="17" style="&E8;" />
    <text id="11411302" style="&E9;" transform="matrix(1 0 0 1 0 0 ) " x="376" y="403">14</text>
    <ellipse id="11411304" cy="417" cx="432" rx="17" ry="17" style="&E8;" />
    <text id="11411305" style="&E9;" transform="matrix(1 0 0 1 0 0 ) " x="416" y="403">05</text>
    <ellipse id="11411307" cy="417" cx="472" rx="17" ry="17" style="&E6;" />
    <text id="11411308" style="&E9;" transform="matrix(1 0 0 1 0 0 ) " x="456" y="403">16</text>
    <rect id="11411310" height="36" style="&E10;" width="36" y="400" x="512" />
    <rect id="11411311" height="34" style="&E11;" width="34" y="401" x="513" />
    <text id="11411312" style="&E4;" transform="matrix(1 0 0 1 0 0 ) " x="520" y="405">4</text>
    <text id="11411314" style="&E9;" transform="matrix(1 0 0 1 0 0 ) " x="560" y="405">大</text>
    <text id="11411316" style="&E9;" transform="matrix(1 0 0 1 0 0 ) " x="600" y="405">双</text>
    <text id="11411318" style="&E7;" transform="matrix(1 0 0 1 0 0 ) " x="10" y="445">10</text>
    <text id="11411320" style="&E7;" transform="matrix(1 0 0 1 0 0 ) " x="50" y="445">15:43:40</text>
    <ellipse id="11411322" cy="457" cx="192" rx="17" ry="17" style="&E8;" />
    <text id="11411323" style="&E9;" transform="matrix(1 0 0 1 0 0 ) " x="176" y="443">20</text>
    <ellipse id="11411325" cy="457" cx="232" rx="17" ry="17" style="&E8;" />
    <text id="11411326" style="&E9;" transform="matrix(1 0 0 1 0 0 ) " x="216" y="443">13</text>
    <ellipse id="11411328" cy="457" cx="272" rx="17" ry="17" style="&E8;" />
    <text id="11411329" style="&E9;" transform="matrix(1 0 0 1 0 0 ) " x="256" y="443">04</text>
    <ellipse id="11411331" cy="457" cx="312" rx="17" ry="17" style="&E8;" />
    <text id="11411332" style="&E9;" transform="matrix(1 0 0 1 0 0 ) " x="296" y="443">06</text>
    <ellipse id="11411334" cy="457" cx="352" rx="17" ry="17" style="&E8;" />
    <text id="11411335" style="&E9;" transform="matrix(1 0 0 1 0 0 ) " x="336" y="443">02</text>
    <ellipse id="11411337" cy="457" cx="392" rx="17" ry="17" style="&E8;" />
    <text id="11411338" style="&E9;" transform="matrix(1 0 0 1 0 0 ) " x="376" y="443">05</text>
    <ellipse id="11411340" cy="457" cx="432" rx="17" ry="17" style="&E8;" />
    <text id="11411341" style="&E9;" transform="matrix(1 0 0 1 0 0 ) " x="416" y="443">16</text>
    <ellipse id="11411343" cy="457" cx="472" rx="17" ry="17" style="&E6;" />
    <text id="11411344" style="&E9;" transform="matrix(1 0 0 1 0 0 ) " x="456" y="443">11</text>
    <rect id="11411346" height="36" style="&E10;" width="36" y="440" x="512" />
    <rect id="11411347" height="34" style="&E14;" width="34" y="441" x="513" />
    <text id="11411348" style="&E4;" transform="matrix(1 0 0 1 0 0 ) " x="520" y="445">3</text>
    <text id="11411350" style="&E9;" transform="matrix(1 0 0 1 0 0 ) " x="560" y="445">大</text>
    <text id="11411352" style="&E9;" transform="matrix(1 0 0 1 0 0 ) " x="600" y="445">单</text>
    <text id="11411354" style="&E7;" transform="matrix(1 0 0 1 0 0 ) " x="10" y="485">09</text>
    <text id="11411356" style="&E7;" transform="matrix(1 0 0 1 0 0 ) " x="50" y="485">15:38:40</text>
    <ellipse id="11411358" cy="497" cx="192" rx="17" ry="17" style="&E8;" />
    <text id="11411359" style="&E9;" transform="matrix(1 0 0 1 0 0 ) " x="176" y="483">17</text>
    <ellipse id="11411361" cy="497" cx="232" rx="17" ry="17" style="&E8;" />
    <text id="11411362" style="&E9;" transform="matrix(1 0 0 1 0 0 ) " x="216" y="483">12</text>
    <ellipse id="11411364" cy="497" cx="272" rx="17" ry="17" style="&E8;" />
    <text id="11411365" style="&E9;" transform="matrix(1 0 0 1 0 0 ) " x="256" y="483">14</text>
    <ellipse id="11411367" cy="497" cx="312" rx="17" ry="17" style="&E8;" />
    <text id="11411368" style="&E9;" transform="matrix(1 0 0 1 0 0 ) " x="296" y="483">19</text>
    <ellipse id="11411370" cy="497" cx="352" rx="17" ry="17" style="&E8;" />
    <text id="11411371" style="&E9;" transform="matrix(1 0 0 1 0 0 ) " x="336" y="483">08</text>
    <ellipse id="11411373" cy="497" cx="392" rx="17" ry="17" style="&E8;" />
    <text id="11411374" style="&E9;" transform="matrix(1 0 0 1 0 0 ) " x="376" y="483">04</text>
    <ellipse id="11411376" cy="497" cx="432" rx="17" ry="17" style="&E8;" />
    <text id="11411377" style="&E9;" transform="matrix(1 0 0 1 0 0 ) " x="416" y="483">20</text>
    <ellipse id="11411379" cy="497" cx="472" rx="17" ry="17" style="&E6;" />
    <text id="11411380" style="&E9;" transform="matrix(1 0 0 1 0 0 ) " x="456" y="483">13</text>
    <rect id="11411382" height="36" style="&E10;" width="36" y="480" x="512" />
    <rect id="11411383" height="34" style="&E12;" width="34" y="481" x="513" />
    <text id="11411384" style="&E4;" transform="matrix(1 0 0 1 0 0 ) " x="520" y="485">1</text>
    <text id="11411386" style="&E9;" transform="matrix(1 0 0 1 0 0 ) " x="560" y="485">大</text>
    <text id="11411388" style="&E9;" transform="matrix(1 0 0 1 0 0 ) " x="600" y="485">单</text>
    <text id="11411390" style="&E7;" transform="matrix(1 0 0 1 0 0 ) " x="10" y="525">08</text>
    <text id="11411392" style="&E7;" transform="matrix(1 0 0 1 0 0 ) " x="50" y="525">15:33:40</text>
    <ellipse id="11411394" cy="537" cx="192" rx="17" ry="17" style="&E8;" />
    <text id="11411395" style="&E9;" transform="matrix(1 0 0 1 0 0 ) " x="176" y="523">19</text>
    <ellipse id="11411397" cy="537" cx="232" rx="17" ry="17" style="&E8;" />
    <text id="11411398" style="&E9;" transform="matrix(1 0 0 1 0 0 ) " x="216" y="523">11</text>
    <ellipse id="11411400" cy="537" cx="272" rx="17" ry="17" style="&E8;" />
    <text id="11411401" style="&E9;" transform="matrix(1 0 0 1 0 0 ) " x="256" y="523">09</text>
    <ellipse id="11411403" cy="537" cx="312" rx="17" ry="17" style="&E8;" />
    <text id="11411404" style="&E9;" transform="matrix(1 0 0 1 0 0 ) " x="296" y="523">17</text>
    <ellipse id="11411406" cy="537" cx="352" rx="17" ry="17" style="&E8;" />
    <text id="11411407" style="&E9;" transform="matrix(1 0 0 1 0 0 ) " x="336" y="523">12</text>
    <ellipse id="11411409" cy="537" cx="392" rx="17" ry="17" style="&E8;" />
    <text id="11411410" style="&E9;" transform="matrix(1 0 0 1 0 0 ) " x="376" y="523">01</text>
    <ellipse id="11411412" cy="537" cx="432" rx="17" ry="17" style="&E8;" />
    <text id="11411413" style="&E9;" transform="matrix(1 0 0 1 0 0 ) " x="416" y="523">08</text>
    <ellipse id="11411415" cy="537" cx="472" rx="17" ry="17" style="&E6;" />
    <text id="11411416" style="&E9;" transform="matrix(1 0 0 1 0 0 ) " x="456" y="523">07</text>
    <rect id="11411418" height="36" style="&E10;" width="36" y="520" x="512" />
    <rect id="11411419" height="34" style="&E14;" width="34" y="521" x="513" />
    <text id="11411420" style="&E4;" transform="matrix(1 0 0 1 0 0 ) " x="520" y="525">3</text>
    <text id="11411422" style="&E9;" transform="matrix(1 0 0 1 0 0 ) " x="560" y="525">小</text>
    <text id="11411424" style="&E9;" transform="matrix(1 0 0 1 0 0 ) " x="600" y="525">单</text>
    <text id="11411426" style="&E7;" transform="matrix(1 0 0 1 0 0 ) " x="10" y="565">07</text>
    <text id="11411428" style="&E7;" transform="matrix(1 0 0 1 0 0 ) " x="50" y="565">15:28:40</text>
    <ellipse id="11411430" cy="577" cx="192" rx="17" ry="17" style="&E8;" />
    <text id="11411431" style="&E9;" transform="matrix(1 0 0 1 0 0 ) " x="176" y="563">11</text>
    <ellipse id="11411433" cy="577" cx="232" rx="17" ry="17" style="&E8;" />
    <text id="11411434" style="&E9;" transform="matrix(1 0 0 1 0 0 ) " x="216" y="563">06</text>
    <ellipse id="11411436" cy="577" cx="272" rx="17" ry="17" style="&E8;" />
    <text id="11411437" style="&E9;" transform="matrix(1 0 0 1 0 0 ) " x="256" y="563">09</text>
    <ellipse id="11411439" cy="577" cx="312" rx="17" ry="17" style="&E8;" />
    <text id="11411440" style="&E9;" transform="matrix(1 0 0 1 0 0 ) " x="296" y="563">07</text>
    <ellipse id="11411442" cy="577" cx="352" rx="17" ry="17" style="&E8;" />
    <text id="11411443" style="&E9;" transform="matrix(1 0 0 1 0 0 ) " x="336" y="563">18</text>
    <ellipse id="11411445" cy="577" cx="392" rx="17" ry="17" style="&E8;" />
    <text id="11411446" style="&E9;" transform="matrix(1 0 0 1 0 0 ) " x="376" y="563">13</text>
    <ellipse id="11411448" cy="577" cx="432" rx="17" ry="17" style="&E8;" />
    <text id="11411449" style="&E9;" transform="matrix(1 0 0 1 0 0 ) " x="416" y="563">04</text>
    <ellipse id="11411451" cy="577" cx="472" rx="17" ry="17" style="&E6;" />
    <text id="11411452" style="&E9;" transform="matrix(1 0 0 1 0 0 ) " x="456" y="563">02</text>
    <rect id="11411454" height="36" style="&E10;" width="36" y="560" x="512" />
    <rect id="11411455" height="34" style="&E13;" width="34" y="561" x="513" />
    <text id="11411456" style="&E4;" transform="matrix(1 0 0 1 0 0 ) " x="520" y="565">2</text>
    <text id="11411458" style="&E9;" transform="matrix(1 0 0 1 0 0 ) " x="560" y="565">小</text>
    <text id="11411460" style="&E9;" transform="matrix(1 0 0 1 0 0 ) " x="600" y="565">双</text>
    <text id="11411462" style="&E7;" transform="matrix(1 0 0 1 0 0 ) " x="10" y="605">06</text>
    <text id="11411464" style="&E7;" transform="matrix(1 0 0 1 0 0 ) " x="50" y="605">15:23:40</text>
    <ellipse id="11411466" cy="617" cx="192" rx="17" ry="17" style="&E8;" />
    <text id="11411467" style="&E9;" transform="matrix(1 0 0 1 0 0 ) " x="176" y="603">06</text>
    <ellipse id="11411469" cy="617" cx="232" rx="17" ry="17" style="&E8;" />
    <text id="11411470" style="&E9;" transform="matrix(1 0 0 1 0 0 ) " x="216" y="603">16</text>
    <ellipse id="11411472" cy="617" cx="272" rx="17" ry="17" style="&E8;" />
    <text id="11411473" style="&E9;" transform="matrix(1 0 0 1 0 0 ) " x="256" y="603">13</text>
    <ellipse id="11411475" cy="617" cx="312" rx="17" ry="17" style="&E8;" />
    <text id="11411476" style="&E9;" transform="matrix(1 0 0 1 0 0 ) " x="296" y="603">09</text>
    <ellipse id="11411478" cy="617" cx="352" rx="17" ry="17" style="&E8;" />
    <text id="11411479" style="&E9;" transform="matrix(1 0 0 1 0 0 ) " x="336" y="603">01</text>
    <ellipse id="11411481" cy="617" cx="392" rx="17" ry="17" style="&E8;" />
    <text id="11411482" style="&E9;" transform="matrix(1 0 0 1 0 0 ) " x="376" y="603">07</text>
    <ellipse id="11411484" cy="617" cx="432" rx="17" ry="17" style="&E8;" />
    <text id="11411485" style="&E9;" transform="matrix(1 0 0 1 0 0 ) " x="416" y="603">18</text>
    <ellipse id="11411487" cy="617" cx="472" rx="17" ry="17" style="&E6;" />
    <text id="11411488" style="&E9;" transform="matrix(1 0 0 1 0 0 ) " x="456" y="603">20</text>
    <rect id="11411490" height="36" style="&E10;" width="36" y="600" x="512" />
    <rect id="11411491" height="34" style="&E11;" width="34" y="601" x="513" />
    <text id="11411492" style="&E4;" transform="matrix(1 0 0 1 0 0 ) " x="520" y="605">4</text>
    <text id="11411494" style="&E9;" transform="matrix(1 0 0 1 0 0 ) " x="560" y="605">大</text>
    <text id="11411496" style="&E9;" transform="matrix(1 0 0 1 0 0 ) " x="600" y="605">双</text>
    <rect id="11411498" height="46" style="&E15;" width="627" y="656" x="10" />
    <text id="11411499" style="&E16;" transform="matrix(1 0 0 1 0 0 ) " x="229" y="666">路</text>
    <text id="11411501" style="&E16;" transform="matrix(1 0 0 1 0 0 ) " x="280" y="666">字</text>
    <text id="11411503" style="&E16;" transform="matrix(1 0 0 1 0 0 ) " x="332" y="666">图</text>
    <line y1="656" style="&E17;" id="11411505" x2="637" y2="656" x1="10" />
    <line y1="702" style="&E17;" id="11411506" x2="637" y2="702" x1="10" />
    <line y1="753" style="&E17;" id="11411507" x2="637" y2="753" x1="10" />
    <line y1="802" style="&E17;" id="11411508" x2="637" y2="802" x1="10" />
    <line y1="851" style="&E17;" id="11411509" x2="637" y2="851" x1="10" />
    <line y1="900" style="&E17;" id="11411510" x2="637" y2="900" x1="10" />
    <line y1="945" style="&E17;" id="11411511" x2="637" y2="945" x1="10" />
    <line y1="656" style="&E17;" id="11411512" x2="10" y2="945" x1="10" />
    <line y1="656" style="&E17;" id="11411513" x2="60" y2="945" x1="60" />
    <line y1="656" style="&E17;" id="11411514" x2="115" y2="945" x1="115" />
    <line y1="656" style="&E17;" id="11411515" x2="166" y2="945" x1="166" />
    <line y1="656" style="&E17;" id="11411516" x2="219" y2="945" x1="219" />
    <line y1="656" style="&E17;" id="11411517" x2="270" y2="945" x1="270" />
    <line y1="656" style="&E17;" id="11411518" x2="323" y2="945" x1="323" />
    <line y1="656" style="&E17;" id="11411519" x2="375" y2="945" x1="375" />
    <line y1="656" style="&E17;" id="11411520" x2="427" y2="945" x1="427" />
    <line y1="656" style="&E17;" id="11411521" x2="480" y2="945" x1="480" />
    <line y1="656" style="&E17;" id="11411522" x2="531" y2="945" x1="531" />
    <line y1="656" style="&E17;" id="11411523" x2="584" y2="945" x1="584" />
    <line y1="656" style="&E17;" id="11411524" x2="636" y2="945" x1="636" />
    <rect id="11411525" height="38" style="&E10;" width="38" y="708" x="16" />
    <rect id="11411526" height="37" style="&E11;" width="37" y="708" x="16" />
    <text id="11411527" style="&E18;" transform="matrix(1 0 0 1 0 0 ) " x="20" y="710">4</text>
    <rect id="11411529" height="38" style="&E10;" width="38" y="708" x="68" />
    <rect id="11411530" height="37" style="&E11;" width="37" y="708" x="68" />
    <text id="11411531" style="&E18;" transform="matrix(1 0 0 1 0 0 ) " x="72" y="710">4</text>
    <rect id="11411533" height="38" style="&E10;" width="38" y="708" x="121" />
    <rect id="11411534" height="37" style="&E12;" width="37" y="708" x="121" />
    <text id="11411535" style="&E18;" transform="matrix(1 0 0 1 0 0 ) " x="125" y="710">1</text>
    <rect id="11411537" height="38" style="&E10;" width="38" y="708" x="174" />
    <rect id="11411538" height="37" style="&E12;" width="37" y="708" x="174" />
    <text id="11411539" style="&E18;" transform="matrix(1 0 0 1 0 0 ) " x="178" y="710">1</text>
    <rect id="11411541" height="38" style="&E10;" width="38" y="708" x="225" />
    <rect id="11411542" height="37" style="&E14;" width="37" y="708" x="225" />
    <text id="11411543" style="&E18;" transform="matrix(1 0 0 1 0 0 ) " x="229" y="710">3</text>
    <rect id="11411545" height="38" style="&E10;" width="38" y="708" x="278" />
    <rect id="11411546" height="37" style="&E14;" width="37" y="708" x="278" />
    <text id="11411547" style="&E18;" transform="matrix(1 0 0 1 0 0 ) " x="282" y="710">3</text>
    <rect id="11411549" height="38" style="&E10;" width="38" y="708" x="330" />
    <rect id="11411550" height="37" style="&E14;" width="37" y="708" x="330" />
    <text id="11411551" style="&E18;" transform="matrix(1 0 0 1 0 0 ) " x="334" y="710">3</text>
    <rect id="11411553" height="38" style="&E10;" width="38" y="708" x="383" />
    <rect id="11411554" height="37" style="&E11;" width="37" y="708" x="383" />
    <text id="11411555" style="&E18;" transform="matrix(1 0 0 1 0 0 ) " x="387" y="710">4</text>
    <rect id="11411557" height="38" style="&E10;" width="38" y="708" x="434" />
    <rect id="11411558" height="37" style="&E14;" width="37" y="708" x="434" />
    <text id="11411559" style="&E18;" transform="matrix(1 0 0 1 0 0 ) " x="438" y="710">3</text>
    <rect id="11411561" height="38" style="&E10;" width="38" y="708" x="486" />
    <rect id="11411562" height="37" style="&E11;" width="37" y="708" x="486" />
    <text id="11411563" style="&E18;" transform="matrix(1 0 0 1 0 0 ) " x="490" y="710">4</text>
    <rect id="11411565" height="38" style="&E10;" width="38" y="708" x="538" />
    <rect id="11411566" height="37" style="&E12;" width="37" y="708" x="538" />
    <text id="11411567" style="&E18;" transform="matrix(1 0 0 1 0 0 ) " x="542" y="710">1</text>
    <rect id="11411569" height="38" style="&E10;" width="38" y="708" x="592" />
    <rect id="11411570" height="37" style="&E13;" width="37" y="708" x="592" />
    <text id="11411571" style="&E18;" transform="matrix(1 0 0 1 0 0 ) " x="596" y="710">2</text>
    <rect id="11411573" height="38" style="&E10;" width="38" y="758" x="16" />
    <rect id="11411574" height="37" style="&E14;" width="37" y="758" x="16" />
    <text id="11411575" style="&E18;" transform="matrix(1 0 0 1 0 0 ) " x="20" y="760">3</text>
    <rect id="11411577" height="38" style="&E10;" width="38" y="758" x="68" />
    <rect id="11411578" height="37" style="&E14;" width="37" y="758" x="68" />
    <text id="11411579" style="&E18;" transform="matrix(1 0 0 1 0 0 ) " x="72" y="760">3</text>
    <rect id="11411581" height="38" style="&E10;" width="38" y="758" x="121" />
    <rect id="11411582" height="37" style="&E14;" width="37" y="758" x="121" />
    <text id="11411583" style="&E18;" transform="matrix(1 0 0 1 0 0 ) " x="125" y="760">3</text>
    <rect id="11411585" height="38" style="&E10;" width="38" y="758" x="174" />
    <rect id="11411586" height="37" style="&E12;" width="37" y="758" x="174" />
    <text id="11411587" style="&E18;" transform="matrix(1 0 0 1 0 0 ) " x="178" y="760">1</text>
    <rect id="11411589" height="38" style="&E10;" width="38" y="758" x="225" />
    <rect id="11411590" height="37" style="&E13;" width="37" y="758" x="225" />
    <text id="11411591" style="&E18;" transform="matrix(1 0 0 1 0 0 ) " x="229" y="760">2</text>
    <rect id="11411593" height="38" style="&E10;" width="38" y="758" x="278" />
    <rect id="11411594" height="37" style="&E13;" width="37" y="758" x="278" />
    <text id="11411595" style="&E18;" transform="matrix(1 0 0 1 0 0 ) " x="282" y="760">2</text>
    <rect id="11411597" height="38" style="&E10;" width="38" y="758" x="330" />
    <rect id="11411598" height="37" style="&E11;" width="37" y="758" x="330" />
    <text id="11411599" style="&E18;" transform="matrix(1 0 0 1 0 0 ) " x="334" y="760">4</text>
    <rect id="11411601" height="38" style="&E10;" width="38" y="758" x="383" />
    <rect id="11411602" height="37" style="&E12;" width="37" y="758" x="383" />
    <text id="11411603" style="&E18;" transform="matrix(1 0 0 1 0 0 ) " x="387" y="760">1</text>
    <rect id="11411605" height="38" style="&E10;" width="38" y="758" x="434" />
    <rect id="11411606" height="37" style="&E12;" width="37" y="758" x="434" />
    <text id="11411607" style="&E18;" transform="matrix(1 0 0 1 0 0 ) " x="438" y="760">1</text>
    <rect id="11411609" height="38" style="&E10;" width="38" y="758" x="486" />
    <rect id="11411610" height="37" style="&E14;" width="37" y="758" x="486" />
    <text id="11411611" style="&E18;" transform="matrix(1 0 0 1 0 0 ) " x="490" y="760">3</text>
    <rect id="11411613" height="38" style="&E10;" width="38" y="758" x="538" />
    <rect id="11411614" height="37" style="&E14;" width="37" y="758" x="538" />
    <text id="11411615" style="&E18;" transform="matrix(1 0 0 1 0 0 ) " x="542" y="760">3</text>
    <rect id="11411617" height="38" style="&E10;" width="38" y="758" x="592" />
    <rect id="11411618" height="37" style="&E11;" width="37" y="758" x="592" />
    <text id="11411619" style="&E18;" transform="matrix(1 0 0 1 0 0 ) " x="596" y="760">4</text>
    <rect id="11411621" height="38" style="&E10;" width="38" y="806" x="16" />
    <rect id="11411622" height="37" style="&E12;" width="37" y="806" x="16" />
    <text id="11411623" style="&E18;" transform="matrix(1 0 0 1 0 0 ) " x="20" y="808">1</text>
    <rect id="11411625" height="38" style="&E10;" width="38" y="806" x="68" />
    <rect id="11411626" height="37" style="&E13;" width="37" y="806" x="68" />
    <text id="11411627" style="&E18;" transform="matrix(1 0 0 1 0 0 ) " x="72" y="808">2</text>
    <rect id="11411629" height="38" style="&E10;" width="38" y="806" x="121" />
    <rect id="11411630" height="37" style="&E11;" width="37" y="806" x="121" />
    <text id="11411631" style="&E18;" transform="matrix(1 0 0 1 0 0 ) " x="125" y="808">4</text>
    <rect id="11411633" height="38" style="&E10;" width="38" y="806" x="174" />
    <rect id="11411634" height="37" style="&E13;" width="37" y="806" x="174" />
    <text id="11411635" style="&E18;" transform="matrix(1 0 0 1 0 0 ) " x="178" y="808">2</text>
    <rect id="11411637" height="38" style="&E10;" width="38" y="806" x="225" />
    <rect id="11411638" height="37" style="&E13;" width="37" y="806" x="225" />
    <text id="11411639" style="&E18;" transform="matrix(1 0 0 1 0 0 ) " x="229" y="808">2</text>
    <rect id="11411641" height="38" style="&E10;" width="38" y="806" x="278" />
    <rect id="11411642" height="37" style="&E12;" width="37" y="806" x="278" />
    <text id="11411643" style="&E18;" transform="matrix(1 0 0 1 0 0 ) " x="282" y="808">1</text>
    <rect id="11411645" height="38" style="&E10;" width="38" y="806" x="330" />
    <rect id="11411646" height="37" style="&E13;" width="37" y="806" x="330" />
    <text id="11411647" style="&E18;" transform="matrix(1 0 0 1 0 0 ) " x="334" y="808">2</text>
    <rect id="11411649" height="38" style="&E10;" width="38" y="806" x="383" />
    <rect id="11411650" height="37" style="&E12;" width="37" y="806" x="383" />
    <text id="11411651" style="&E18;" transform="matrix(1 0 0 1 0 0 ) " x="387" y="808">1</text>
    <rect id="11411653" height="38" style="&E10;" width="38" y="806" x="434" />
    <rect id="11411654" height="37" style="&E11;" width="37" y="806" x="434" />
    <text id="11411655" style="&E18;" transform="matrix(1 0 0 1 0 0 ) " x="438" y="808">4</text>
    <rect id="11411657" height="38" style="&E10;" width="38" y="806" x="486" />
    <rect id="11411658" height="37" style="&E13;" width="37" y="806" x="486" />
    <text id="11411659" style="&E18;" transform="matrix(1 0 0 1 0 0 ) " x="490" y="808">2</text>
    <rect id="11411661" height="38" style="&E10;" width="38" y="806" x="538" />
    <rect id="11411662" height="37" style="&E14;" width="37" y="806" x="538" />
    <text id="11411663" style="&E18;" transform="matrix(1 0 0 1 0 0 ) " x="542" y="808">3</text>
    <rect id="11411665" height="38" style="&E10;" width="38" y="806" x="592" />
    <rect id="11411666" height="37" style="&E11;" width="37" y="806" x="592" />
    <text id="11411667" style="&E18;" transform="matrix(1 0 0 1 0 0 ) " x="596" y="808">4</text>
    <rect id="11411669" height="38" style="&E10;" width="38" y="855" x="16" />
    <rect id="11411670" height="37" style="&E13;" width="37" y="855" x="16" />
    <text id="11411671" style="&E18;" transform="matrix(1 0 0 1 0 0 ) " x="20" y="857">2</text>
    <rect id="11411673" height="38" style="&E10;" width="38" y="855" x="68" />
    <rect id="11411674" height="37" style="&E14;" width="37" y="855" x="68" />
    <text id="11411675" style="&E18;" transform="matrix(1 0 0 1 0 0 ) " x="72" y="857">3</text>
    <rect id="11411677" height="38" style="&E10;" width="38" y="855" x="121" />
    <rect id="11411678" height="37" style="&E12;" width="37" y="855" x="121" />
    <text id="11411679" style="&E18;" transform="matrix(1 0 0 1 0 0 ) " x="125" y="857">1</text>
    <rect id="11411681" height="38" style="&E10;" width="38" y="855" x="174" />
    <rect id="11411682" height="37" style="&E14;" width="37" y="855" x="174" />
    <text id="11411683" style="&E18;" transform="matrix(1 0 0 1 0 0 ) " x="178" y="857">3</text>
    <rect id="11411685" height="38" style="&E10;" width="38" y="855" x="225" />
    <rect id="11411686" height="37" style="&E11;" width="37" y="855" x="225" />
    <text id="11411687" style="&E18;" transform="matrix(1 0 0 1 0 0 ) " x="229" y="857">4</text>
    <rect id="11411689" height="38" style="&E10;" width="38" y="855" x="278" />
    <rect id="11411690" height="37" style="&E12;" width="37" y="855" x="278" />
    <text id="11411691" style="&E18;" transform="matrix(1 0 0 1 0 0 ) " x="282" y="857">1</text>
    <rect id="11411693" height="38" style="&E10;" width="38" y="855" x="330" />
    <rect id="11411694" height="37" style="&E14;" width="37" y="855" x="330" />
    <text id="11411695" style="&E18;" transform="matrix(1 0 0 1 0 0 ) " x="334" y="857">3</text>
    <rect id="11411697" height="38" style="&E10;" width="38" y="855" x="383" />
    <rect id="11411698" height="37" style="&E11;" width="37" y="855" x="383" />
    <text id="11411699" style="&E18;" transform="matrix(1 0 0 1 0 0 ) " x="387" y="857">4</text>
    <rect id="11411701" height="38" style="&E10;" width="38" y="855" x="434" />
    <rect id="11411702" height="37" style="&E12;" width="37" y="855" x="434" />
    <text id="11411703" style="&E18;" transform="matrix(1 0 0 1 0 0 ) " x="438" y="857">1</text>
    <rect id="11411705" height="38" style="&E10;" width="38" y="855" x="486" />
    <rect id="11411706" height="37" style="&E11;" width="37" y="855" x="486" />
    <text id="11411707" style="&E18;" transform="matrix(1 0 0 1 0 0 ) " x="490" y="857">4</text>
    <rect id="11411709" height="38" style="&E10;" width="38" y="855" x="538" />
    <rect id="11411710" height="37" style="&E14;" width="37" y="855" x="538" />
    <text id="11411711" style="&E18;" transform="matrix(1 0 0 1 0 0 ) " x="542" y="857">3</text>
    <rect id="11411713" height="38" style="&E10;" width="38" y="855" x="592" />
    <rect id="11411714" height="37" style="&E13;" width="37" y="855" x="592" />
    <text id="11411715" style="&E18;" transform="matrix(1 0 0 1 0 0 ) " x="596" y="857">2</text>
    <rect id="11411717" height="38" style="&E10;" width="38" y="903" x="16" />
    <rect id="11411718" height="37" style="&E12;" width="37" y="903" x="16" />
    <text id="11411719" style="&E18;" transform="matrix(1 0 0 1 0 0 ) " x="20" y="905">1</text>
    <rect id="11411721" height="38" style="&E10;" width="38" y="903" x="68" />
    <rect id="11411722" height="37" style="&E11;" width="37" y="903" x="68" />
    <text id="11411723" style="&E18;" transform="matrix(1 0 0 1 0 0 ) " x="72" y="905">4</text>
  </g>
  <defs id="clips_hatches_and_gradients" />
</svg>