<svg width="156" height="156" xmlns="http://www.w3.org/2000/svg" data-name="Layer 1">
 <defs>
  <clipPath id="clip-path">
   <path fill="none" d="m0,-2l156,0l0,156l-156,0l0,-156z" id="svg_1"/>
  </clipPath>
 </defs>
 <g>
  <title>Layer 1</title>
  <g class="cls-2" clip-path="url(#clip-path)" id="svg_2">
   <g class="cls-2" clip-path="url(#clip-path)" id="svg_3">
    <path class="cls-3" d="m78,0.4a75.6,75.6 0 1 1 -75.6,75.6a75.68,75.68 0 0 1 75.6,-75.6m0,-2.4a78,78 0 1 0 78,78a78,78 0 0 0 -78,-78" fill="#386db6" id="svg_4"/>
   </g>
  </g>
  <path class="cls-4" d="m55.18,51.44a71.87,71.87 0 0 0 -4.64,-5.63l-1.9,6c1.45,1.82 3,3.91 4.55,6.29l1.99,-6.66z" fill="#fff" id="svg_5"/>
  <path class="cls-4" d="m57,88.17a46.81,46.81 0 0 0 4.55,-7.26l0,6.45l3.6,-0.47l0,-5.38l2.27,2.29c1.07,1.14 1.89,2 2.46,2.68l1.89,-7.13c-0.25,-0.25 -0.6,-0.56 -1,-0.93a53.27,53.27 0 0 0 -4.26,-3.31l-1.32,4.47l0,-5.16l5.49,-0.72l0,-16.55l-5.49,0.72l0,-2.58l6.24,-0.82l0,-6.88l-6.24,0.82l0,-1.72l7,-3.28l-10.67,1.38l0,4.08l-6.06,0.8l0,6.88l6.06,-0.8l0,2.58l-5.52,0.73l0,16.55l4,-0.52a31.9,31.9 0 0 1 -5.11,6.48c0.25,1 0.63,2.35 1.14,4.15c0.31,1.1 0.53,1.86 0.66,2.27c-0.95,-0.44 -1.7,-1.71 -2.27,-3.78l0,-16.55l-1.14,0.15l1.61,-5.37a69.7,69.7 0 0 0 -4.64,-5.63l-1.89,6.27q1.89,2.33 3.69,4.89l-3.22,0.42l0,8l1.9,-0.25l0,8.6c-0.45,1.07 -1.11,2.51 -2,4.35l1.42,9.06c1.13,-3.16 2.05,-5.51 2.74,-7c1.08,3.16 2.84,4.64 5.3,4.46c1.58,-0.06 3.29,-0.14 5.12,-0.24l7.47,-1q0.39,-3.27 1.14,-7.46c-5.17,0.83 -9.5,1.39 -13,1.71a2.9,2.9 0 0 1 -1.92,-0.45zm10.2,-24.34l0,4.08l-2.08,0.28l0,-4.09l2.08,-0.27zm-7.76,5.1l0,-4.08l2.08,-0.28l0,4.09l-2.08,0.27zm35.72,6.86l5.11,-0.74l0,-7.23l-7,1l0,-2.6l4.77,-0.68l0,-6.08l-4.77,0.69l0,-2.31l4.18,-0.61l0,-4.33l2.56,-0.37l0,-13l-10.43,1.47c0,-0.68 -0.07,-1.31 -0.11,-1.9l14.34,-3.87l-20.49,1.77l0.22,1.16a5.19,5.19 0 0 0 0.24,1.41c0.07,1 0.15,1.72 0.23,2.28l-10.71,1.51l0,13l2.56,-0.36l0,4.33l4.07,-0.58l0,2.31l-4.65,0.67l0,6.07l4.65,-0.66l0,2.6l-6.86,1l0,7.26l5,-0.72a30.72,30.72 0 0 1 -5.7,6c0.31,1.88 0.82,4.8 1.51,8.75q2,-2.31 3.26,-3.94c0.15,-0.21 0.27,-0.33 0.35,-0.34l0,7.25l4.18,-0.6l0,-7.84l10.12,-1.46l0,6.9l4.18,-0.6l0,-6.32a19.76,19.76 0 0 0 3.37,2.7c0.24,-1.77 0.66,-4.24 1.28,-7.42a7.58,7.58 0 0 1 0.24,-1.48a15.52,15.52 0 0 1 -5.7,-4.09zm-12.67,4.42c0.54,-1 1,-2 1.51,-2.82l5.46,-0.78a5.36,5.36 0 0 0 0.47,0.8a4.14,4.14 0 0 0 0.93,1.6l-8.37,1.2zm6.39,-13.35l0,2.6l-4.53,0.65l0,-2.6l4.53,-0.65zm-4.53,-5.42l0,-2.32l4.53,-0.65l0,2.32l-4.53,0.65zm4.53,-12.22l0,2.6l-4.53,0.65l0,-2.6l-4.42,0.64l0,2.6l-2.21,0.32l0,-3.43l17.9,-2.58l0,3.47l-2.32,0.34l0,-2.65l-4.42,0.64z" fill="#fff" id="svg_6"/>
  <path class="cls-4" d="m97.25,95.73q-5.58,-1.8 -8.6,-2.81a30.72,30.72 0 0 0 0.35,-4.92l-4.42,0.64q0.81,10 -11.28,11.74q0.93,3.92 1.75,8.71q9.18,-3.92 11.62,-9.19c0.85,0.46 2,1.06 3.49,1.81c3.56,1.61 6.24,2.86 8,3.77l1.75,-8.93a5.51,5.51 0 0 1 -2.66,-0.82z" fill="#fff" id="svg_7"/>
  <path class="cls-4" d="m66.08,97.46s-9.65,-1.87 -15.36,-1.7c0,0 10.66,1.22 15.18,2.32a2.71,2.71 0 0 0 -2,1.25l-0.13,0.39c-0.15,-0.25 -0.59,-0.3 -0.59,-0.3c-6.1,-1.11 -15.89,-2.23 -15.89,-2.23l2.85,8.12l1.06,0.08a22.81,22.81 0 0 0 -2.75,6a66.39,66.39 0 0 1 3.55,-5.94l0.45,0l-1.91,-4.45l3,4.55l7.83,0.24a71.89,71.89 0 0 0 -6.94,3.24s6.37,-2.1 8.57,-2.77l1.61,-5.44a3,3 0 0 1 3.75,-2s1.24,-0.09 5.45,2.86l-0.81,3.18a15.41,15.41 0 0 1 -0.63,4.73a42.32,42.32 0 0 1 -5.45,6.87l3.58,-2.58l1.5,-2.41l1.08,0.8l-2,3.3l-5,3.3l5.09,-2.32s5.26,-6.46 5.27,-14.81a45.53,45.53 0 0 0 -10.36,-4.28z" fill="#fff" id="svg_8"/>
  <path class="cls-4" d="m48.67,105l-1.94,-7.86l-3.06,-0.14a5.78,5.78 0 0 0 -1.08,0.3a10.11,10.11 0 0 0 0,2.2s-0.85,-1.85 -1,-1.76a66.2,66.2 0 0 0 -7.62,4.52l4.69,1.41l-0.76,0.38a17.28,17.28 0 0 0 -5.62,5.09c1.89,-2.49 6.34,-4.73 6.34,-4.73l1.14,-0.49c1.36,0.18 5.86,0.72 8.91,1.08zm14.33,6.44a2.13,2.13 0 0 1 2.24,-0.87s1.35,0.37 1.52,3.84c0,0 0.69,-3.23 -1.52,-4.37c0,0 0,-0.38 -1.58,0.22a3,3 0 0 1 1.34,-1.26s0.56,0 0.71,1.16l0.63,0.53s0,-2.52 -1.34,-2.67c0,0 -2.14,-0.18 -3.48,4.19l-8,3.39l8.75,-2.67a13.83,13.83 0 0 1 0.73,-1.49z" fill="#fff" id="svg_9"/>
  <path class="cls-4" d="m66.71,116.64a17.14,17.14 0 0 1 -1,2.3l-0.4,-1.76l-1.16,-1.07l1.33,-0.09l1.26,-1.34a0.33,0.33 0 0 0 -0.45,-0.27l-0.89,1.07l-1.34,0.18l0,-0.36l0.26,-0.26l2.15,-1.7s0.2,-0.44 -0.45,-0.27l-1.7,1.16l0.63,-1l0,-1.3a1.9,1.9 0 0 1 0.76,0.77a1.21,1.21 0 0 0 -0.75,-1.14l0,-1l-0.45,0.45l0,0.45a3.46,3.46 0 0 0 -0.49,0.06l0.07,-0.78l-0.45,0.36l-0.06,0.59a1.6,1.6 0 0 0 -0.74,0.75a3.33,3.33 0 0 1 0.7,-0.46l-0.17,1.62l-0.09,0.71l-0.27,-0.26l-0.89,-0.27l-0.08,0.23c0.1,-0.42 0.17,-0.68 0.17,-0.68c-2.23,0.76 -8.57,2.23 -8.57,2.23l-0.27,0.45a8.7,8.7 0 0 1 3.3,3.39l-1.43,1.52l-7.14,-0.36l-5.1,-2.85l-0.36,0l0,0.54l1.61,1.34l-3.84,-0.36l-7.14,-1.16l-2,-0.71l2,-1l-0.9,-0.36l-4.19,1.25l-3.09,-1.25l0,-1.5a7.75,7.75 0 0 0 -0.8,1.07a1,1 0 0 0 0.09,1.25l3.3,1.34l1.32,-0.36l2.59,1.07l9.41,1.52l4.73,0.27l1.25,0.89l8.13,0.36l3,-0.33l0.59,0.42l4.46,0.35s1.84,-0.35 3.1,-3.65s0.45,-2.06 0.45,-2.06zm-2,0.81l0.27,1.6l0.41,0.33a6.45,6.45 0 0 1 -0.63,0.89l0,-0.06l-0.54,-1.78l-0.44,-1.7l0.93,0.72zm-0.21,-5.63l-0.06,1.25l-0.62,0.81l0.17,-2a1.49,1.49 0 0 1 0.54,-0.06l-0.03,0zm-1.31,5.09l0.09,1.52l-1.2,2.13a6.11,6.11 0 0 1 -0.38,-0.65l1.31,-2.2l0.18,-0.8zm-1.52,3a7.25,7.25 0 0 1 -0.51,-1.51c0.13,-0.82 0.3,-1.69 0.46,-2.48l0,0.24l0.81,0.62l0,0.63l-0.72,2l-0.04,0.5zm1.08,-5.36l0.09,0.27l0.16,0.18a1.21,1.21 0 0 0 -0.26,1l-0.27,0.18l-0.79,-0.62c0.13,-0.6 0.25,-1.13 0.34,-1.52l0.73,0.51zm0.35,6.78l-2.36,-0.17l0.22,-0.81c0,-0.27 0,-0.58 0.06,-0.91c0.8,1.51 1.55,1.73 1.55,1.73a3.07,3.07 0 0 1 -0.25,-0.26c0.07,0 0.15,-0.07 0.25,-0.2l1.16,-2l0.47,1.29l0.43,0.43a2.12,2.12 0 0 1 -1.5,0.85l-0.03,0.05z" fill="#fff" id="svg_10"/>
  <path class="cls-3" d="m99.97,111.25l4.31,-1.63l-6.17,0.57l-0.73,0.06l-0.86,-1.78l10.73,-2.64l-11.5,1.02l-0.09,-0.19l-0.93,3.87l-3.95,0.53l3.41,2.07l-0.72,3.92l3.03,-2.59l3.51,1.89l-0.45,-1.08l3.73,-2.04l-4.32,0.64l-0.5,-1.19l1.5,-1.43zm-14.41,1.56l4.3,-1.64l-6.89,0.62l-0.84,-1.75l8.77,-2.32l-9.56,0.69l-0.09,-0.2l-0.92,3.87l-3.96,0.53l3.41,2.07l-0.72,3.92l3.03,-2.6l3.51,1.9l-0.42,-1l3.82,-2.29l-4.43,0.82l-0.51,-1.21l1.5,-1.41zm-13.22,-6.81l-4.47,3l-2.5,-1.79a6.2,6.2 0 0 1 2.23,2.95l4.74,-4.16zm-39.68,-4.06a14.42,14.42 0 0 1 -3.35,0.9l2.37,-0.87l1.28,-0.64l-0.67,-0.75c-0.4,-0.48 -0.06,-0.63 -0.06,-0.63a2.38,2.38 0 0 1 1.19,-0.48l2.13,0.29l6.39,-3.38s1.27,-0.7 4.84,-0.71a15.1,15.1 0 0 0 -5.78,1.58s-6.86,4.03 -8.34,4.69z" fill="#386db6" id="svg_14"/>
  <path class="cls-3" d="m71.88,104.15l-1.75,-0.15l0.68,-0.39l-0.53,-3.61l-0.36,3l-0.86,0.83l-0.39,0c-1.19,0.05 -1.52,1.61 -1.52,1.61l-0.71,1.78c0.8,1 1.34,0.45 1.34,0.45l0.53,-1.43l3,0.09l1,-1.16l-0.43,-1.02zm-39.02,-1.7a11.6,11.6 0 0 0 -1,6.52s1.17,1.62 4.55,2.59c0,0 -3.43,-0.26 -5.36,-2.15c0.02,0 -0.38,-4.23 1.81,-6.96z" fill="#386db6" id="svg_15"/>
  <path class="cls-3" d="m53.67,115.57l-9.92,0.54l-12.14,-1.88a63.44,63.44 0 0 1 -5.89,-3s0.81,-4.55 2.68,-7c0,0 -3.3,2.73 -3.4,9.9a5.85,5.85 0 0 1 0.89,-2l5.54,2.87l12,1.87l10.09,-0.8l0.15,-0.5z" fill="#386db6" id="svg_16"/>
  <path class="cls-3" d="m52.6,110.13a12.15,12.15 0 0 0 -3.67,2.23l-7.5,0.27l-0.89,-1.07l-2.86,-0.45l3.49,0.09l0.8,0.62l6.52,0l4.11,-1.69zm6.25,0l-0.09,0.36l-3.4,2.67l-4.64,0.45a11.17,11.17 0 0 1 -1.34,-1.34l9.47,-2.14zm-30.85,-4.37s2.19,3.09 2.77,3.74l-1.52,1a12.09,12.09 0 0 1 -2.25,-1.5a9.48,9.48 0 0 1 1,-3.24z" fill="#386db6" id="svg_17"/>
  <path class="cls-3" d="m66.08,97.46s-9.65,-1.87 -15.36,-1.7c0,0 10.66,1.22 15.18,2.32a2.71,2.71 0 0 0 -2,1.25l-0.13,0.39c-0.15,-0.25 -0.59,-0.3 -0.59,-0.3c-6.1,-1.11 -15.89,-2.23 -15.89,-2.23l2.85,8.12l1.06,0.08a22.81,22.81 0 0 0 -2.75,6a66.39,66.39 0 0 1 3.55,-5.94l0.45,0l-1.91,-4.45l3,4.55l7.83,0.24a71.89,71.89 0 0 0 -6.94,3.24s6.37,-2.1 8.57,-2.77l1.61,-5.44a3,3 0 0 1 3.75,-2s1.24,-0.09 5.45,2.86l-0.81,3.18a15.41,15.41 0 0 1 -0.63,4.73a42.32,42.32 0 0 1 -5.45,6.87l3.58,-2.58l1.5,-2.41l1.08,0.8l-2,3.3l-5,3.3l5.09,-2.32s5.26,-6.46 5.27,-14.81a45.53,45.53 0 0 0 -10.36,-4.28z" fill="#386db6" id="svg_18"/>
  <path class="cls-3" d="m48.67,105l-1.94,-7.86l-3.06,-0.14a5.78,5.78 0 0 0 -1.08,0.3a10.11,10.11 0 0 0 0,2.2s-0.85,-1.85 -1,-1.76a66.2,66.2 0 0 0 -7.62,4.52l4.69,1.41l-0.76,0.38a17.28,17.28 0 0 0 -5.62,5.09c1.89,-2.49 6.34,-4.73 6.34,-4.73l1.14,-0.49c1.36,0.18 5.86,0.72 8.91,1.08zm14.33,6.44a2.13,2.13 0 0 1 2.24,-0.87s1.35,0.37 1.52,3.84c0,0 0.69,-3.23 -1.52,-4.37c0,0 0,-0.38 -1.58,0.22a3,3 0 0 1 1.34,-1.26s0.56,0 0.71,1.16l0.63,0.53s0,-2.52 -1.34,-2.67c0,0 -2.14,-0.18 -3.48,4.19l-8,3.39l8.75,-2.67a13.83,13.83 0 0 1 0.73,-1.49z" fill="#386db6" id="svg_19"/>
  <path class="cls-3" d="m66.71,116.64a17.14,17.14 0 0 1 -1,2.3l-0.4,-1.76l-1.16,-1.07l1.33,-0.09l1.26,-1.34a0.33,0.33 0 0 0 -0.45,-0.27l-0.89,1.07l-1.34,0.18l0,-0.36l0.26,-0.26l2.15,-1.7s0.2,-0.44 -0.45,-0.27l-1.7,1.16l0.63,-1l0,-1.3a1.9,1.9 0 0 1 0.76,0.77a1.21,1.21 0 0 0 -0.75,-1.14l0,-1l-0.45,0.45l0,0.45a3.46,3.46 0 0 0 -0.49,0.06l0.07,-0.78l-0.45,0.36l-0.06,0.59a1.6,1.6 0 0 0 -0.74,0.75a3.33,3.33 0 0 1 0.7,-0.46l-0.17,1.62l-0.09,0.71l-0.27,-0.26l-0.89,-0.27l-0.08,0.23c0.1,-0.42 0.17,-0.68 0.17,-0.68c-2.23,0.76 -8.57,2.23 -8.57,2.23l-0.27,0.45a8.7,8.7 0 0 1 3.3,3.39l-1.43,1.52l-7.14,-0.36l-5.1,-2.85l-0.36,0l0,0.54l1.61,1.34l-3.84,-0.36l-7.14,-1.16l-2,-0.71l2,-1l-0.9,-0.36l-4.19,1.25l-3.09,-1.25l0,-1.5a7.75,7.75 0 0 0 -0.8,1.07a1,1 0 0 0 0.09,1.25l3.3,1.34l1.32,-0.36l2.59,1.07l9.41,1.52l4.73,0.27l1.25,0.89l8.13,0.36l3,-0.33l0.59,0.42l4.46,0.35s1.84,-0.35 3.1,-3.65s0.45,-2.06 0.45,-2.06zm-2,0.81l0.27,1.6l0.41,0.33a6.45,6.45 0 0 1 -0.63,0.89l0,-0.06l-0.54,-1.78l-0.44,-1.7l0.93,0.72zm-0.21,-5.63l-0.06,1.25l-0.62,0.81l0.17,-2a1.49,1.49 0 0 1 0.54,-0.06l-0.03,0zm-1.31,5.09l0.09,1.52l-1.2,2.13a6.11,6.11 0 0 1 -0.38,-0.65l1.31,-2.2l0.18,-0.8zm-1.52,3a7.25,7.25 0 0 1 -0.51,-1.51c0.13,-0.82 0.3,-1.69 0.46,-2.48l0,0.24l0.81,0.62l0,0.63l-0.72,2l-0.04,0.5zm1.08,-5.36l0.09,0.27l0.16,0.18a1.21,1.21 0 0 0 -0.26,1l-0.27,0.18l-0.79,-0.62c0.13,-0.6 0.25,-1.13 0.34,-1.52l0.73,0.51zm0.35,6.78l-2.36,-0.17l0.22,-0.81c0,-0.27 0,-0.58 0.06,-0.91c0.8,1.51 1.55,1.73 1.55,1.73a3.07,3.07 0 0 1 -0.25,-0.26c0.07,0 0.15,-0.07 0.25,-0.2l1.16,-2l0.47,1.29l0.43,0.43a2.12,2.12 0 0 1 -1.5,0.85l-0.03,0.05z" fill="#386db6" id="svg_20"/>
  <text fill="#323277" x="19.01082" y="82.70267" id="svg_22" stroke-width="0" font-size="24" font-family="'Manrope'" text-anchor="start" xml:space="preserve" font-weight="bold" stroke="null" transform="rotate(-2.74043 75.801 68.3525) matrix(1.19741 0 0 1.42315 -4.4372 -36.3602)">英国赛车</text>
 </g>
</svg>