<svg width="156" height="156" xmlns="http://www.w3.org/2000/svg" data-name="Layer 1">
 <defs>
  <clipPath id="clip-path">
   <path id="svg_1" d="m0,0l156,0l0,156l-156,0l0,-156z" fill="none"/>
  </clipPath>
 </defs>
 <g>
  <title>Layer 1</title>
  <g id="svg_2" clip-path="url(#clip-path)" class="cls-2">
   <g id="svg_3" clip-path="url(#clip-path)" class="cls-2">
    <path id="svg_4" fill="#386db6" d="m78,2.4a75.6,75.6 0 1 1 -75.6,75.6a75.68,75.68 0 0 1 75.6,-75.6m0,-2.4a78,78 0 1 0 78,78a78,78 0 0 0 -78,-78" class="cls-3"/>
   </g>
  </g>
  <path id="svg_6" fill="#386db6" d="m81.59,115.13l6.04,-2.24l-9.48,0.83l-1.16,-2.4l14.51,-3.56l-15.57,1.36l-0.11,-0.24l-1.25,5.22l-5.35,0.7l4.61,2.8l-0.97,5.28l4.09,-3.5l4.76,2.56l-0.62,-1.46l5.06,-2.75l-5.85,0.87l-0.68,-1.62l1.97,-1.85zm-19.45,2.04l5.9,-2.19l-9.38,0.82l-1.14,-2.37l11.86,-3.12l-12.93,0.92l-0.12,-0.27l-1.25,5.23l-5.35,0.7l4.61,2.8l-0.97,5.27l4.09,-3.49l4.76,2.56l-0.59,-1.41l5.19,-3.03l-6,1.11l-0.69,-1.63l2.01,-1.9z" class="cls-3"/>
  <path id="svg_7" fill="#386db6" d="m28.14,71.9l1.39,-0.2c1.58,-0.26 1.38,0.79 1.38,0.79l0,13.67l-2.77,0.39l0,-14.65zm2.77,32.28l0,-14.66l-2.77,0.4l0,15.64l1.78,-0.19c1.19,-0.28 0.99,-1.19 0.99,-1.19zm93.23,-43.09a3.92,3.92 0 0 0 -2.14,1.06a6.28,6.28 0 0 0 -1.11,1.32a6.5,6.5 0 0 0 -0.66,1.27a2,2 0 0 0 -0.11,1a1.26,1.26 0 0 0 0.3,0.7a0.75,0.75 0 0 0 0.66,0.24a1.11,1.11 0 0 0 0.73,-0.57a17.9,17.9 0 0 0 1.25,-2.34c0.39,-0.77 0.74,-1.72 1.08,-2.68zm1.54,12.55a2.51,2.51 0 0 0 -1.68,0.36a6.47,6.47 0 0 0 -3.51,4.44a2.21,2.21 0 0 0 0.35,2.13a1,1 0 0 0 0.77,0.25a1.25,1.25 0 0 0 0.88,-0.62a14.82,14.82 0 0 0 1.74,-2.88c0.49,-1.18 0.99,-2.39 1.45,-3.68zm-25.68,17.85a12.51,12.51 0 0 0 -0.23,4.51c0.08,0.7 0.29,1 0.62,0.88a0.87,0.87 0 0 0 0.37,-0.42a3.58,3.58 0 0 0 0.25,-1a35.73,35.73 0 0 0 0.32,-3.72c0.07,-1.47 0.12,-3 0.18,-4.59a12.71,12.71 0 0 0 -0.87,2.09c-0.24,0.76 -0.46,1.49 -0.64,2.25zm-30.67,6.75l0,-14.66l-2.77,0.4l0,15.64l1.78,-0.2c1.19,-0.27 0.99,-1.18 0.99,-1.18zm23.36,-23.19l0,-8.69l2.18,-0.2l0,-3.16l-2.18,0.4l0,-7.74l-5.94,1l0,7.53l-11.08,1.81l0,3.17l11.08,-1.78l0,8.61l5.94,-0.95zm-5.94,7.95l0,1.22l2.15,4.38a1.58,1.58 0 0 1 0.24,0.83a1.6,1.6 0 0 1 -1.58,1.57a1.64,1.64 0 0 1 -0.68,-0.15l-0.13,-0.06l0,6.24c0,2 -1,2 -1,2c-1.46,0 -3.16,-2.18 -3.16,-2.18l-1,1.39c2.17,4.94 5.94,4.55 5.94,4.55c5.14,0 5.14,-5.94 5.14,-5.94l0,-16.47l-5.92,2.62zm16.35,-7.84a1.38,1.38 0 0 1 -0.41,1.25l-3,1.15l0,1.3l7.12,-0.88l0,3c-0.21,0.09 -0.4,0.2 -0.6,0.31s-0.39,0.21 -0.59,0.31l0,-2.09l-4.11,0.51l0,5.23a15.46,15.46 0 0 0 -2.04,4.75a20,20 0 0 0 -0.5,2.78a18,18 0 0 0 -0.08,3c0.1,1.6 0.51,2.56 1.23,2.86a1.52,1.52 0 0 0 1.5,-0.16a4.29,4.29 0 0 0 1.23,-1.48a13.44,13.44 0 0 0 0.85,-2a21.35,21.35 0 0 0 0.65,-2.16q0.27,-1.1 0.45,-2c0.11,-0.63 0.2,-1.16 0.25,-1.59c0.13,-1.14 0.23,-2.2 0.31,-3.18s0.14,-2 0.19,-3.12a11.83,11.83 0 0 1 1.23,-0.62l0,17.75l5.85,-0.72l0,-15.18a10.79,10.79 0 0 1 1,3.09a37.62,37.62 0 0 1 0.52,4.75c0.06,1.51 0.07,2.93 0,4.28l5.43,-3.68a27.21,27.21 0 0 0 -1.33,-5.42a18.05,18.05 0 0 0 -2.41,-4.48a5.39,5.39 0 0 0 -1.48,-1.46a8.05,8.05 0 0 0 -1.75,-0.84l0,-3.17l6.66,-0.82l0,-3.27l-6.66,0.82l0,-3.17l-5.85,0.72l0,3.17l-3.66,0.46zm-73.53,11a1.58,1.58 0 0 1 1.27,-1.32l5.22,-1l0,-11.74s0.67,-5 -4.16,-4.16l-9.11,1.58l0,40.2l9.51,-1.38s3.76,-0.51 3.76,-5.15l0,-4.44a1.55,1.55 0 0 1 -0.76,-1.55l0.76,-6.14l0,-0.24l-5.67,-3a1.58,1.58 0 0 1 -0.82,-1.64l0,-0.02zm54.61,-9.86l0,-5.54l-4.18,0.68l2.82,5.08l1.36,-0.22zm-38.42,5.96l0,-5.56l-4.22,0.68l2.82,5.08l1.4,-0.2zm8.52,-10l2.18,-0.2l0,-3.13l-2.18,0.4l0,-7.73l-5.94,1l0,7.53l-11.09,1.77l0,3.17l11.09,-1.78l0,8.61l5.94,-0.82l0,-8.82zm-5.94,16.74l0,1.19l2.15,4.39a1.57,1.57 0 0 1 0.23,0.83a1.59,1.59 0 0 1 -1.58,1.59a1.85,1.85 0 0 1 -0.68,-0.15l-0.12,-0.06l0,6.21c0,2.05 -1,2 -1,2c-1.47,0 -3.17,-2.18 -3.17,-2.18l-1,1.39c2.18,4.94 5.94,4.55 5.94,4.55c5.15,0 5.15,-5.94 5.15,-5.94l0,-16.33l-5.92,2.51zm18.22,-8.35l0,-14.65l1.38,-0.2c1.59,-0.26 1.39,0.79 1.39,0.79l0,12.31l5.15,-1l0,-11.74s0.67,-5 -4.16,-4.16l-9.11,1.58l0,16.55l0.08,0l1.43,-0.2c0.66,-0.09 1.76,0.16 1.76,1.09a1.7,1.7 0 0 1 -1.14,1.71l-2.13,0.9l0,20.16l9.5,-1.39s3.77,-0.5 3.77,-5.14l0,-4.45a1.57,1.57 0 0 1 -0.77,-1.55l0.77,-6.14l0,-0.24l-5.67,-3a1.54,1.54 0 0 1 -0.81,-1.47l-1.44,0.24zm46.44,-13.65c-0.27,1 -0.55,1.93 -0.86,2.85l4.58,1.6c0.36,-1 0.69,-2 1,-3.13s0.59,-2.28 0.85,-3.54a10.59,10.59 0 0 0 0.25,-2.38a4.2,4.2 0 0 0 -0.45,-1.93a2.17,2.17 0 0 0 -0.71,-0.86a2.31,2.31 0 0 0 -1,-0.41a2.23,2.23 0 0 0 -1.12,0.11a2,2 0 0 0 -1,0.83l-1.44,2.37c-0.45,0.74 -0.84,1.45 -1.18,2.13a0.27,0.27 0 0 1 -0.21,0.13c-0.09,0 -0.16,0 -0.21,-0.19c-0.1,-0.37 -0.2,-0.82 -0.31,-1.33s-0.2,-1 -0.31,-1.5a1.53,1.53 0 0 0 -0.48,-0.89a1.5,1.5 0 0 0 -0.79,-0.38a1.54,1.54 0 0 0 -1.57,0.78a45,45 0 0 0 -2.54,4.43a0.47,0.47 0 0 1 -0.27,0.25a0.18,0.18 0 0 1 -0.27,-0.13c-0.13,-0.58 -0.25,-1.23 -0.37,-2s-0.21,-1.47 -0.29,-2.23l-4.65,2.84c0.12,1.29 0.3,2.55 0.52,3.79a19.8,19.8 0 0 0 0.75,3.13a1.5,1.5 0 0 0 0.61,0.88a1,1 0 0 0 0.93,0.1a2.57,2.57 0 0 0 0.84,-0.56a3.11,3.11 0 0 0 0.73,-1.12c0.31,-0.74 0.66,-1.49 1,-2.24s0.76,-1.47 1.12,-2.14a0.18,0.18 0 0 1 0.25,-0.11a0.28,0.28 0 0 1 0.21,0.21c0.1,0.55 0.21,1.07 0.31,1.57a13,13 0 0 0 0.42,1.56a1.62,1.62 0 0 0 0.58,0.83a1.18,1.18 0 0 0 0.85,0.21a1.83,1.83 0 0 0 0.79,-0.31a2.42,2.42 0 0 0 0.71,-0.77q0.88,-1.59 1.65,-3c0.52,-1 1,-1.86 1.54,-2.7c0,-0.08 0.11,-0.1 0.18,-0.05s0.08,0.12 0,0.23c-0.07,1.07 -0.34,2.07 -0.64,3.07zm19.48,7.66a6.26,6.26 0 0 0 -1.33,-1.55a27.2,27.2 0 0 0 1.35,-3.39a20.6,20.6 0 0 0 0.85,-3.65a10.3,10.3 0 0 0 -0.16,-3.62a4.86,4.86 0 0 0 -1,-2a4.44,4.44 0 0 0 -1.81,-1.26a43.77,43.77 0 0 0 1.62,-4.37q0.67,-2.28 1.21,-4.88l-6.77,0.83q-0.22,2 -0.66,4.23c-0.28,1.46 -0.64,2.93 -1.07,4.39a8.1,8.1 0 0 0 -1.64,0.73a9.88,9.88 0 0 0 -1.6,1.15a7.08,7.08 0 0 0 -1.88,2.87a5,5 0 0 0 -0.21,2.19a3,3 0 0 0 0.79,1.81a2.51,2.51 0 0 0 1.38,0.65a3.28,3.28 0 0 0 1.77,-0.25a4.51,4.51 0 0 0 1.16,-0.75a16.12,16.12 0 0 0 1.21,-1.15c0.4,-0.42 0.77,-0.85 1.13,-1.3s0.67,-0.85 0.93,-1.2a7.36,7.36 0 0 1 -0.12,2.44c-0.18,0.84 -0.37,1.7 -0.58,2.58s-0.44,1.78 -0.73,2.66a8.13,8.13 0 0 0 -1.9,0.47a7,7 0 0 0 -1.83,1a7.62,7.62 0 0 0 -1.65,1.74a7.86,7.86 0 0 0 -1.12,2.41a6.37,6.37 0 0 0 -0.27,2.6a3.93,3.93 0 0 0 0.69,1.89a2.36,2.36 0 0 0 1.7,1a3,3 0 0 0 2.23,-0.67a18.25,18.25 0 0 0 2.19,-1.93a21.54,21.54 0 0 0 2,-2.45a9.13,9.13 0 0 1 -1.15,4.53q-1.08,2.08 -2.2,4c-0.74,1.3 -1.54,2.57 -2.38,3.81s-1.77,2.46 -2.77,3.69s-2.12,2.47 -3.35,3.72l0.54,1.62a59.25,59.25 0 0 0 5.25,-3.42a38.79,38.79 0 0 0 4.6,-3.92a32.58,32.58 0 0 0 3,-3.49a25,25 0 0 0 2.35,-3.83a14.2,14.2 0 0 0 1.23,-4a10.09,10.09 0 0 0 -0.19,-4a7.11,7.11 0 0 0 -0.78,-1.92l-0.03,-0.01zm-9.92,11.27a5.08,5.08 0 0 1 -1,0a5.82,5.82 0 0 1 -1.35,-0.36c0.17,0.38 0.33,0.77 0.47,1.17s0.35,1 0.51,1.51c0.48,-0.77 0.95,-1.54 1.4,-2.31l-0.03,-0.01zm-5.66,-5.53a5.3,5.3 0 0 1 0,-0.69l-0.7,0.08a8.29,8.29 0 0 1 0.73,0.62l-0.03,-0.01zm-19.2,-6.1a2.58,2.58 0 0 1 1.3,-0.8a5.09,5.09 0 0 1 -0.4,-0.91a24.77,24.77 0 0 1 -0.84,-3.48c-0.12,-0.68 -0.23,-1.38 -0.32,-2.07a2.59,2.59 0 0 1 -2.13,2.06l0,5.55l2.39,-0.35zm-2.43,5.12l0,17.83c0,3.4 -2,8.45 -7.62,8.51l-0.3,0c-5,0 -7.47,-4.67 -8.1,-6.1a2.55,2.55 0 0 1 0.26,-2.53l1,-1.39a2.57,2.57 0 0 1 3.68,-0.53l0,-5.6l-3.19,-1.47l-4,3.82l0,5.68c0,5.46 -3.92,7.43 -6,7.7l-9.48,1.38a2.31,2.31 0 0 1 -0.37,0a2.56,2.56 0 0 1 -1.68,-0.63a2.53,2.53 0 0 1 -0.89,-1.94l0,-19.46l-1.79,0.74l0,17.76c0,3.4 -2,8.45 -7.62,8.51l-0.29,0c-5,0 -7.48,-4.67 -8.11,-6.1a2.58,2.58 0 0 1 0.27,-2.53l1,-1.39a2.57,2.57 0 0 1 2,-1.08a2.6,2.6 0 0 1 1.64,0.55l0,-5.6l-3.15,-1.47l-4,3.82l0,5.68c0,5.46 -3.93,7.43 -6,7.7l-9.47,1.39l-0.38,0a2.56,2.56 0 0 1 -2.57,-2.57l0,-40.18a2.58,2.58 0 0 1 2.13,-2.54l9.11,-1.58a8.41,8.41 0 0 1 1.46,-0.13a5.4,5.4 0 0 1 4.26,1.81a5.53,5.53 0 0 1 1.13,2l7.45,-1.2l0,-5.28a2.58,2.58 0 0 1 2.16,-2.54l5.94,-1a2.57,2.57 0 0 1 2.08,0.58a2.54,2.54 0 0 1 0.91,2l0,4.78a2.63,2.63 0 0 1 1.26,0.57a2.8,2.8 0 0 1 0.53,0.61l0,-4a2.58,2.58 0 0 1 2.13,-2.54l9.11,-1.58a8.41,8.41 0 0 1 1.46,-0.13a5.45,5.45 0 0 1 4.26,1.8a5.8,5.8 0 0 1 1.13,2l7.45,-1.2l0,-5.3a2.58,2.58 0 0 1 2.15,-2.54l5.94,-1a2.6,2.6 0 0 1 2.09,0.58a2.54,2.54 0 0 1 0.91,2l0,4.78a2.59,2.59 0 0 1 2.18,2.55l0,0.31a2.4,2.4 0 0 1 0.58,-0.76a2.59,2.59 0 0 1 -0.65,-1.36l-0.27,-1.82a2.57,2.57 0 0 1 1.76,-2.79c1.48,-0.55 2.84,-1.13 4.06,-1.72s2.44,-1.23 3.53,-1.83s1.94,-1.18 2.79,-1.74s1.66,-1.12 2.42,-1.71a2.59,2.59 0 0 1 3.22,0.07l5.78,4.84a2.57,2.57 0 0 1 -0.27,4.14l0.11,0.17a10.85,10.85 0 0 1 1.37,-0.91c0.25,-0.15 0.51,-0.28 0.77,-0.41c0.27,-1 0.5,-2 0.69,-3c0.27,-1.39 0.48,-2.75 0.62,-4a2.57,2.57 0 0 1 2.24,-2.26l6.78,-0.84a2.57,2.57 0 0 1 2.83,3.08c-0.37,1.8 -0.79,3.51 -1.26,5.08c-0.26,0.89 -0.55,1.77 -0.86,2.63c0.21,0.2 0.41,0.4 0.6,0.62a7.54,7.54 0 0 1 1.53,3a12.8,12.8 0 0 1 0.22,4.56a23.06,23.06 0 0 1 -1,4.12c-0.23,0.72 -0.49,1.42 -0.75,2.07q0.25,0.34 0.48,0.72a9.79,9.79 0 0 1 1.14,2.76a12.74,12.74 0 0 1 0.24,5a16.79,16.79 0 0 1 -1.46,4.69a27.34,27.34 0 0 1 -2.58,4.29a34.79,34.79 0 0 1 -3.28,3.78a43,43 0 0 1 -4.9,4.18a64.47,64.47 0 0 1 -5.48,3.56a2.55,2.55 0 0 1 -3.5,-0.9a2.59,2.59 0 0 1 -1.91,1.25l-5.85,0.72l-0.31,0a2.63,2.63 0 0 1 -1.71,-0.64a2.59,2.59 0 0 1 -0.86,-1.93l0,-0.57a6.27,6.27 0 0 1 -1.12,1a4.12,4.12 0 0 1 -3.92,0.43c-1.73,-0.72 -2.68,-2.42 -2.85,-5.08a21,21 0 0 1 0.09,-3.39a22.2,22.2 0 0 1 0.6,-3.1a18.44,18.44 0 0 1 2,-4.83l0,-3.13a2.57,2.57 0 0 1 -1.89,-2.48l0,-0.67l-1.84,0.8zm-36.63,1.06l0,-6.62a2.58,2.58 0 0 1 -1.79,1.14l0,5.68l1.79,-0.2zm-9.9,14.52l-3.31,-6.76l17.1,-7.15l-19.42,2.69l-3.65,-6.58l-1.31,7.4l-7.41,1.4l6.66,3.53l-0.93,7.47l5.43,-5.21l6.84,3.21zm38.41,-6l-3.31,-6.75l17.7,-7.25l-20,2.81l-3.65,-6.58l-1.31,7.4l-7.41,1.42l6.67,3.53l-0.93,7.45l5.43,-5.21l6.81,3.18zm12.51,-30l0.27,1.81c1.64,-0.09 3.28,-0.27 4.91,-0.52s3.22,-0.57 4.79,-0.94s3.31,-0.82 4.87,-1.31s3,-1 4.4,-1.58l-5.77,-4.83c-0.82,0.63 -1.68,1.24 -2.58,1.82s-1.87,1.19 -2.92,1.82s-2.38,1.27 -3.68,1.9a46.1,46.1 0 0 1 -4.29,1.83z" class="cls-3"/>
  <text font-weight="bold" transform="rotate(-9.12316 69.274 44.5127) matrix(1.88453 0 0 1.22643 -30.2041 -4.48046)" stroke="null" xml:space="preserve" text-anchor="start" font-family="'Markazi Text'" font-size="24" stroke-width="0" id="svg_8" y="45.60843" x="28.78765" fill="#3d82c6">英国</text>
 </g>
</svg>