<?xml version="1.0" encoding="utf-8"?>
<!-- Generator: Adobe Illustrator 24.0.2, SVG Export Plug-In . SVG Version: 6.00 Build 0)  -->
<svg version="1.1" id="Layer_1" xmlns="http://www.w3.org/2000/svg" xmlns:xlink="http://www.w3.org/1999/xlink" x="0px" y="0px"
	 viewBox="0 0 156 156" style="enable-background:new 0 0 156 156;" xml:space="preserve">
<style type="text/css">
	.st0{fill:#386DB6;}
	.st1{clip-path:url(#SVGID_2_);}
	.st2{clip-path:url(#SVGID_4_);}
</style>
<g>
	<path class="st0" d="M54.9,38.9v-1.3h7.9v-2H56v-1.3h6.8v-1.9h3.7v1.9h6.7v1.3h-6.7v2h7.8v1.3H54.9z M66.4,47.5V51h-3.7v-3.5h-7.8
		v-1.3h7.8v-2.2h-6.8v-1.3h10.4c0.8-0.7,1.6-1.5,2.2-2.3c0.1-0.1,0.1-0.2,0-0.3c-0.1-0.1-0.1-0.1-0.3-0.1c-0.6,0.1-1.2,0.3-1.8,0.5
		c-0.6,0.2-1.2,0.4-1.8,0.5c-0.6,0.2-1.2,0.3-1.8,0.5c-0.6,0.2-1.1,0.3-1.5,0.5c-0.5,0.2-1.1,0.3-1.6,0.3c-0.5,0-0.9-0.1-1.2-0.4
		c-0.1-0.1-0.2-0.2-0.3-0.3c-0.1-0.1-0.2-0.3-0.4-0.5c-0.1-0.2-0.2-0.3-0.4-0.5c-0.1-0.2-0.2-0.4-0.3-0.5l3.2-1.1
		c0.2,0.4,0.4,0.7,0.7,1.1s0.5,0.7,0.7,0.9c0.2,0.2,0.4,0.2,0.8,0.1c1.2-0.4,2.3-0.7,3.5-1c1.1-0.3,2.3-0.6,3.6-0.9
		c0.4-0.1,0.7-0.1,1.1-0.1c0.3,0,0.6,0.1,0.8,0.3c0.2,0.1,0.3,0.4,0.4,0.7c0,0.3-0.1,0.6-0.3,1.1c-0.3,0.6-0.7,1-1.1,1.4h2.7v1.3
		h-6.8v2.2h7.8v1.3H66.4z"/>
</g>
<g>
	<g>
		<path class="st0" d="M89.8,39c-0.1,0.8-0.3,1.6-0.6,2.3c-0.3,0.8-0.6,1.5-1,2.2c0.5,0.3,1,0.5,1.6,0.8c0.6,0.3,1.1,0.5,1.5,0.7
			c0.2,0.1,0.4,0.1,0.7,0.1c0.2,0,0.4-0.1,0.6-0.2c-0.3-0.5-0.7-1.1-1.1-1.6c-0.4-0.5-0.7-1-1-1.4l2.4-1.1c0.2,0.2,0.4,0.5,0.7,0.8
			c0.2,0.3,0.5,0.7,0.7,1c0.2,0.4,0.5,0.7,0.7,1c0.2,0.3,0.4,0.6,0.5,0.9c0.1,0.2,0.2,0.3,0.2,0.5c0.1,0.2,0.1,0.3,0,0.5
			c0,0.1-0.1,0.3-0.2,0.4c-0.1,0.1-0.2,0.3-0.3,0.3c-0.4,0.2-0.8,0.4-1.1,0.5c-0.3,0.1-0.7,0.2-1.1,0.3l-0.4-0.4
			c0.1,0,0.2-0.1,0.3-0.1s0.1-0.1,0.2-0.2c0.1-0.1,0.1-0.1,0.1-0.2c0-0.1,0-0.1,0-0.2c-0.1-0.1-0.1-0.2-0.2-0.3
			c-0.1-0.1-0.1-0.2-0.2-0.3c-0.2,0.2-0.4,0.3-0.6,0.5c-0.2,0.2-0.4,0.3-0.5,0.4c-0.4,0.2-0.8,0.4-1.3,0.4c-0.3,0-0.6,0-0.8,0
			c-0.3,0-0.5-0.1-0.8-0.2c-0.3-0.2-0.7-0.3-1.1-0.5c-0.4-0.2-0.8-0.4-1.1-0.6c-0.2,0.2-0.4,0.4-0.6,0.6c-0.2,0.2-0.4,0.3-0.7,0.5
			c-0.6,0.4-1.2,0.5-1.8,0.4c-0.3,0-0.5-0.1-0.7-0.2c-0.2-0.1-0.4-0.3-0.6-0.5c-0.2-0.2-0.3-0.5-0.3-0.8c0-0.3,0-0.6,0-0.8
			c0.1-0.3,0.1-0.5,0.2-0.7c0.1-0.2,0.2-0.4,0.4-0.6c0.4-0.5,1-0.8,1.6-0.9c0.5-0.1,1.1,0,1.6,0.2c0.2-0.6,0.4-1.2,0.5-1.8
			c0.1-0.6,0.2-1.2,0.3-1.8h-4.8v-0.9h14.2V39H89.8z M84.2,44.2c-0.1-0.1-0.3-0.1-0.4-0.1c-0.1,0-0.3,0-0.4,0c-0.1,0-0.3,0-0.4,0.1
			c-0.1,0-0.3,0.1-0.3,0.2c-0.2,0.2-0.3,0.4-0.3,0.7c0,0.3,0.1,0.5,0.3,0.7c0.1,0.1,0.2,0.2,0.3,0.3c0.1,0.1,0.3,0.1,0.4,0.1
			c0.1,0,0.3,0,0.4-0.1c0.1-0.1,0.3-0.1,0.4-0.3c0.3-0.4,0.6-0.7,0.8-1.1L84.2,44.2z M82.8,35v-0.9h12.5V35H82.8z"/>
	</g>
	<g>
		<path class="st0" d="M76.5,51.3l-1.1-2.5c0.3-0.3,0.7-0.6,1.2-1.1c0.6-0.5,1-0.8,1.2-1v-5.5h-2.2V39h4.7v7.5
			c1,1.5,2.7,2.3,4.9,2.2c3.1,0.1,6.8,0.1,11,0c-0.1,0.2-0.2,0.6-0.3,1c-0.2,0.5-0.3,0.9-0.4,1.1c-2.9,0-5,0-6.5,0
			c-1.7,0-3.1,0-4.4-0.1c-2.3,0-4.1-0.7-5.4-2.1C78.2,49.3,77.4,50.2,76.5,51.3z M79,37.4c-0.9-1.3-1.7-2.6-2.7-3.9l2.1-1.1
			c1.1,1.3,2.1,2.5,2.9,3.8L79,37.4z"/>
	</g>
</g>
<g>
	<defs>
		<rect id="SVGID_1_" width="156" height="156"/>
	</defs>
	<clipPath id="SVGID_2_">
		<use xlink:href="#SVGID_1_"  style="overflow:visible;"/>
	</clipPath>
	<g class="st1">
		<g>
			<defs>
				<rect id="SVGID_3_" width="156" height="156"/>
			</defs>
			<clipPath id="SVGID_4_">
				<use xlink:href="#SVGID_3_"  style="overflow:visible;"/>
			</clipPath>
			<g class="st2">
				<path class="st0" d="M78,2.4c41.8,0,75.6,33.8,75.6,75.6s-33.8,75.6-75.6,75.6S2.4,119.8,2.4,78C2.4,36.3,36.3,2.4,78,2.4 M78,0
					C34.9,0,0,34.9,0,78s34.9,78,78,78s78-34.9,78-78S121.1,0,78,0"/>
			</g>
		</g>
	</g>
</g>
<path class="st0" d="M27.2,84.4l2.8-0.4V70.4c0,0,0.2-1.1-1.4-0.8l-1.4,0.2L27.2,84.4z M29.9,102V87.4l-2.8,0.4v15.7l1.8-0.2
	C30.1,103,29.9,102,29.9,102z M123.2,59c-0.8,0.1-1.5,0.5-2.1,1c-0.4,0.4-0.8,0.8-1.1,1.3c-0.3,0.4-0.5,0.8-0.7,1.3
	c-0.1,0.3-0.2,0.7-0.1,1c0,0.3,0.1,0.5,0.3,0.7c0.2,0.2,0.4,0.3,0.7,0.2c0.3-0.1,0.6-0.3,0.7-0.6c0.5-0.7,0.9-1.5,1.3-2.3
	C122.5,60.8,122.8,59.9,123.2,59z M124.7,71.5c-0.6-0.1-1.2,0-1.7,0.3c-0.6,0.3-1.2,0.7-1.7,1.2c-0.9,0.9-1.6,2-1.8,3.3
	c-0.3,0.7-0.1,1.5,0.3,2.1c0.2,0.2,0.5,0.3,0.8,0.3c0.4-0.1,0.7-0.3,0.9-0.6c0.7-0.9,1.3-1.9,1.7-2.9
	C123.8,74,124.3,72.7,124.7,71.5z M99,89.3c-0.4,1.5-0.4,3-0.2,4.5c0.1,0.7,0.3,1,0.6,0.9c0.2-0.1,0.3-0.2,0.4-0.4
	c0.1-0.3,0.2-0.7,0.3-1c0.2-1.2,0.3-2.5,0.3-3.7c0.1-1.5,0.1-3,0.2-4.6c-0.3,0.7-0.6,1.4-0.9,2.1C99.4,87.8,99.2,88.6,99,89.3z
	 M65.6,78.5l2.8-0.4V64.4c0,0,0.2-1.1-1.4-0.8l-1.4,0.2V78.5z M68.3,96.1V81.4l-2.8,0.4v15.7l1.8-0.2C68.6,97,68.3,96.1,68.3,96.1z
	 M121.6,83.8c-0.3,0-0.7,0-1,0c-0.5-0.1-0.9-0.2-1.3-0.4c0.4,0.9,0.7,1.8,1,2.7C120.7,85.3,121.2,84.6,121.6,83.8z M116,78.3v-0.7
	l-0.7,0.1C115.6,77.9,115.8,78.1,116,78.3z"/>
<path class="st0" d="M134.9,74.3c-0.2-1-0.6-1.9-1.1-2.8c-0.1-0.3-0.3-0.5-0.5-0.7c0.3-0.7,0.5-1.4,0.8-2.1c0.4-1.3,0.8-2.7,0.9-4.1
	c0.2-1.5,0.1-3.1-0.2-4.6c-0.3-1.1-0.8-2.1-1.5-3c-0.2-0.2-0.4-0.4-0.6-0.6c0.3-0.9,0.6-1.7,0.9-2.6c0.5-1.6,0.9-3.3,1.3-5.1
	c0.3-1.4-0.6-2.8-2-3c-0.3-0.1-0.6-0.1-0.8,0l-6.8,0.8c-1.2,0.1-2.1,1.1-2.2,2.3c-0.2,1.3-0.4,2.7-0.6,4c-0.2,1-0.4,2-0.7,3
	c-0.3,0.1-0.5,0.3-0.8,0.4c-0.5,0.3-0.9,0.6-1.4,0.9l-0.1-0.2c1.2-0.8,1.6-2.3,0.8-3.5c-0.1-0.2-0.3-0.4-0.5-0.6l-5.8-4.8
	c-0.9-0.8-2.3-0.8-3.2-0.1c-0.8,0.6-1.6,1.2-2.4,1.7s-1.8,1.1-2.8,1.7s-2.3,1.2-3.5,1.8s-2.6,1.2-4,1.7c-1.1,0.4-1.8,1.6-1.7,2.8
	l0.3,1.8c0.1,0.5,0.3,1,0.7,1.4c-0.2,0.2-0.4,0.5-0.6,0.8v-0.3c0-0.8-0.3-1.5-0.9-2c-0.4-0.3-0.8-0.5-1.3-0.6v-4.8
	c0-1.4-1.2-2.6-2.6-2.6c-0.1,0-0.3,0-0.4,0l-5.9,1c-1.2,0.2-2.2,1.3-2.2,2.5v5.3l-7.4,1.2c-0.2-0.7-0.6-1.4-1.1-2
	c-1.1-1.2-2.6-1.9-4.3-1.8c-0.5,0-1,0-1.5,0.1l-9.1,1.6c-1.2,0.2-2.1,1.3-2.1,2.5v4c-0.4-0.6-1-1.1-1.8-1.2v-4.9
	c0-0.8-0.3-1.5-0.9-2c-0.6-0.5-1.3-0.7-2.1-0.6l-5.9,1c-1.2,0.2-2.1,1.3-2.2,2.5v5.3l-7.5,1.2c-0.2-0.7-0.6-1.4-1.1-2
	c-1.1-1.2-2.6-1.9-4.2-1.8c-0.5,0-1,0-1.5,0.1l-9.1,1.6c-1.2,0.2-2.1,1.3-2.1,2.5V108c0,0.8,0.3,1.5,0.9,2c0.5,0.4,1.1,0.6,1.7,0.6
	c0.1,0,0.2,0,0.4,0l9.5-1.4c2.1-0.3,6-2.3,6-7.7v-5.8l4-3.8l3.2,1.5V99c-0.5-0.4-1-0.6-1.6-0.5c-0.8,0-1.5,0.4-2,1.1l-1,1.4
	c-0.5,0.7-0.6,1.7-0.3,2.5c0.6,1.4,3.1,6.1,8.1,6.1h0.3c5.6-0.1,7.6-5.1,7.6-8.5V72.9c0.7-0.1,1.4-0.5,1.8-1.2V102
	c0,1.4,1.1,2.6,2.5,2.6c0,0,0,0,0,0c0.1,0,0.3,0,0.4,0l9.5-1.4c2.1-0.3,6-2.3,6-7.7v-5.7l4-3.8l3.2,1.5v5.6
	c-1.1-0.9-2.7-0.7-3.6,0.5c0,0,0,0-0.1,0.1l-1,1.4c-0.5,0.7-0.6,1.7-0.3,2.5c0.6,1.4,3.1,6.1,8.1,6.1h0.3c5.6-0.1,7.6-5.1,7.6-8.5
	V67c1.1-0.2,1.9-1,2.1-2.1c0.1,0.7,0.2,1.4,0.3,2.1c0.2,1.2,0.5,2.3,0.8,3.5c0.1,0.3,0.2,0.6,0.4,0.9c-1.1,0.3-1.9,1.3-1.9,2.5v3.3
	c0,0.7,0.3,1.4,0.8,1.8c0.3,0.3,0.6,0.4,1,0.6v3.1c-0.9,1.5-1.6,3.1-2,4.8c-0.3,1-0.5,2.1-0.6,3.1c-0.1,1.1-0.1,2.3-0.1,3.4
	c0.2,2.7,1.1,4.4,2.8,5.1c1.3,0.5,2.8,0.4,3.9-0.4c0.4-0.3,0.8-0.6,1.1-1v0.6c0,0.7,0.3,1.4,0.9,1.9c0.5,0.4,1.1,0.6,1.7,0.6
	c0.1,0,0.2,0,0.3,0l5.8-0.7c0.8-0.1,1.5-0.6,1.9-1.3c0.7,1.2,2.3,1.6,3.5,0.9c1.9-1.1,3.7-2.3,5.5-3.6c1.7-1.3,3.4-2.7,4.9-4.2
	c1.2-1.2,2.3-2.4,3.3-3.7c1-1.3,1.9-2.8,2.6-4.3c0.7-1.5,1.2-3.1,1.5-4.7C135.3,77.7,135.3,76,134.9,74.3L134.9,74.3z M35.1,88.9
	l-0.8,6.1c-0.1,0.6,0.2,1.2,0.8,1.6v4.4c0,4.6-3.8,5.2-3.8,5.2l-9.5,1.4V67.4l9.1-1.6c4.8-0.8,4.2,4.2,4.2,4.2v11.7l-5.2,1
	c-0.9,0.1-1.5,0.9-1.3,1.8c0.1,0.5,0.4,1,0.9,1.2l5.7,3V88.9z M40.9,89.7l-5.4,5.2l0.9-7.4l-6.7-3.5l7.4-1.4l1.3-7.4l3.7,6.6l7.5-1
	l-5.2,5.5l3.3,6.8L40.9,89.7z M40.6,75.2l4.2-0.7v5.6l-1.4,0.2L40.6,75.2z M55.5,70l-2.2,0.2v30.5c0,0,0,5.9-5.1,5.9
	c0,0-3.8,0.4-5.9-4.6l1-1.4c0,0,1.7,2.2,3.2,2.2c0,0,1,0.1,1-2v-6.3l0.1,0.1c0.2,0.1,0.4,0.1,0.7,0.2c0.9,0,1.6-0.7,1.6-1.6
	c0-0.3-0.1-0.6-0.2-0.8L47.4,88v-1.9l3.8-4c0.6-0.6,0.6-1.6-0.1-2.2c-0.4-0.3-0.8-0.5-1.3-0.4l-2.4,0.3v-8.7l-11.1,1.8v-3.2L47.4,68
	v-7.5l5.9-1v7.7l2.2-0.4V70z M73.5,83l-0.8,6.1c-0.1,0.6,0.2,1.2,0.8,1.6v4.4c0,4.6-3.8,5.2-3.8,5.2l-9.5,1.4V61.4l9.1-1.6
	c4.9-0.9,4.2,4.1,4.2,4.1v11.8l-5.2,1c-0.9,0.1-1.5,0.9-1.3,1.8c0.1,0.5,0.4,1,0.9,1.2l5.7,3L73.5,83z M79.3,83.7l-5.4,5.2l0.9-7.4
	L68.2,78l7.4-1.4l1.3-7.4l3.7,6.6l7.5-1l-5.2,5.5l3.3,6.8L79.3,83.7z M79,69.3l4.2-0.7v5.6l-1.4,0.2L79,69.3z M93.9,64l-2.2,0.2
	v30.5c0,0,0,5.9-5.2,5.9c0,0-3.8,0.4-5.9-4.6l1-1.4c0,0,1.7,2.2,3.2,2.2c0,0,1,0.1,1-2v-6.2l0.1,0.1c0.2,0.1,0.5,0.2,0.7,0.2
	c0.9,0,1.6-0.7,1.6-1.6c0-0.3-0.1-0.5-0.2-0.8l-2.2-4.4v-1.9l3.8-4c0.6-0.6,0.6-1.6-0.1-2.2c-0.3-0.3-0.8-0.5-1.3-0.4l-2.4,0.3v-8.7
	L74.7,67v-3.2L85.8,62v-7.5l5.9-1v7.7l2.2-0.4V64z M103,55c1.3-0.6,2.5-1.3,3.7-1.9s2-1.2,2.9-1.8s1.8-1.2,2.6-1.8l5.8,4.8
	c-1.4,0.6-2.9,1.1-4.4,1.6s-3.2,0.9-4.9,1.3s-3.2,0.7-4.8,0.9s-3.3,0.4-4.9,0.5l-0.3-1.8C100.2,56.3,101.6,55.7,103,55z M112.8,61.6
	c-0.1,0-0.1,0-0.2,0c-0.5,0.8-1,1.7-1.5,2.7c-0.5,1-1.1,2-1.7,3c-0.2,0.3-0.4,0.6-0.7,0.8c-0.2,0.2-0.5,0.3-0.8,0.3
	c-0.3,0-0.6,0-0.8-0.2c-0.3-0.2-0.5-0.5-0.6-0.8c-0.2-0.5-0.3-1-0.4-1.6c-0.1-0.5-0.2-1-0.3-1.6c0-0.1-0.1-0.2-0.2-0.2
	c-0.1,0-0.2,0-0.2,0.1c0,0,0,0,0,0c-0.4,0.7-0.7,1.4-1.1,2.1s-0.7,1.5-1,2.3c-0.2,0.4-0.4,0.8-0.7,1.1c-0.2,0.2-0.5,0.4-0.8,0.6
	c-0.3,0.1-0.6,0.1-0.9-0.1c-0.3-0.2-0.5-0.5-0.6-0.9c-0.3-1-0.6-2.1-0.8-3.1c-0.2-1.3-0.4-2.5-0.5-3.8l4.7-2.8
	c0.1,0.8,0.2,1.5,0.3,2.2s0.2,1.4,0.4,2c0,0.1,0.1,0.2,0.2,0.1c0,0,0,0,0.1,0c0.1,0,0.2-0.1,0.3-0.2c0.8-1.5,1.6-3,2.5-4.4
	c0.3-0.6,0.9-0.9,1.6-0.8c0.3,0,0.6,0.2,0.8,0.4c0.3,0.2,0.4,0.5,0.5,0.9c0.1,0.5,0.2,1,0.3,1.5s0.2,1,0.3,1.3
	c0,0.1,0.1,0.2,0.2,0.2c0.1,0,0.2-0.1,0.2-0.1c0.3-0.7,0.7-1.4,1.2-2.1l1.4-2.4c0.2-0.4,0.6-0.7,1-0.8c0.4-0.1,0.7-0.2,1.1-0.1
	c0.4,0.1,0.7,0.2,1,0.4c0.3,0.2,0.5,0.5,0.7,0.9c0.3,0.6,0.4,1.3,0.4,1.9c0,0.8-0.1,1.6-0.3,2.4c-0.3,1.3-0.5,2.4-0.8,3.5
	s-0.6,2.1-1,3.1l-4.6-1.6c0.3-0.9,0.6-1.9,0.9-2.8c0.3-1,0.5-2,0.8-3.1C112.9,61.7,112.9,61.6,112.8,61.6L112.8,61.6z M113.2,94.1
	c0.1-1.3,0-2.8,0-4.3c-0.1-1.6-0.3-3.2-0.5-4.7c-0.2-1.1-0.5-2.1-1-3.1v15.2l-5.8,0.7V80.2c-0.4,0.2-0.8,0.4-1.2,0.6
	c0,1.1-0.1,2.1-0.2,3.1s-0.2,2-0.3,3.2c0,0.4-0.1,1-0.3,1.6s-0.3,1.3-0.4,2s-0.4,1.4-0.7,2.2c-0.2,0.7-0.5,1.3-0.8,1.9
	c-0.3,0.6-0.7,1.1-1.2,1.4c-0.4,0.3-1,0.4-1.5,0.2c-0.7-0.3-1.1-1.3-1.2-2.9c-0.1-1,0-1.9,0.1-2.9c0.1-0.9,0.3-1.9,0.5-2.8
	c0.4-1.7,1.1-3.3,2.1-4.7v-2.9c0-0.9,0-1.7-0.1-2.4l4.1-0.5v2.1c0.2-0.1,0.4-0.2,0.6-0.3c0.2-0.1,0.4-0.2,0.6-0.3v-3l-7.1,0.9v-3.3
	l7.1-0.9v-3.2l5.8-0.7v3.2l6.7-0.8v3.3l-6.7,0.8v3.2c0.6,0.2,1.2,0.5,1.8,0.8c0.6,0.4,1.1,0.9,1.5,1.4c1,1.4,1.8,2.9,2.4,4.5
	c0.6,1.7,1.1,3.6,1.3,5.4L113.2,94.1z M116,78.3c-0.2-0.2-0.5-0.4-0.7-0.6l0.7-0.1C115.9,77.8,115.9,78,116,78.3z M132.6,78.6
	c-0.2,1.4-0.6,2.7-1.2,4c-0.7,1.3-1.5,2.6-2.4,3.8c-0.9,1.2-1.9,2.4-3,3.5c-1.4,1.4-3,2.7-4.6,3.9c-1.7,1.2-3.4,2.4-5.3,3.4
	l-0.5-1.6c1.2-1.2,2.3-2.4,3.3-3.7c1-1.2,1.9-2.5,2.8-3.7s1.6-2.5,2.4-3.8s1.5-2.7,2.2-4c0.8-1.4,1.2-2.9,1.2-4.5
	c-0.6,0.9-1.3,1.7-2,2.4c-0.7,0.7-1.4,1.3-2.2,1.9c-0.6,0.5-1.4,0.8-2.2,0.7c-0.7-0.1-1.3-0.4-1.7-1c-0.4-0.6-0.6-1.2-0.7-1.9
	c-0.1-0.9,0-1.8,0.3-2.6c0.2-0.9,0.6-1.7,1.1-2.4c0.5-0.7,1-1.2,1.7-1.7c0.6-0.4,1.2-0.8,1.8-1c0.6-0.2,1.3-0.4,1.9-0.5
	c0.3-0.9,0.5-1.8,0.7-2.7s0.4-1.8,0.6-2.6c0.2-0.8,0.2-1.6,0.1-2.5c-0.3,0.3-0.6,0.8-0.9,1.2s-0.7,0.9-1.1,1.3
	c-0.4,0.4-0.8,0.8-1.2,1.2c-0.3,0.3-0.7,0.6-1.2,0.8c-0.6,0.2-1.2,0.3-1.8,0.3c-0.5-0.1-1-0.3-1.4-0.7c-0.5-0.5-0.7-1.1-0.8-1.8
	c-0.1-0.7,0-1.5,0.2-2.2c0.4-1.1,1-2.1,1.9-2.9c0.5-0.4,1-0.8,1.6-1.2c0.5-0.3,1.1-0.5,1.6-0.7c0.4-1.4,0.8-2.9,1.1-4.4
	c0.3-1.5,0.5-2.9,0.7-4.2l6.8-0.8c-0.4,1.7-0.8,3.4-1.2,4.9c-0.4,1.5-1,3-1.6,4.4c0.7,0.3,1.3,0.7,1.8,1.3c0.5,0.6,0.8,1.3,1,2
	c0.2,1.2,0.2,2.4,0,3.6c-0.2,1.2-0.5,2.5-0.9,3.6c-0.4,1.1-0.8,2.3-1.3,3.4c0.5,0.4,1,1,1.3,1.6c0.4,0.6,0.7,1.3,0.8,2
	C132.7,75.9,132.8,77.2,132.6,78.6L132.6,78.6z M119.2,83.4c0.4,0.2,0.9,0.3,1.3,0.4c0.3,0,0.7,0,1,0c-0.4,0.8-0.9,1.5-1.4,2.3
	c-0.2-0.5-0.3-1-0.5-1.5S119.4,83.8,119.2,83.4z M100.7,115.4l-4.2-1.9l-3.3,3.2l0.6-4.6l-4.1-2.1l4.5-0.9l0.8-4.5l2.2,4l4.6-0.6
	l-3.1,3.3L100.7,115.4z M67.8,121l-4.2-1.9l-3.3,3.2l0.6-4.6l-4.1-2.2l4.5-0.9l0.8-4.5l2.2,4l4.6-0.6l-3.1,3.3L67.8,121z
	 M84.3,118.2l-4.2-1.9l-3.3,3.2l0.6-4.5l-4.1-2.2l4.5-0.9l0.8-4.5l2.2,4l4.6-0.6l-3.1,3.3L84.3,118.2z"/>
</svg>
