<?xml version="1.0" encoding="utf-8" standalone="yes"?>
<!DOCTYPE svg PUBLIC "-//W3C//DTD SVG 1.1//EN" "http://www.w3.org/Graphics/SVG/1.1/DTD/svg11.dtd"[
	<!ENTITY E12 'stroke:none;opacity:1;fill:rgb(62,198,124);'>
	<!ENTITY E2 'stroke:none;opacity:1;fill:rgb(255,255,255);'>
	<!ENTITY E10 'stroke:rgb(0,0,0);fill:none;stroke-linecap:round;stroke-miterlimit:9;opacity:1;stroke-width:2;stroke-linejoin:round;'>
	<!ENTITY E3 'stroke:none;opacity:1;fill:rgb(60,182,230);'>
	<!ENTITY E18 'stroke:none;font-size:26pt;fill:rgb(255,255,255);font-weight:bolder;baseline-shift:-86&#37;;font-family:微软雅黑;opacity:1;'>
	<!ENTITY E4 'stroke:none;font-size:18pt;fill:rgb(255,255,255);font-weight:bolder;baseline-shift:-86&#37;;font-family:微软雅黑;opacity:1;'>
	<!ENTITY E5 'stroke:none;opacity:1;fill:rgb(250,250,250);'>
	<!ENTITY E14 'stroke:none;opacity:1;fill:rgb(93,150,255);'>
	<!ENTITY E16 'stroke:none;font-size:22pt;fill:rgb(0,0,0);font-weight:bolder;baseline-shift:-86&#37;;font-family:微软雅黑;opacity:1;'>
	<!ENTITY E8 'stroke:rgb(60,182,230);fill:none;stroke-linecap:round;stroke-miterlimit:9;opacity:1;stroke-width:2;stroke-linejoin:round;'>
	<!ENTITY E6 'stroke:rgb(255,0,0);fill:none;stroke-linecap:round;stroke-miterlimit:9;opacity:1;stroke-width:2;stroke-linejoin:round;'>
	<!ENTITY E11 'stroke:none;opacity:1;fill:rgb(255,62,65);'>
	<!ENTITY E9 'stroke:none;font-size:18pt;fill:rgb(102,102,102);font-weight:bolder;baseline-shift:-86&#37;;font-family:微软雅黑;opacity:1;'>
	<!ENTITY E1 'text-rendering:auto;shape-rendering:geometricPrecision;'>
	<!ENTITY E17 'stroke:rgb(128,128,128);fill:none;stroke-linecap:butt;stroke-miterlimit:9;opacity:1;stroke-width:2;stroke-linejoin:miter;'>
	<!ENTITY E15 'stroke:none;opacity:1;fill:rgb(211,211,211);'>
	<!ENTITY E13 'stroke:none;opacity:1;fill:rgb(247,212,0);'>
	<!ENTITY E7 'stroke:none;font-family:微软雅黑;fill:rgb(102,102,102);font-size:16pt;baseline-shift:-86&#37;;opacity:1;'>
]>
<svg height="952" width="655" id="SvgGdi_output" xmlns="http://www.w3.org/2000/svg">
  <rect id="background" height="100%" style="fill:rgb(255,255,255);" width="100%" y="0" x="0" />
  <g style="&E1;" id="root_group">
    <rect id="11439831" height="635" style="&E2;" width="655" y="0" x="0" />
    <rect id="11439832" height="37" style="&E3;" width="655" y="0" x="0" />
    <text id="11439833" style="&E4;" transform="matrix(1 0 0 1 0 0 ) " x="15" y="3">期数</text>
    <text id="11439835" style="&E4;" transform="matrix(1 0 0 1 0 0 ) " x="89" y="3">时间</text>
    <text id="11439837" style="&E4;" transform="matrix(1 0 0 1 0 0 ) " x="373" y="3">结果</text>
    <text id="11439839" style="&E4;" transform="matrix(1 0 0 1 0 0 ) " x="520" y="3">番</text>
    <rect id="11439841" height="37" style="&E5;" width="655" y="38" x="0" />
    <rect id="11439842" height="37" style="&E5;" width="655" y="118" x="0" />
    <rect id="11439843" height="37" style="&E5;" width="655" y="198" x="0" />
    <rect id="11439844" height="37" style="&E5;" width="655" y="278" x="0" />
    <rect id="11439845" height="37" style="&E5;" width="655" y="358" x="0" />
    <rect id="11439846" height="37" style="&E5;" width="655" y="438" x="0" />
    <rect id="11439847" height="37" style="&E5;" width="655" y="518" x="0" />
    <rect id="11439848" height="37" style="&E5;" width="655" y="598" x="0" />
    <rect id="11439849" height="37" style="&E5;" width="655" y="678" x="0" />
    <rect id="11439850" height="37" style="&E5;" width="655" y="758" x="0" />
    <rect id="11439851" height="37" style="&E6;" width="655" y="38" x="0" />
    <text id="11439852" style="&E7;" transform="matrix(1 0 0 1 0 0 ) " x="10" y="45">40</text>
    <text id="11439854" style="&E7;" transform="matrix(1 0 0 1 0 0 ) " x="50" y="45">18:13:40</text>
    <ellipse id="11439856" cy="57" cx="192" rx="17" ry="17" style="&E8;" />
    <text id="11439857" style="&E9;" transform="matrix(1 0 0 1 0 0 ) " x="176" y="43">16</text>
    <ellipse id="11439859" cy="57" cx="232" rx="17" ry="17" style="&E8;" />
    <text id="11439860" style="&E9;" transform="matrix(1 0 0 1 0 0 ) " x="216" y="43">03</text>
    <ellipse id="11439862" cy="57" cx="272" rx="17" ry="17" style="&E8;" />
    <text id="11439863" style="&E9;" transform="matrix(1 0 0 1 0 0 ) " x="256" y="43">07</text>
    <ellipse id="11439865" cy="57" cx="312" rx="17" ry="17" style="&E8;" />
    <text id="11439866" style="&E9;" transform="matrix(1 0 0 1 0 0 ) " x="296" y="43">02</text>
    <ellipse id="11439868" cy="57" cx="352" rx="17" ry="17" style="&E8;" />
    <text id="11439869" style="&E9;" transform="matrix(1 0 0 1 0 0 ) " x="336" y="43">19</text>
    <ellipse id="11439871" cy="57" cx="392" rx="17" ry="17" style="&E8;" />
    <text id="11439872" style="&E9;" transform="matrix(1 0 0 1 0 0 ) " x="376" y="43">17</text>
    <ellipse id="11439874" cy="57" cx="432" rx="17" ry="17" style="&E8;" />
    <text id="11439875" style="&E9;" transform="matrix(1 0 0 1 0 0 ) " x="416" y="43">06</text>
    <ellipse id="11439877" cy="57" cx="472" rx="17" ry="17" style="&E6;" />
    <text id="11439878" style="&E9;" transform="matrix(1 0 0 1 0 0 ) " x="456" y="43">20</text>
    <rect id="11439880" height="36" style="&E10;" width="36" y="40" x="512" />
    <rect id="11439881" height="34" style="&E11;" width="34" y="41" x="513" />
    <text id="11439882" style="&E4;" transform="matrix(1 0 0 1 0 0 ) " x="520" y="45">4</text>
    <text id="11439884" style="&E9;" transform="matrix(1 0 0 1 0 0 ) " x="560" y="45">大</text>
    <text id="11439886" style="&E9;" transform="matrix(1 0 0 1 0 0 ) " x="600" y="45">双</text>
    <text id="11439888" style="&E7;" transform="matrix(1 0 0 1 0 0 ) " x="10" y="85">39</text>
    <text id="11439890" style="&E7;" transform="matrix(1 0 0 1 0 0 ) " x="50" y="85">18:08:40</text>
    <ellipse id="11439892" cy="97" cx="192" rx="17" ry="17" style="&E8;" />
    <text id="11439893" style="&E9;" transform="matrix(1 0 0 1 0 0 ) " x="176" y="83">06</text>
    <ellipse id="11439895" cy="97" cx="232" rx="17" ry="17" style="&E8;" />
    <text id="11439896" style="&E9;" transform="matrix(1 0 0 1 0 0 ) " x="216" y="83">08</text>
    <ellipse id="11439898" cy="97" cx="272" rx="17" ry="17" style="&E8;" />
    <text id="11439899" style="&E9;" transform="matrix(1 0 0 1 0 0 ) " x="256" y="83">10</text>
    <ellipse id="11439901" cy="97" cx="312" rx="17" ry="17" style="&E8;" />
    <text id="11439902" style="&E9;" transform="matrix(1 0 0 1 0 0 ) " x="296" y="83">07</text>
    <ellipse id="11439904" cy="97" cx="352" rx="17" ry="17" style="&E8;" />
    <text id="11439905" style="&E9;" transform="matrix(1 0 0 1 0 0 ) " x="336" y="83">05</text>
    <ellipse id="11439907" cy="97" cx="392" rx="17" ry="17" style="&E8;" />
    <text id="11439908" style="&E9;" transform="matrix(1 0 0 1 0 0 ) " x="376" y="83">20</text>
    <ellipse id="11439910" cy="97" cx="432" rx="17" ry="17" style="&E8;" />
    <text id="11439911" style="&E9;" transform="matrix(1 0 0 1 0 0 ) " x="416" y="83">14</text>
    <ellipse id="11439913" cy="97" cx="472" rx="17" ry="17" style="&E6;" />
    <text id="11439914" style="&E9;" transform="matrix(1 0 0 1 0 0 ) " x="456" y="83">16</text>
    <rect id="11439916" height="36" style="&E10;" width="36" y="80" x="512" />
    <rect id="11439917" height="34" style="&E11;" width="34" y="81" x="513" />
    <text id="11439918" style="&E4;" transform="matrix(1 0 0 1 0 0 ) " x="520" y="85">4</text>
    <text id="11439920" style="&E9;" transform="matrix(1 0 0 1 0 0 ) " x="560" y="85">大</text>
    <text id="11439922" style="&E9;" transform="matrix(1 0 0 1 0 0 ) " x="600" y="85">双</text>
    <text id="11439924" style="&E7;" transform="matrix(1 0 0 1 0 0 ) " x="10" y="125">38</text>
    <text id="11439926" style="&E7;" transform="matrix(1 0 0 1 0 0 ) " x="50" y="125">18:03:40</text>
    <ellipse id="11439928" cy="137" cx="192" rx="17" ry="17" style="&E8;" />
    <text id="11439929" style="&E9;" transform="matrix(1 0 0 1 0 0 ) " x="176" y="123">06</text>
    <ellipse id="11439931" cy="137" cx="232" rx="17" ry="17" style="&E8;" />
    <text id="11439932" style="&E9;" transform="matrix(1 0 0 1 0 0 ) " x="216" y="123">15</text>
    <ellipse id="11439934" cy="137" cx="272" rx="17" ry="17" style="&E8;" />
    <text id="11439935" style="&E9;" transform="matrix(1 0 0 1 0 0 ) " x="256" y="123">10</text>
    <ellipse id="11439937" cy="137" cx="312" rx="17" ry="17" style="&E8;" />
    <text id="11439938" style="&E9;" transform="matrix(1 0 0 1 0 0 ) " x="296" y="123">03</text>
    <ellipse id="11439940" cy="137" cx="352" rx="17" ry="17" style="&E8;" />
    <text id="11439941" style="&E9;" transform="matrix(1 0 0 1 0 0 ) " x="336" y="123">07</text>
    <ellipse id="11439943" cy="137" cx="392" rx="17" ry="17" style="&E8;" />
    <text id="11439944" style="&E9;" transform="matrix(1 0 0 1 0 0 ) " x="376" y="123">18</text>
    <ellipse id="11439946" cy="137" cx="432" rx="17" ry="17" style="&E8;" />
    <text id="11439947" style="&E9;" transform="matrix(1 0 0 1 0 0 ) " x="416" y="123">08</text>
    <ellipse id="11439949" cy="137" cx="472" rx="17" ry="17" style="&E6;" />
    <text id="11439950" style="&E9;" transform="matrix(1 0 0 1 0 0 ) " x="456" y="123">02</text>
    <rect id="11439952" height="36" style="&E10;" width="36" y="120" x="512" />
    <rect id="11439953" height="34" style="&E12;" width="34" y="121" x="513" />
    <text id="11439954" style="&E4;" transform="matrix(1 0 0 1 0 0 ) " x="520" y="125">2</text>
    <text id="11439956" style="&E9;" transform="matrix(1 0 0 1 0 0 ) " x="560" y="125">小</text>
    <text id="11439958" style="&E9;" transform="matrix(1 0 0 1 0 0 ) " x="600" y="125">双</text>
    <text id="11439960" style="&E7;" transform="matrix(1 0 0 1 0 0 ) " x="10" y="165">37</text>
    <text id="11439962" style="&E7;" transform="matrix(1 0 0 1 0 0 ) " x="50" y="165">17:58:40</text>
    <ellipse id="11439964" cy="177" cx="192" rx="17" ry="17" style="&E8;" />
    <text id="11439965" style="&E9;" transform="matrix(1 0 0 1 0 0 ) " x="176" y="163">18</text>
    <ellipse id="11439967" cy="177" cx="232" rx="17" ry="17" style="&E8;" />
    <text id="11439968" style="&E9;" transform="matrix(1 0 0 1 0 0 ) " x="216" y="163">10</text>
    <ellipse id="11439970" cy="177" cx="272" rx="17" ry="17" style="&E8;" />
    <text id="11439971" style="&E9;" transform="matrix(1 0 0 1 0 0 ) " x="256" y="163">19</text>
    <ellipse id="11439973" cy="177" cx="312" rx="17" ry="17" style="&E8;" />
    <text id="11439974" style="&E9;" transform="matrix(1 0 0 1 0 0 ) " x="296" y="163">13</text>
    <ellipse id="11439976" cy="177" cx="352" rx="17" ry="17" style="&E8;" />
    <text id="11439977" style="&E9;" transform="matrix(1 0 0 1 0 0 ) " x="336" y="163">05</text>
    <ellipse id="11439979" cy="177" cx="392" rx="17" ry="17" style="&E8;" />
    <text id="11439980" style="&E9;" transform="matrix(1 0 0 1 0 0 ) " x="376" y="163">08</text>
    <ellipse id="11439982" cy="177" cx="432" rx="17" ry="17" style="&E8;" />
    <text id="11439983" style="&E9;" transform="matrix(1 0 0 1 0 0 ) " x="416" y="163">01</text>
    <ellipse id="11439985" cy="177" cx="472" rx="17" ry="17" style="&E6;" />
    <text id="11439986" style="&E9;" transform="matrix(1 0 0 1 0 0 ) " x="456" y="163">06</text>
    <rect id="11439988" height="36" style="&E10;" width="36" y="160" x="512" />
    <rect id="11439989" height="34" style="&E12;" width="34" y="161" x="513" />
    <text id="11439990" style="&E4;" transform="matrix(1 0 0 1 0 0 ) " x="520" y="165">2</text>
    <text id="11439992" style="&E9;" transform="matrix(1 0 0 1 0 0 ) " x="560" y="165">小</text>
    <text id="11439994" style="&E9;" transform="matrix(1 0 0 1 0 0 ) " x="600" y="165">双</text>
    <text id="11439996" style="&E7;" transform="matrix(1 0 0 1 0 0 ) " x="10" y="205">36</text>
    <text id="11439998" style="&E7;" transform="matrix(1 0 0 1 0 0 ) " x="50" y="205">17:53:40</text>
    <ellipse id="11440000" cy="217" cx="192" rx="17" ry="17" style="&E8;" />
    <text id="11440001" style="&E9;" transform="matrix(1 0 0 1 0 0 ) " x="176" y="203">15</text>
    <ellipse id="11440003" cy="217" cx="232" rx="17" ry="17" style="&E8;" />
    <text id="11440004" style="&E9;" transform="matrix(1 0 0 1 0 0 ) " x="216" y="203">17</text>
    <ellipse id="11440006" cy="217" cx="272" rx="17" ry="17" style="&E8;" />
    <text id="11440007" style="&E9;" transform="matrix(1 0 0 1 0 0 ) " x="256" y="203">20</text>
    <ellipse id="11440009" cy="217" cx="312" rx="17" ry="17" style="&E8;" />
    <text id="11440010" style="&E9;" transform="matrix(1 0 0 1 0 0 ) " x="296" y="203">06</text>
    <ellipse id="11440012" cy="217" cx="352" rx="17" ry="17" style="&E8;" />
    <text id="11440013" style="&E9;" transform="matrix(1 0 0 1 0 0 ) " x="336" y="203">04</text>
    <ellipse id="11440015" cy="217" cx="392" rx="17" ry="17" style="&E8;" />
    <text id="11440016" style="&E9;" transform="matrix(1 0 0 1 0 0 ) " x="376" y="203">03</text>
    <ellipse id="11440018" cy="217" cx="432" rx="17" ry="17" style="&E8;" />
    <text id="11440019" style="&E9;" transform="matrix(1 0 0 1 0 0 ) " x="416" y="203">08</text>
    <ellipse id="11440021" cy="217" cx="472" rx="17" ry="17" style="&E6;" />
    <text id="11440022" style="&E9;" transform="matrix(1 0 0 1 0 0 ) " x="456" y="203">07</text>
    <rect id="11440024" height="36" style="&E10;" width="36" y="200" x="512" />
    <rect id="11440025" height="34" style="&E13;" width="34" y="201" x="513" />
    <text id="11440026" style="&E4;" transform="matrix(1 0 0 1 0 0 ) " x="520" y="205">3</text>
    <text id="11440028" style="&E9;" transform="matrix(1 0 0 1 0 0 ) " x="560" y="205">小</text>
    <text id="11440030" style="&E9;" transform="matrix(1 0 0 1 0 0 ) " x="600" y="205">单</text>
    <text id="11440032" style="&E7;" transform="matrix(1 0 0 1 0 0 ) " x="10" y="245">35</text>
    <text id="11440034" style="&E7;" transform="matrix(1 0 0 1 0 0 ) " x="50" y="245">17:48:40</text>
    <ellipse id="11440036" cy="257" cx="192" rx="17" ry="17" style="&E8;" />
    <text id="11440037" style="&E9;" transform="matrix(1 0 0 1 0 0 ) " x="176" y="243">01</text>
    <ellipse id="11440039" cy="257" cx="232" rx="17" ry="17" style="&E8;" />
    <text id="11440040" style="&E9;" transform="matrix(1 0 0 1 0 0 ) " x="216" y="243">02</text>
    <ellipse id="11440042" cy="257" cx="272" rx="17" ry="17" style="&E8;" />
    <text id="11440043" style="&E9;" transform="matrix(1 0 0 1 0 0 ) " x="256" y="243">06</text>
    <ellipse id="11440045" cy="257" cx="312" rx="17" ry="17" style="&E8;" />
    <text id="11440046" style="&E9;" transform="matrix(1 0 0 1 0 0 ) " x="296" y="243">09</text>
    <ellipse id="11440048" cy="257" cx="352" rx="17" ry="17" style="&E8;" />
    <text id="11440049" style="&E9;" transform="matrix(1 0 0 1 0 0 ) " x="336" y="243">05</text>
    <ellipse id="11440051" cy="257" cx="392" rx="17" ry="17" style="&E8;" />
    <text id="11440052" style="&E9;" transform="matrix(1 0 0 1 0 0 ) " x="376" y="243">03</text>
    <ellipse id="11440054" cy="257" cx="432" rx="17" ry="17" style="&E8;" />
    <text id="11440055" style="&E9;" transform="matrix(1 0 0 1 0 0 ) " x="416" y="243">17</text>
    <ellipse id="11440057" cy="257" cx="472" rx="17" ry="17" style="&E6;" />
    <text id="11440058" style="&E9;" transform="matrix(1 0 0 1 0 0 ) " x="456" y="243">20</text>
    <rect id="11440060" height="36" style="&E10;" width="36" y="240" x="512" />
    <rect id="11440061" height="34" style="&E11;" width="34" y="241" x="513" />
    <text id="11440062" style="&E4;" transform="matrix(1 0 0 1 0 0 ) " x="520" y="245">4</text>
    <text id="11440064" style="&E9;" transform="matrix(1 0 0 1 0 0 ) " x="560" y="245">大</text>
    <text id="11440066" style="&E9;" transform="matrix(1 0 0 1 0 0 ) " x="600" y="245">双</text>
    <text id="11440068" style="&E7;" transform="matrix(1 0 0 1 0 0 ) " x="10" y="285">34</text>
    <text id="11440070" style="&E7;" transform="matrix(1 0 0 1 0 0 ) " x="50" y="285">17:43:40</text>
    <ellipse id="11440072" cy="297" cx="192" rx="17" ry="17" style="&E8;" />
    <text id="11440073" style="&E9;" transform="matrix(1 0 0 1 0 0 ) " x="176" y="283">15</text>
    <ellipse id="11440075" cy="297" cx="232" rx="17" ry="17" style="&E8;" />
    <text id="11440076" style="&E9;" transform="matrix(1 0 0 1 0 0 ) " x="216" y="283">03</text>
    <ellipse id="11440078" cy="297" cx="272" rx="17" ry="17" style="&E8;" />
    <text id="11440079" style="&E9;" transform="matrix(1 0 0 1 0 0 ) " x="256" y="283">18</text>
    <ellipse id="11440081" cy="297" cx="312" rx="17" ry="17" style="&E8;" />
    <text id="11440082" style="&E9;" transform="matrix(1 0 0 1 0 0 ) " x="296" y="283">12</text>
    <ellipse id="11440084" cy="297" cx="352" rx="17" ry="17" style="&E8;" />
    <text id="11440085" style="&E9;" transform="matrix(1 0 0 1 0 0 ) " x="336" y="283">20</text>
    <ellipse id="11440087" cy="297" cx="392" rx="17" ry="17" style="&E8;" />
    <text id="11440088" style="&E9;" transform="matrix(1 0 0 1 0 0 ) " x="376" y="283">09</text>
    <ellipse id="11440090" cy="297" cx="432" rx="17" ry="17" style="&E8;" />
    <text id="11440091" style="&E9;" transform="matrix(1 0 0 1 0 0 ) " x="416" y="283">17</text>
    <ellipse id="11440093" cy="297" cx="472" rx="17" ry="17" style="&E6;" />
    <text id="11440094" style="&E9;" transform="matrix(1 0 0 1 0 0 ) " x="456" y="283">19</text>
    <rect id="11440096" height="36" style="&E10;" width="36" y="280" x="512" />
    <rect id="11440097" height="34" style="&E13;" width="34" y="281" x="513" />
    <text id="11440098" style="&E4;" transform="matrix(1 0 0 1 0 0 ) " x="520" y="285">3</text>
    <text id="11440100" style="&E9;" transform="matrix(1 0 0 1 0 0 ) " x="560" y="285">大</text>
    <text id="11440102" style="&E9;" transform="matrix(1 0 0 1 0 0 ) " x="600" y="285">单</text>
    <text id="11440104" style="&E7;" transform="matrix(1 0 0 1 0 0 ) " x="10" y="325">33</text>
    <text id="11440106" style="&E7;" transform="matrix(1 0 0 1 0 0 ) " x="50" y="325">17:38:40</text>
    <ellipse id="11440108" cy="337" cx="192" rx="17" ry="17" style="&E8;" />
    <text id="11440109" style="&E9;" transform="matrix(1 0 0 1 0 0 ) " x="176" y="323">10</text>
    <ellipse id="11440111" cy="337" cx="232" rx="17" ry="17" style="&E8;" />
    <text id="11440112" style="&E9;" transform="matrix(1 0 0 1 0 0 ) " x="216" y="323">05</text>
    <ellipse id="11440114" cy="337" cx="272" rx="17" ry="17" style="&E8;" />
    <text id="11440115" style="&E9;" transform="matrix(1 0 0 1 0 0 ) " x="256" y="323">06</text>
    <ellipse id="11440117" cy="337" cx="312" rx="17" ry="17" style="&E8;" />
    <text id="11440118" style="&E9;" transform="matrix(1 0 0 1 0 0 ) " x="296" y="323">13</text>
    <ellipse id="11440120" cy="337" cx="352" rx="17" ry="17" style="&E8;" />
    <text id="11440121" style="&E9;" transform="matrix(1 0 0 1 0 0 ) " x="336" y="323">08</text>
    <ellipse id="11440123" cy="337" cx="392" rx="17" ry="17" style="&E8;" />
    <text id="11440124" style="&E9;" transform="matrix(1 0 0 1 0 0 ) " x="376" y="323">04</text>
    <ellipse id="11440126" cy="337" cx="432" rx="17" ry="17" style="&E8;" />
    <text id="11440127" style="&E9;" transform="matrix(1 0 0 1 0 0 ) " x="416" y="323">09</text>
    <ellipse id="11440129" cy="337" cx="472" rx="17" ry="17" style="&E6;" />
    <text id="11440130" style="&E9;" transform="matrix(1 0 0 1 0 0 ) " x="456" y="323">19</text>
    <rect id="11440132" height="36" style="&E10;" width="36" y="320" x="512" />
    <rect id="11440133" height="34" style="&E13;" width="34" y="321" x="513" />
    <text id="11440134" style="&E4;" transform="matrix(1 0 0 1 0 0 ) " x="520" y="325">3</text>
    <text id="11440136" style="&E9;" transform="matrix(1 0 0 1 0 0 ) " x="560" y="325">大</text>
    <text id="11440138" style="&E9;" transform="matrix(1 0 0 1 0 0 ) " x="600" y="325">单</text>
    <text id="11440140" style="&E7;" transform="matrix(1 0 0 1 0 0 ) " x="10" y="365">32</text>
    <text id="11440142" style="&E7;" transform="matrix(1 0 0 1 0 0 ) " x="50" y="365">17:33:40</text>
    <ellipse id="11440144" cy="377" cx="192" rx="17" ry="17" style="&E8;" />
    <text id="11440145" style="&E9;" transform="matrix(1 0 0 1 0 0 ) " x="176" y="363">19</text>
    <ellipse id="11440147" cy="377" cx="232" rx="17" ry="17" style="&E8;" />
    <text id="11440148" style="&E9;" transform="matrix(1 0 0 1 0 0 ) " x="216" y="363">16</text>
    <ellipse id="11440150" cy="377" cx="272" rx="17" ry="17" style="&E8;" />
    <text id="11440151" style="&E9;" transform="matrix(1 0 0 1 0 0 ) " x="256" y="363">09</text>
    <ellipse id="11440153" cy="377" cx="312" rx="17" ry="17" style="&E8;" />
    <text id="11440154" style="&E9;" transform="matrix(1 0 0 1 0 0 ) " x="296" y="363">02</text>
    <ellipse id="11440156" cy="377" cx="352" rx="17" ry="17" style="&E8;" />
    <text id="11440157" style="&E9;" transform="matrix(1 0 0 1 0 0 ) " x="336" y="363">08</text>
    <ellipse id="11440159" cy="377" cx="392" rx="17" ry="17" style="&E8;" />
    <text id="11440160" style="&E9;" transform="matrix(1 0 0 1 0 0 ) " x="376" y="363">14</text>
    <ellipse id="11440162" cy="377" cx="432" rx="17" ry="17" style="&E8;" />
    <text id="11440163" style="&E9;" transform="matrix(1 0 0 1 0 0 ) " x="416" y="363">06</text>
    <ellipse id="11440165" cy="377" cx="472" rx="17" ry="17" style="&E6;" />
    <text id="11440166" style="&E9;" transform="matrix(1 0 0 1 0 0 ) " x="456" y="363">17</text>
    <rect id="11440168" height="36" style="&E10;" width="36" y="360" x="512" />
    <rect id="11440169" height="34" style="&E14;" width="34" y="361" x="513" />
    <text id="11440170" style="&E4;" transform="matrix(1 0 0 1 0 0 ) " x="520" y="365">1</text>
    <text id="11440172" style="&E9;" transform="matrix(1 0 0 1 0 0 ) " x="560" y="365">大</text>
    <text id="11440174" style="&E9;" transform="matrix(1 0 0 1 0 0 ) " x="600" y="365">单</text>
    <text id="11440176" style="&E7;" transform="matrix(1 0 0 1 0 0 ) " x="10" y="405">31</text>
    <text id="11440178" style="&E7;" transform="matrix(1 0 0 1 0 0 ) " x="50" y="405">17:28:40</text>
    <ellipse id="11440180" cy="417" cx="192" rx="17" ry="17" style="&E8;" />
    <text id="11440181" style="&E9;" transform="matrix(1 0 0 1 0 0 ) " x="176" y="403">17</text>
    <ellipse id="11440183" cy="417" cx="232" rx="17" ry="17" style="&E8;" />
    <text id="11440184" style="&E9;" transform="matrix(1 0 0 1 0 0 ) " x="216" y="403">11</text>
    <ellipse id="11440186" cy="417" cx="272" rx="17" ry="17" style="&E8;" />
    <text id="11440187" style="&E9;" transform="matrix(1 0 0 1 0 0 ) " x="256" y="403">16</text>
    <ellipse id="11440189" cy="417" cx="312" rx="17" ry="17" style="&E8;" />
    <text id="11440190" style="&E9;" transform="matrix(1 0 0 1 0 0 ) " x="296" y="403">05</text>
    <ellipse id="11440192" cy="417" cx="352" rx="17" ry="17" style="&E8;" />
    <text id="11440193" style="&E9;" transform="matrix(1 0 0 1 0 0 ) " x="336" y="403">08</text>
    <ellipse id="11440195" cy="417" cx="392" rx="17" ry="17" style="&E8;" />
    <text id="11440196" style="&E9;" transform="matrix(1 0 0 1 0 0 ) " x="376" y="403">06</text>
    <ellipse id="11440198" cy="417" cx="432" rx="17" ry="17" style="&E8;" />
    <text id="11440199" style="&E9;" transform="matrix(1 0 0 1 0 0 ) " x="416" y="403">10</text>
    <ellipse id="11440201" cy="417" cx="472" rx="17" ry="17" style="&E6;" />
    <text id="11440202" style="&E9;" transform="matrix(1 0 0 1 0 0 ) " x="456" y="403">18</text>
    <rect id="11440204" height="36" style="&E10;" width="36" y="400" x="512" />
    <rect id="11440205" height="34" style="&E12;" width="34" y="401" x="513" />
    <text id="11440206" style="&E4;" transform="matrix(1 0 0 1 0 0 ) " x="520" y="405">2</text>
    <text id="11440208" style="&E9;" transform="matrix(1 0 0 1 0 0 ) " x="560" y="405">大</text>
    <text id="11440210" style="&E9;" transform="matrix(1 0 0 1 0 0 ) " x="600" y="405">双</text>
    <text id="11440212" style="&E7;" transform="matrix(1 0 0 1 0 0 ) " x="10" y="445">30</text>
    <text id="11440214" style="&E7;" transform="matrix(1 0 0 1 0 0 ) " x="50" y="445">17:23:40</text>
    <ellipse id="11440216" cy="457" cx="192" rx="17" ry="17" style="&E8;" />
    <text id="11440217" style="&E9;" transform="matrix(1 0 0 1 0 0 ) " x="176" y="443">07</text>
    <ellipse id="11440219" cy="457" cx="232" rx="17" ry="17" style="&E8;" />
    <text id="11440220" style="&E9;" transform="matrix(1 0 0 1 0 0 ) " x="216" y="443">16</text>
    <ellipse id="11440222" cy="457" cx="272" rx="17" ry="17" style="&E8;" />
    <text id="11440223" style="&E9;" transform="matrix(1 0 0 1 0 0 ) " x="256" y="443">08</text>
    <ellipse id="11440225" cy="457" cx="312" rx="17" ry="17" style="&E8;" />
    <text id="11440226" style="&E9;" transform="matrix(1 0 0 1 0 0 ) " x="296" y="443">05</text>
    <ellipse id="11440228" cy="457" cx="352" rx="17" ry="17" style="&E8;" />
    <text id="11440229" style="&E9;" transform="matrix(1 0 0 1 0 0 ) " x="336" y="443">02</text>
    <ellipse id="11440231" cy="457" cx="392" rx="17" ry="17" style="&E8;" />
    <text id="11440232" style="&E9;" transform="matrix(1 0 0 1 0 0 ) " x="376" y="443">15</text>
    <ellipse id="11440234" cy="457" cx="432" rx="17" ry="17" style="&E8;" />
    <text id="11440235" style="&E9;" transform="matrix(1 0 0 1 0 0 ) " x="416" y="443">18</text>
    <ellipse id="11440237" cy="457" cx="472" rx="17" ry="17" style="&E6;" />
    <text id="11440238" style="&E9;" transform="matrix(1 0 0 1 0 0 ) " x="456" y="443">13</text>
    <rect id="11440240" height="36" style="&E10;" width="36" y="440" x="512" />
    <rect id="11440241" height="34" style="&E14;" width="34" y="441" x="513" />
    <text id="11440242" style="&E4;" transform="matrix(1 0 0 1 0 0 ) " x="520" y="445">1</text>
    <text id="11440244" style="&E9;" transform="matrix(1 0 0 1 0 0 ) " x="560" y="445">大</text>
    <text id="11440246" style="&E9;" transform="matrix(1 0 0 1 0 0 ) " x="600" y="445">单</text>
    <text id="11440248" style="&E7;" transform="matrix(1 0 0 1 0 0 ) " x="10" y="485">29</text>
    <text id="11440250" style="&E7;" transform="matrix(1 0 0 1 0 0 ) " x="50" y="485">17:18:40</text>
    <ellipse id="11440252" cy="497" cx="192" rx="17" ry="17" style="&E8;" />
    <text id="11440253" style="&E9;" transform="matrix(1 0 0 1 0 0 ) " x="176" y="483">15</text>
    <ellipse id="11440255" cy="497" cx="232" rx="17" ry="17" style="&E8;" />
    <text id="11440256" style="&E9;" transform="matrix(1 0 0 1 0 0 ) " x="216" y="483">04</text>
    <ellipse id="11440258" cy="497" cx="272" rx="17" ry="17" style="&E8;" />
    <text id="11440259" style="&E9;" transform="matrix(1 0 0 1 0 0 ) " x="256" y="483">03</text>
    <ellipse id="11440261" cy="497" cx="312" rx="17" ry="17" style="&E8;" />
    <text id="11440262" style="&E9;" transform="matrix(1 0 0 1 0 0 ) " x="296" y="483">09</text>
    <ellipse id="11440264" cy="497" cx="352" rx="17" ry="17" style="&E8;" />
    <text id="11440265" style="&E9;" transform="matrix(1 0 0 1 0 0 ) " x="336" y="483">17</text>
    <ellipse id="11440267" cy="497" cx="392" rx="17" ry="17" style="&E8;" />
    <text id="11440268" style="&E9;" transform="matrix(1 0 0 1 0 0 ) " x="376" y="483">11</text>
    <ellipse id="11440270" cy="497" cx="432" rx="17" ry="17" style="&E8;" />
    <text id="11440271" style="&E9;" transform="matrix(1 0 0 1 0 0 ) " x="416" y="483">02</text>
    <ellipse id="11440273" cy="497" cx="472" rx="17" ry="17" style="&E6;" />
    <text id="11440274" style="&E9;" transform="matrix(1 0 0 1 0 0 ) " x="456" y="483">12</text>
    <rect id="11440276" height="36" style="&E10;" width="36" y="480" x="512" />
    <rect id="11440277" height="34" style="&E11;" width="34" y="481" x="513" />
    <text id="11440278" style="&E4;" transform="matrix(1 0 0 1 0 0 ) " x="520" y="485">4</text>
    <text id="11440280" style="&E9;" transform="matrix(1 0 0 1 0 0 ) " x="560" y="485">大</text>
    <text id="11440282" style="&E9;" transform="matrix(1 0 0 1 0 0 ) " x="600" y="485">双</text>
    <text id="11440284" style="&E7;" transform="matrix(1 0 0 1 0 0 ) " x="10" y="525">28</text>
    <text id="11440286" style="&E7;" transform="matrix(1 0 0 1 0 0 ) " x="50" y="525">17:13:40</text>
    <ellipse id="11440288" cy="537" cx="192" rx="17" ry="17" style="&E8;" />
    <text id="11440289" style="&E9;" transform="matrix(1 0 0 1 0 0 ) " x="176" y="523">19</text>
    <ellipse id="11440291" cy="537" cx="232" rx="17" ry="17" style="&E8;" />
    <text id="11440292" style="&E9;" transform="matrix(1 0 0 1 0 0 ) " x="216" y="523">05</text>
    <ellipse id="11440294" cy="537" cx="272" rx="17" ry="17" style="&E8;" />
    <text id="11440295" style="&E9;" transform="matrix(1 0 0 1 0 0 ) " x="256" y="523">06</text>
    <ellipse id="11440297" cy="537" cx="312" rx="17" ry="17" style="&E8;" />
    <text id="11440298" style="&E9;" transform="matrix(1 0 0 1 0 0 ) " x="296" y="523">12</text>
    <ellipse id="11440300" cy="537" cx="352" rx="17" ry="17" style="&E8;" />
    <text id="11440301" style="&E9;" transform="matrix(1 0 0 1 0 0 ) " x="336" y="523">10</text>
    <ellipse id="11440303" cy="537" cx="392" rx="17" ry="17" style="&E8;" />
    <text id="11440304" style="&E9;" transform="matrix(1 0 0 1 0 0 ) " x="376" y="523">20</text>
    <ellipse id="11440306" cy="537" cx="432" rx="17" ry="17" style="&E8;" />
    <text id="11440307" style="&E9;" transform="matrix(1 0 0 1 0 0 ) " x="416" y="523">16</text>
    <ellipse id="11440309" cy="537" cx="472" rx="17" ry="17" style="&E6;" />
    <text id="11440310" style="&E9;" transform="matrix(1 0 0 1 0 0 ) " x="456" y="523">17</text>
    <rect id="11440312" height="36" style="&E10;" width="36" y="520" x="512" />
    <rect id="11440313" height="34" style="&E14;" width="34" y="521" x="513" />
    <text id="11440314" style="&E4;" transform="matrix(1 0 0 1 0 0 ) " x="520" y="525">1</text>
    <text id="11440316" style="&E9;" transform="matrix(1 0 0 1 0 0 ) " x="560" y="525">大</text>
    <text id="11440318" style="&E9;" transform="matrix(1 0 0 1 0 0 ) " x="600" y="525">单</text>
    <text id="11440320" style="&E7;" transform="matrix(1 0 0 1 0 0 ) " x="10" y="565">27</text>
    <text id="11440322" style="&E7;" transform="matrix(1 0 0 1 0 0 ) " x="50" y="565">17:08:40</text>
    <ellipse id="11440324" cy="577" cx="192" rx="17" ry="17" style="&E8;" />
    <text id="11440325" style="&E9;" transform="matrix(1 0 0 1 0 0 ) " x="176" y="563">12</text>
    <ellipse id="11440327" cy="577" cx="232" rx="17" ry="17" style="&E8;" />
    <text id="11440328" style="&E9;" transform="matrix(1 0 0 1 0 0 ) " x="216" y="563">08</text>
    <ellipse id="11440330" cy="577" cx="272" rx="17" ry="17" style="&E8;" />
    <text id="11440331" style="&E9;" transform="matrix(1 0 0 1 0 0 ) " x="256" y="563">09</text>
    <ellipse id="11440333" cy="577" cx="312" rx="17" ry="17" style="&E8;" />
    <text id="11440334" style="&E9;" transform="matrix(1 0 0 1 0 0 ) " x="296" y="563">17</text>
    <ellipse id="11440336" cy="577" cx="352" rx="17" ry="17" style="&E8;" />
    <text id="11440337" style="&E9;" transform="matrix(1 0 0 1 0 0 ) " x="336" y="563">07</text>
    <ellipse id="11440339" cy="577" cx="392" rx="17" ry="17" style="&E8;" />
    <text id="11440340" style="&E9;" transform="matrix(1 0 0 1 0 0 ) " x="376" y="563">05</text>
    <ellipse id="11440342" cy="577" cx="432" rx="17" ry="17" style="&E8;" />
    <text id="11440343" style="&E9;" transform="matrix(1 0 0 1 0 0 ) " x="416" y="563">18</text>
    <ellipse id="11440345" cy="577" cx="472" rx="17" ry="17" style="&E6;" />
    <text id="11440346" style="&E9;" transform="matrix(1 0 0 1 0 0 ) " x="456" y="563">15</text>
    <rect id="11440348" height="36" style="&E10;" width="36" y="560" x="512" />
    <rect id="11440349" height="34" style="&E13;" width="34" y="561" x="513" />
    <text id="11440350" style="&E4;" transform="matrix(1 0 0 1 0 0 ) " x="520" y="565">3</text>
    <text id="11440352" style="&E9;" transform="matrix(1 0 0 1 0 0 ) " x="560" y="565">大</text>
    <text id="11440354" style="&E9;" transform="matrix(1 0 0 1 0 0 ) " x="600" y="565">单</text>
    <text id="11440356" style="&E7;" transform="matrix(1 0 0 1 0 0 ) " x="10" y="605">26</text>
    <text id="11440358" style="&E7;" transform="matrix(1 0 0 1 0 0 ) " x="50" y="605">17:03:40</text>
    <ellipse id="11440360" cy="617" cx="192" rx="17" ry="17" style="&E8;" />
    <text id="11440361" style="&E9;" transform="matrix(1 0 0 1 0 0 ) " x="176" y="603">16</text>
    <ellipse id="11440363" cy="617" cx="232" rx="17" ry="17" style="&E8;" />
    <text id="11440364" style="&E9;" transform="matrix(1 0 0 1 0 0 ) " x="216" y="603">19</text>
    <ellipse id="11440366" cy="617" cx="272" rx="17" ry="17" style="&E8;" />
    <text id="11440367" style="&E9;" transform="matrix(1 0 0 1 0 0 ) " x="256" y="603">04</text>
    <ellipse id="11440369" cy="617" cx="312" rx="17" ry="17" style="&E8;" />
    <text id="11440370" style="&E9;" transform="matrix(1 0 0 1 0 0 ) " x="296" y="603">20</text>
    <ellipse id="11440372" cy="617" cx="352" rx="17" ry="17" style="&E8;" />
    <text id="11440373" style="&E9;" transform="matrix(1 0 0 1 0 0 ) " x="336" y="603">10</text>
    <ellipse id="11440375" cy="617" cx="392" rx="17" ry="17" style="&E8;" />
    <text id="11440376" style="&E9;" transform="matrix(1 0 0 1 0 0 ) " x="376" y="603">02</text>
    <ellipse id="11440378" cy="617" cx="432" rx="17" ry="17" style="&E8;" />
    <text id="11440379" style="&E9;" transform="matrix(1 0 0 1 0 0 ) " x="416" y="603">01</text>
    <ellipse id="11440381" cy="617" cx="472" rx="17" ry="17" style="&E6;" />
    <text id="11440382" style="&E9;" transform="matrix(1 0 0 1 0 0 ) " x="456" y="603">06</text>
    <rect id="11440384" height="36" style="&E10;" width="36" y="600" x="512" />
    <rect id="11440385" height="34" style="&E12;" width="34" y="601" x="513" />
    <text id="11440386" style="&E4;" transform="matrix(1 0 0 1 0 0 ) " x="520" y="605">2</text>
    <text id="11440388" style="&E9;" transform="matrix(1 0 0 1 0 0 ) " x="560" y="605">小</text>
    <text id="11440390" style="&E9;" transform="matrix(1 0 0 1 0 0 ) " x="600" y="605">双</text>
    <rect id="11440392" height="46" style="&E15;" width="627" y="656" x="10" />
    <text id="11440393" style="&E16;" transform="matrix(1 0 0 1 0 0 ) " x="229" y="666">路</text>
    <text id="11440395" style="&E16;" transform="matrix(1 0 0 1 0 0 ) " x="280" y="666">字</text>
    <text id="11440397" style="&E16;" transform="matrix(1 0 0 1 0 0 ) " x="332" y="666">图</text>
    <line y1="656" style="&E17;" id="11440399" x2="637" y2="656" x1="10" />
    <line y1="702" style="&E17;" id="11440400" x2="637" y2="702" x1="10" />
    <line y1="753" style="&E17;" id="11440401" x2="637" y2="753" x1="10" />
    <line y1="802" style="&E17;" id="11440402" x2="637" y2="802" x1="10" />
    <line y1="851" style="&E17;" id="11440403" x2="637" y2="851" x1="10" />
    <line y1="900" style="&E17;" id="11440404" x2="637" y2="900" x1="10" />
    <line y1="945" style="&E17;" id="11440405" x2="637" y2="945" x1="10" />
    <line y1="656" style="&E17;" id="11440406" x2="10" y2="945" x1="10" />
    <line y1="656" style="&E17;" id="11440407" x2="60" y2="945" x1="60" />
    <line y1="656" style="&E17;" id="11440408" x2="115" y2="945" x1="115" />
    <line y1="656" style="&E17;" id="11440409" x2="166" y2="945" x1="166" />
    <line y1="656" style="&E17;" id="11440410" x2="219" y2="945" x1="219" />
    <line y1="656" style="&E17;" id="11440411" x2="270" y2="945" x1="270" />
    <line y1="656" style="&E17;" id="11440412" x2="323" y2="945" x1="323" />
    <line y1="656" style="&E17;" id="11440413" x2="375" y2="945" x1="375" />
    <line y1="656" style="&E17;" id="11440414" x2="427" y2="945" x1="427" />
    <line y1="656" style="&E17;" id="11440415" x2="480" y2="945" x1="480" />
    <line y1="656" style="&E17;" id="11440416" x2="531" y2="945" x1="531" />
    <line y1="656" style="&E17;" id="11440417" x2="584" y2="945" x1="584" />
    <line y1="656" style="&E17;" id="11440418" x2="636" y2="945" x1="636" />
    <rect id="11440419" height="38" style="&E10;" width="38" y="708" x="16" />
    <rect id="11440420" height="37" style="&E14;" width="37" y="708" x="16" />
    <text id="11440421" style="&E18;" transform="matrix(1 0 0 1 0 0 ) " x="20" y="710">1</text>
    <rect id="11440423" height="38" style="&E10;" width="38" y="708" x="68" />
    <rect id="11440424" height="37" style="&E13;" width="37" y="708" x="68" />
    <text id="11440425" style="&E18;" transform="matrix(1 0 0 1 0 0 ) " x="72" y="710">3</text>
    <rect id="11440427" height="38" style="&E10;" width="38" y="708" x="121" />
    <rect id="11440428" height="37" style="&E13;" width="37" y="708" x="121" />
    <text id="11440429" style="&E18;" transform="matrix(1 0 0 1 0 0 ) " x="125" y="710">3</text>
    <rect id="11440431" height="38" style="&E10;" width="38" y="708" x="174" />
    <rect id="11440432" height="37" style="&E11;" width="37" y="708" x="174" />
    <text id="11440433" style="&E18;" transform="matrix(1 0 0 1 0 0 ) " x="178" y="710">4</text>
    <rect id="11440435" height="38" style="&E10;" width="38" y="708" x="225" />
    <rect id="11440436" height="37" style="&E14;" width="37" y="708" x="225" />
    <text id="11440437" style="&E18;" transform="matrix(1 0 0 1 0 0 ) " x="229" y="710">1</text>
    <rect id="11440439" height="38" style="&E10;" width="38" y="708" x="278" />
    <rect id="11440440" height="37" style="&E12;" width="37" y="708" x="278" />
    <text id="11440441" style="&E18;" transform="matrix(1 0 0 1 0 0 ) " x="282" y="710">2</text>
    <rect id="11440443" height="38" style="&E10;" width="38" y="708" x="330" />
    <rect id="11440444" height="37" style="&E11;" width="37" y="708" x="330" />
    <text id="11440445" style="&E18;" transform="matrix(1 0 0 1 0 0 ) " x="334" y="710">4</text>
    <rect id="11440447" height="38" style="&E10;" width="38" y="708" x="383" />
    <rect id="11440448" height="37" style="&E12;" width="37" y="708" x="383" />
    <text id="11440449" style="&E18;" transform="matrix(1 0 0 1 0 0 ) " x="387" y="710">2</text>
    <rect id="11440451" height="38" style="&E10;" width="38" y="708" x="434" />
    <rect id="11440452" height="37" style="&E12;" width="37" y="708" x="434" />
    <text id="11440453" style="&E18;" transform="matrix(1 0 0 1 0 0 ) " x="438" y="710">2</text>
    <rect id="11440455" height="38" style="&E10;" width="38" y="708" x="486" />
    <rect id="11440456" height="37" style="&E14;" width="37" y="708" x="486" />
    <text id="11440457" style="&E18;" transform="matrix(1 0 0 1 0 0 ) " x="490" y="710">1</text>
    <rect id="11440459" height="38" style="&E10;" width="38" y="708" x="538" />
    <rect id="11440460" height="37" style="&E12;" width="37" y="708" x="538" />
    <text id="11440461" style="&E18;" transform="matrix(1 0 0 1 0 0 ) " x="542" y="710">2</text>
    <rect id="11440463" height="38" style="&E10;" width="38" y="708" x="592" />
    <rect id="11440464" height="37" style="&E14;" width="37" y="708" x="592" />
    <text id="11440465" style="&E18;" transform="matrix(1 0 0 1 0 0 ) " x="596" y="710">1</text>
    <rect id="11440467" height="38" style="&E10;" width="38" y="758" x="16" />
    <rect id="11440468" height="37" style="&E11;" width="37" y="758" x="16" />
    <text id="11440469" style="&E18;" transform="matrix(1 0 0 1 0 0 ) " x="20" y="760">4</text>
    <rect id="11440471" height="38" style="&E10;" width="38" y="758" x="68" />
    <rect id="11440472" height="37" style="&E12;" width="37" y="758" x="68" />
    <text id="11440473" style="&E18;" transform="matrix(1 0 0 1 0 0 ) " x="72" y="760">2</text>
    <rect id="11440475" height="38" style="&E10;" width="38" y="758" x="121" />
    <rect id="11440476" height="37" style="&E13;" width="37" y="758" x="121" />
    <text id="11440477" style="&E18;" transform="matrix(1 0 0 1 0 0 ) " x="125" y="760">3</text>
    <rect id="11440479" height="38" style="&E10;" width="38" y="758" x="174" />
    <rect id="11440480" height="37" style="&E11;" width="37" y="758" x="174" />
    <text id="11440481" style="&E18;" transform="matrix(1 0 0 1 0 0 ) " x="178" y="760">4</text>
    <rect id="11440483" height="38" style="&E10;" width="38" y="758" x="225" />
    <rect id="11440484" height="37" style="&E12;" width="37" y="758" x="225" />
    <text id="11440485" style="&E18;" transform="matrix(1 0 0 1 0 0 ) " x="229" y="760">2</text>
    <rect id="11440487" height="38" style="&E10;" width="38" y="758" x="278" />
    <rect id="11440488" height="37" style="&E13;" width="37" y="758" x="278" />
    <text id="11440489" style="&E18;" transform="matrix(1 0 0 1 0 0 ) " x="282" y="760">3</text>
    <rect id="11440491" height="38" style="&E10;" width="38" y="758" x="330" />
    <rect id="11440492" height="37" style="&E14;" width="37" y="758" x="330" />
    <text id="11440493" style="&E18;" transform="matrix(1 0 0 1 0 0 ) " x="334" y="760">1</text>
    <rect id="11440495" height="38" style="&E10;" width="38" y="758" x="383" />
    <rect id="11440496" height="37" style="&E13;" width="37" y="758" x="383" />
    <text id="11440497" style="&E18;" transform="matrix(1 0 0 1 0 0 ) " x="387" y="760">3</text>
    <rect id="11440499" height="38" style="&E10;" width="38" y="758" x="434" />
    <rect id="11440500" height="37" style="&E11;" width="37" y="758" x="434" />
    <text id="11440501" style="&E18;" transform="matrix(1 0 0 1 0 0 ) " x="438" y="760">4</text>
    <rect id="11440503" height="38" style="&E10;" width="38" y="758" x="486" />
    <rect id="11440504" height="37" style="&E14;" width="37" y="758" x="486" />
    <text id="11440505" style="&E18;" transform="matrix(1 0 0 1 0 0 ) " x="490" y="760">1</text>
    <rect id="11440507" height="38" style="&E10;" width="38" y="758" x="538" />
    <rect id="11440508" height="37" style="&E13;" width="37" y="758" x="538" />
    <text id="11440509" style="&E18;" transform="matrix(1 0 0 1 0 0 ) " x="542" y="760">3</text>
    <rect id="11440511" height="38" style="&E10;" width="38" y="758" x="592" />
    <rect id="11440512" height="37" style="&E11;" width="37" y="758" x="592" />
    <text id="11440513" style="&E18;" transform="matrix(1 0 0 1 0 0 ) " x="596" y="760">4</text>
    <rect id="11440515" height="38" style="&E10;" width="38" y="806" x="16" />
    <rect id="11440516" height="37" style="&E14;" width="37" y="806" x="16" />
    <text id="11440517" style="&E18;" transform="matrix(1 0 0 1 0 0 ) " x="20" y="808">1</text>
    <rect id="11440519" height="38" style="&E10;" width="38" y="806" x="68" />
    <rect id="11440520" height="37" style="&E11;" width="37" y="806" x="68" />
    <text id="11440521" style="&E18;" transform="matrix(1 0 0 1 0 0 ) " x="72" y="808">4</text>
    <rect id="11440523" height="38" style="&E10;" width="38" y="806" x="121" />
    <rect id="11440524" height="37" style="&E13;" width="37" y="806" x="121" />
    <text id="11440525" style="&E18;" transform="matrix(1 0 0 1 0 0 ) " x="125" y="808">3</text>
    <rect id="11440527" height="38" style="&E10;" width="38" y="806" x="174" />
    <rect id="11440528" height="37" style="&E12;" width="37" y="806" x="174" />
    <text id="11440529" style="&E18;" transform="matrix(1 0 0 1 0 0 ) " x="178" y="808">2</text>
    <rect id="11440531" height="38" style="&E10;" width="38" y="806" x="225" />
    <rect id="11440532" height="37" style="&E14;" width="37" y="806" x="225" />
    <text id="11440533" style="&E18;" transform="matrix(1 0 0 1 0 0 ) " x="229" y="808">1</text>
    <rect id="11440535" height="38" style="&E10;" width="38" y="806" x="278" />
    <rect id="11440536" height="37" style="&E11;" width="37" y="806" x="278" />
    <text id="11440537" style="&E18;" transform="matrix(1 0 0 1 0 0 ) " x="282" y="808">4</text>
    <rect id="11440539" height="38" style="&E10;" width="38" y="806" x="330" />
    <rect id="11440540" height="37" style="&E13;" width="37" y="806" x="330" />
    <text id="11440541" style="&E18;" transform="matrix(1 0 0 1 0 0 ) " x="334" y="808">3</text>
    <rect id="11440543" height="38" style="&E10;" width="38" y="806" x="383" />
    <rect id="11440544" height="37" style="&E11;" width="37" y="806" x="383" />
    <text id="11440545" style="&E18;" transform="matrix(1 0 0 1 0 0 ) " x="387" y="808">4</text>
    <rect id="11440547" height="38" style="&E10;" width="38" y="806" x="434" />
    <rect id="11440548" height="37" style="&E11;" width="37" y="806" x="434" />
    <text id="11440549" style="&E18;" transform="matrix(1 0 0 1 0 0 ) " x="438" y="808">4</text>
    <rect id="11440551" height="38" style="&E10;" width="38" y="806" x="486" />
    <rect id="11440552" height="37" style="&E13;" width="37" y="806" x="486" />
    <text id="11440553" style="&E18;" transform="matrix(1 0 0 1 0 0 ) " x="490" y="808">3</text>
    <rect id="11440555" height="38" style="&E10;" width="38" y="806" x="538" />
    <rect id="11440556" height="37" style="&E11;" width="37" y="806" x="538" />
    <text id="11440557" style="&E18;" transform="matrix(1 0 0 1 0 0 ) " x="542" y="808">4</text>
    <rect id="11440559" height="38" style="&E10;" width="38" y="806" x="592" />
    <rect id="11440560" height="37" style="&E12;" width="37" y="806" x="592" />
    <text id="11440561" style="&E18;" transform="matrix(1 0 0 1 0 0 ) " x="596" y="808">2</text>
    <rect id="11440563" height="38" style="&E10;" width="38" y="855" x="16" />
    <rect id="11440564" height="37" style="&E13;" width="37" y="855" x="16" />
    <text id="11440565" style="&E18;" transform="matrix(1 0 0 1 0 0 ) " x="20" y="857">3</text>
    <rect id="11440567" height="38" style="&E10;" width="38" y="855" x="68" />
    <rect id="11440568" height="37" style="&E14;" width="37" y="855" x="68" />
    <text id="11440569" style="&E18;" transform="matrix(1 0 0 1 0 0 ) " x="72" y="857">1</text>
    <rect id="11440571" height="38" style="&E10;" width="38" y="855" x="121" />
    <rect id="11440572" height="37" style="&E11;" width="37" y="855" x="121" />
    <text id="11440573" style="&E18;" transform="matrix(1 0 0 1 0 0 ) " x="125" y="857">4</text>
    <rect id="11440575" height="38" style="&E10;" width="38" y="855" x="174" />
    <rect id="11440576" height="37" style="&E14;" width="37" y="855" x="174" />
    <text id="11440577" style="&E18;" transform="matrix(1 0 0 1 0 0 ) " x="178" y="857">1</text>
    <rect id="11440579" height="38" style="&E10;" width="38" y="855" x="225" />
    <rect id="11440580" height="37" style="&E12;" width="37" y="855" x="225" />
    <text id="11440581" style="&E18;" transform="matrix(1 0 0 1 0 0 ) " x="229" y="857">2</text>
    <rect id="11440583" height="38" style="&E10;" width="38" y="855" x="278" />
    <rect id="11440584" height="37" style="&E14;" width="37" y="855" x="278" />
    <text id="11440585" style="&E18;" transform="matrix(1 0 0 1 0 0 ) " x="282" y="857">1</text>
    <rect id="11440587" height="38" style="&E10;" width="38" y="855" x="330" />
    <rect id="11440588" height="37" style="&E13;" width="37" y="855" x="330" />
    <text id="11440589" style="&E18;" transform="matrix(1 0 0 1 0 0 ) " x="334" y="857">3</text>
    <rect id="11440591" height="38" style="&E10;" width="38" y="855" x="383" />
    <rect id="11440592" height="37" style="&E13;" width="37" y="855" x="383" />
    <text id="11440593" style="&E18;" transform="matrix(1 0 0 1 0 0 ) " x="387" y="857">3</text>
    <rect id="11440595" height="38" style="&E10;" width="38" y="855" x="434" />
    <rect id="11440596" height="37" style="&E11;" width="37" y="855" x="434" />
    <text id="11440597" style="&E18;" transform="matrix(1 0 0 1 0 0 ) " x="438" y="857">4</text>
    <rect id="11440599" height="38" style="&E10;" width="38" y="855" x="486" />
    <rect id="11440600" height="37" style="&E13;" width="37" y="855" x="486" />
    <text id="11440601" style="&E18;" transform="matrix(1 0 0 1 0 0 ) " x="490" y="857">3</text>
    <rect id="11440603" height="38" style="&E10;" width="38" y="855" x="538" />
    <rect id="11440604" height="37" style="&E12;" width="37" y="855" x="538" />
    <text id="11440605" style="&E18;" transform="matrix(1 0 0 1 0 0 ) " x="542" y="857">2</text>
    <rect id="11440607" height="38" style="&E10;" width="38" y="855" x="592" />
    <rect id="11440608" height="37" style="&E12;" width="37" y="855" x="592" />
    <text id="11440609" style="&E18;" transform="matrix(1 0 0 1 0 0 ) " x="596" y="857">2</text>
    <rect id="11440611" height="38" style="&E10;" width="38" y="903" x="16" />
    <rect id="11440612" height="37" style="&E11;" width="37" y="903" x="16" />
    <text id="11440613" style="&E18;" transform="matrix(1 0 0 1 0 0 ) " x="20" y="905">4</text>
    <rect id="11440615" height="38" style="&E10;" width="38" y="903" x="68" />
    <rect id="11440616" height="37" style="&E11;" width="37" y="903" x="68" />
    <text id="11440617" style="&E18;" transform="matrix(1 0 0 1 0 0 ) " x="72" y="905">4</text>
  </g>
  <defs id="clips_hatches_and_gradients" />
</svg>