<?xml version="1.0" encoding="utf-8" standalone="yes"?>
<!DOCTYPE svg PUBLIC "-//W3C//DTD SVG 1.1//EN" "http://www.w3.org/Graphics/SVG/1.1/DTD/svg11.dtd"[
	<!ENTITY E12 'stroke:none;opacity:1;fill:rgb(62,198,124);'>
	<!ENTITY E2 'stroke:none;opacity:1;fill:rgb(255,255,255);'>
	<!ENTITY E10 'stroke:rgb(0,0,0);fill:none;stroke-linecap:round;stroke-miterlimit:9;opacity:1;stroke-width:2;stroke-linejoin:round;'>
	<!ENTITY E3 'stroke:none;opacity:1;fill:rgb(60,182,230);'>
	<!ENTITY E18 'stroke:none;font-size:26pt;fill:rgb(255,255,255);font-weight:bolder;baseline-shift:-86&#37;;font-family:微软雅黑;opacity:1;'>
	<!ENTITY E4 'stroke:none;font-size:18pt;fill:rgb(255,255,255);font-weight:bolder;baseline-shift:-86&#37;;font-family:微软雅黑;opacity:1;'>
	<!ENTITY E5 'stroke:none;opacity:1;fill:rgb(250,250,250);'>
	<!ENTITY E14 'stroke:none;opacity:1;fill:rgb(93,150,255);'>
	<!ENTITY E16 'stroke:none;font-size:22pt;fill:rgb(0,0,0);font-weight:bolder;baseline-shift:-86&#37;;font-family:微软雅黑;opacity:1;'>
	<!ENTITY E8 'stroke:rgb(60,182,230);fill:none;stroke-linecap:round;stroke-miterlimit:9;opacity:1;stroke-width:2;stroke-linejoin:round;'>
	<!ENTITY E6 'stroke:rgb(255,0,0);fill:none;stroke-linecap:round;stroke-miterlimit:9;opacity:1;stroke-width:2;stroke-linejoin:round;'>
	<!ENTITY E11 'stroke:none;opacity:1;fill:rgb(255,62,65);'>
	<!ENTITY E9 'stroke:none;font-size:18pt;fill:rgb(102,102,102);font-weight:bolder;baseline-shift:-86&#37;;font-family:微软雅黑;opacity:1;'>
	<!ENTITY E1 'text-rendering:auto;shape-rendering:geometricPrecision;'>
	<!ENTITY E17 'stroke:rgb(128,128,128);fill:none;stroke-linecap:butt;stroke-miterlimit:9;opacity:1;stroke-width:2;stroke-linejoin:miter;'>
	<!ENTITY E15 'stroke:none;opacity:1;fill:rgb(211,211,211);'>
	<!ENTITY E13 'stroke:none;opacity:1;fill:rgb(247,212,0);'>
	<!ENTITY E7 'stroke:none;font-family:微软雅黑;fill:rgb(102,102,102);font-size:16pt;baseline-shift:-86&#37;;opacity:1;'>
]>
<svg height="952" width="655" id="SvgGdi_output" xmlns="http://www.w3.org/2000/svg">
  <rect id="background" height="100%" style="fill:rgb(255,255,255);" width="100%" y="0" x="0" />
  <g style="&E1;" id="root_group">
    <rect id="11444122" height="635" style="&E2;" width="655" y="0" x="0" />
    <rect id="11444123" height="37" style="&E3;" width="655" y="0" x="0" />
    <text id="11444124" style="&E4;" transform="matrix(1 0 0 1 0 0 ) " x="15" y="3">期数</text>
    <text id="11444126" style="&E4;" transform="matrix(1 0 0 1 0 0 ) " x="89" y="3">时间</text>
    <text id="11444128" style="&E4;" transform="matrix(1 0 0 1 0 0 ) " x="373" y="3">结果</text>
    <text id="11444130" style="&E4;" transform="matrix(1 0 0 1 0 0 ) " x="520" y="3">番</text>
    <rect id="11444132" height="37" style="&E5;" width="655" y="38" x="0" />
    <rect id="11444133" height="37" style="&E5;" width="655" y="118" x="0" />
    <rect id="11444134" height="37" style="&E5;" width="655" y="198" x="0" />
    <rect id="11444135" height="37" style="&E5;" width="655" y="278" x="0" />
    <rect id="11444136" height="37" style="&E5;" width="655" y="358" x="0" />
    <rect id="11444137" height="37" style="&E5;" width="655" y="438" x="0" />
    <rect id="11444138" height="37" style="&E5;" width="655" y="518" x="0" />
    <rect id="11444139" height="37" style="&E5;" width="655" y="598" x="0" />
    <rect id="11444140" height="37" style="&E5;" width="655" y="678" x="0" />
    <rect id="11444141" height="37" style="&E5;" width="655" y="758" x="0" />
    <rect id="11444142" height="37" style="&E6;" width="655" y="38" x="0" />
    <text id="11444143" style="&E7;" transform="matrix(1 0 0 1 0 0 ) " x="10" y="45">43</text>
    <text id="11444145" style="&E7;" transform="matrix(1 0 0 1 0 0 ) " x="50" y="45">18:28:40</text>
    <ellipse id="11444147" cy="57" cx="192" rx="17" ry="17" style="&E8;" />
    <text id="11444148" style="&E9;" transform="matrix(1 0 0 1 0 0 ) " x="176" y="43">11</text>
    <ellipse id="11444150" cy="57" cx="232" rx="17" ry="17" style="&E8;" />
    <text id="11444151" style="&E9;" transform="matrix(1 0 0 1 0 0 ) " x="216" y="43">01</text>
    <ellipse id="11444153" cy="57" cx="272" rx="17" ry="17" style="&E8;" />
    <text id="11444154" style="&E9;" transform="matrix(1 0 0 1 0 0 ) " x="256" y="43">20</text>
    <ellipse id="11444156" cy="57" cx="312" rx="17" ry="17" style="&E8;" />
    <text id="11444157" style="&E9;" transform="matrix(1 0 0 1 0 0 ) " x="296" y="43">15</text>
    <ellipse id="11444159" cy="57" cx="352" rx="17" ry="17" style="&E8;" />
    <text id="11444160" style="&E9;" transform="matrix(1 0 0 1 0 0 ) " x="336" y="43">19</text>
    <ellipse id="11444162" cy="57" cx="392" rx="17" ry="17" style="&E8;" />
    <text id="11444163" style="&E9;" transform="matrix(1 0 0 1 0 0 ) " x="376" y="43">08</text>
    <ellipse id="11444165" cy="57" cx="432" rx="17" ry="17" style="&E8;" />
    <text id="11444166" style="&E9;" transform="matrix(1 0 0 1 0 0 ) " x="416" y="43">05</text>
    <ellipse id="11444168" cy="57" cx="472" rx="17" ry="17" style="&E6;" />
    <text id="11444169" style="&E9;" transform="matrix(1 0 0 1 0 0 ) " x="456" y="43">16</text>
    <rect id="11444171" height="36" style="&E10;" width="36" y="40" x="512" />
    <rect id="11444172" height="34" style="&E11;" width="34" y="41" x="513" />
    <text id="11444173" style="&E4;" transform="matrix(1 0 0 1 0 0 ) " x="520" y="45">4</text>
    <text id="11444175" style="&E9;" transform="matrix(1 0 0 1 0 0 ) " x="560" y="45">大</text>
    <text id="11444177" style="&E9;" transform="matrix(1 0 0 1 0 0 ) " x="600" y="45">双</text>
    <text id="11444179" style="&E7;" transform="matrix(1 0 0 1 0 0 ) " x="10" y="85">42</text>
    <text id="11444181" style="&E7;" transform="matrix(1 0 0 1 0 0 ) " x="50" y="85">18:23:40</text>
    <ellipse id="11444183" cy="97" cx="192" rx="17" ry="17" style="&E8;" />
    <text id="11444184" style="&E9;" transform="matrix(1 0 0 1 0 0 ) " x="176" y="83">17</text>
    <ellipse id="11444186" cy="97" cx="232" rx="17" ry="17" style="&E8;" />
    <text id="11444187" style="&E9;" transform="matrix(1 0 0 1 0 0 ) " x="216" y="83">11</text>
    <ellipse id="11444189" cy="97" cx="272" rx="17" ry="17" style="&E8;" />
    <text id="11444190" style="&E9;" transform="matrix(1 0 0 1 0 0 ) " x="256" y="83">15</text>
    <ellipse id="11444192" cy="97" cx="312" rx="17" ry="17" style="&E8;" />
    <text id="11444193" style="&E9;" transform="matrix(1 0 0 1 0 0 ) " x="296" y="83">12</text>
    <ellipse id="11444195" cy="97" cx="352" rx="17" ry="17" style="&E8;" />
    <text id="11444196" style="&E9;" transform="matrix(1 0 0 1 0 0 ) " x="336" y="83">05</text>
    <ellipse id="11444198" cy="97" cx="392" rx="17" ry="17" style="&E8;" />
    <text id="11444199" style="&E9;" transform="matrix(1 0 0 1 0 0 ) " x="376" y="83">19</text>
    <ellipse id="11444201" cy="97" cx="432" rx="17" ry="17" style="&E8;" />
    <text id="11444202" style="&E9;" transform="matrix(1 0 0 1 0 0 ) " x="416" y="83">13</text>
    <ellipse id="11444204" cy="97" cx="472" rx="17" ry="17" style="&E6;" />
    <text id="11444205" style="&E9;" transform="matrix(1 0 0 1 0 0 ) " x="456" y="83">02</text>
    <rect id="11444207" height="36" style="&E10;" width="36" y="80" x="512" />
    <rect id="11444208" height="34" style="&E12;" width="34" y="81" x="513" />
    <text id="11444209" style="&E4;" transform="matrix(1 0 0 1 0 0 ) " x="520" y="85">2</text>
    <text id="11444211" style="&E9;" transform="matrix(1 0 0 1 0 0 ) " x="560" y="85">小</text>
    <text id="11444213" style="&E9;" transform="matrix(1 0 0 1 0 0 ) " x="600" y="85">双</text>
    <text id="11444215" style="&E7;" transform="matrix(1 0 0 1 0 0 ) " x="10" y="125">41</text>
    <text id="11444217" style="&E7;" transform="matrix(1 0 0 1 0 0 ) " x="50" y="125">18:18:40</text>
    <ellipse id="11444219" cy="137" cx="192" rx="17" ry="17" style="&E8;" />
    <text id="11444220" style="&E9;" transform="matrix(1 0 0 1 0 0 ) " x="176" y="123">03</text>
    <ellipse id="11444222" cy="137" cx="232" rx="17" ry="17" style="&E8;" />
    <text id="11444223" style="&E9;" transform="matrix(1 0 0 1 0 0 ) " x="216" y="123">08</text>
    <ellipse id="11444225" cy="137" cx="272" rx="17" ry="17" style="&E8;" />
    <text id="11444226" style="&E9;" transform="matrix(1 0 0 1 0 0 ) " x="256" y="123">19</text>
    <ellipse id="11444228" cy="137" cx="312" rx="17" ry="17" style="&E8;" />
    <text id="11444229" style="&E9;" transform="matrix(1 0 0 1 0 0 ) " x="296" y="123">15</text>
    <ellipse id="11444231" cy="137" cx="352" rx="17" ry="17" style="&E8;" />
    <text id="11444232" style="&E9;" transform="matrix(1 0 0 1 0 0 ) " x="336" y="123">09</text>
    <ellipse id="11444234" cy="137" cx="392" rx="17" ry="17" style="&E8;" />
    <text id="11444235" style="&E9;" transform="matrix(1 0 0 1 0 0 ) " x="376" y="123">07</text>
    <ellipse id="11444237" cy="137" cx="432" rx="17" ry="17" style="&E8;" />
    <text id="11444238" style="&E9;" transform="matrix(1 0 0 1 0 0 ) " x="416" y="123">13</text>
    <ellipse id="11444240" cy="137" cx="472" rx="17" ry="17" style="&E6;" />
    <text id="11444241" style="&E9;" transform="matrix(1 0 0 1 0 0 ) " x="456" y="123">02</text>
    <rect id="11444243" height="36" style="&E10;" width="36" y="120" x="512" />
    <rect id="11444244" height="34" style="&E12;" width="34" y="121" x="513" />
    <text id="11444245" style="&E4;" transform="matrix(1 0 0 1 0 0 ) " x="520" y="125">2</text>
    <text id="11444247" style="&E9;" transform="matrix(1 0 0 1 0 0 ) " x="560" y="125">小</text>
    <text id="11444249" style="&E9;" transform="matrix(1 0 0 1 0 0 ) " x="600" y="125">双</text>
    <text id="11444251" style="&E7;" transform="matrix(1 0 0 1 0 0 ) " x="10" y="165">40</text>
    <text id="11444253" style="&E7;" transform="matrix(1 0 0 1 0 0 ) " x="50" y="165">18:13:40</text>
    <ellipse id="11444255" cy="177" cx="192" rx="17" ry="17" style="&E8;" />
    <text id="11444256" style="&E9;" transform="matrix(1 0 0 1 0 0 ) " x="176" y="163">16</text>
    <ellipse id="11444258" cy="177" cx="232" rx="17" ry="17" style="&E8;" />
    <text id="11444259" style="&E9;" transform="matrix(1 0 0 1 0 0 ) " x="216" y="163">03</text>
    <ellipse id="11444261" cy="177" cx="272" rx="17" ry="17" style="&E8;" />
    <text id="11444262" style="&E9;" transform="matrix(1 0 0 1 0 0 ) " x="256" y="163">07</text>
    <ellipse id="11444264" cy="177" cx="312" rx="17" ry="17" style="&E8;" />
    <text id="11444265" style="&E9;" transform="matrix(1 0 0 1 0 0 ) " x="296" y="163">02</text>
    <ellipse id="11444267" cy="177" cx="352" rx="17" ry="17" style="&E8;" />
    <text id="11444268" style="&E9;" transform="matrix(1 0 0 1 0 0 ) " x="336" y="163">19</text>
    <ellipse id="11444270" cy="177" cx="392" rx="17" ry="17" style="&E8;" />
    <text id="11444271" style="&E9;" transform="matrix(1 0 0 1 0 0 ) " x="376" y="163">17</text>
    <ellipse id="11444273" cy="177" cx="432" rx="17" ry="17" style="&E8;" />
    <text id="11444274" style="&E9;" transform="matrix(1 0 0 1 0 0 ) " x="416" y="163">06</text>
    <ellipse id="11444276" cy="177" cx="472" rx="17" ry="17" style="&E6;" />
    <text id="11444277" style="&E9;" transform="matrix(1 0 0 1 0 0 ) " x="456" y="163">20</text>
    <rect id="11444279" height="36" style="&E10;" width="36" y="160" x="512" />
    <rect id="11444280" height="34" style="&E11;" width="34" y="161" x="513" />
    <text id="11444281" style="&E4;" transform="matrix(1 0 0 1 0 0 ) " x="520" y="165">4</text>
    <text id="11444283" style="&E9;" transform="matrix(1 0 0 1 0 0 ) " x="560" y="165">大</text>
    <text id="11444285" style="&E9;" transform="matrix(1 0 0 1 0 0 ) " x="600" y="165">双</text>
    <text id="11444287" style="&E7;" transform="matrix(1 0 0 1 0 0 ) " x="10" y="205">39</text>
    <text id="11444289" style="&E7;" transform="matrix(1 0 0 1 0 0 ) " x="50" y="205">18:08:40</text>
    <ellipse id="11444291" cy="217" cx="192" rx="17" ry="17" style="&E8;" />
    <text id="11444292" style="&E9;" transform="matrix(1 0 0 1 0 0 ) " x="176" y="203">06</text>
    <ellipse id="11444294" cy="217" cx="232" rx="17" ry="17" style="&E8;" />
    <text id="11444295" style="&E9;" transform="matrix(1 0 0 1 0 0 ) " x="216" y="203">08</text>
    <ellipse id="11444297" cy="217" cx="272" rx="17" ry="17" style="&E8;" />
    <text id="11444298" style="&E9;" transform="matrix(1 0 0 1 0 0 ) " x="256" y="203">10</text>
    <ellipse id="11444300" cy="217" cx="312" rx="17" ry="17" style="&E8;" />
    <text id="11444301" style="&E9;" transform="matrix(1 0 0 1 0 0 ) " x="296" y="203">07</text>
    <ellipse id="11444303" cy="217" cx="352" rx="17" ry="17" style="&E8;" />
    <text id="11444304" style="&E9;" transform="matrix(1 0 0 1 0 0 ) " x="336" y="203">05</text>
    <ellipse id="11444306" cy="217" cx="392" rx="17" ry="17" style="&E8;" />
    <text id="11444307" style="&E9;" transform="matrix(1 0 0 1 0 0 ) " x="376" y="203">20</text>
    <ellipse id="11444309" cy="217" cx="432" rx="17" ry="17" style="&E8;" />
    <text id="11444310" style="&E9;" transform="matrix(1 0 0 1 0 0 ) " x="416" y="203">14</text>
    <ellipse id="11444312" cy="217" cx="472" rx="17" ry="17" style="&E6;" />
    <text id="11444313" style="&E9;" transform="matrix(1 0 0 1 0 0 ) " x="456" y="203">16</text>
    <rect id="11444315" height="36" style="&E10;" width="36" y="200" x="512" />
    <rect id="11444316" height="34" style="&E11;" width="34" y="201" x="513" />
    <text id="11444317" style="&E4;" transform="matrix(1 0 0 1 0 0 ) " x="520" y="205">4</text>
    <text id="11444319" style="&E9;" transform="matrix(1 0 0 1 0 0 ) " x="560" y="205">大</text>
    <text id="11444321" style="&E9;" transform="matrix(1 0 0 1 0 0 ) " x="600" y="205">双</text>
    <text id="11444323" style="&E7;" transform="matrix(1 0 0 1 0 0 ) " x="10" y="245">38</text>
    <text id="11444325" style="&E7;" transform="matrix(1 0 0 1 0 0 ) " x="50" y="245">18:03:40</text>
    <ellipse id="11444327" cy="257" cx="192" rx="17" ry="17" style="&E8;" />
    <text id="11444328" style="&E9;" transform="matrix(1 0 0 1 0 0 ) " x="176" y="243">06</text>
    <ellipse id="11444330" cy="257" cx="232" rx="17" ry="17" style="&E8;" />
    <text id="11444331" style="&E9;" transform="matrix(1 0 0 1 0 0 ) " x="216" y="243">15</text>
    <ellipse id="11444333" cy="257" cx="272" rx="17" ry="17" style="&E8;" />
    <text id="11444334" style="&E9;" transform="matrix(1 0 0 1 0 0 ) " x="256" y="243">10</text>
    <ellipse id="11444336" cy="257" cx="312" rx="17" ry="17" style="&E8;" />
    <text id="11444337" style="&E9;" transform="matrix(1 0 0 1 0 0 ) " x="296" y="243">03</text>
    <ellipse id="11444339" cy="257" cx="352" rx="17" ry="17" style="&E8;" />
    <text id="11444340" style="&E9;" transform="matrix(1 0 0 1 0 0 ) " x="336" y="243">07</text>
    <ellipse id="11444342" cy="257" cx="392" rx="17" ry="17" style="&E8;" />
    <text id="11444343" style="&E9;" transform="matrix(1 0 0 1 0 0 ) " x="376" y="243">18</text>
    <ellipse id="11444345" cy="257" cx="432" rx="17" ry="17" style="&E8;" />
    <text id="11444346" style="&E9;" transform="matrix(1 0 0 1 0 0 ) " x="416" y="243">08</text>
    <ellipse id="11444348" cy="257" cx="472" rx="17" ry="17" style="&E6;" />
    <text id="11444349" style="&E9;" transform="matrix(1 0 0 1 0 0 ) " x="456" y="243">02</text>
    <rect id="11444351" height="36" style="&E10;" width="36" y="240" x="512" />
    <rect id="11444352" height="34" style="&E12;" width="34" y="241" x="513" />
    <text id="11444353" style="&E4;" transform="matrix(1 0 0 1 0 0 ) " x="520" y="245">2</text>
    <text id="11444355" style="&E9;" transform="matrix(1 0 0 1 0 0 ) " x="560" y="245">小</text>
    <text id="11444357" style="&E9;" transform="matrix(1 0 0 1 0 0 ) " x="600" y="245">双</text>
    <text id="11444359" style="&E7;" transform="matrix(1 0 0 1 0 0 ) " x="10" y="285">37</text>
    <text id="11444361" style="&E7;" transform="matrix(1 0 0 1 0 0 ) " x="50" y="285">17:58:40</text>
    <ellipse id="11444363" cy="297" cx="192" rx="17" ry="17" style="&E8;" />
    <text id="11444364" style="&E9;" transform="matrix(1 0 0 1 0 0 ) " x="176" y="283">18</text>
    <ellipse id="11444366" cy="297" cx="232" rx="17" ry="17" style="&E8;" />
    <text id="11444367" style="&E9;" transform="matrix(1 0 0 1 0 0 ) " x="216" y="283">10</text>
    <ellipse id="11444369" cy="297" cx="272" rx="17" ry="17" style="&E8;" />
    <text id="11444370" style="&E9;" transform="matrix(1 0 0 1 0 0 ) " x="256" y="283">19</text>
    <ellipse id="11444372" cy="297" cx="312" rx="17" ry="17" style="&E8;" />
    <text id="11444373" style="&E9;" transform="matrix(1 0 0 1 0 0 ) " x="296" y="283">13</text>
    <ellipse id="11444375" cy="297" cx="352" rx="17" ry="17" style="&E8;" />
    <text id="11444376" style="&E9;" transform="matrix(1 0 0 1 0 0 ) " x="336" y="283">05</text>
    <ellipse id="11444378" cy="297" cx="392" rx="17" ry="17" style="&E8;" />
    <text id="11444379" style="&E9;" transform="matrix(1 0 0 1 0 0 ) " x="376" y="283">08</text>
    <ellipse id="11444381" cy="297" cx="432" rx="17" ry="17" style="&E8;" />
    <text id="11444382" style="&E9;" transform="matrix(1 0 0 1 0 0 ) " x="416" y="283">01</text>
    <ellipse id="11444384" cy="297" cx="472" rx="17" ry="17" style="&E6;" />
    <text id="11444385" style="&E9;" transform="matrix(1 0 0 1 0 0 ) " x="456" y="283">06</text>
    <rect id="11444387" height="36" style="&E10;" width="36" y="280" x="512" />
    <rect id="11444388" height="34" style="&E12;" width="34" y="281" x="513" />
    <text id="11444389" style="&E4;" transform="matrix(1 0 0 1 0 0 ) " x="520" y="285">2</text>
    <text id="11444391" style="&E9;" transform="matrix(1 0 0 1 0 0 ) " x="560" y="285">小</text>
    <text id="11444393" style="&E9;" transform="matrix(1 0 0 1 0 0 ) " x="600" y="285">双</text>
    <text id="11444395" style="&E7;" transform="matrix(1 0 0 1 0 0 ) " x="10" y="325">36</text>
    <text id="11444397" style="&E7;" transform="matrix(1 0 0 1 0 0 ) " x="50" y="325">17:53:40</text>
    <ellipse id="11444399" cy="337" cx="192" rx="17" ry="17" style="&E8;" />
    <text id="11444400" style="&E9;" transform="matrix(1 0 0 1 0 0 ) " x="176" y="323">15</text>
    <ellipse id="11444402" cy="337" cx="232" rx="17" ry="17" style="&E8;" />
    <text id="11444403" style="&E9;" transform="matrix(1 0 0 1 0 0 ) " x="216" y="323">17</text>
    <ellipse id="11444405" cy="337" cx="272" rx="17" ry="17" style="&E8;" />
    <text id="11444406" style="&E9;" transform="matrix(1 0 0 1 0 0 ) " x="256" y="323">20</text>
    <ellipse id="11444408" cy="337" cx="312" rx="17" ry="17" style="&E8;" />
    <text id="11444409" style="&E9;" transform="matrix(1 0 0 1 0 0 ) " x="296" y="323">06</text>
    <ellipse id="11444411" cy="337" cx="352" rx="17" ry="17" style="&E8;" />
    <text id="11444412" style="&E9;" transform="matrix(1 0 0 1 0 0 ) " x="336" y="323">04</text>
    <ellipse id="11444414" cy="337" cx="392" rx="17" ry="17" style="&E8;" />
    <text id="11444415" style="&E9;" transform="matrix(1 0 0 1 0 0 ) " x="376" y="323">03</text>
    <ellipse id="11444417" cy="337" cx="432" rx="17" ry="17" style="&E8;" />
    <text id="11444418" style="&E9;" transform="matrix(1 0 0 1 0 0 ) " x="416" y="323">08</text>
    <ellipse id="11444420" cy="337" cx="472" rx="17" ry="17" style="&E6;" />
    <text id="11444421" style="&E9;" transform="matrix(1 0 0 1 0 0 ) " x="456" y="323">07</text>
    <rect id="11444423" height="36" style="&E10;" width="36" y="320" x="512" />
    <rect id="11444424" height="34" style="&E13;" width="34" y="321" x="513" />
    <text id="11444425" style="&E4;" transform="matrix(1 0 0 1 0 0 ) " x="520" y="325">3</text>
    <text id="11444427" style="&E9;" transform="matrix(1 0 0 1 0 0 ) " x="560" y="325">小</text>
    <text id="11444429" style="&E9;" transform="matrix(1 0 0 1 0 0 ) " x="600" y="325">单</text>
    <text id="11444431" style="&E7;" transform="matrix(1 0 0 1 0 0 ) " x="10" y="365">35</text>
    <text id="11444433" style="&E7;" transform="matrix(1 0 0 1 0 0 ) " x="50" y="365">17:48:40</text>
    <ellipse id="11444435" cy="377" cx="192" rx="17" ry="17" style="&E8;" />
    <text id="11444436" style="&E9;" transform="matrix(1 0 0 1 0 0 ) " x="176" y="363">01</text>
    <ellipse id="11444438" cy="377" cx="232" rx="17" ry="17" style="&E8;" />
    <text id="11444439" style="&E9;" transform="matrix(1 0 0 1 0 0 ) " x="216" y="363">02</text>
    <ellipse id="11444441" cy="377" cx="272" rx="17" ry="17" style="&E8;" />
    <text id="11444442" style="&E9;" transform="matrix(1 0 0 1 0 0 ) " x="256" y="363">06</text>
    <ellipse id="11444444" cy="377" cx="312" rx="17" ry="17" style="&E8;" />
    <text id="11444445" style="&E9;" transform="matrix(1 0 0 1 0 0 ) " x="296" y="363">09</text>
    <ellipse id="11444447" cy="377" cx="352" rx="17" ry="17" style="&E8;" />
    <text id="11444448" style="&E9;" transform="matrix(1 0 0 1 0 0 ) " x="336" y="363">05</text>
    <ellipse id="11444450" cy="377" cx="392" rx="17" ry="17" style="&E8;" />
    <text id="11444451" style="&E9;" transform="matrix(1 0 0 1 0 0 ) " x="376" y="363">03</text>
    <ellipse id="11444453" cy="377" cx="432" rx="17" ry="17" style="&E8;" />
    <text id="11444454" style="&E9;" transform="matrix(1 0 0 1 0 0 ) " x="416" y="363">17</text>
    <ellipse id="11444456" cy="377" cx="472" rx="17" ry="17" style="&E6;" />
    <text id="11444457" style="&E9;" transform="matrix(1 0 0 1 0 0 ) " x="456" y="363">20</text>
    <rect id="11444459" height="36" style="&E10;" width="36" y="360" x="512" />
    <rect id="11444460" height="34" style="&E11;" width="34" y="361" x="513" />
    <text id="11444461" style="&E4;" transform="matrix(1 0 0 1 0 0 ) " x="520" y="365">4</text>
    <text id="11444463" style="&E9;" transform="matrix(1 0 0 1 0 0 ) " x="560" y="365">大</text>
    <text id="11444465" style="&E9;" transform="matrix(1 0 0 1 0 0 ) " x="600" y="365">双</text>
    <text id="11444467" style="&E7;" transform="matrix(1 0 0 1 0 0 ) " x="10" y="405">34</text>
    <text id="11444469" style="&E7;" transform="matrix(1 0 0 1 0 0 ) " x="50" y="405">17:43:40</text>
    <ellipse id="11444471" cy="417" cx="192" rx="17" ry="17" style="&E8;" />
    <text id="11444472" style="&E9;" transform="matrix(1 0 0 1 0 0 ) " x="176" y="403">15</text>
    <ellipse id="11444474" cy="417" cx="232" rx="17" ry="17" style="&E8;" />
    <text id="11444475" style="&E9;" transform="matrix(1 0 0 1 0 0 ) " x="216" y="403">03</text>
    <ellipse id="11444477" cy="417" cx="272" rx="17" ry="17" style="&E8;" />
    <text id="11444478" style="&E9;" transform="matrix(1 0 0 1 0 0 ) " x="256" y="403">18</text>
    <ellipse id="11444480" cy="417" cx="312" rx="17" ry="17" style="&E8;" />
    <text id="11444481" style="&E9;" transform="matrix(1 0 0 1 0 0 ) " x="296" y="403">12</text>
    <ellipse id="11444483" cy="417" cx="352" rx="17" ry="17" style="&E8;" />
    <text id="11444484" style="&E9;" transform="matrix(1 0 0 1 0 0 ) " x="336" y="403">20</text>
    <ellipse id="11444486" cy="417" cx="392" rx="17" ry="17" style="&E8;" />
    <text id="11444487" style="&E9;" transform="matrix(1 0 0 1 0 0 ) " x="376" y="403">09</text>
    <ellipse id="11444489" cy="417" cx="432" rx="17" ry="17" style="&E8;" />
    <text id="11444490" style="&E9;" transform="matrix(1 0 0 1 0 0 ) " x="416" y="403">17</text>
    <ellipse id="11444492" cy="417" cx="472" rx="17" ry="17" style="&E6;" />
    <text id="11444493" style="&E9;" transform="matrix(1 0 0 1 0 0 ) " x="456" y="403">19</text>
    <rect id="11444495" height="36" style="&E10;" width="36" y="400" x="512" />
    <rect id="11444496" height="34" style="&E13;" width="34" y="401" x="513" />
    <text id="11444497" style="&E4;" transform="matrix(1 0 0 1 0 0 ) " x="520" y="405">3</text>
    <text id="11444499" style="&E9;" transform="matrix(1 0 0 1 0 0 ) " x="560" y="405">大</text>
    <text id="11444501" style="&E9;" transform="matrix(1 0 0 1 0 0 ) " x="600" y="405">单</text>
    <text id="11444503" style="&E7;" transform="matrix(1 0 0 1 0 0 ) " x="10" y="445">33</text>
    <text id="11444505" style="&E7;" transform="matrix(1 0 0 1 0 0 ) " x="50" y="445">17:38:40</text>
    <ellipse id="11444507" cy="457" cx="192" rx="17" ry="17" style="&E8;" />
    <text id="11444508" style="&E9;" transform="matrix(1 0 0 1 0 0 ) " x="176" y="443">10</text>
    <ellipse id="11444510" cy="457" cx="232" rx="17" ry="17" style="&E8;" />
    <text id="11444511" style="&E9;" transform="matrix(1 0 0 1 0 0 ) " x="216" y="443">05</text>
    <ellipse id="11444513" cy="457" cx="272" rx="17" ry="17" style="&E8;" />
    <text id="11444514" style="&E9;" transform="matrix(1 0 0 1 0 0 ) " x="256" y="443">06</text>
    <ellipse id="11444516" cy="457" cx="312" rx="17" ry="17" style="&E8;" />
    <text id="11444517" style="&E9;" transform="matrix(1 0 0 1 0 0 ) " x="296" y="443">13</text>
    <ellipse id="11444519" cy="457" cx="352" rx="17" ry="17" style="&E8;" />
    <text id="11444520" style="&E9;" transform="matrix(1 0 0 1 0 0 ) " x="336" y="443">08</text>
    <ellipse id="11444522" cy="457" cx="392" rx="17" ry="17" style="&E8;" />
    <text id="11444523" style="&E9;" transform="matrix(1 0 0 1 0 0 ) " x="376" y="443">04</text>
    <ellipse id="11444525" cy="457" cx="432" rx="17" ry="17" style="&E8;" />
    <text id="11444526" style="&E9;" transform="matrix(1 0 0 1 0 0 ) " x="416" y="443">09</text>
    <ellipse id="11444528" cy="457" cx="472" rx="17" ry="17" style="&E6;" />
    <text id="11444529" style="&E9;" transform="matrix(1 0 0 1 0 0 ) " x="456" y="443">19</text>
    <rect id="11444531" height="36" style="&E10;" width="36" y="440" x="512" />
    <rect id="11444532" height="34" style="&E13;" width="34" y="441" x="513" />
    <text id="11444533" style="&E4;" transform="matrix(1 0 0 1 0 0 ) " x="520" y="445">3</text>
    <text id="11444535" style="&E9;" transform="matrix(1 0 0 1 0 0 ) " x="560" y="445">大</text>
    <text id="11444537" style="&E9;" transform="matrix(1 0 0 1 0 0 ) " x="600" y="445">单</text>
    <text id="11444539" style="&E7;" transform="matrix(1 0 0 1 0 0 ) " x="10" y="485">32</text>
    <text id="11444541" style="&E7;" transform="matrix(1 0 0 1 0 0 ) " x="50" y="485">17:33:40</text>
    <ellipse id="11444543" cy="497" cx="192" rx="17" ry="17" style="&E8;" />
    <text id="11444544" style="&E9;" transform="matrix(1 0 0 1 0 0 ) " x="176" y="483">19</text>
    <ellipse id="11444546" cy="497" cx="232" rx="17" ry="17" style="&E8;" />
    <text id="11444547" style="&E9;" transform="matrix(1 0 0 1 0 0 ) " x="216" y="483">16</text>
    <ellipse id="11444549" cy="497" cx="272" rx="17" ry="17" style="&E8;" />
    <text id="11444550" style="&E9;" transform="matrix(1 0 0 1 0 0 ) " x="256" y="483">09</text>
    <ellipse id="11444552" cy="497" cx="312" rx="17" ry="17" style="&E8;" />
    <text id="11444553" style="&E9;" transform="matrix(1 0 0 1 0 0 ) " x="296" y="483">02</text>
    <ellipse id="11444555" cy="497" cx="352" rx="17" ry="17" style="&E8;" />
    <text id="11444556" style="&E9;" transform="matrix(1 0 0 1 0 0 ) " x="336" y="483">08</text>
    <ellipse id="11444558" cy="497" cx="392" rx="17" ry="17" style="&E8;" />
    <text id="11444559" style="&E9;" transform="matrix(1 0 0 1 0 0 ) " x="376" y="483">14</text>
    <ellipse id="11444561" cy="497" cx="432" rx="17" ry="17" style="&E8;" />
    <text id="11444562" style="&E9;" transform="matrix(1 0 0 1 0 0 ) " x="416" y="483">06</text>
    <ellipse id="11444564" cy="497" cx="472" rx="17" ry="17" style="&E6;" />
    <text id="11444565" style="&E9;" transform="matrix(1 0 0 1 0 0 ) " x="456" y="483">17</text>
    <rect id="11444567" height="36" style="&E10;" width="36" y="480" x="512" />
    <rect id="11444568" height="34" style="&E14;" width="34" y="481" x="513" />
    <text id="11444569" style="&E4;" transform="matrix(1 0 0 1 0 0 ) " x="520" y="485">1</text>
    <text id="11444571" style="&E9;" transform="matrix(1 0 0 1 0 0 ) " x="560" y="485">大</text>
    <text id="11444573" style="&E9;" transform="matrix(1 0 0 1 0 0 ) " x="600" y="485">单</text>
    <text id="11444575" style="&E7;" transform="matrix(1 0 0 1 0 0 ) " x="10" y="525">31</text>
    <text id="11444577" style="&E7;" transform="matrix(1 0 0 1 0 0 ) " x="50" y="525">17:28:40</text>
    <ellipse id="11444579" cy="537" cx="192" rx="17" ry="17" style="&E8;" />
    <text id="11444580" style="&E9;" transform="matrix(1 0 0 1 0 0 ) " x="176" y="523">17</text>
    <ellipse id="11444582" cy="537" cx="232" rx="17" ry="17" style="&E8;" />
    <text id="11444583" style="&E9;" transform="matrix(1 0 0 1 0 0 ) " x="216" y="523">11</text>
    <ellipse id="11444585" cy="537" cx="272" rx="17" ry="17" style="&E8;" />
    <text id="11444586" style="&E9;" transform="matrix(1 0 0 1 0 0 ) " x="256" y="523">16</text>
    <ellipse id="11444588" cy="537" cx="312" rx="17" ry="17" style="&E8;" />
    <text id="11444589" style="&E9;" transform="matrix(1 0 0 1 0 0 ) " x="296" y="523">05</text>
    <ellipse id="11444591" cy="537" cx="352" rx="17" ry="17" style="&E8;" />
    <text id="11444592" style="&E9;" transform="matrix(1 0 0 1 0 0 ) " x="336" y="523">08</text>
    <ellipse id="11444594" cy="537" cx="392" rx="17" ry="17" style="&E8;" />
    <text id="11444595" style="&E9;" transform="matrix(1 0 0 1 0 0 ) " x="376" y="523">06</text>
    <ellipse id="11444597" cy="537" cx="432" rx="17" ry="17" style="&E8;" />
    <text id="11444598" style="&E9;" transform="matrix(1 0 0 1 0 0 ) " x="416" y="523">10</text>
    <ellipse id="11444600" cy="537" cx="472" rx="17" ry="17" style="&E6;" />
    <text id="11444601" style="&E9;" transform="matrix(1 0 0 1 0 0 ) " x="456" y="523">18</text>
    <rect id="11444603" height="36" style="&E10;" width="36" y="520" x="512" />
    <rect id="11444604" height="34" style="&E12;" width="34" y="521" x="513" />
    <text id="11444605" style="&E4;" transform="matrix(1 0 0 1 0 0 ) " x="520" y="525">2</text>
    <text id="11444607" style="&E9;" transform="matrix(1 0 0 1 0 0 ) " x="560" y="525">大</text>
    <text id="11444609" style="&E9;" transform="matrix(1 0 0 1 0 0 ) " x="600" y="525">双</text>
    <text id="11444611" style="&E7;" transform="matrix(1 0 0 1 0 0 ) " x="10" y="565">30</text>
    <text id="11444613" style="&E7;" transform="matrix(1 0 0 1 0 0 ) " x="50" y="565">17:23:40</text>
    <ellipse id="11444615" cy="577" cx="192" rx="17" ry="17" style="&E8;" />
    <text id="11444616" style="&E9;" transform="matrix(1 0 0 1 0 0 ) " x="176" y="563">07</text>
    <ellipse id="11444618" cy="577" cx="232" rx="17" ry="17" style="&E8;" />
    <text id="11444619" style="&E9;" transform="matrix(1 0 0 1 0 0 ) " x="216" y="563">16</text>
    <ellipse id="11444621" cy="577" cx="272" rx="17" ry="17" style="&E8;" />
    <text id="11444622" style="&E9;" transform="matrix(1 0 0 1 0 0 ) " x="256" y="563">08</text>
    <ellipse id="11444624" cy="577" cx="312" rx="17" ry="17" style="&E8;" />
    <text id="11444625" style="&E9;" transform="matrix(1 0 0 1 0 0 ) " x="296" y="563">05</text>
    <ellipse id="11444627" cy="577" cx="352" rx="17" ry="17" style="&E8;" />
    <text id="11444628" style="&E9;" transform="matrix(1 0 0 1 0 0 ) " x="336" y="563">02</text>
    <ellipse id="11444630" cy="577" cx="392" rx="17" ry="17" style="&E8;" />
    <text id="11444631" style="&E9;" transform="matrix(1 0 0 1 0 0 ) " x="376" y="563">15</text>
    <ellipse id="11444633" cy="577" cx="432" rx="17" ry="17" style="&E8;" />
    <text id="11444634" style="&E9;" transform="matrix(1 0 0 1 0 0 ) " x="416" y="563">18</text>
    <ellipse id="11444636" cy="577" cx="472" rx="17" ry="17" style="&E6;" />
    <text id="11444637" style="&E9;" transform="matrix(1 0 0 1 0 0 ) " x="456" y="563">13</text>
    <rect id="11444639" height="36" style="&E10;" width="36" y="560" x="512" />
    <rect id="11444640" height="34" style="&E14;" width="34" y="561" x="513" />
    <text id="11444641" style="&E4;" transform="matrix(1 0 0 1 0 0 ) " x="520" y="565">1</text>
    <text id="11444643" style="&E9;" transform="matrix(1 0 0 1 0 0 ) " x="560" y="565">大</text>
    <text id="11444645" style="&E9;" transform="matrix(1 0 0 1 0 0 ) " x="600" y="565">单</text>
    <text id="11444647" style="&E7;" transform="matrix(1 0 0 1 0 0 ) " x="10" y="605">29</text>
    <text id="11444649" style="&E7;" transform="matrix(1 0 0 1 0 0 ) " x="50" y="605">17:18:40</text>
    <ellipse id="11444651" cy="617" cx="192" rx="17" ry="17" style="&E8;" />
    <text id="11444652" style="&E9;" transform="matrix(1 0 0 1 0 0 ) " x="176" y="603">15</text>
    <ellipse id="11444654" cy="617" cx="232" rx="17" ry="17" style="&E8;" />
    <text id="11444655" style="&E9;" transform="matrix(1 0 0 1 0 0 ) " x="216" y="603">04</text>
    <ellipse id="11444657" cy="617" cx="272" rx="17" ry="17" style="&E8;" />
    <text id="11444658" style="&E9;" transform="matrix(1 0 0 1 0 0 ) " x="256" y="603">03</text>
    <ellipse id="11444660" cy="617" cx="312" rx="17" ry="17" style="&E8;" />
    <text id="11444661" style="&E9;" transform="matrix(1 0 0 1 0 0 ) " x="296" y="603">09</text>
    <ellipse id="11444663" cy="617" cx="352" rx="17" ry="17" style="&E8;" />
    <text id="11444664" style="&E9;" transform="matrix(1 0 0 1 0 0 ) " x="336" y="603">17</text>
    <ellipse id="11444666" cy="617" cx="392" rx="17" ry="17" style="&E8;" />
    <text id="11444667" style="&E9;" transform="matrix(1 0 0 1 0 0 ) " x="376" y="603">11</text>
    <ellipse id="11444669" cy="617" cx="432" rx="17" ry="17" style="&E8;" />
    <text id="11444670" style="&E9;" transform="matrix(1 0 0 1 0 0 ) " x="416" y="603">02</text>
    <ellipse id="11444672" cy="617" cx="472" rx="17" ry="17" style="&E6;" />
    <text id="11444673" style="&E9;" transform="matrix(1 0 0 1 0 0 ) " x="456" y="603">12</text>
    <rect id="11444675" height="36" style="&E10;" width="36" y="600" x="512" />
    <rect id="11444676" height="34" style="&E11;" width="34" y="601" x="513" />
    <text id="11444677" style="&E4;" transform="matrix(1 0 0 1 0 0 ) " x="520" y="605">4</text>
    <text id="11444679" style="&E9;" transform="matrix(1 0 0 1 0 0 ) " x="560" y="605">大</text>
    <text id="11444681" style="&E9;" transform="matrix(1 0 0 1 0 0 ) " x="600" y="605">双</text>
    <rect id="11444683" height="46" style="&E15;" width="627" y="656" x="10" />
    <text id="11444684" style="&E16;" transform="matrix(1 0 0 1 0 0 ) " x="229" y="666">路</text>
    <text id="11444686" style="&E16;" transform="matrix(1 0 0 1 0 0 ) " x="280" y="666">字</text>
    <text id="11444688" style="&E16;" transform="matrix(1 0 0 1 0 0 ) " x="332" y="666">图</text>
    <line y1="656" style="&E17;" id="11444690" x2="637" y2="656" x1="10" />
    <line y1="702" style="&E17;" id="11444691" x2="637" y2="702" x1="10" />
    <line y1="753" style="&E17;" id="11444692" x2="637" y2="753" x1="10" />
    <line y1="802" style="&E17;" id="11444693" x2="637" y2="802" x1="10" />
    <line y1="851" style="&E17;" id="11444694" x2="637" y2="851" x1="10" />
    <line y1="900" style="&E17;" id="11444695" x2="637" y2="900" x1="10" />
    <line y1="945" style="&E17;" id="11444696" x2="637" y2="945" x1="10" />
    <line y1="656" style="&E17;" id="11444697" x2="10" y2="945" x1="10" />
    <line y1="656" style="&E17;" id="11444698" x2="60" y2="945" x1="60" />
    <line y1="656" style="&E17;" id="11444699" x2="115" y2="945" x1="115" />
    <line y1="656" style="&E17;" id="11444700" x2="166" y2="945" x1="166" />
    <line y1="656" style="&E17;" id="11444701" x2="219" y2="945" x1="219" />
    <line y1="656" style="&E17;" id="11444702" x2="270" y2="945" x1="270" />
    <line y1="656" style="&E17;" id="11444703" x2="323" y2="945" x1="323" />
    <line y1="656" style="&E17;" id="11444704" x2="375" y2="945" x1="375" />
    <line y1="656" style="&E17;" id="11444705" x2="427" y2="945" x1="427" />
    <line y1="656" style="&E17;" id="11444706" x2="480" y2="945" x1="480" />
    <line y1="656" style="&E17;" id="11444707" x2="531" y2="945" x1="531" />
    <line y1="656" style="&E17;" id="11444708" x2="584" y2="945" x1="584" />
    <line y1="656" style="&E17;" id="11444709" x2="636" y2="945" x1="636" />
    <rect id="11444710" height="38" style="&E10;" width="38" y="708" x="16" />
    <rect id="11444711" height="37" style="&E11;" width="37" y="708" x="16" />
    <text id="11444712" style="&E18;" transform="matrix(1 0 0 1 0 0 ) " x="20" y="710">4</text>
    <rect id="11444714" height="38" style="&E10;" width="38" y="708" x="68" />
    <rect id="11444715" height="37" style="&E14;" width="37" y="708" x="68" />
    <text id="11444716" style="&E18;" transform="matrix(1 0 0 1 0 0 ) " x="72" y="710">1</text>
    <rect id="11444718" height="38" style="&E10;" width="38" y="708" x="121" />
    <rect id="11444719" height="37" style="&E12;" width="37" y="708" x="121" />
    <text id="11444720" style="&E18;" transform="matrix(1 0 0 1 0 0 ) " x="125" y="710">2</text>
    <rect id="11444722" height="38" style="&E10;" width="38" y="708" x="174" />
    <rect id="11444723" height="37" style="&E11;" width="37" y="708" x="174" />
    <text id="11444724" style="&E18;" transform="matrix(1 0 0 1 0 0 ) " x="178" y="710">4</text>
    <rect id="11444726" height="38" style="&E10;" width="38" y="708" x="225" />
    <rect id="11444727" height="37" style="&E12;" width="37" y="708" x="225" />
    <text id="11444728" style="&E18;" transform="matrix(1 0 0 1 0 0 ) " x="229" y="710">2</text>
    <rect id="11444730" height="38" style="&E10;" width="38" y="708" x="278" />
    <rect id="11444731" height="37" style="&E12;" width="37" y="708" x="278" />
    <text id="11444732" style="&E18;" transform="matrix(1 0 0 1 0 0 ) " x="282" y="710">2</text>
    <rect id="11444734" height="38" style="&E10;" width="38" y="708" x="330" />
    <rect id="11444735" height="37" style="&E14;" width="37" y="708" x="330" />
    <text id="11444736" style="&E18;" transform="matrix(1 0 0 1 0 0 ) " x="334" y="710">1</text>
    <rect id="11444738" height="38" style="&E10;" width="38" y="708" x="383" />
    <rect id="11444739" height="37" style="&E12;" width="37" y="708" x="383" />
    <text id="11444740" style="&E18;" transform="matrix(1 0 0 1 0 0 ) " x="387" y="710">2</text>
    <rect id="11444742" height="38" style="&E10;" width="38" y="708" x="434" />
    <rect id="11444743" height="37" style="&E14;" width="37" y="708" x="434" />
    <text id="11444744" style="&E18;" transform="matrix(1 0 0 1 0 0 ) " x="438" y="710">1</text>
    <rect id="11444746" height="38" style="&E10;" width="38" y="708" x="486" />
    <rect id="11444747" height="37" style="&E11;" width="37" y="708" x="486" />
    <text id="11444748" style="&E18;" transform="matrix(1 0 0 1 0 0 ) " x="490" y="710">4</text>
    <rect id="11444750" height="38" style="&E10;" width="38" y="708" x="538" />
    <rect id="11444751" height="37" style="&E12;" width="37" y="708" x="538" />
    <text id="11444752" style="&E18;" transform="matrix(1 0 0 1 0 0 ) " x="542" y="710">2</text>
    <rect id="11444754" height="38" style="&E10;" width="38" y="708" x="592" />
    <rect id="11444755" height="37" style="&E13;" width="37" y="708" x="592" />
    <text id="11444756" style="&E18;" transform="matrix(1 0 0 1 0 0 ) " x="596" y="710">3</text>
    <rect id="11444758" height="38" style="&E10;" width="38" y="758" x="16" />
    <rect id="11444759" height="37" style="&E11;" width="37" y="758" x="16" />
    <text id="11444760" style="&E18;" transform="matrix(1 0 0 1 0 0 ) " x="20" y="760">4</text>
    <rect id="11444762" height="38" style="&E10;" width="38" y="758" x="68" />
    <rect id="11444763" height="37" style="&E12;" width="37" y="758" x="68" />
    <text id="11444764" style="&E18;" transform="matrix(1 0 0 1 0 0 ) " x="72" y="760">2</text>
    <rect id="11444766" height="38" style="&E10;" width="38" y="758" x="121" />
    <rect id="11444767" height="37" style="&E13;" width="37" y="758" x="121" />
    <text id="11444768" style="&E18;" transform="matrix(1 0 0 1 0 0 ) " x="125" y="760">3</text>
    <rect id="11444770" height="38" style="&E10;" width="38" y="758" x="174" />
    <rect id="11444771" height="37" style="&E14;" width="37" y="758" x="174" />
    <text id="11444772" style="&E18;" transform="matrix(1 0 0 1 0 0 ) " x="178" y="760">1</text>
    <rect id="11444774" height="38" style="&E10;" width="38" y="758" x="225" />
    <rect id="11444775" height="37" style="&E13;" width="37" y="758" x="225" />
    <text id="11444776" style="&E18;" transform="matrix(1 0 0 1 0 0 ) " x="229" y="760">3</text>
    <rect id="11444778" height="38" style="&E10;" width="38" y="758" x="278" />
    <rect id="11444779" height="37" style="&E11;" width="37" y="758" x="278" />
    <text id="11444780" style="&E18;" transform="matrix(1 0 0 1 0 0 ) " x="282" y="760">4</text>
    <rect id="11444782" height="38" style="&E10;" width="38" y="758" x="330" />
    <rect id="11444783" height="37" style="&E14;" width="37" y="758" x="330" />
    <text id="11444784" style="&E18;" transform="matrix(1 0 0 1 0 0 ) " x="334" y="760">1</text>
    <rect id="11444786" height="38" style="&E10;" width="38" y="758" x="383" />
    <rect id="11444787" height="37" style="&E13;" width="37" y="758" x="383" />
    <text id="11444788" style="&E18;" transform="matrix(1 0 0 1 0 0 ) " x="387" y="760">3</text>
    <rect id="11444790" height="38" style="&E10;" width="38" y="758" x="434" />
    <rect id="11444791" height="37" style="&E11;" width="37" y="758" x="434" />
    <text id="11444792" style="&E18;" transform="matrix(1 0 0 1 0 0 ) " x="438" y="760">4</text>
    <rect id="11444794" height="38" style="&E10;" width="38" y="758" x="486" />
    <rect id="11444795" height="37" style="&E14;" width="37" y="758" x="486" />
    <text id="11444796" style="&E18;" transform="matrix(1 0 0 1 0 0 ) " x="490" y="760">1</text>
    <rect id="11444798" height="38" style="&E10;" width="38" y="758" x="538" />
    <rect id="11444799" height="37" style="&E11;" width="37" y="758" x="538" />
    <text id="11444800" style="&E18;" transform="matrix(1 0 0 1 0 0 ) " x="542" y="760">4</text>
    <rect id="11444802" height="38" style="&E10;" width="38" y="758" x="592" />
    <rect id="11444803" height="37" style="&E13;" width="37" y="758" x="592" />
    <text id="11444804" style="&E18;" transform="matrix(1 0 0 1 0 0 ) " x="596" y="760">3</text>
    <rect id="11444806" height="38" style="&E10;" width="38" y="806" x="16" />
    <rect id="11444807" height="37" style="&E12;" width="37" y="806" x="16" />
    <text id="11444808" style="&E18;" transform="matrix(1 0 0 1 0 0 ) " x="20" y="808">2</text>
    <rect id="11444810" height="38" style="&E10;" width="38" y="806" x="68" />
    <rect id="11444811" height="37" style="&E14;" width="37" y="806" x="68" />
    <text id="11444812" style="&E18;" transform="matrix(1 0 0 1 0 0 ) " x="72" y="808">1</text>
    <rect id="11444814" height="38" style="&E10;" width="38" y="806" x="121" />
    <rect id="11444815" height="37" style="&E11;" width="37" y="806" x="121" />
    <text id="11444816" style="&E18;" transform="matrix(1 0 0 1 0 0 ) " x="125" y="808">4</text>
    <rect id="11444818" height="38" style="&E10;" width="38" y="806" x="174" />
    <rect id="11444819" height="37" style="&E13;" width="37" y="806" x="174" />
    <text id="11444820" style="&E18;" transform="matrix(1 0 0 1 0 0 ) " x="178" y="808">3</text>
    <rect id="11444822" height="38" style="&E10;" width="38" y="806" x="225" />
    <rect id="11444823" height="37" style="&E11;" width="37" y="806" x="225" />
    <text id="11444824" style="&E18;" transform="matrix(1 0 0 1 0 0 ) " x="229" y="808">4</text>
    <rect id="11444826" height="38" style="&E10;" width="38" y="806" x="278" />
    <rect id="11444827" height="37" style="&E11;" width="37" y="806" x="278" />
    <text id="11444828" style="&E18;" transform="matrix(1 0 0 1 0 0 ) " x="282" y="808">4</text>
    <rect id="11444830" height="38" style="&E10;" width="38" y="806" x="330" />
    <rect id="11444831" height="37" style="&E13;" width="37" y="806" x="330" />
    <text id="11444832" style="&E18;" transform="matrix(1 0 0 1 0 0 ) " x="334" y="808">3</text>
    <rect id="11444834" height="38" style="&E10;" width="38" y="806" x="383" />
    <rect id="11444835" height="37" style="&E11;" width="37" y="806" x="383" />
    <text id="11444836" style="&E18;" transform="matrix(1 0 0 1 0 0 ) " x="387" y="808">4</text>
    <rect id="11444838" height="38" style="&E10;" width="38" y="806" x="434" />
    <rect id="11444839" height="37" style="&E12;" width="37" y="806" x="434" />
    <text id="11444840" style="&E18;" transform="matrix(1 0 0 1 0 0 ) " x="438" y="808">2</text>
    <rect id="11444842" height="38" style="&E10;" width="38" y="806" x="486" />
    <rect id="11444843" height="37" style="&E13;" width="37" y="806" x="486" />
    <text id="11444844" style="&E18;" transform="matrix(1 0 0 1 0 0 ) " x="490" y="808">3</text>
    <rect id="11444846" height="38" style="&E10;" width="38" y="806" x="538" />
    <rect id="11444847" height="37" style="&E14;" width="37" y="806" x="538" />
    <text id="11444848" style="&E18;" transform="matrix(1 0 0 1 0 0 ) " x="542" y="808">1</text>
    <rect id="11444850" height="38" style="&E10;" width="38" y="806" x="592" />
    <rect id="11444851" height="37" style="&E11;" width="37" y="806" x="592" />
    <text id="11444852" style="&E18;" transform="matrix(1 0 0 1 0 0 ) " x="596" y="808">4</text>
    <rect id="11444854" height="38" style="&E10;" width="38" y="855" x="16" />
    <rect id="11444855" height="37" style="&E14;" width="37" y="855" x="16" />
    <text id="11444856" style="&E18;" transform="matrix(1 0 0 1 0 0 ) " x="20" y="857">1</text>
    <rect id="11444858" height="38" style="&E10;" width="38" y="855" x="68" />
    <rect id="11444859" height="37" style="&E12;" width="37" y="855" x="68" />
    <text id="11444860" style="&E18;" transform="matrix(1 0 0 1 0 0 ) " x="72" y="857">2</text>
    <rect id="11444862" height="38" style="&E10;" width="38" y="855" x="121" />
    <rect id="11444863" height="37" style="&E14;" width="37" y="855" x="121" />
    <text id="11444864" style="&E18;" transform="matrix(1 0 0 1 0 0 ) " x="125" y="857">1</text>
    <rect id="11444866" height="38" style="&E10;" width="38" y="855" x="174" />
    <rect id="11444867" height="37" style="&E13;" width="37" y="855" x="174" />
    <text id="11444868" style="&E18;" transform="matrix(1 0 0 1 0 0 ) " x="178" y="857">3</text>
    <rect id="11444870" height="38" style="&E10;" width="38" y="855" x="225" />
    <rect id="11444871" height="37" style="&E13;" width="37" y="855" x="225" />
    <text id="11444872" style="&E18;" transform="matrix(1 0 0 1 0 0 ) " x="229" y="857">3</text>
    <rect id="11444874" height="38" style="&E10;" width="38" y="855" x="278" />
    <rect id="11444875" height="37" style="&E11;" width="37" y="855" x="278" />
    <text id="11444876" style="&E18;" transform="matrix(1 0 0 1 0 0 ) " x="282" y="857">4</text>
    <rect id="11444878" height="38" style="&E10;" width="38" y="855" x="330" />
    <rect id="11444879" height="37" style="&E13;" width="37" y="855" x="330" />
    <text id="11444880" style="&E18;" transform="matrix(1 0 0 1 0 0 ) " x="334" y="857">3</text>
    <rect id="11444882" height="38" style="&E10;" width="38" y="855" x="383" />
    <rect id="11444883" height="37" style="&E12;" width="37" y="855" x="383" />
    <text id="11444884" style="&E18;" transform="matrix(1 0 0 1 0 0 ) " x="387" y="857">2</text>
    <rect id="11444886" height="38" style="&E10;" width="38" y="855" x="434" />
    <rect id="11444887" height="37" style="&E12;" width="37" y="855" x="434" />
    <text id="11444888" style="&E18;" transform="matrix(1 0 0 1 0 0 ) " x="438" y="857">2</text>
    <rect id="11444890" height="38" style="&E10;" width="38" y="855" x="486" />
    <rect id="11444891" height="37" style="&E11;" width="37" y="855" x="486" />
    <text id="11444892" style="&E18;" transform="matrix(1 0 0 1 0 0 ) " x="490" y="857">4</text>
    <rect id="11444894" height="38" style="&E10;" width="38" y="855" x="538" />
    <rect id="11444895" height="37" style="&E11;" width="37" y="855" x="538" />
    <text id="11444896" style="&E18;" transform="matrix(1 0 0 1 0 0 ) " x="542" y="857">4</text>
    <rect id="11444898" height="38" style="&E10;" width="38" y="855" x="592" />
    <rect id="11444899" height="37" style="&E12;" width="37" y="855" x="592" />
    <text id="11444900" style="&E18;" transform="matrix(1 0 0 1 0 0 ) " x="596" y="857">2</text>
    <rect id="11444902" height="38" style="&E10;" width="38" y="903" x="16" />
    <rect id="11444903" height="37" style="&E12;" width="37" y="903" x="16" />
    <text id="11444904" style="&E18;" transform="matrix(1 0 0 1 0 0 ) " x="20" y="905">2</text>
    <rect id="11444906" height="38" style="&E10;" width="38" y="903" x="68" />
    <rect id="11444907" height="37" style="&E11;" width="37" y="903" x="68" />
    <text id="11444908" style="&E18;" transform="matrix(1 0 0 1 0 0 ) " x="72" y="905">4</text>
  </g>
  <defs id="clips_hatches_and_gradients" />
</svg>