<?xml version="1.0" encoding="utf-8" standalone="yes"?>
<!DOCTYPE svg PUBLIC "-//W3C//DTD SVG 1.1//EN" "http://www.w3.org/Graphics/SVG/1.1/DTD/svg11.dtd"[
	<!ENTITY E11 'stroke:none;opacity:1;fill:rgb(62,198,124);'>
	<!ENTITY E2 'stroke:none;opacity:1;fill:rgb(255,255,255);'>
	<!ENTITY E10 'stroke:rgb(0,0,0);fill:none;stroke-linecap:round;stroke-miterlimit:9;opacity:1;stroke-width:2;stroke-linejoin:round;'>
	<!ENTITY E3 'stroke:none;opacity:1;fill:rgb(60,182,230);'>
	<!ENTITY E18 'stroke:none;font-size:26pt;fill:rgb(255,255,255);font-weight:bolder;baseline-shift:-86&#37;;font-family:微软雅黑;opacity:1;'>
	<!ENTITY E4 'stroke:none;font-size:18pt;fill:rgb(255,255,255);font-weight:bolder;baseline-shift:-86&#37;;font-family:微软雅黑;opacity:1;'>
	<!ENTITY E5 'stroke:none;opacity:1;fill:rgb(250,250,250);'>
	<!ENTITY E14 'stroke:none;opacity:1;fill:rgb(93,150,255);'>
	<!ENTITY E16 'stroke:none;font-size:22pt;fill:rgb(0,0,0);font-weight:bolder;baseline-shift:-86&#37;;font-family:微软雅黑;opacity:1;'>
	<!ENTITY E8 'stroke:rgb(60,182,230);fill:none;stroke-linecap:round;stroke-miterlimit:9;opacity:1;stroke-width:2;stroke-linejoin:round;'>
	<!ENTITY E6 'stroke:rgb(255,0,0);fill:none;stroke-linecap:round;stroke-miterlimit:9;opacity:1;stroke-width:2;stroke-linejoin:round;'>
	<!ENTITY E13 'stroke:none;opacity:1;fill:rgb(255,62,65);'>
	<!ENTITY E9 'stroke:none;font-size:18pt;fill:rgb(102,102,102);font-weight:bolder;baseline-shift:-86&#37;;font-family:微软雅黑;opacity:1;'>
	<!ENTITY E1 'text-rendering:auto;shape-rendering:geometricPrecision;'>
	<!ENTITY E17 'stroke:rgb(128,128,128);fill:none;stroke-linecap:butt;stroke-miterlimit:9;opacity:1;stroke-width:2;stroke-linejoin:miter;'>
	<!ENTITY E15 'stroke:none;opacity:1;fill:rgb(211,211,211);'>
	<!ENTITY E12 'stroke:none;opacity:1;fill:rgb(247,212,0);'>
	<!ENTITY E7 'stroke:none;font-family:微软雅黑;fill:rgb(102,102,102);font-size:16pt;baseline-shift:-86&#37;;opacity:1;'>
]>
<svg height="952" width="655" id="SvgGdi_output" xmlns="http://www.w3.org/2000/svg">
  <rect id="background" height="100%" style="fill:rgb(255,255,255);" width="100%" y="0" x="0" />
  <g style="&E1;" id="root_group">
    <rect id="11435512" height="635" style="&E2;" width="655" y="0" x="0" />
    <rect id="11435513" height="37" style="&E3;" width="655" y="0" x="0" />
    <text id="11435514" style="&E4;" transform="matrix(1 0 0 1 0 0 ) " x="15" y="3">期数</text>
    <text id="11435516" style="&E4;" transform="matrix(1 0 0 1 0 0 ) " x="89" y="3">时间</text>
    <text id="11435518" style="&E4;" transform="matrix(1 0 0 1 0 0 ) " x="373" y="3">结果</text>
    <text id="11435520" style="&E4;" transform="matrix(1 0 0 1 0 0 ) " x="520" y="3">番</text>
    <rect id="11435522" height="37" style="&E5;" width="655" y="38" x="0" />
    <rect id="11435523" height="37" style="&E5;" width="655" y="118" x="0" />
    <rect id="11435524" height="37" style="&E5;" width="655" y="198" x="0" />
    <rect id="11435525" height="37" style="&E5;" width="655" y="278" x="0" />
    <rect id="11435526" height="37" style="&E5;" width="655" y="358" x="0" />
    <rect id="11435527" height="37" style="&E5;" width="655" y="438" x="0" />
    <rect id="11435528" height="37" style="&E5;" width="655" y="518" x="0" />
    <rect id="11435529" height="37" style="&E5;" width="655" y="598" x="0" />
    <rect id="11435530" height="37" style="&E5;" width="655" y="678" x="0" />
    <rect id="11435531" height="37" style="&E5;" width="655" y="758" x="0" />
    <rect id="11435532" height="37" style="&E6;" width="655" y="38" x="0" />
    <text id="11435533" style="&E7;" transform="matrix(1 0 0 1 0 0 ) " x="10" y="45">37</text>
    <text id="11435535" style="&E7;" transform="matrix(1 0 0 1 0 0 ) " x="50" y="45">17:58:40</text>
    <ellipse id="11435537" cy="57" cx="192" rx="17" ry="17" style="&E8;" />
    <text id="11435538" style="&E9;" transform="matrix(1 0 0 1 0 0 ) " x="176" y="43">18</text>
    <ellipse id="11435540" cy="57" cx="232" rx="17" ry="17" style="&E8;" />
    <text id="11435541" style="&E9;" transform="matrix(1 0 0 1 0 0 ) " x="216" y="43">10</text>
    <ellipse id="11435543" cy="57" cx="272" rx="17" ry="17" style="&E8;" />
    <text id="11435544" style="&E9;" transform="matrix(1 0 0 1 0 0 ) " x="256" y="43">19</text>
    <ellipse id="11435546" cy="57" cx="312" rx="17" ry="17" style="&E8;" />
    <text id="11435547" style="&E9;" transform="matrix(1 0 0 1 0 0 ) " x="296" y="43">13</text>
    <ellipse id="11435549" cy="57" cx="352" rx="17" ry="17" style="&E8;" />
    <text id="11435550" style="&E9;" transform="matrix(1 0 0 1 0 0 ) " x="336" y="43">05</text>
    <ellipse id="11435552" cy="57" cx="392" rx="17" ry="17" style="&E8;" />
    <text id="11435553" style="&E9;" transform="matrix(1 0 0 1 0 0 ) " x="376" y="43">08</text>
    <ellipse id="11435555" cy="57" cx="432" rx="17" ry="17" style="&E8;" />
    <text id="11435556" style="&E9;" transform="matrix(1 0 0 1 0 0 ) " x="416" y="43">01</text>
    <ellipse id="11435558" cy="57" cx="472" rx="17" ry="17" style="&E6;" />
    <text id="11435559" style="&E9;" transform="matrix(1 0 0 1 0 0 ) " x="456" y="43">06</text>
    <rect id="11435561" height="36" style="&E10;" width="36" y="40" x="512" />
    <rect id="11435562" height="34" style="&E11;" width="34" y="41" x="513" />
    <text id="11435563" style="&E4;" transform="matrix(1 0 0 1 0 0 ) " x="520" y="45">2</text>
    <text id="11435565" style="&E9;" transform="matrix(1 0 0 1 0 0 ) " x="560" y="45">小</text>
    <text id="11435567" style="&E9;" transform="matrix(1 0 0 1 0 0 ) " x="600" y="45">双</text>
    <text id="11435569" style="&E7;" transform="matrix(1 0 0 1 0 0 ) " x="10" y="85">36</text>
    <text id="11435571" style="&E7;" transform="matrix(1 0 0 1 0 0 ) " x="50" y="85">17:53:40</text>
    <ellipse id="11435573" cy="97" cx="192" rx="17" ry="17" style="&E8;" />
    <text id="11435574" style="&E9;" transform="matrix(1 0 0 1 0 0 ) " x="176" y="83">15</text>
    <ellipse id="11435576" cy="97" cx="232" rx="17" ry="17" style="&E8;" />
    <text id="11435577" style="&E9;" transform="matrix(1 0 0 1 0 0 ) " x="216" y="83">17</text>
    <ellipse id="11435579" cy="97" cx="272" rx="17" ry="17" style="&E8;" />
    <text id="11435580" style="&E9;" transform="matrix(1 0 0 1 0 0 ) " x="256" y="83">20</text>
    <ellipse id="11435582" cy="97" cx="312" rx="17" ry="17" style="&E8;" />
    <text id="11435583" style="&E9;" transform="matrix(1 0 0 1 0 0 ) " x="296" y="83">06</text>
    <ellipse id="11435585" cy="97" cx="352" rx="17" ry="17" style="&E8;" />
    <text id="11435586" style="&E9;" transform="matrix(1 0 0 1 0 0 ) " x="336" y="83">04</text>
    <ellipse id="11435588" cy="97" cx="392" rx="17" ry="17" style="&E8;" />
    <text id="11435589" style="&E9;" transform="matrix(1 0 0 1 0 0 ) " x="376" y="83">03</text>
    <ellipse id="11435591" cy="97" cx="432" rx="17" ry="17" style="&E8;" />
    <text id="11435592" style="&E9;" transform="matrix(1 0 0 1 0 0 ) " x="416" y="83">08</text>
    <ellipse id="11435594" cy="97" cx="472" rx="17" ry="17" style="&E6;" />
    <text id="11435595" style="&E9;" transform="matrix(1 0 0 1 0 0 ) " x="456" y="83">07</text>
    <rect id="11435597" height="36" style="&E10;" width="36" y="80" x="512" />
    <rect id="11435598" height="34" style="&E12;" width="34" y="81" x="513" />
    <text id="11435599" style="&E4;" transform="matrix(1 0 0 1 0 0 ) " x="520" y="85">3</text>
    <text id="11435601" style="&E9;" transform="matrix(1 0 0 1 0 0 ) " x="560" y="85">小</text>
    <text id="11435603" style="&E9;" transform="matrix(1 0 0 1 0 0 ) " x="600" y="85">单</text>
    <text id="11435605" style="&E7;" transform="matrix(1 0 0 1 0 0 ) " x="10" y="125">35</text>
    <text id="11435607" style="&E7;" transform="matrix(1 0 0 1 0 0 ) " x="50" y="125">17:48:40</text>
    <ellipse id="11435609" cy="137" cx="192" rx="17" ry="17" style="&E8;" />
    <text id="11435610" style="&E9;" transform="matrix(1 0 0 1 0 0 ) " x="176" y="123">01</text>
    <ellipse id="11435612" cy="137" cx="232" rx="17" ry="17" style="&E8;" />
    <text id="11435613" style="&E9;" transform="matrix(1 0 0 1 0 0 ) " x="216" y="123">02</text>
    <ellipse id="11435615" cy="137" cx="272" rx="17" ry="17" style="&E8;" />
    <text id="11435616" style="&E9;" transform="matrix(1 0 0 1 0 0 ) " x="256" y="123">06</text>
    <ellipse id="11435618" cy="137" cx="312" rx="17" ry="17" style="&E8;" />
    <text id="11435619" style="&E9;" transform="matrix(1 0 0 1 0 0 ) " x="296" y="123">09</text>
    <ellipse id="11435621" cy="137" cx="352" rx="17" ry="17" style="&E8;" />
    <text id="11435622" style="&E9;" transform="matrix(1 0 0 1 0 0 ) " x="336" y="123">05</text>
    <ellipse id="11435624" cy="137" cx="392" rx="17" ry="17" style="&E8;" />
    <text id="11435625" style="&E9;" transform="matrix(1 0 0 1 0 0 ) " x="376" y="123">03</text>
    <ellipse id="11435627" cy="137" cx="432" rx="17" ry="17" style="&E8;" />
    <text id="11435628" style="&E9;" transform="matrix(1 0 0 1 0 0 ) " x="416" y="123">17</text>
    <ellipse id="11435630" cy="137" cx="472" rx="17" ry="17" style="&E6;" />
    <text id="11435631" style="&E9;" transform="matrix(1 0 0 1 0 0 ) " x="456" y="123">20</text>
    <rect id="11435633" height="36" style="&E10;" width="36" y="120" x="512" />
    <rect id="11435634" height="34" style="&E13;" width="34" y="121" x="513" />
    <text id="11435635" style="&E4;" transform="matrix(1 0 0 1 0 0 ) " x="520" y="125">4</text>
    <text id="11435637" style="&E9;" transform="matrix(1 0 0 1 0 0 ) " x="560" y="125">大</text>
    <text id="11435639" style="&E9;" transform="matrix(1 0 0 1 0 0 ) " x="600" y="125">双</text>
    <text id="11435641" style="&E7;" transform="matrix(1 0 0 1 0 0 ) " x="10" y="165">34</text>
    <text id="11435643" style="&E7;" transform="matrix(1 0 0 1 0 0 ) " x="50" y="165">17:43:40</text>
    <ellipse id="11435645" cy="177" cx="192" rx="17" ry="17" style="&E8;" />
    <text id="11435646" style="&E9;" transform="matrix(1 0 0 1 0 0 ) " x="176" y="163">15</text>
    <ellipse id="11435648" cy="177" cx="232" rx="17" ry="17" style="&E8;" />
    <text id="11435649" style="&E9;" transform="matrix(1 0 0 1 0 0 ) " x="216" y="163">03</text>
    <ellipse id="11435651" cy="177" cx="272" rx="17" ry="17" style="&E8;" />
    <text id="11435652" style="&E9;" transform="matrix(1 0 0 1 0 0 ) " x="256" y="163">18</text>
    <ellipse id="11435654" cy="177" cx="312" rx="17" ry="17" style="&E8;" />
    <text id="11435655" style="&E9;" transform="matrix(1 0 0 1 0 0 ) " x="296" y="163">12</text>
    <ellipse id="11435657" cy="177" cx="352" rx="17" ry="17" style="&E8;" />
    <text id="11435658" style="&E9;" transform="matrix(1 0 0 1 0 0 ) " x="336" y="163">20</text>
    <ellipse id="11435660" cy="177" cx="392" rx="17" ry="17" style="&E8;" />
    <text id="11435661" style="&E9;" transform="matrix(1 0 0 1 0 0 ) " x="376" y="163">09</text>
    <ellipse id="11435663" cy="177" cx="432" rx="17" ry="17" style="&E8;" />
    <text id="11435664" style="&E9;" transform="matrix(1 0 0 1 0 0 ) " x="416" y="163">17</text>
    <ellipse id="11435666" cy="177" cx="472" rx="17" ry="17" style="&E6;" />
    <text id="11435667" style="&E9;" transform="matrix(1 0 0 1 0 0 ) " x="456" y="163">19</text>
    <rect id="11435669" height="36" style="&E10;" width="36" y="160" x="512" />
    <rect id="11435670" height="34" style="&E12;" width="34" y="161" x="513" />
    <text id="11435671" style="&E4;" transform="matrix(1 0 0 1 0 0 ) " x="520" y="165">3</text>
    <text id="11435673" style="&E9;" transform="matrix(1 0 0 1 0 0 ) " x="560" y="165">大</text>
    <text id="11435675" style="&E9;" transform="matrix(1 0 0 1 0 0 ) " x="600" y="165">单</text>
    <text id="11435677" style="&E7;" transform="matrix(1 0 0 1 0 0 ) " x="10" y="205">33</text>
    <text id="11435679" style="&E7;" transform="matrix(1 0 0 1 0 0 ) " x="50" y="205">17:38:40</text>
    <ellipse id="11435681" cy="217" cx="192" rx="17" ry="17" style="&E8;" />
    <text id="11435682" style="&E9;" transform="matrix(1 0 0 1 0 0 ) " x="176" y="203">10</text>
    <ellipse id="11435684" cy="217" cx="232" rx="17" ry="17" style="&E8;" />
    <text id="11435685" style="&E9;" transform="matrix(1 0 0 1 0 0 ) " x="216" y="203">05</text>
    <ellipse id="11435687" cy="217" cx="272" rx="17" ry="17" style="&E8;" />
    <text id="11435688" style="&E9;" transform="matrix(1 0 0 1 0 0 ) " x="256" y="203">06</text>
    <ellipse id="11435690" cy="217" cx="312" rx="17" ry="17" style="&E8;" />
    <text id="11435691" style="&E9;" transform="matrix(1 0 0 1 0 0 ) " x="296" y="203">13</text>
    <ellipse id="11435693" cy="217" cx="352" rx="17" ry="17" style="&E8;" />
    <text id="11435694" style="&E9;" transform="matrix(1 0 0 1 0 0 ) " x="336" y="203">08</text>
    <ellipse id="11435696" cy="217" cx="392" rx="17" ry="17" style="&E8;" />
    <text id="11435697" style="&E9;" transform="matrix(1 0 0 1 0 0 ) " x="376" y="203">04</text>
    <ellipse id="11435699" cy="217" cx="432" rx="17" ry="17" style="&E8;" />
    <text id="11435700" style="&E9;" transform="matrix(1 0 0 1 0 0 ) " x="416" y="203">09</text>
    <ellipse id="11435702" cy="217" cx="472" rx="17" ry="17" style="&E6;" />
    <text id="11435703" style="&E9;" transform="matrix(1 0 0 1 0 0 ) " x="456" y="203">19</text>
    <rect id="11435705" height="36" style="&E10;" width="36" y="200" x="512" />
    <rect id="11435706" height="34" style="&E12;" width="34" y="201" x="513" />
    <text id="11435707" style="&E4;" transform="matrix(1 0 0 1 0 0 ) " x="520" y="205">3</text>
    <text id="11435709" style="&E9;" transform="matrix(1 0 0 1 0 0 ) " x="560" y="205">大</text>
    <text id="11435711" style="&E9;" transform="matrix(1 0 0 1 0 0 ) " x="600" y="205">单</text>
    <text id="11435713" style="&E7;" transform="matrix(1 0 0 1 0 0 ) " x="10" y="245">32</text>
    <text id="11435715" style="&E7;" transform="matrix(1 0 0 1 0 0 ) " x="50" y="245">17:33:40</text>
    <ellipse id="11435717" cy="257" cx="192" rx="17" ry="17" style="&E8;" />
    <text id="11435718" style="&E9;" transform="matrix(1 0 0 1 0 0 ) " x="176" y="243">19</text>
    <ellipse id="11435720" cy="257" cx="232" rx="17" ry="17" style="&E8;" />
    <text id="11435721" style="&E9;" transform="matrix(1 0 0 1 0 0 ) " x="216" y="243">16</text>
    <ellipse id="11435723" cy="257" cx="272" rx="17" ry="17" style="&E8;" />
    <text id="11435724" style="&E9;" transform="matrix(1 0 0 1 0 0 ) " x="256" y="243">09</text>
    <ellipse id="11435726" cy="257" cx="312" rx="17" ry="17" style="&E8;" />
    <text id="11435727" style="&E9;" transform="matrix(1 0 0 1 0 0 ) " x="296" y="243">02</text>
    <ellipse id="11435729" cy="257" cx="352" rx="17" ry="17" style="&E8;" />
    <text id="11435730" style="&E9;" transform="matrix(1 0 0 1 0 0 ) " x="336" y="243">08</text>
    <ellipse id="11435732" cy="257" cx="392" rx="17" ry="17" style="&E8;" />
    <text id="11435733" style="&E9;" transform="matrix(1 0 0 1 0 0 ) " x="376" y="243">14</text>
    <ellipse id="11435735" cy="257" cx="432" rx="17" ry="17" style="&E8;" />
    <text id="11435736" style="&E9;" transform="matrix(1 0 0 1 0 0 ) " x="416" y="243">06</text>
    <ellipse id="11435738" cy="257" cx="472" rx="17" ry="17" style="&E6;" />
    <text id="11435739" style="&E9;" transform="matrix(1 0 0 1 0 0 ) " x="456" y="243">17</text>
    <rect id="11435741" height="36" style="&E10;" width="36" y="240" x="512" />
    <rect id="11435742" height="34" style="&E14;" width="34" y="241" x="513" />
    <text id="11435743" style="&E4;" transform="matrix(1 0 0 1 0 0 ) " x="520" y="245">1</text>
    <text id="11435745" style="&E9;" transform="matrix(1 0 0 1 0 0 ) " x="560" y="245">大</text>
    <text id="11435747" style="&E9;" transform="matrix(1 0 0 1 0 0 ) " x="600" y="245">单</text>
    <text id="11435749" style="&E7;" transform="matrix(1 0 0 1 0 0 ) " x="10" y="285">31</text>
    <text id="11435751" style="&E7;" transform="matrix(1 0 0 1 0 0 ) " x="50" y="285">17:28:40</text>
    <ellipse id="11435753" cy="297" cx="192" rx="17" ry="17" style="&E8;" />
    <text id="11435754" style="&E9;" transform="matrix(1 0 0 1 0 0 ) " x="176" y="283">17</text>
    <ellipse id="11435756" cy="297" cx="232" rx="17" ry="17" style="&E8;" />
    <text id="11435757" style="&E9;" transform="matrix(1 0 0 1 0 0 ) " x="216" y="283">11</text>
    <ellipse id="11435759" cy="297" cx="272" rx="17" ry="17" style="&E8;" />
    <text id="11435760" style="&E9;" transform="matrix(1 0 0 1 0 0 ) " x="256" y="283">16</text>
    <ellipse id="11435762" cy="297" cx="312" rx="17" ry="17" style="&E8;" />
    <text id="11435763" style="&E9;" transform="matrix(1 0 0 1 0 0 ) " x="296" y="283">05</text>
    <ellipse id="11435765" cy="297" cx="352" rx="17" ry="17" style="&E8;" />
    <text id="11435766" style="&E9;" transform="matrix(1 0 0 1 0 0 ) " x="336" y="283">08</text>
    <ellipse id="11435768" cy="297" cx="392" rx="17" ry="17" style="&E8;" />
    <text id="11435769" style="&E9;" transform="matrix(1 0 0 1 0 0 ) " x="376" y="283">06</text>
    <ellipse id="11435771" cy="297" cx="432" rx="17" ry="17" style="&E8;" />
    <text id="11435772" style="&E9;" transform="matrix(1 0 0 1 0 0 ) " x="416" y="283">10</text>
    <ellipse id="11435774" cy="297" cx="472" rx="17" ry="17" style="&E6;" />
    <text id="11435775" style="&E9;" transform="matrix(1 0 0 1 0 0 ) " x="456" y="283">18</text>
    <rect id="11435777" height="36" style="&E10;" width="36" y="280" x="512" />
    <rect id="11435778" height="34" style="&E11;" width="34" y="281" x="513" />
    <text id="11435779" style="&E4;" transform="matrix(1 0 0 1 0 0 ) " x="520" y="285">2</text>
    <text id="11435781" style="&E9;" transform="matrix(1 0 0 1 0 0 ) " x="560" y="285">大</text>
    <text id="11435783" style="&E9;" transform="matrix(1 0 0 1 0 0 ) " x="600" y="285">双</text>
    <text id="11435785" style="&E7;" transform="matrix(1 0 0 1 0 0 ) " x="10" y="325">30</text>
    <text id="11435787" style="&E7;" transform="matrix(1 0 0 1 0 0 ) " x="50" y="325">17:23:40</text>
    <ellipse id="11435789" cy="337" cx="192" rx="17" ry="17" style="&E8;" />
    <text id="11435790" style="&E9;" transform="matrix(1 0 0 1 0 0 ) " x="176" y="323">07</text>
    <ellipse id="11435792" cy="337" cx="232" rx="17" ry="17" style="&E8;" />
    <text id="11435793" style="&E9;" transform="matrix(1 0 0 1 0 0 ) " x="216" y="323">16</text>
    <ellipse id="11435795" cy="337" cx="272" rx="17" ry="17" style="&E8;" />
    <text id="11435796" style="&E9;" transform="matrix(1 0 0 1 0 0 ) " x="256" y="323">08</text>
    <ellipse id="11435798" cy="337" cx="312" rx="17" ry="17" style="&E8;" />
    <text id="11435799" style="&E9;" transform="matrix(1 0 0 1 0 0 ) " x="296" y="323">05</text>
    <ellipse id="11435801" cy="337" cx="352" rx="17" ry="17" style="&E8;" />
    <text id="11435802" style="&E9;" transform="matrix(1 0 0 1 0 0 ) " x="336" y="323">02</text>
    <ellipse id="11435804" cy="337" cx="392" rx="17" ry="17" style="&E8;" />
    <text id="11435805" style="&E9;" transform="matrix(1 0 0 1 0 0 ) " x="376" y="323">15</text>
    <ellipse id="11435807" cy="337" cx="432" rx="17" ry="17" style="&E8;" />
    <text id="11435808" style="&E9;" transform="matrix(1 0 0 1 0 0 ) " x="416" y="323">18</text>
    <ellipse id="11435810" cy="337" cx="472" rx="17" ry="17" style="&E6;" />
    <text id="11435811" style="&E9;" transform="matrix(1 0 0 1 0 0 ) " x="456" y="323">13</text>
    <rect id="11435813" height="36" style="&E10;" width="36" y="320" x="512" />
    <rect id="11435814" height="34" style="&E14;" width="34" y="321" x="513" />
    <text id="11435815" style="&E4;" transform="matrix(1 0 0 1 0 0 ) " x="520" y="325">1</text>
    <text id="11435817" style="&E9;" transform="matrix(1 0 0 1 0 0 ) " x="560" y="325">大</text>
    <text id="11435819" style="&E9;" transform="matrix(1 0 0 1 0 0 ) " x="600" y="325">单</text>
    <text id="11435821" style="&E7;" transform="matrix(1 0 0 1 0 0 ) " x="10" y="365">29</text>
    <text id="11435823" style="&E7;" transform="matrix(1 0 0 1 0 0 ) " x="50" y="365">17:18:40</text>
    <ellipse id="11435825" cy="377" cx="192" rx="17" ry="17" style="&E8;" />
    <text id="11435826" style="&E9;" transform="matrix(1 0 0 1 0 0 ) " x="176" y="363">15</text>
    <ellipse id="11435828" cy="377" cx="232" rx="17" ry="17" style="&E8;" />
    <text id="11435829" style="&E9;" transform="matrix(1 0 0 1 0 0 ) " x="216" y="363">04</text>
    <ellipse id="11435831" cy="377" cx="272" rx="17" ry="17" style="&E8;" />
    <text id="11435832" style="&E9;" transform="matrix(1 0 0 1 0 0 ) " x="256" y="363">03</text>
    <ellipse id="11435834" cy="377" cx="312" rx="17" ry="17" style="&E8;" />
    <text id="11435835" style="&E9;" transform="matrix(1 0 0 1 0 0 ) " x="296" y="363">09</text>
    <ellipse id="11435837" cy="377" cx="352" rx="17" ry="17" style="&E8;" />
    <text id="11435838" style="&E9;" transform="matrix(1 0 0 1 0 0 ) " x="336" y="363">17</text>
    <ellipse id="11435840" cy="377" cx="392" rx="17" ry="17" style="&E8;" />
    <text id="11435841" style="&E9;" transform="matrix(1 0 0 1 0 0 ) " x="376" y="363">11</text>
    <ellipse id="11435843" cy="377" cx="432" rx="17" ry="17" style="&E8;" />
    <text id="11435844" style="&E9;" transform="matrix(1 0 0 1 0 0 ) " x="416" y="363">02</text>
    <ellipse id="11435846" cy="377" cx="472" rx="17" ry="17" style="&E6;" />
    <text id="11435847" style="&E9;" transform="matrix(1 0 0 1 0 0 ) " x="456" y="363">12</text>
    <rect id="11435849" height="36" style="&E10;" width="36" y="360" x="512" />
    <rect id="11435850" height="34" style="&E13;" width="34" y="361" x="513" />
    <text id="11435851" style="&E4;" transform="matrix(1 0 0 1 0 0 ) " x="520" y="365">4</text>
    <text id="11435853" style="&E9;" transform="matrix(1 0 0 1 0 0 ) " x="560" y="365">大</text>
    <text id="11435855" style="&E9;" transform="matrix(1 0 0 1 0 0 ) " x="600" y="365">双</text>
    <text id="11435857" style="&E7;" transform="matrix(1 0 0 1 0 0 ) " x="10" y="405">28</text>
    <text id="11435859" style="&E7;" transform="matrix(1 0 0 1 0 0 ) " x="50" y="405">17:13:40</text>
    <ellipse id="11435861" cy="417" cx="192" rx="17" ry="17" style="&E8;" />
    <text id="11435862" style="&E9;" transform="matrix(1 0 0 1 0 0 ) " x="176" y="403">19</text>
    <ellipse id="11435864" cy="417" cx="232" rx="17" ry="17" style="&E8;" />
    <text id="11435865" style="&E9;" transform="matrix(1 0 0 1 0 0 ) " x="216" y="403">05</text>
    <ellipse id="11435867" cy="417" cx="272" rx="17" ry="17" style="&E8;" />
    <text id="11435868" style="&E9;" transform="matrix(1 0 0 1 0 0 ) " x="256" y="403">06</text>
    <ellipse id="11435870" cy="417" cx="312" rx="17" ry="17" style="&E8;" />
    <text id="11435871" style="&E9;" transform="matrix(1 0 0 1 0 0 ) " x="296" y="403">12</text>
    <ellipse id="11435873" cy="417" cx="352" rx="17" ry="17" style="&E8;" />
    <text id="11435874" style="&E9;" transform="matrix(1 0 0 1 0 0 ) " x="336" y="403">10</text>
    <ellipse id="11435876" cy="417" cx="392" rx="17" ry="17" style="&E8;" />
    <text id="11435877" style="&E9;" transform="matrix(1 0 0 1 0 0 ) " x="376" y="403">20</text>
    <ellipse id="11435879" cy="417" cx="432" rx="17" ry="17" style="&E8;" />
    <text id="11435880" style="&E9;" transform="matrix(1 0 0 1 0 0 ) " x="416" y="403">16</text>
    <ellipse id="11435882" cy="417" cx="472" rx="17" ry="17" style="&E6;" />
    <text id="11435883" style="&E9;" transform="matrix(1 0 0 1 0 0 ) " x="456" y="403">17</text>
    <rect id="11435885" height="36" style="&E10;" width="36" y="400" x="512" />
    <rect id="11435886" height="34" style="&E14;" width="34" y="401" x="513" />
    <text id="11435887" style="&E4;" transform="matrix(1 0 0 1 0 0 ) " x="520" y="405">1</text>
    <text id="11435889" style="&E9;" transform="matrix(1 0 0 1 0 0 ) " x="560" y="405">大</text>
    <text id="11435891" style="&E9;" transform="matrix(1 0 0 1 0 0 ) " x="600" y="405">单</text>
    <text id="11435893" style="&E7;" transform="matrix(1 0 0 1 0 0 ) " x="10" y="445">27</text>
    <text id="11435895" style="&E7;" transform="matrix(1 0 0 1 0 0 ) " x="50" y="445">17:08:40</text>
    <ellipse id="11435897" cy="457" cx="192" rx="17" ry="17" style="&E8;" />
    <text id="11435898" style="&E9;" transform="matrix(1 0 0 1 0 0 ) " x="176" y="443">12</text>
    <ellipse id="11435900" cy="457" cx="232" rx="17" ry="17" style="&E8;" />
    <text id="11435901" style="&E9;" transform="matrix(1 0 0 1 0 0 ) " x="216" y="443">08</text>
    <ellipse id="11435903" cy="457" cx="272" rx="17" ry="17" style="&E8;" />
    <text id="11435904" style="&E9;" transform="matrix(1 0 0 1 0 0 ) " x="256" y="443">09</text>
    <ellipse id="11435906" cy="457" cx="312" rx="17" ry="17" style="&E8;" />
    <text id="11435907" style="&E9;" transform="matrix(1 0 0 1 0 0 ) " x="296" y="443">17</text>
    <ellipse id="11435909" cy="457" cx="352" rx="17" ry="17" style="&E8;" />
    <text id="11435910" style="&E9;" transform="matrix(1 0 0 1 0 0 ) " x="336" y="443">07</text>
    <ellipse id="11435912" cy="457" cx="392" rx="17" ry="17" style="&E8;" />
    <text id="11435913" style="&E9;" transform="matrix(1 0 0 1 0 0 ) " x="376" y="443">05</text>
    <ellipse id="11435915" cy="457" cx="432" rx="17" ry="17" style="&E8;" />
    <text id="11435916" style="&E9;" transform="matrix(1 0 0 1 0 0 ) " x="416" y="443">18</text>
    <ellipse id="11435918" cy="457" cx="472" rx="17" ry="17" style="&E6;" />
    <text id="11435919" style="&E9;" transform="matrix(1 0 0 1 0 0 ) " x="456" y="443">15</text>
    <rect id="11435921" height="36" style="&E10;" width="36" y="440" x="512" />
    <rect id="11435922" height="34" style="&E12;" width="34" y="441" x="513" />
    <text id="11435923" style="&E4;" transform="matrix(1 0 0 1 0 0 ) " x="520" y="445">3</text>
    <text id="11435925" style="&E9;" transform="matrix(1 0 0 1 0 0 ) " x="560" y="445">大</text>
    <text id="11435927" style="&E9;" transform="matrix(1 0 0 1 0 0 ) " x="600" y="445">单</text>
    <text id="11435929" style="&E7;" transform="matrix(1 0 0 1 0 0 ) " x="10" y="485">26</text>
    <text id="11435931" style="&E7;" transform="matrix(1 0 0 1 0 0 ) " x="50" y="485">17:03:40</text>
    <ellipse id="11435933" cy="497" cx="192" rx="17" ry="17" style="&E8;" />
    <text id="11435934" style="&E9;" transform="matrix(1 0 0 1 0 0 ) " x="176" y="483">16</text>
    <ellipse id="11435936" cy="497" cx="232" rx="17" ry="17" style="&E8;" />
    <text id="11435937" style="&E9;" transform="matrix(1 0 0 1 0 0 ) " x="216" y="483">19</text>
    <ellipse id="11435939" cy="497" cx="272" rx="17" ry="17" style="&E8;" />
    <text id="11435940" style="&E9;" transform="matrix(1 0 0 1 0 0 ) " x="256" y="483">04</text>
    <ellipse id="11435942" cy="497" cx="312" rx="17" ry="17" style="&E8;" />
    <text id="11435943" style="&E9;" transform="matrix(1 0 0 1 0 0 ) " x="296" y="483">20</text>
    <ellipse id="11435945" cy="497" cx="352" rx="17" ry="17" style="&E8;" />
    <text id="11435946" style="&E9;" transform="matrix(1 0 0 1 0 0 ) " x="336" y="483">10</text>
    <ellipse id="11435948" cy="497" cx="392" rx="17" ry="17" style="&E8;" />
    <text id="11435949" style="&E9;" transform="matrix(1 0 0 1 0 0 ) " x="376" y="483">02</text>
    <ellipse id="11435951" cy="497" cx="432" rx="17" ry="17" style="&E8;" />
    <text id="11435952" style="&E9;" transform="matrix(1 0 0 1 0 0 ) " x="416" y="483">01</text>
    <ellipse id="11435954" cy="497" cx="472" rx="17" ry="17" style="&E6;" />
    <text id="11435955" style="&E9;" transform="matrix(1 0 0 1 0 0 ) " x="456" y="483">06</text>
    <rect id="11435957" height="36" style="&E10;" width="36" y="480" x="512" />
    <rect id="11435958" height="34" style="&E11;" width="34" y="481" x="513" />
    <text id="11435959" style="&E4;" transform="matrix(1 0 0 1 0 0 ) " x="520" y="485">2</text>
    <text id="11435961" style="&E9;" transform="matrix(1 0 0 1 0 0 ) " x="560" y="485">小</text>
    <text id="11435963" style="&E9;" transform="matrix(1 0 0 1 0 0 ) " x="600" y="485">双</text>
    <text id="11435965" style="&E7;" transform="matrix(1 0 0 1 0 0 ) " x="10" y="525">25</text>
    <text id="11435967" style="&E7;" transform="matrix(1 0 0 1 0 0 ) " x="50" y="525">16:58:40</text>
    <ellipse id="11435969" cy="537" cx="192" rx="17" ry="17" style="&E8;" />
    <text id="11435970" style="&E9;" transform="matrix(1 0 0 1 0 0 ) " x="176" y="523">15</text>
    <ellipse id="11435972" cy="537" cx="232" rx="17" ry="17" style="&E8;" />
    <text id="11435973" style="&E9;" transform="matrix(1 0 0 1 0 0 ) " x="216" y="523">11</text>
    <ellipse id="11435975" cy="537" cx="272" rx="17" ry="17" style="&E8;" />
    <text id="11435976" style="&E9;" transform="matrix(1 0 0 1 0 0 ) " x="256" y="523">06</text>
    <ellipse id="11435978" cy="537" cx="312" rx="17" ry="17" style="&E8;" />
    <text id="11435979" style="&E9;" transform="matrix(1 0 0 1 0 0 ) " x="296" y="523">03</text>
    <ellipse id="11435981" cy="537" cx="352" rx="17" ry="17" style="&E8;" />
    <text id="11435982" style="&E9;" transform="matrix(1 0 0 1 0 0 ) " x="336" y="523">13</text>
    <ellipse id="11435984" cy="537" cx="392" rx="17" ry="17" style="&E8;" />
    <text id="11435985" style="&E9;" transform="matrix(1 0 0 1 0 0 ) " x="376" y="523">19</text>
    <ellipse id="11435987" cy="537" cx="432" rx="17" ry="17" style="&E8;" />
    <text id="11435988" style="&E9;" transform="matrix(1 0 0 1 0 0 ) " x="416" y="523">08</text>
    <ellipse id="11435990" cy="537" cx="472" rx="17" ry="17" style="&E6;" />
    <text id="11435991" style="&E9;" transform="matrix(1 0 0 1 0 0 ) " x="456" y="523">12</text>
    <rect id="11435993" height="36" style="&E10;" width="36" y="520" x="512" />
    <rect id="11435994" height="34" style="&E13;" width="34" y="521" x="513" />
    <text id="11435995" style="&E4;" transform="matrix(1 0 0 1 0 0 ) " x="520" y="525">4</text>
    <text id="11435997" style="&E9;" transform="matrix(1 0 0 1 0 0 ) " x="560" y="525">大</text>
    <text id="11435999" style="&E9;" transform="matrix(1 0 0 1 0 0 ) " x="600" y="525">双</text>
    <text id="11436001" style="&E7;" transform="matrix(1 0 0 1 0 0 ) " x="10" y="565">24</text>
    <text id="11436003" style="&E7;" transform="matrix(1 0 0 1 0 0 ) " x="50" y="565">16:53:40</text>
    <ellipse id="11436005" cy="577" cx="192" rx="17" ry="17" style="&E8;" />
    <text id="11436006" style="&E9;" transform="matrix(1 0 0 1 0 0 ) " x="176" y="563">01</text>
    <ellipse id="11436008" cy="577" cx="232" rx="17" ry="17" style="&E8;" />
    <text id="11436009" style="&E9;" transform="matrix(1 0 0 1 0 0 ) " x="216" y="563">08</text>
    <ellipse id="11436011" cy="577" cx="272" rx="17" ry="17" style="&E8;" />
    <text id="11436012" style="&E9;" transform="matrix(1 0 0 1 0 0 ) " x="256" y="563">14</text>
    <ellipse id="11436014" cy="577" cx="312" rx="17" ry="17" style="&E8;" />
    <text id="11436015" style="&E9;" transform="matrix(1 0 0 1 0 0 ) " x="296" y="563">10</text>
    <ellipse id="11436017" cy="577" cx="352" rx="17" ry="17" style="&E8;" />
    <text id="11436018" style="&E9;" transform="matrix(1 0 0 1 0 0 ) " x="336" y="563">20</text>
    <ellipse id="11436020" cy="577" cx="392" rx="17" ry="17" style="&E8;" />
    <text id="11436021" style="&E9;" transform="matrix(1 0 0 1 0 0 ) " x="376" y="563">18</text>
    <ellipse id="11436023" cy="577" cx="432" rx="17" ry="17" style="&E8;" />
    <text id="11436024" style="&E9;" transform="matrix(1 0 0 1 0 0 ) " x="416" y="563">12</text>
    <ellipse id="11436026" cy="577" cx="472" rx="17" ry="17" style="&E6;" />
    <text id="11436027" style="&E9;" transform="matrix(1 0 0 1 0 0 ) " x="456" y="563">07</text>
    <rect id="11436029" height="36" style="&E10;" width="36" y="560" x="512" />
    <rect id="11436030" height="34" style="&E12;" width="34" y="561" x="513" />
    <text id="11436031" style="&E4;" transform="matrix(1 0 0 1 0 0 ) " x="520" y="565">3</text>
    <text id="11436033" style="&E9;" transform="matrix(1 0 0 1 0 0 ) " x="560" y="565">小</text>
    <text id="11436035" style="&E9;" transform="matrix(1 0 0 1 0 0 ) " x="600" y="565">单</text>
    <text id="11436037" style="&E7;" transform="matrix(1 0 0 1 0 0 ) " x="10" y="605">23</text>
    <text id="11436039" style="&E7;" transform="matrix(1 0 0 1 0 0 ) " x="50" y="605">16:48:40</text>
    <ellipse id="11436041" cy="617" cx="192" rx="17" ry="17" style="&E8;" />
    <text id="11436042" style="&E9;" transform="matrix(1 0 0 1 0 0 ) " x="176" y="603">13</text>
    <ellipse id="11436044" cy="617" cx="232" rx="17" ry="17" style="&E8;" />
    <text id="11436045" style="&E9;" transform="matrix(1 0 0 1 0 0 ) " x="216" y="603">07</text>
    <ellipse id="11436047" cy="617" cx="272" rx="17" ry="17" style="&E8;" />
    <text id="11436048" style="&E9;" transform="matrix(1 0 0 1 0 0 ) " x="256" y="603">10</text>
    <ellipse id="11436050" cy="617" cx="312" rx="17" ry="17" style="&E8;" />
    <text id="11436051" style="&E9;" transform="matrix(1 0 0 1 0 0 ) " x="296" y="603">03</text>
    <ellipse id="11436053" cy="617" cx="352" rx="17" ry="17" style="&E8;" />
    <text id="11436054" style="&E9;" transform="matrix(1 0 0 1 0 0 ) " x="336" y="603">06</text>
    <ellipse id="11436056" cy="617" cx="392" rx="17" ry="17" style="&E8;" />
    <text id="11436057" style="&E9;" transform="matrix(1 0 0 1 0 0 ) " x="376" y="603">08</text>
    <ellipse id="11436059" cy="617" cx="432" rx="17" ry="17" style="&E8;" />
    <text id="11436060" style="&E9;" transform="matrix(1 0 0 1 0 0 ) " x="416" y="603">16</text>
    <ellipse id="11436062" cy="617" cx="472" rx="17" ry="17" style="&E6;" />
    <text id="11436063" style="&E9;" transform="matrix(1 0 0 1 0 0 ) " x="456" y="603">20</text>
    <rect id="11436065" height="36" style="&E10;" width="36" y="600" x="512" />
    <rect id="11436066" height="34" style="&E13;" width="34" y="601" x="513" />
    <text id="11436067" style="&E4;" transform="matrix(1 0 0 1 0 0 ) " x="520" y="605">4</text>
    <text id="11436069" style="&E9;" transform="matrix(1 0 0 1 0 0 ) " x="560" y="605">大</text>
    <text id="11436071" style="&E9;" transform="matrix(1 0 0 1 0 0 ) " x="600" y="605">双</text>
    <rect id="11436073" height="46" style="&E15;" width="627" y="656" x="10" />
    <text id="11436074" style="&E16;" transform="matrix(1 0 0 1 0 0 ) " x="229" y="666">路</text>
    <text id="11436076" style="&E16;" transform="matrix(1 0 0 1 0 0 ) " x="280" y="666">字</text>
    <text id="11436078" style="&E16;" transform="matrix(1 0 0 1 0 0 ) " x="332" y="666">图</text>
    <line y1="656" style="&E17;" id="11436080" x2="637" y2="656" x1="10" />
    <line y1="702" style="&E17;" id="11436081" x2="637" y2="702" x1="10" />
    <line y1="753" style="&E17;" id="11436082" x2="637" y2="753" x1="10" />
    <line y1="802" style="&E17;" id="11436083" x2="637" y2="802" x1="10" />
    <line y1="851" style="&E17;" id="11436084" x2="637" y2="851" x1="10" />
    <line y1="900" style="&E17;" id="11436085" x2="637" y2="900" x1="10" />
    <line y1="945" style="&E17;" id="11436086" x2="637" y2="945" x1="10" />
    <line y1="656" style="&E17;" id="11436087" x2="10" y2="945" x1="10" />
    <line y1="656" style="&E17;" id="11436088" x2="60" y2="945" x1="60" />
    <line y1="656" style="&E17;" id="11436089" x2="115" y2="945" x1="115" />
    <line y1="656" style="&E17;" id="11436090" x2="166" y2="945" x1="166" />
    <line y1="656" style="&E17;" id="11436091" x2="219" y2="945" x1="219" />
    <line y1="656" style="&E17;" id="11436092" x2="270" y2="945" x1="270" />
    <line y1="656" style="&E17;" id="11436093" x2="323" y2="945" x1="323" />
    <line y1="656" style="&E17;" id="11436094" x2="375" y2="945" x1="375" />
    <line y1="656" style="&E17;" id="11436095" x2="427" y2="945" x1="427" />
    <line y1="656" style="&E17;" id="11436096" x2="480" y2="945" x1="480" />
    <line y1="656" style="&E17;" id="11436097" x2="531" y2="945" x1="531" />
    <line y1="656" style="&E17;" id="11436098" x2="584" y2="945" x1="584" />
    <line y1="656" style="&E17;" id="11436099" x2="636" y2="945" x1="636" />
    <rect id="11436100" height="38" style="&E10;" width="38" y="708" x="16" />
    <rect id="11436101" height="37" style="&E11;" width="37" y="708" x="16" />
    <text id="11436102" style="&E18;" transform="matrix(1 0 0 1 0 0 ) " x="20" y="710">2</text>
    <rect id="11436104" height="38" style="&E10;" width="38" y="708" x="68" />
    <rect id="11436105" height="37" style="&E13;" width="37" y="708" x="68" />
    <text id="11436106" style="&E18;" transform="matrix(1 0 0 1 0 0 ) " x="72" y="710">4</text>
    <rect id="11436108" height="38" style="&E10;" width="38" y="708" x="121" />
    <rect id="11436109" height="37" style="&E14;" width="37" y="708" x="121" />
    <text id="11436110" style="&E18;" transform="matrix(1 0 0 1 0 0 ) " x="125" y="710">1</text>
    <rect id="11436112" height="38" style="&E10;" width="38" y="708" x="174" />
    <rect id="11436113" height="37" style="&E14;" width="37" y="708" x="174" />
    <text id="11436114" style="&E18;" transform="matrix(1 0 0 1 0 0 ) " x="178" y="710">1</text>
    <rect id="11436116" height="38" style="&E10;" width="38" y="708" x="225" />
    <rect id="11436117" height="37" style="&E12;" width="37" y="708" x="225" />
    <text id="11436118" style="&E18;" transform="matrix(1 0 0 1 0 0 ) " x="229" y="710">3</text>
    <rect id="11436120" height="38" style="&E10;" width="38" y="708" x="278" />
    <rect id="11436121" height="37" style="&E12;" width="37" y="708" x="278" />
    <text id="11436122" style="&E18;" transform="matrix(1 0 0 1 0 0 ) " x="282" y="710">3</text>
    <rect id="11436124" height="38" style="&E10;" width="38" y="708" x="330" />
    <rect id="11436125" height="37" style="&E13;" width="37" y="708" x="330" />
    <text id="11436126" style="&E18;" transform="matrix(1 0 0 1 0 0 ) " x="334" y="710">4</text>
    <rect id="11436128" height="38" style="&E10;" width="38" y="708" x="383" />
    <rect id="11436129" height="37" style="&E14;" width="37" y="708" x="383" />
    <text id="11436130" style="&E18;" transform="matrix(1 0 0 1 0 0 ) " x="387" y="710">1</text>
    <rect id="11436132" height="38" style="&E10;" width="38" y="708" x="434" />
    <rect id="11436133" height="37" style="&E11;" width="37" y="708" x="434" />
    <text id="11436134" style="&E18;" transform="matrix(1 0 0 1 0 0 ) " x="438" y="710">2</text>
    <rect id="11436136" height="38" style="&E10;" width="38" y="708" x="486" />
    <rect id="11436137" height="37" style="&E13;" width="37" y="708" x="486" />
    <text id="11436138" style="&E18;" transform="matrix(1 0 0 1 0 0 ) " x="490" y="710">4</text>
    <rect id="11436140" height="38" style="&E10;" width="38" y="708" x="538" />
    <rect id="11436141" height="37" style="&E11;" width="37" y="708" x="538" />
    <text id="11436142" style="&E18;" transform="matrix(1 0 0 1 0 0 ) " x="542" y="710">2</text>
    <rect id="11436144" height="38" style="&E10;" width="38" y="708" x="592" />
    <rect id="11436145" height="37" style="&E11;" width="37" y="708" x="592" />
    <text id="11436146" style="&E18;" transform="matrix(1 0 0 1 0 0 ) " x="596" y="710">2</text>
    <rect id="11436148" height="38" style="&E10;" width="38" y="758" x="16" />
    <rect id="11436149" height="37" style="&E14;" width="37" y="758" x="16" />
    <text id="11436150" style="&E18;" transform="matrix(1 0 0 1 0 0 ) " x="20" y="760">1</text>
    <rect id="11436152" height="38" style="&E10;" width="38" y="758" x="68" />
    <rect id="11436153" height="37" style="&E11;" width="37" y="758" x="68" />
    <text id="11436154" style="&E18;" transform="matrix(1 0 0 1 0 0 ) " x="72" y="760">2</text>
    <rect id="11436156" height="38" style="&E10;" width="38" y="758" x="121" />
    <rect id="11436157" height="37" style="&E14;" width="37" y="758" x="121" />
    <text id="11436158" style="&E18;" transform="matrix(1 0 0 1 0 0 ) " x="125" y="760">1</text>
    <rect id="11436160" height="38" style="&E10;" width="38" y="758" x="174" />
    <rect id="11436161" height="37" style="&E13;" width="37" y="758" x="174" />
    <text id="11436162" style="&E18;" transform="matrix(1 0 0 1 0 0 ) " x="178" y="760">4</text>
    <rect id="11436164" height="38" style="&E10;" width="38" y="758" x="225" />
    <rect id="11436165" height="37" style="&E11;" width="37" y="758" x="225" />
    <text id="11436166" style="&E18;" transform="matrix(1 0 0 1 0 0 ) " x="229" y="760">2</text>
    <rect id="11436168" height="38" style="&E10;" width="38" y="758" x="278" />
    <rect id="11436169" height="37" style="&E12;" width="37" y="758" x="278" />
    <text id="11436170" style="&E18;" transform="matrix(1 0 0 1 0 0 ) " x="282" y="760">3</text>
    <rect id="11436172" height="38" style="&E10;" width="38" y="758" x="330" />
    <rect id="11436173" height="37" style="&E13;" width="37" y="758" x="330" />
    <text id="11436174" style="&E18;" transform="matrix(1 0 0 1 0 0 ) " x="334" y="760">4</text>
    <rect id="11436176" height="38" style="&E10;" width="38" y="758" x="383" />
    <rect id="11436177" height="37" style="&E11;" width="37" y="758" x="383" />
    <text id="11436178" style="&E18;" transform="matrix(1 0 0 1 0 0 ) " x="387" y="760">2</text>
    <rect id="11436180" height="38" style="&E10;" width="38" y="758" x="434" />
    <rect id="11436181" height="37" style="&E12;" width="37" y="758" x="434" />
    <text id="11436182" style="&E18;" transform="matrix(1 0 0 1 0 0 ) " x="438" y="760">3</text>
    <rect id="11436184" height="38" style="&E10;" width="38" y="758" x="486" />
    <rect id="11436185" height="37" style="&E14;" width="37" y="758" x="486" />
    <text id="11436186" style="&E18;" transform="matrix(1 0 0 1 0 0 ) " x="490" y="760">1</text>
    <rect id="11436188" height="38" style="&E10;" width="38" y="758" x="538" />
    <rect id="11436189" height="37" style="&E12;" width="37" y="758" x="538" />
    <text id="11436190" style="&E18;" transform="matrix(1 0 0 1 0 0 ) " x="542" y="760">3</text>
    <rect id="11436192" height="38" style="&E10;" width="38" y="758" x="592" />
    <rect id="11436193" height="37" style="&E13;" width="37" y="758" x="592" />
    <text id="11436194" style="&E18;" transform="matrix(1 0 0 1 0 0 ) " x="596" y="760">4</text>
    <rect id="11436196" height="38" style="&E10;" width="38" y="806" x="16" />
    <rect id="11436197" height="37" style="&E14;" width="37" y="806" x="16" />
    <text id="11436198" style="&E18;" transform="matrix(1 0 0 1 0 0 ) " x="20" y="808">1</text>
    <rect id="11436200" height="38" style="&E10;" width="38" y="806" x="68" />
    <rect id="11436201" height="37" style="&E12;" width="37" y="806" x="68" />
    <text id="11436202" style="&E18;" transform="matrix(1 0 0 1 0 0 ) " x="72" y="808">3</text>
    <rect id="11436204" height="38" style="&E10;" width="38" y="806" x="121" />
    <rect id="11436205" height="37" style="&E13;" width="37" y="806" x="121" />
    <text id="11436206" style="&E18;" transform="matrix(1 0 0 1 0 0 ) " x="125" y="808">4</text>
    <rect id="11436208" height="38" style="&E10;" width="38" y="806" x="174" />
    <rect id="11436209" height="37" style="&E14;" width="37" y="806" x="174" />
    <text id="11436210" style="&E18;" transform="matrix(1 0 0 1 0 0 ) " x="178" y="808">1</text>
    <rect id="11436212" height="38" style="&E10;" width="38" y="806" x="225" />
    <rect id="11436213" height="37" style="&E13;" width="37" y="806" x="225" />
    <text id="11436214" style="&E18;" transform="matrix(1 0 0 1 0 0 ) " x="229" y="808">4</text>
    <rect id="11436216" height="38" style="&E10;" width="38" y="806" x="278" />
    <rect id="11436217" height="37" style="&E12;" width="37" y="806" x="278" />
    <text id="11436218" style="&E18;" transform="matrix(1 0 0 1 0 0 ) " x="282" y="808">3</text>
    <rect id="11436220" height="38" style="&E10;" width="38" y="806" x="330" />
    <rect id="11436221" height="37" style="&E11;" width="37" y="806" x="330" />
    <text id="11436222" style="&E18;" transform="matrix(1 0 0 1 0 0 ) " x="334" y="808">2</text>
    <rect id="11436224" height="38" style="&E10;" width="38" y="806" x="383" />
    <rect id="11436225" height="37" style="&E14;" width="37" y="806" x="383" />
    <text id="11436226" style="&E18;" transform="matrix(1 0 0 1 0 0 ) " x="387" y="808">1</text>
    <rect id="11436228" height="38" style="&E10;" width="38" y="806" x="434" />
    <rect id="11436229" height="37" style="&E13;" width="37" y="806" x="434" />
    <text id="11436230" style="&E18;" transform="matrix(1 0 0 1 0 0 ) " x="438" y="808">4</text>
    <rect id="11436232" height="38" style="&E10;" width="38" y="806" x="486" />
    <rect id="11436233" height="37" style="&E12;" width="37" y="806" x="486" />
    <text id="11436234" style="&E18;" transform="matrix(1 0 0 1 0 0 ) " x="490" y="808">3</text>
    <rect id="11436236" height="38" style="&E10;" width="38" y="806" x="538" />
    <rect id="11436237" height="37" style="&E13;" width="37" y="806" x="538" />
    <text id="11436238" style="&E18;" transform="matrix(1 0 0 1 0 0 ) " x="542" y="808">4</text>
    <rect id="11436240" height="38" style="&E10;" width="38" y="806" x="592" />
    <rect id="11436241" height="37" style="&E13;" width="37" y="806" x="592" />
    <text id="11436242" style="&E18;" transform="matrix(1 0 0 1 0 0 ) " x="596" y="808">4</text>
    <rect id="11436244" height="38" style="&E10;" width="38" y="855" x="16" />
    <rect id="11436245" height="37" style="&E12;" width="37" y="855" x="16" />
    <text id="11436246" style="&E18;" transform="matrix(1 0 0 1 0 0 ) " x="20" y="857">3</text>
    <rect id="11436248" height="38" style="&E10;" width="38" y="855" x="68" />
    <rect id="11436249" height="37" style="&E13;" width="37" y="855" x="68" />
    <text id="11436250" style="&E18;" transform="matrix(1 0 0 1 0 0 ) " x="72" y="857">4</text>
    <rect id="11436252" height="38" style="&E10;" width="38" y="855" x="121" />
    <rect id="11436253" height="37" style="&E11;" width="37" y="855" x="121" />
    <text id="11436254" style="&E18;" transform="matrix(1 0 0 1 0 0 ) " x="125" y="857">2</text>
    <rect id="11436256" height="38" style="&E10;" width="38" y="855" x="174" />
    <rect id="11436257" height="37" style="&E12;" width="37" y="855" x="174" />
    <text id="11436258" style="&E18;" transform="matrix(1 0 0 1 0 0 ) " x="178" y="857">3</text>
    <rect id="11436260" height="38" style="&E10;" width="38" y="855" x="225" />
    <rect id="11436261" height="37" style="&E14;" width="37" y="855" x="225" />
    <text id="11436262" style="&E18;" transform="matrix(1 0 0 1 0 0 ) " x="229" y="857">1</text>
    <rect id="11436264" height="38" style="&E10;" width="38" y="855" x="278" />
    <rect id="11436265" height="37" style="&E13;" width="37" y="855" x="278" />
    <text id="11436266" style="&E18;" transform="matrix(1 0 0 1 0 0 ) " x="282" y="857">4</text>
    <rect id="11436268" height="38" style="&E10;" width="38" y="855" x="330" />
    <rect id="11436269" height="37" style="&E14;" width="37" y="855" x="330" />
    <text id="11436270" style="&E18;" transform="matrix(1 0 0 1 0 0 ) " x="334" y="857">1</text>
    <rect id="11436272" height="38" style="&E10;" width="38" y="855" x="383" />
    <rect id="11436273" height="37" style="&E11;" width="37" y="855" x="383" />
    <text id="11436274" style="&E18;" transform="matrix(1 0 0 1 0 0 ) " x="387" y="857">2</text>
    <rect id="11436276" height="38" style="&E10;" width="38" y="855" x="434" />
    <rect id="11436277" height="37" style="&E14;" width="37" y="855" x="434" />
    <text id="11436278" style="&E18;" transform="matrix(1 0 0 1 0 0 ) " x="438" y="857">1</text>
    <rect id="11436280" height="38" style="&E10;" width="38" y="855" x="486" />
    <rect id="11436281" height="37" style="&E12;" width="37" y="855" x="486" />
    <text id="11436282" style="&E18;" transform="matrix(1 0 0 1 0 0 ) " x="490" y="857">3</text>
    <rect id="11436284" height="38" style="&E10;" width="38" y="855" x="538" />
    <rect id="11436285" height="37" style="&E12;" width="37" y="855" x="538" />
    <text id="11436286" style="&E18;" transform="matrix(1 0 0 1 0 0 ) " x="542" y="857">3</text>
    <rect id="11436288" height="38" style="&E10;" width="38" y="855" x="592" />
    <rect id="11436289" height="37" style="&E13;" width="37" y="855" x="592" />
    <text id="11436290" style="&E18;" transform="matrix(1 0 0 1 0 0 ) " x="596" y="857">4</text>
    <rect id="11436292" height="38" style="&E10;" width="38" y="903" x="16" />
    <rect id="11436293" height="37" style="&E12;" width="37" y="903" x="16" />
    <text id="11436294" style="&E18;" transform="matrix(1 0 0 1 0 0 ) " x="20" y="905">3</text>
    <rect id="11436296" height="38" style="&E10;" width="38" y="903" x="68" />
    <rect id="11436297" height="37" style="&E11;" width="37" y="903" x="68" />
    <text id="11436298" style="&E18;" transform="matrix(1 0 0 1 0 0 ) " x="72" y="905">2</text>
  </g>
  <defs id="clips_hatches_and_gradients" />
</svg>