<?xml version="1.0" encoding="utf-8" standalone="yes"?>
<!DOCTYPE svg PUBLIC "-//W3C//DTD SVG 1.1//EN" "http://www.w3.org/Graphics/SVG/1.1/DTD/svg11.dtd"[
	<!ENTITY E11 'stroke:none;opacity:1;fill:rgb(62,198,124);'>
	<!ENTITY E2 'stroke:none;opacity:1;fill:rgb(255,255,255);'>
	<!ENTITY E10 'stroke:rgb(0,0,0);fill:none;stroke-linecap:round;stroke-miterlimit:9;opacity:1;stroke-width:2;stroke-linejoin:round;'>
	<!ENTITY E3 'stroke:none;opacity:1;fill:rgb(60,182,230);'>
	<!ENTITY E18 'stroke:none;font-size:26pt;fill:rgb(255,255,255);font-weight:bolder;baseline-shift:-86&#37;;font-family:微软雅黑;opacity:1;'>
	<!ENTITY E4 'stroke:none;font-size:18pt;fill:rgb(255,255,255);font-weight:bolder;baseline-shift:-86&#37;;font-family:微软雅黑;opacity:1;'>
	<!ENTITY E5 'stroke:none;opacity:1;fill:rgb(250,250,250);'>
	<!ENTITY E14 'stroke:none;opacity:1;fill:rgb(93,150,255);'>
	<!ENTITY E16 'stroke:none;font-size:22pt;fill:rgb(0,0,0);font-weight:bolder;baseline-shift:-86&#37;;font-family:微软雅黑;opacity:1;'>
	<!ENTITY E8 'stroke:rgb(60,182,230);fill:none;stroke-linecap:round;stroke-miterlimit:9;opacity:1;stroke-width:2;stroke-linejoin:round;'>
	<!ENTITY E6 'stroke:rgb(255,0,0);fill:none;stroke-linecap:round;stroke-miterlimit:9;opacity:1;stroke-width:2;stroke-linejoin:round;'>
	<!ENTITY E13 'stroke:none;opacity:1;fill:rgb(255,62,65);'>
	<!ENTITY E9 'stroke:none;font-size:18pt;fill:rgb(102,102,102);font-weight:bolder;baseline-shift:-86&#37;;font-family:微软雅黑;opacity:1;'>
	<!ENTITY E1 'text-rendering:auto;shape-rendering:geometricPrecision;'>
	<!ENTITY E17 'stroke:rgb(128,128,128);fill:none;stroke-linecap:butt;stroke-miterlimit:9;opacity:1;stroke-width:2;stroke-linejoin:miter;'>
	<!ENTITY E15 'stroke:none;opacity:1;fill:rgb(211,211,211);'>
	<!ENTITY E12 'stroke:none;opacity:1;fill:rgb(247,212,0);'>
	<!ENTITY E7 'stroke:none;font-family:微软雅黑;fill:rgb(102,102,102);font-size:16pt;baseline-shift:-86&#37;;opacity:1;'>
]>
<svg height="952" width="655" id="SvgGdi_output" xmlns="http://www.w3.org/2000/svg">
  <rect id="background" height="100%" style="fill:rgb(255,255,255);" width="100%" y="0" x="0" />
  <g style="&E1;" id="root_group">
    <rect id="11436955" height="635" style="&E2;" width="655" y="0" x="0" />
    <rect id="11436956" height="37" style="&E3;" width="655" y="0" x="0" />
    <text id="11436957" style="&E4;" transform="matrix(1 0 0 1 0 0 ) " x="15" y="3">期数</text>
    <text id="11436959" style="&E4;" transform="matrix(1 0 0 1 0 0 ) " x="89" y="3">时间</text>
    <text id="11436961" style="&E4;" transform="matrix(1 0 0 1 0 0 ) " x="373" y="3">结果</text>
    <text id="11436963" style="&E4;" transform="matrix(1 0 0 1 0 0 ) " x="520" y="3">番</text>
    <rect id="11436965" height="37" style="&E5;" width="655" y="38" x="0" />
    <rect id="11436966" height="37" style="&E5;" width="655" y="118" x="0" />
    <rect id="11436967" height="37" style="&E5;" width="655" y="198" x="0" />
    <rect id="11436968" height="37" style="&E5;" width="655" y="278" x="0" />
    <rect id="11436969" height="37" style="&E5;" width="655" y="358" x="0" />
    <rect id="11436970" height="37" style="&E5;" width="655" y="438" x="0" />
    <rect id="11436971" height="37" style="&E5;" width="655" y="518" x="0" />
    <rect id="11436972" height="37" style="&E5;" width="655" y="598" x="0" />
    <rect id="11436973" height="37" style="&E5;" width="655" y="678" x="0" />
    <rect id="11436974" height="37" style="&E5;" width="655" y="758" x="0" />
    <rect id="11436975" height="37" style="&E6;" width="655" y="38" x="0" />
    <text id="11436976" style="&E7;" transform="matrix(1 0 0 1 0 0 ) " x="10" y="45">38</text>
    <text id="11436978" style="&E7;" transform="matrix(1 0 0 1 0 0 ) " x="50" y="45">18:03:40</text>
    <ellipse id="11436980" cy="57" cx="192" rx="17" ry="17" style="&E8;" />
    <text id="11436981" style="&E9;" transform="matrix(1 0 0 1 0 0 ) " x="176" y="43">06</text>
    <ellipse id="11436983" cy="57" cx="232" rx="17" ry="17" style="&E8;" />
    <text id="11436984" style="&E9;" transform="matrix(1 0 0 1 0 0 ) " x="216" y="43">15</text>
    <ellipse id="11436986" cy="57" cx="272" rx="17" ry="17" style="&E8;" />
    <text id="11436987" style="&E9;" transform="matrix(1 0 0 1 0 0 ) " x="256" y="43">10</text>
    <ellipse id="11436989" cy="57" cx="312" rx="17" ry="17" style="&E8;" />
    <text id="11436990" style="&E9;" transform="matrix(1 0 0 1 0 0 ) " x="296" y="43">03</text>
    <ellipse id="11436992" cy="57" cx="352" rx="17" ry="17" style="&E8;" />
    <text id="11436993" style="&E9;" transform="matrix(1 0 0 1 0 0 ) " x="336" y="43">07</text>
    <ellipse id="11436995" cy="57" cx="392" rx="17" ry="17" style="&E8;" />
    <text id="11436996" style="&E9;" transform="matrix(1 0 0 1 0 0 ) " x="376" y="43">18</text>
    <ellipse id="11436998" cy="57" cx="432" rx="17" ry="17" style="&E8;" />
    <text id="11436999" style="&E9;" transform="matrix(1 0 0 1 0 0 ) " x="416" y="43">08</text>
    <ellipse id="11437001" cy="57" cx="472" rx="17" ry="17" style="&E6;" />
    <text id="11437002" style="&E9;" transform="matrix(1 0 0 1 0 0 ) " x="456" y="43">02</text>
    <rect id="11437004" height="36" style="&E10;" width="36" y="40" x="512" />
    <rect id="11437005" height="34" style="&E11;" width="34" y="41" x="513" />
    <text id="11437006" style="&E4;" transform="matrix(1 0 0 1 0 0 ) " x="520" y="45">2</text>
    <text id="11437008" style="&E9;" transform="matrix(1 0 0 1 0 0 ) " x="560" y="45">小</text>
    <text id="11437010" style="&E9;" transform="matrix(1 0 0 1 0 0 ) " x="600" y="45">双</text>
    <text id="11437012" style="&E7;" transform="matrix(1 0 0 1 0 0 ) " x="10" y="85">37</text>
    <text id="11437014" style="&E7;" transform="matrix(1 0 0 1 0 0 ) " x="50" y="85">17:58:40</text>
    <ellipse id="11437016" cy="97" cx="192" rx="17" ry="17" style="&E8;" />
    <text id="11437017" style="&E9;" transform="matrix(1 0 0 1 0 0 ) " x="176" y="83">18</text>
    <ellipse id="11437019" cy="97" cx="232" rx="17" ry="17" style="&E8;" />
    <text id="11437020" style="&E9;" transform="matrix(1 0 0 1 0 0 ) " x="216" y="83">10</text>
    <ellipse id="11437022" cy="97" cx="272" rx="17" ry="17" style="&E8;" />
    <text id="11437023" style="&E9;" transform="matrix(1 0 0 1 0 0 ) " x="256" y="83">19</text>
    <ellipse id="11437025" cy="97" cx="312" rx="17" ry="17" style="&E8;" />
    <text id="11437026" style="&E9;" transform="matrix(1 0 0 1 0 0 ) " x="296" y="83">13</text>
    <ellipse id="11437028" cy="97" cx="352" rx="17" ry="17" style="&E8;" />
    <text id="11437029" style="&E9;" transform="matrix(1 0 0 1 0 0 ) " x="336" y="83">05</text>
    <ellipse id="11437031" cy="97" cx="392" rx="17" ry="17" style="&E8;" />
    <text id="11437032" style="&E9;" transform="matrix(1 0 0 1 0 0 ) " x="376" y="83">08</text>
    <ellipse id="11437034" cy="97" cx="432" rx="17" ry="17" style="&E8;" />
    <text id="11437035" style="&E9;" transform="matrix(1 0 0 1 0 0 ) " x="416" y="83">01</text>
    <ellipse id="11437037" cy="97" cx="472" rx="17" ry="17" style="&E6;" />
    <text id="11437038" style="&E9;" transform="matrix(1 0 0 1 0 0 ) " x="456" y="83">06</text>
    <rect id="11437040" height="36" style="&E10;" width="36" y="80" x="512" />
    <rect id="11437041" height="34" style="&E11;" width="34" y="81" x="513" />
    <text id="11437042" style="&E4;" transform="matrix(1 0 0 1 0 0 ) " x="520" y="85">2</text>
    <text id="11437044" style="&E9;" transform="matrix(1 0 0 1 0 0 ) " x="560" y="85">小</text>
    <text id="11437046" style="&E9;" transform="matrix(1 0 0 1 0 0 ) " x="600" y="85">双</text>
    <text id="11437048" style="&E7;" transform="matrix(1 0 0 1 0 0 ) " x="10" y="125">36</text>
    <text id="11437050" style="&E7;" transform="matrix(1 0 0 1 0 0 ) " x="50" y="125">17:53:40</text>
    <ellipse id="11437052" cy="137" cx="192" rx="17" ry="17" style="&E8;" />
    <text id="11437053" style="&E9;" transform="matrix(1 0 0 1 0 0 ) " x="176" y="123">15</text>
    <ellipse id="11437055" cy="137" cx="232" rx="17" ry="17" style="&E8;" />
    <text id="11437056" style="&E9;" transform="matrix(1 0 0 1 0 0 ) " x="216" y="123">17</text>
    <ellipse id="11437058" cy="137" cx="272" rx="17" ry="17" style="&E8;" />
    <text id="11437059" style="&E9;" transform="matrix(1 0 0 1 0 0 ) " x="256" y="123">20</text>
    <ellipse id="11437061" cy="137" cx="312" rx="17" ry="17" style="&E8;" />
    <text id="11437062" style="&E9;" transform="matrix(1 0 0 1 0 0 ) " x="296" y="123">06</text>
    <ellipse id="11437064" cy="137" cx="352" rx="17" ry="17" style="&E8;" />
    <text id="11437065" style="&E9;" transform="matrix(1 0 0 1 0 0 ) " x="336" y="123">04</text>
    <ellipse id="11437067" cy="137" cx="392" rx="17" ry="17" style="&E8;" />
    <text id="11437068" style="&E9;" transform="matrix(1 0 0 1 0 0 ) " x="376" y="123">03</text>
    <ellipse id="11437070" cy="137" cx="432" rx="17" ry="17" style="&E8;" />
    <text id="11437071" style="&E9;" transform="matrix(1 0 0 1 0 0 ) " x="416" y="123">08</text>
    <ellipse id="11437073" cy="137" cx="472" rx="17" ry="17" style="&E6;" />
    <text id="11437074" style="&E9;" transform="matrix(1 0 0 1 0 0 ) " x="456" y="123">07</text>
    <rect id="11437076" height="36" style="&E10;" width="36" y="120" x="512" />
    <rect id="11437077" height="34" style="&E12;" width="34" y="121" x="513" />
    <text id="11437078" style="&E4;" transform="matrix(1 0 0 1 0 0 ) " x="520" y="125">3</text>
    <text id="11437080" style="&E9;" transform="matrix(1 0 0 1 0 0 ) " x="560" y="125">小</text>
    <text id="11437082" style="&E9;" transform="matrix(1 0 0 1 0 0 ) " x="600" y="125">单</text>
    <text id="11437084" style="&E7;" transform="matrix(1 0 0 1 0 0 ) " x="10" y="165">35</text>
    <text id="11437086" style="&E7;" transform="matrix(1 0 0 1 0 0 ) " x="50" y="165">17:48:40</text>
    <ellipse id="11437088" cy="177" cx="192" rx="17" ry="17" style="&E8;" />
    <text id="11437089" style="&E9;" transform="matrix(1 0 0 1 0 0 ) " x="176" y="163">01</text>
    <ellipse id="11437091" cy="177" cx="232" rx="17" ry="17" style="&E8;" />
    <text id="11437092" style="&E9;" transform="matrix(1 0 0 1 0 0 ) " x="216" y="163">02</text>
    <ellipse id="11437094" cy="177" cx="272" rx="17" ry="17" style="&E8;" />
    <text id="11437095" style="&E9;" transform="matrix(1 0 0 1 0 0 ) " x="256" y="163">06</text>
    <ellipse id="11437097" cy="177" cx="312" rx="17" ry="17" style="&E8;" />
    <text id="11437098" style="&E9;" transform="matrix(1 0 0 1 0 0 ) " x="296" y="163">09</text>
    <ellipse id="11437100" cy="177" cx="352" rx="17" ry="17" style="&E8;" />
    <text id="11437101" style="&E9;" transform="matrix(1 0 0 1 0 0 ) " x="336" y="163">05</text>
    <ellipse id="11437103" cy="177" cx="392" rx="17" ry="17" style="&E8;" />
    <text id="11437104" style="&E9;" transform="matrix(1 0 0 1 0 0 ) " x="376" y="163">03</text>
    <ellipse id="11437106" cy="177" cx="432" rx="17" ry="17" style="&E8;" />
    <text id="11437107" style="&E9;" transform="matrix(1 0 0 1 0 0 ) " x="416" y="163">17</text>
    <ellipse id="11437109" cy="177" cx="472" rx="17" ry="17" style="&E6;" />
    <text id="11437110" style="&E9;" transform="matrix(1 0 0 1 0 0 ) " x="456" y="163">20</text>
    <rect id="11437112" height="36" style="&E10;" width="36" y="160" x="512" />
    <rect id="11437113" height="34" style="&E13;" width="34" y="161" x="513" />
    <text id="11437114" style="&E4;" transform="matrix(1 0 0 1 0 0 ) " x="520" y="165">4</text>
    <text id="11437116" style="&E9;" transform="matrix(1 0 0 1 0 0 ) " x="560" y="165">大</text>
    <text id="11437118" style="&E9;" transform="matrix(1 0 0 1 0 0 ) " x="600" y="165">双</text>
    <text id="11437120" style="&E7;" transform="matrix(1 0 0 1 0 0 ) " x="10" y="205">34</text>
    <text id="11437122" style="&E7;" transform="matrix(1 0 0 1 0 0 ) " x="50" y="205">17:43:40</text>
    <ellipse id="11437124" cy="217" cx="192" rx="17" ry="17" style="&E8;" />
    <text id="11437125" style="&E9;" transform="matrix(1 0 0 1 0 0 ) " x="176" y="203">15</text>
    <ellipse id="11437127" cy="217" cx="232" rx="17" ry="17" style="&E8;" />
    <text id="11437128" style="&E9;" transform="matrix(1 0 0 1 0 0 ) " x="216" y="203">03</text>
    <ellipse id="11437130" cy="217" cx="272" rx="17" ry="17" style="&E8;" />
    <text id="11437131" style="&E9;" transform="matrix(1 0 0 1 0 0 ) " x="256" y="203">18</text>
    <ellipse id="11437133" cy="217" cx="312" rx="17" ry="17" style="&E8;" />
    <text id="11437134" style="&E9;" transform="matrix(1 0 0 1 0 0 ) " x="296" y="203">12</text>
    <ellipse id="11437136" cy="217" cx="352" rx="17" ry="17" style="&E8;" />
    <text id="11437137" style="&E9;" transform="matrix(1 0 0 1 0 0 ) " x="336" y="203">20</text>
    <ellipse id="11437139" cy="217" cx="392" rx="17" ry="17" style="&E8;" />
    <text id="11437140" style="&E9;" transform="matrix(1 0 0 1 0 0 ) " x="376" y="203">09</text>
    <ellipse id="11437142" cy="217" cx="432" rx="17" ry="17" style="&E8;" />
    <text id="11437143" style="&E9;" transform="matrix(1 0 0 1 0 0 ) " x="416" y="203">17</text>
    <ellipse id="11437145" cy="217" cx="472" rx="17" ry="17" style="&E6;" />
    <text id="11437146" style="&E9;" transform="matrix(1 0 0 1 0 0 ) " x="456" y="203">19</text>
    <rect id="11437148" height="36" style="&E10;" width="36" y="200" x="512" />
    <rect id="11437149" height="34" style="&E12;" width="34" y="201" x="513" />
    <text id="11437150" style="&E4;" transform="matrix(1 0 0 1 0 0 ) " x="520" y="205">3</text>
    <text id="11437152" style="&E9;" transform="matrix(1 0 0 1 0 0 ) " x="560" y="205">大</text>
    <text id="11437154" style="&E9;" transform="matrix(1 0 0 1 0 0 ) " x="600" y="205">单</text>
    <text id="11437156" style="&E7;" transform="matrix(1 0 0 1 0 0 ) " x="10" y="245">33</text>
    <text id="11437158" style="&E7;" transform="matrix(1 0 0 1 0 0 ) " x="50" y="245">17:38:40</text>
    <ellipse id="11437160" cy="257" cx="192" rx="17" ry="17" style="&E8;" />
    <text id="11437161" style="&E9;" transform="matrix(1 0 0 1 0 0 ) " x="176" y="243">10</text>
    <ellipse id="11437163" cy="257" cx="232" rx="17" ry="17" style="&E8;" />
    <text id="11437164" style="&E9;" transform="matrix(1 0 0 1 0 0 ) " x="216" y="243">05</text>
    <ellipse id="11437166" cy="257" cx="272" rx="17" ry="17" style="&E8;" />
    <text id="11437167" style="&E9;" transform="matrix(1 0 0 1 0 0 ) " x="256" y="243">06</text>
    <ellipse id="11437169" cy="257" cx="312" rx="17" ry="17" style="&E8;" />
    <text id="11437170" style="&E9;" transform="matrix(1 0 0 1 0 0 ) " x="296" y="243">13</text>
    <ellipse id="11437172" cy="257" cx="352" rx="17" ry="17" style="&E8;" />
    <text id="11437173" style="&E9;" transform="matrix(1 0 0 1 0 0 ) " x="336" y="243">08</text>
    <ellipse id="11437175" cy="257" cx="392" rx="17" ry="17" style="&E8;" />
    <text id="11437176" style="&E9;" transform="matrix(1 0 0 1 0 0 ) " x="376" y="243">04</text>
    <ellipse id="11437178" cy="257" cx="432" rx="17" ry="17" style="&E8;" />
    <text id="11437179" style="&E9;" transform="matrix(1 0 0 1 0 0 ) " x="416" y="243">09</text>
    <ellipse id="11437181" cy="257" cx="472" rx="17" ry="17" style="&E6;" />
    <text id="11437182" style="&E9;" transform="matrix(1 0 0 1 0 0 ) " x="456" y="243">19</text>
    <rect id="11437184" height="36" style="&E10;" width="36" y="240" x="512" />
    <rect id="11437185" height="34" style="&E12;" width="34" y="241" x="513" />
    <text id="11437186" style="&E4;" transform="matrix(1 0 0 1 0 0 ) " x="520" y="245">3</text>
    <text id="11437188" style="&E9;" transform="matrix(1 0 0 1 0 0 ) " x="560" y="245">大</text>
    <text id="11437190" style="&E9;" transform="matrix(1 0 0 1 0 0 ) " x="600" y="245">单</text>
    <text id="11437192" style="&E7;" transform="matrix(1 0 0 1 0 0 ) " x="10" y="285">32</text>
    <text id="11437194" style="&E7;" transform="matrix(1 0 0 1 0 0 ) " x="50" y="285">17:33:40</text>
    <ellipse id="11437196" cy="297" cx="192" rx="17" ry="17" style="&E8;" />
    <text id="11437197" style="&E9;" transform="matrix(1 0 0 1 0 0 ) " x="176" y="283">19</text>
    <ellipse id="11437199" cy="297" cx="232" rx="17" ry="17" style="&E8;" />
    <text id="11437200" style="&E9;" transform="matrix(1 0 0 1 0 0 ) " x="216" y="283">16</text>
    <ellipse id="11437202" cy="297" cx="272" rx="17" ry="17" style="&E8;" />
    <text id="11437203" style="&E9;" transform="matrix(1 0 0 1 0 0 ) " x="256" y="283">09</text>
    <ellipse id="11437205" cy="297" cx="312" rx="17" ry="17" style="&E8;" />
    <text id="11437206" style="&E9;" transform="matrix(1 0 0 1 0 0 ) " x="296" y="283">02</text>
    <ellipse id="11437208" cy="297" cx="352" rx="17" ry="17" style="&E8;" />
    <text id="11437209" style="&E9;" transform="matrix(1 0 0 1 0 0 ) " x="336" y="283">08</text>
    <ellipse id="11437211" cy="297" cx="392" rx="17" ry="17" style="&E8;" />
    <text id="11437212" style="&E9;" transform="matrix(1 0 0 1 0 0 ) " x="376" y="283">14</text>
    <ellipse id="11437214" cy="297" cx="432" rx="17" ry="17" style="&E8;" />
    <text id="11437215" style="&E9;" transform="matrix(1 0 0 1 0 0 ) " x="416" y="283">06</text>
    <ellipse id="11437217" cy="297" cx="472" rx="17" ry="17" style="&E6;" />
    <text id="11437218" style="&E9;" transform="matrix(1 0 0 1 0 0 ) " x="456" y="283">17</text>
    <rect id="11437220" height="36" style="&E10;" width="36" y="280" x="512" />
    <rect id="11437221" height="34" style="&E14;" width="34" y="281" x="513" />
    <text id="11437222" style="&E4;" transform="matrix(1 0 0 1 0 0 ) " x="520" y="285">1</text>
    <text id="11437224" style="&E9;" transform="matrix(1 0 0 1 0 0 ) " x="560" y="285">大</text>
    <text id="11437226" style="&E9;" transform="matrix(1 0 0 1 0 0 ) " x="600" y="285">单</text>
    <text id="11437228" style="&E7;" transform="matrix(1 0 0 1 0 0 ) " x="10" y="325">31</text>
    <text id="11437230" style="&E7;" transform="matrix(1 0 0 1 0 0 ) " x="50" y="325">17:28:40</text>
    <ellipse id="11437232" cy="337" cx="192" rx="17" ry="17" style="&E8;" />
    <text id="11437233" style="&E9;" transform="matrix(1 0 0 1 0 0 ) " x="176" y="323">17</text>
    <ellipse id="11437235" cy="337" cx="232" rx="17" ry="17" style="&E8;" />
    <text id="11437236" style="&E9;" transform="matrix(1 0 0 1 0 0 ) " x="216" y="323">11</text>
    <ellipse id="11437238" cy="337" cx="272" rx="17" ry="17" style="&E8;" />
    <text id="11437239" style="&E9;" transform="matrix(1 0 0 1 0 0 ) " x="256" y="323">16</text>
    <ellipse id="11437241" cy="337" cx="312" rx="17" ry="17" style="&E8;" />
    <text id="11437242" style="&E9;" transform="matrix(1 0 0 1 0 0 ) " x="296" y="323">05</text>
    <ellipse id="11437244" cy="337" cx="352" rx="17" ry="17" style="&E8;" />
    <text id="11437245" style="&E9;" transform="matrix(1 0 0 1 0 0 ) " x="336" y="323">08</text>
    <ellipse id="11437247" cy="337" cx="392" rx="17" ry="17" style="&E8;" />
    <text id="11437248" style="&E9;" transform="matrix(1 0 0 1 0 0 ) " x="376" y="323">06</text>
    <ellipse id="11437250" cy="337" cx="432" rx="17" ry="17" style="&E8;" />
    <text id="11437251" style="&E9;" transform="matrix(1 0 0 1 0 0 ) " x="416" y="323">10</text>
    <ellipse id="11437253" cy="337" cx="472" rx="17" ry="17" style="&E6;" />
    <text id="11437254" style="&E9;" transform="matrix(1 0 0 1 0 0 ) " x="456" y="323">18</text>
    <rect id="11437256" height="36" style="&E10;" width="36" y="320" x="512" />
    <rect id="11437257" height="34" style="&E11;" width="34" y="321" x="513" />
    <text id="11437258" style="&E4;" transform="matrix(1 0 0 1 0 0 ) " x="520" y="325">2</text>
    <text id="11437260" style="&E9;" transform="matrix(1 0 0 1 0 0 ) " x="560" y="325">大</text>
    <text id="11437262" style="&E9;" transform="matrix(1 0 0 1 0 0 ) " x="600" y="325">双</text>
    <text id="11437264" style="&E7;" transform="matrix(1 0 0 1 0 0 ) " x="10" y="365">30</text>
    <text id="11437266" style="&E7;" transform="matrix(1 0 0 1 0 0 ) " x="50" y="365">17:23:40</text>
    <ellipse id="11437268" cy="377" cx="192" rx="17" ry="17" style="&E8;" />
    <text id="11437269" style="&E9;" transform="matrix(1 0 0 1 0 0 ) " x="176" y="363">07</text>
    <ellipse id="11437271" cy="377" cx="232" rx="17" ry="17" style="&E8;" />
    <text id="11437272" style="&E9;" transform="matrix(1 0 0 1 0 0 ) " x="216" y="363">16</text>
    <ellipse id="11437274" cy="377" cx="272" rx="17" ry="17" style="&E8;" />
    <text id="11437275" style="&E9;" transform="matrix(1 0 0 1 0 0 ) " x="256" y="363">08</text>
    <ellipse id="11437277" cy="377" cx="312" rx="17" ry="17" style="&E8;" />
    <text id="11437278" style="&E9;" transform="matrix(1 0 0 1 0 0 ) " x="296" y="363">05</text>
    <ellipse id="11437280" cy="377" cx="352" rx="17" ry="17" style="&E8;" />
    <text id="11437281" style="&E9;" transform="matrix(1 0 0 1 0 0 ) " x="336" y="363">02</text>
    <ellipse id="11437283" cy="377" cx="392" rx="17" ry="17" style="&E8;" />
    <text id="11437284" style="&E9;" transform="matrix(1 0 0 1 0 0 ) " x="376" y="363">15</text>
    <ellipse id="11437286" cy="377" cx="432" rx="17" ry="17" style="&E8;" />
    <text id="11437287" style="&E9;" transform="matrix(1 0 0 1 0 0 ) " x="416" y="363">18</text>
    <ellipse id="11437289" cy="377" cx="472" rx="17" ry="17" style="&E6;" />
    <text id="11437290" style="&E9;" transform="matrix(1 0 0 1 0 0 ) " x="456" y="363">13</text>
    <rect id="11437292" height="36" style="&E10;" width="36" y="360" x="512" />
    <rect id="11437293" height="34" style="&E14;" width="34" y="361" x="513" />
    <text id="11437294" style="&E4;" transform="matrix(1 0 0 1 0 0 ) " x="520" y="365">1</text>
    <text id="11437296" style="&E9;" transform="matrix(1 0 0 1 0 0 ) " x="560" y="365">大</text>
    <text id="11437298" style="&E9;" transform="matrix(1 0 0 1 0 0 ) " x="600" y="365">单</text>
    <text id="11437300" style="&E7;" transform="matrix(1 0 0 1 0 0 ) " x="10" y="405">29</text>
    <text id="11437302" style="&E7;" transform="matrix(1 0 0 1 0 0 ) " x="50" y="405">17:18:40</text>
    <ellipse id="11437304" cy="417" cx="192" rx="17" ry="17" style="&E8;" />
    <text id="11437305" style="&E9;" transform="matrix(1 0 0 1 0 0 ) " x="176" y="403">15</text>
    <ellipse id="11437307" cy="417" cx="232" rx="17" ry="17" style="&E8;" />
    <text id="11437308" style="&E9;" transform="matrix(1 0 0 1 0 0 ) " x="216" y="403">04</text>
    <ellipse id="11437310" cy="417" cx="272" rx="17" ry="17" style="&E8;" />
    <text id="11437311" style="&E9;" transform="matrix(1 0 0 1 0 0 ) " x="256" y="403">03</text>
    <ellipse id="11437313" cy="417" cx="312" rx="17" ry="17" style="&E8;" />
    <text id="11437314" style="&E9;" transform="matrix(1 0 0 1 0 0 ) " x="296" y="403">09</text>
    <ellipse id="11437316" cy="417" cx="352" rx="17" ry="17" style="&E8;" />
    <text id="11437317" style="&E9;" transform="matrix(1 0 0 1 0 0 ) " x="336" y="403">17</text>
    <ellipse id="11437319" cy="417" cx="392" rx="17" ry="17" style="&E8;" />
    <text id="11437320" style="&E9;" transform="matrix(1 0 0 1 0 0 ) " x="376" y="403">11</text>
    <ellipse id="11437322" cy="417" cx="432" rx="17" ry="17" style="&E8;" />
    <text id="11437323" style="&E9;" transform="matrix(1 0 0 1 0 0 ) " x="416" y="403">02</text>
    <ellipse id="11437325" cy="417" cx="472" rx="17" ry="17" style="&E6;" />
    <text id="11437326" style="&E9;" transform="matrix(1 0 0 1 0 0 ) " x="456" y="403">12</text>
    <rect id="11437328" height="36" style="&E10;" width="36" y="400" x="512" />
    <rect id="11437329" height="34" style="&E13;" width="34" y="401" x="513" />
    <text id="11437330" style="&E4;" transform="matrix(1 0 0 1 0 0 ) " x="520" y="405">4</text>
    <text id="11437332" style="&E9;" transform="matrix(1 0 0 1 0 0 ) " x="560" y="405">大</text>
    <text id="11437334" style="&E9;" transform="matrix(1 0 0 1 0 0 ) " x="600" y="405">双</text>
    <text id="11437336" style="&E7;" transform="matrix(1 0 0 1 0 0 ) " x="10" y="445">28</text>
    <text id="11437338" style="&E7;" transform="matrix(1 0 0 1 0 0 ) " x="50" y="445">17:13:40</text>
    <ellipse id="11437340" cy="457" cx="192" rx="17" ry="17" style="&E8;" />
    <text id="11437341" style="&E9;" transform="matrix(1 0 0 1 0 0 ) " x="176" y="443">19</text>
    <ellipse id="11437343" cy="457" cx="232" rx="17" ry="17" style="&E8;" />
    <text id="11437344" style="&E9;" transform="matrix(1 0 0 1 0 0 ) " x="216" y="443">05</text>
    <ellipse id="11437346" cy="457" cx="272" rx="17" ry="17" style="&E8;" />
    <text id="11437347" style="&E9;" transform="matrix(1 0 0 1 0 0 ) " x="256" y="443">06</text>
    <ellipse id="11437349" cy="457" cx="312" rx="17" ry="17" style="&E8;" />
    <text id="11437350" style="&E9;" transform="matrix(1 0 0 1 0 0 ) " x="296" y="443">12</text>
    <ellipse id="11437352" cy="457" cx="352" rx="17" ry="17" style="&E8;" />
    <text id="11437353" style="&E9;" transform="matrix(1 0 0 1 0 0 ) " x="336" y="443">10</text>
    <ellipse id="11437355" cy="457" cx="392" rx="17" ry="17" style="&E8;" />
    <text id="11437356" style="&E9;" transform="matrix(1 0 0 1 0 0 ) " x="376" y="443">20</text>
    <ellipse id="11437358" cy="457" cx="432" rx="17" ry="17" style="&E8;" />
    <text id="11437359" style="&E9;" transform="matrix(1 0 0 1 0 0 ) " x="416" y="443">16</text>
    <ellipse id="11437361" cy="457" cx="472" rx="17" ry="17" style="&E6;" />
    <text id="11437362" style="&E9;" transform="matrix(1 0 0 1 0 0 ) " x="456" y="443">17</text>
    <rect id="11437364" height="36" style="&E10;" width="36" y="440" x="512" />
    <rect id="11437365" height="34" style="&E14;" width="34" y="441" x="513" />
    <text id="11437366" style="&E4;" transform="matrix(1 0 0 1 0 0 ) " x="520" y="445">1</text>
    <text id="11437368" style="&E9;" transform="matrix(1 0 0 1 0 0 ) " x="560" y="445">大</text>
    <text id="11437370" style="&E9;" transform="matrix(1 0 0 1 0 0 ) " x="600" y="445">单</text>
    <text id="11437372" style="&E7;" transform="matrix(1 0 0 1 0 0 ) " x="10" y="485">27</text>
    <text id="11437374" style="&E7;" transform="matrix(1 0 0 1 0 0 ) " x="50" y="485">17:08:40</text>
    <ellipse id="11437376" cy="497" cx="192" rx="17" ry="17" style="&E8;" />
    <text id="11437377" style="&E9;" transform="matrix(1 0 0 1 0 0 ) " x="176" y="483">12</text>
    <ellipse id="11437379" cy="497" cx="232" rx="17" ry="17" style="&E8;" />
    <text id="11437380" style="&E9;" transform="matrix(1 0 0 1 0 0 ) " x="216" y="483">08</text>
    <ellipse id="11437382" cy="497" cx="272" rx="17" ry="17" style="&E8;" />
    <text id="11437383" style="&E9;" transform="matrix(1 0 0 1 0 0 ) " x="256" y="483">09</text>
    <ellipse id="11437385" cy="497" cx="312" rx="17" ry="17" style="&E8;" />
    <text id="11437386" style="&E9;" transform="matrix(1 0 0 1 0 0 ) " x="296" y="483">17</text>
    <ellipse id="11437388" cy="497" cx="352" rx="17" ry="17" style="&E8;" />
    <text id="11437389" style="&E9;" transform="matrix(1 0 0 1 0 0 ) " x="336" y="483">07</text>
    <ellipse id="11437391" cy="497" cx="392" rx="17" ry="17" style="&E8;" />
    <text id="11437392" style="&E9;" transform="matrix(1 0 0 1 0 0 ) " x="376" y="483">05</text>
    <ellipse id="11437394" cy="497" cx="432" rx="17" ry="17" style="&E8;" />
    <text id="11437395" style="&E9;" transform="matrix(1 0 0 1 0 0 ) " x="416" y="483">18</text>
    <ellipse id="11437397" cy="497" cx="472" rx="17" ry="17" style="&E6;" />
    <text id="11437398" style="&E9;" transform="matrix(1 0 0 1 0 0 ) " x="456" y="483">15</text>
    <rect id="11437400" height="36" style="&E10;" width="36" y="480" x="512" />
    <rect id="11437401" height="34" style="&E12;" width="34" y="481" x="513" />
    <text id="11437402" style="&E4;" transform="matrix(1 0 0 1 0 0 ) " x="520" y="485">3</text>
    <text id="11437404" style="&E9;" transform="matrix(1 0 0 1 0 0 ) " x="560" y="485">大</text>
    <text id="11437406" style="&E9;" transform="matrix(1 0 0 1 0 0 ) " x="600" y="485">单</text>
    <text id="11437408" style="&E7;" transform="matrix(1 0 0 1 0 0 ) " x="10" y="525">26</text>
    <text id="11437410" style="&E7;" transform="matrix(1 0 0 1 0 0 ) " x="50" y="525">17:03:40</text>
    <ellipse id="11437412" cy="537" cx="192" rx="17" ry="17" style="&E8;" />
    <text id="11437413" style="&E9;" transform="matrix(1 0 0 1 0 0 ) " x="176" y="523">16</text>
    <ellipse id="11437415" cy="537" cx="232" rx="17" ry="17" style="&E8;" />
    <text id="11437416" style="&E9;" transform="matrix(1 0 0 1 0 0 ) " x="216" y="523">19</text>
    <ellipse id="11437418" cy="537" cx="272" rx="17" ry="17" style="&E8;" />
    <text id="11437419" style="&E9;" transform="matrix(1 0 0 1 0 0 ) " x="256" y="523">04</text>
    <ellipse id="11437421" cy="537" cx="312" rx="17" ry="17" style="&E8;" />
    <text id="11437422" style="&E9;" transform="matrix(1 0 0 1 0 0 ) " x="296" y="523">20</text>
    <ellipse id="11437424" cy="537" cx="352" rx="17" ry="17" style="&E8;" />
    <text id="11437425" style="&E9;" transform="matrix(1 0 0 1 0 0 ) " x="336" y="523">10</text>
    <ellipse id="11437427" cy="537" cx="392" rx="17" ry="17" style="&E8;" />
    <text id="11437428" style="&E9;" transform="matrix(1 0 0 1 0 0 ) " x="376" y="523">02</text>
    <ellipse id="11437430" cy="537" cx="432" rx="17" ry="17" style="&E8;" />
    <text id="11437431" style="&E9;" transform="matrix(1 0 0 1 0 0 ) " x="416" y="523">01</text>
    <ellipse id="11437433" cy="537" cx="472" rx="17" ry="17" style="&E6;" />
    <text id="11437434" style="&E9;" transform="matrix(1 0 0 1 0 0 ) " x="456" y="523">06</text>
    <rect id="11437436" height="36" style="&E10;" width="36" y="520" x="512" />
    <rect id="11437437" height="34" style="&E11;" width="34" y="521" x="513" />
    <text id="11437438" style="&E4;" transform="matrix(1 0 0 1 0 0 ) " x="520" y="525">2</text>
    <text id="11437440" style="&E9;" transform="matrix(1 0 0 1 0 0 ) " x="560" y="525">小</text>
    <text id="11437442" style="&E9;" transform="matrix(1 0 0 1 0 0 ) " x="600" y="525">双</text>
    <text id="11437444" style="&E7;" transform="matrix(1 0 0 1 0 0 ) " x="10" y="565">25</text>
    <text id="11437446" style="&E7;" transform="matrix(1 0 0 1 0 0 ) " x="50" y="565">16:58:40</text>
    <ellipse id="11437448" cy="577" cx="192" rx="17" ry="17" style="&E8;" />
    <text id="11437449" style="&E9;" transform="matrix(1 0 0 1 0 0 ) " x="176" y="563">15</text>
    <ellipse id="11437451" cy="577" cx="232" rx="17" ry="17" style="&E8;" />
    <text id="11437452" style="&E9;" transform="matrix(1 0 0 1 0 0 ) " x="216" y="563">11</text>
    <ellipse id="11437454" cy="577" cx="272" rx="17" ry="17" style="&E8;" />
    <text id="11437455" style="&E9;" transform="matrix(1 0 0 1 0 0 ) " x="256" y="563">06</text>
    <ellipse id="11437457" cy="577" cx="312" rx="17" ry="17" style="&E8;" />
    <text id="11437458" style="&E9;" transform="matrix(1 0 0 1 0 0 ) " x="296" y="563">03</text>
    <ellipse id="11437460" cy="577" cx="352" rx="17" ry="17" style="&E8;" />
    <text id="11437461" style="&E9;" transform="matrix(1 0 0 1 0 0 ) " x="336" y="563">13</text>
    <ellipse id="11437463" cy="577" cx="392" rx="17" ry="17" style="&E8;" />
    <text id="11437464" style="&E9;" transform="matrix(1 0 0 1 0 0 ) " x="376" y="563">19</text>
    <ellipse id="11437466" cy="577" cx="432" rx="17" ry="17" style="&E8;" />
    <text id="11437467" style="&E9;" transform="matrix(1 0 0 1 0 0 ) " x="416" y="563">08</text>
    <ellipse id="11437469" cy="577" cx="472" rx="17" ry="17" style="&E6;" />
    <text id="11437470" style="&E9;" transform="matrix(1 0 0 1 0 0 ) " x="456" y="563">12</text>
    <rect id="11437472" height="36" style="&E10;" width="36" y="560" x="512" />
    <rect id="11437473" height="34" style="&E13;" width="34" y="561" x="513" />
    <text id="11437474" style="&E4;" transform="matrix(1 0 0 1 0 0 ) " x="520" y="565">4</text>
    <text id="11437476" style="&E9;" transform="matrix(1 0 0 1 0 0 ) " x="560" y="565">大</text>
    <text id="11437478" style="&E9;" transform="matrix(1 0 0 1 0 0 ) " x="600" y="565">双</text>
    <text id="11437480" style="&E7;" transform="matrix(1 0 0 1 0 0 ) " x="10" y="605">24</text>
    <text id="11437482" style="&E7;" transform="matrix(1 0 0 1 0 0 ) " x="50" y="605">16:53:40</text>
    <ellipse id="11437484" cy="617" cx="192" rx="17" ry="17" style="&E8;" />
    <text id="11437485" style="&E9;" transform="matrix(1 0 0 1 0 0 ) " x="176" y="603">01</text>
    <ellipse id="11437487" cy="617" cx="232" rx="17" ry="17" style="&E8;" />
    <text id="11437488" style="&E9;" transform="matrix(1 0 0 1 0 0 ) " x="216" y="603">08</text>
    <ellipse id="11437490" cy="617" cx="272" rx="17" ry="17" style="&E8;" />
    <text id="11437491" style="&E9;" transform="matrix(1 0 0 1 0 0 ) " x="256" y="603">14</text>
    <ellipse id="11437493" cy="617" cx="312" rx="17" ry="17" style="&E8;" />
    <text id="11437494" style="&E9;" transform="matrix(1 0 0 1 0 0 ) " x="296" y="603">10</text>
    <ellipse id="11437496" cy="617" cx="352" rx="17" ry="17" style="&E8;" />
    <text id="11437497" style="&E9;" transform="matrix(1 0 0 1 0 0 ) " x="336" y="603">20</text>
    <ellipse id="11437499" cy="617" cx="392" rx="17" ry="17" style="&E8;" />
    <text id="11437500" style="&E9;" transform="matrix(1 0 0 1 0 0 ) " x="376" y="603">18</text>
    <ellipse id="11437502" cy="617" cx="432" rx="17" ry="17" style="&E8;" />
    <text id="11437503" style="&E9;" transform="matrix(1 0 0 1 0 0 ) " x="416" y="603">12</text>
    <ellipse id="11437505" cy="617" cx="472" rx="17" ry="17" style="&E6;" />
    <text id="11437506" style="&E9;" transform="matrix(1 0 0 1 0 0 ) " x="456" y="603">07</text>
    <rect id="11437508" height="36" style="&E10;" width="36" y="600" x="512" />
    <rect id="11437509" height="34" style="&E12;" width="34" y="601" x="513" />
    <text id="11437510" style="&E4;" transform="matrix(1 0 0 1 0 0 ) " x="520" y="605">3</text>
    <text id="11437512" style="&E9;" transform="matrix(1 0 0 1 0 0 ) " x="560" y="605">小</text>
    <text id="11437514" style="&E9;" transform="matrix(1 0 0 1 0 0 ) " x="600" y="605">单</text>
    <rect id="11437516" height="46" style="&E15;" width="627" y="656" x="10" />
    <text id="11437517" style="&E16;" transform="matrix(1 0 0 1 0 0 ) " x="229" y="666">路</text>
    <text id="11437519" style="&E16;" transform="matrix(1 0 0 1 0 0 ) " x="280" y="666">字</text>
    <text id="11437521" style="&E16;" transform="matrix(1 0 0 1 0 0 ) " x="332" y="666">图</text>
    <line y1="656" style="&E17;" id="11437523" x2="637" y2="656" x1="10" />
    <line y1="702" style="&E17;" id="11437524" x2="637" y2="702" x1="10" />
    <line y1="753" style="&E17;" id="11437525" x2="637" y2="753" x1="10" />
    <line y1="802" style="&E17;" id="11437526" x2="637" y2="802" x1="10" />
    <line y1="851" style="&E17;" id="11437527" x2="637" y2="851" x1="10" />
    <line y1="900" style="&E17;" id="11437528" x2="637" y2="900" x1="10" />
    <line y1="945" style="&E17;" id="11437529" x2="637" y2="945" x1="10" />
    <line y1="656" style="&E17;" id="11437530" x2="10" y2="945" x1="10" />
    <line y1="656" style="&E17;" id="11437531" x2="60" y2="945" x1="60" />
    <line y1="656" style="&E17;" id="11437532" x2="115" y2="945" x1="115" />
    <line y1="656" style="&E17;" id="11437533" x2="166" y2="945" x1="166" />
    <line y1="656" style="&E17;" id="11437534" x2="219" y2="945" x1="219" />
    <line y1="656" style="&E17;" id="11437535" x2="270" y2="945" x1="270" />
    <line y1="656" style="&E17;" id="11437536" x2="323" y2="945" x1="323" />
    <line y1="656" style="&E17;" id="11437537" x2="375" y2="945" x1="375" />
    <line y1="656" style="&E17;" id="11437538" x2="427" y2="945" x1="427" />
    <line y1="656" style="&E17;" id="11437539" x2="480" y2="945" x1="480" />
    <line y1="656" style="&E17;" id="11437540" x2="531" y2="945" x1="531" />
    <line y1="656" style="&E17;" id="11437541" x2="584" y2="945" x1="584" />
    <line y1="656" style="&E17;" id="11437542" x2="636" y2="945" x1="636" />
    <rect id="11437543" height="38" style="&E10;" width="38" y="708" x="16" />
    <rect id="11437544" height="37" style="&E13;" width="37" y="708" x="16" />
    <text id="11437545" style="&E18;" transform="matrix(1 0 0 1 0 0 ) " x="20" y="710">4</text>
    <rect id="11437547" height="38" style="&E10;" width="38" y="708" x="68" />
    <rect id="11437548" height="37" style="&E14;" width="37" y="708" x="68" />
    <text id="11437549" style="&E18;" transform="matrix(1 0 0 1 0 0 ) " x="72" y="710">1</text>
    <rect id="11437551" height="38" style="&E10;" width="38" y="708" x="121" />
    <rect id="11437552" height="37" style="&E14;" width="37" y="708" x="121" />
    <text id="11437553" style="&E18;" transform="matrix(1 0 0 1 0 0 ) " x="125" y="710">1</text>
    <rect id="11437555" height="38" style="&E10;" width="38" y="708" x="174" />
    <rect id="11437556" height="37" style="&E12;" width="37" y="708" x="174" />
    <text id="11437557" style="&E18;" transform="matrix(1 0 0 1 0 0 ) " x="178" y="710">3</text>
    <rect id="11437559" height="38" style="&E10;" width="38" y="708" x="225" />
    <rect id="11437560" height="37" style="&E12;" width="37" y="708" x="225" />
    <text id="11437561" style="&E18;" transform="matrix(1 0 0 1 0 0 ) " x="229" y="710">3</text>
    <rect id="11437563" height="38" style="&E10;" width="38" y="708" x="278" />
    <rect id="11437564" height="37" style="&E13;" width="37" y="708" x="278" />
    <text id="11437565" style="&E18;" transform="matrix(1 0 0 1 0 0 ) " x="282" y="710">4</text>
    <rect id="11437567" height="38" style="&E10;" width="38" y="708" x="330" />
    <rect id="11437568" height="37" style="&E14;" width="37" y="708" x="330" />
    <text id="11437569" style="&E18;" transform="matrix(1 0 0 1 0 0 ) " x="334" y="710">1</text>
    <rect id="11437571" height="38" style="&E10;" width="38" y="708" x="383" />
    <rect id="11437572" height="37" style="&E11;" width="37" y="708" x="383" />
    <text id="11437573" style="&E18;" transform="matrix(1 0 0 1 0 0 ) " x="387" y="710">2</text>
    <rect id="11437575" height="38" style="&E10;" width="38" y="708" x="434" />
    <rect id="11437576" height="37" style="&E13;" width="37" y="708" x="434" />
    <text id="11437577" style="&E18;" transform="matrix(1 0 0 1 0 0 ) " x="438" y="710">4</text>
    <rect id="11437579" height="38" style="&E10;" width="38" y="708" x="486" />
    <rect id="11437580" height="37" style="&E11;" width="37" y="708" x="486" />
    <text id="11437581" style="&E18;" transform="matrix(1 0 0 1 0 0 ) " x="490" y="710">2</text>
    <rect id="11437583" height="38" style="&E10;" width="38" y="708" x="538" />
    <rect id="11437584" height="37" style="&E11;" width="37" y="708" x="538" />
    <text id="11437585" style="&E18;" transform="matrix(1 0 0 1 0 0 ) " x="542" y="710">2</text>
    <rect id="11437587" height="38" style="&E10;" width="38" y="708" x="592" />
    <rect id="11437588" height="37" style="&E14;" width="37" y="708" x="592" />
    <text id="11437589" style="&E18;" transform="matrix(1 0 0 1 0 0 ) " x="596" y="710">1</text>
    <rect id="11437591" height="38" style="&E10;" width="38" y="758" x="16" />
    <rect id="11437592" height="37" style="&E11;" width="37" y="758" x="16" />
    <text id="11437593" style="&E18;" transform="matrix(1 0 0 1 0 0 ) " x="20" y="760">2</text>
    <rect id="11437595" height="38" style="&E10;" width="38" y="758" x="68" />
    <rect id="11437596" height="37" style="&E14;" width="37" y="758" x="68" />
    <text id="11437597" style="&E18;" transform="matrix(1 0 0 1 0 0 ) " x="72" y="760">1</text>
    <rect id="11437599" height="38" style="&E10;" width="38" y="758" x="121" />
    <rect id="11437600" height="37" style="&E13;" width="37" y="758" x="121" />
    <text id="11437601" style="&E18;" transform="matrix(1 0 0 1 0 0 ) " x="125" y="760">4</text>
    <rect id="11437603" height="38" style="&E10;" width="38" y="758" x="174" />
    <rect id="11437604" height="37" style="&E11;" width="37" y="758" x="174" />
    <text id="11437605" style="&E18;" transform="matrix(1 0 0 1 0 0 ) " x="178" y="760">2</text>
    <rect id="11437607" height="38" style="&E10;" width="38" y="758" x="225" />
    <rect id="11437608" height="37" style="&E12;" width="37" y="758" x="225" />
    <text id="11437609" style="&E18;" transform="matrix(1 0 0 1 0 0 ) " x="229" y="760">3</text>
    <rect id="11437611" height="38" style="&E10;" width="38" y="758" x="278" />
    <rect id="11437612" height="37" style="&E13;" width="37" y="758" x="278" />
    <text id="11437613" style="&E18;" transform="matrix(1 0 0 1 0 0 ) " x="282" y="760">4</text>
    <rect id="11437615" height="38" style="&E10;" width="38" y="758" x="330" />
    <rect id="11437616" height="37" style="&E11;" width="37" y="758" x="330" />
    <text id="11437617" style="&E18;" transform="matrix(1 0 0 1 0 0 ) " x="334" y="760">2</text>
    <rect id="11437619" height="38" style="&E10;" width="38" y="758" x="383" />
    <rect id="11437620" height="37" style="&E12;" width="37" y="758" x="383" />
    <text id="11437621" style="&E18;" transform="matrix(1 0 0 1 0 0 ) " x="387" y="760">3</text>
    <rect id="11437623" height="38" style="&E10;" width="38" y="758" x="434" />
    <rect id="11437624" height="37" style="&E14;" width="37" y="758" x="434" />
    <text id="11437625" style="&E18;" transform="matrix(1 0 0 1 0 0 ) " x="438" y="760">1</text>
    <rect id="11437627" height="38" style="&E10;" width="38" y="758" x="486" />
    <rect id="11437628" height="37" style="&E12;" width="37" y="758" x="486" />
    <text id="11437629" style="&E18;" transform="matrix(1 0 0 1 0 0 ) " x="490" y="760">3</text>
    <rect id="11437631" height="38" style="&E10;" width="38" y="758" x="538" />
    <rect id="11437632" height="37" style="&E13;" width="37" y="758" x="538" />
    <text id="11437633" style="&E18;" transform="matrix(1 0 0 1 0 0 ) " x="542" y="760">4</text>
    <rect id="11437635" height="38" style="&E10;" width="38" y="758" x="592" />
    <rect id="11437636" height="37" style="&E14;" width="37" y="758" x="592" />
    <text id="11437637" style="&E18;" transform="matrix(1 0 0 1 0 0 ) " x="596" y="760">1</text>
    <rect id="11437639" height="38" style="&E10;" width="38" y="806" x="16" />
    <rect id="11437640" height="37" style="&E12;" width="37" y="806" x="16" />
    <text id="11437641" style="&E18;" transform="matrix(1 0 0 1 0 0 ) " x="20" y="808">3</text>
    <rect id="11437643" height="38" style="&E10;" width="38" y="806" x="68" />
    <rect id="11437644" height="37" style="&E13;" width="37" y="806" x="68" />
    <text id="11437645" style="&E18;" transform="matrix(1 0 0 1 0 0 ) " x="72" y="808">4</text>
    <rect id="11437647" height="38" style="&E10;" width="38" y="806" x="121" />
    <rect id="11437648" height="37" style="&E14;" width="37" y="806" x="121" />
    <text id="11437649" style="&E18;" transform="matrix(1 0 0 1 0 0 ) " x="125" y="808">1</text>
    <rect id="11437651" height="38" style="&E10;" width="38" y="806" x="174" />
    <rect id="11437652" height="37" style="&E13;" width="37" y="806" x="174" />
    <text id="11437653" style="&E18;" transform="matrix(1 0 0 1 0 0 ) " x="178" y="808">4</text>
    <rect id="11437655" height="38" style="&E10;" width="38" y="806" x="225" />
    <rect id="11437656" height="37" style="&E12;" width="37" y="806" x="225" />
    <text id="11437657" style="&E18;" transform="matrix(1 0 0 1 0 0 ) " x="229" y="808">3</text>
    <rect id="11437659" height="38" style="&E10;" width="38" y="806" x="278" />
    <rect id="11437660" height="37" style="&E11;" width="37" y="806" x="278" />
    <text id="11437661" style="&E18;" transform="matrix(1 0 0 1 0 0 ) " x="282" y="808">2</text>
    <rect id="11437663" height="38" style="&E10;" width="38" y="806" x="330" />
    <rect id="11437664" height="37" style="&E14;" width="37" y="806" x="330" />
    <text id="11437665" style="&E18;" transform="matrix(1 0 0 1 0 0 ) " x="334" y="808">1</text>
    <rect id="11437667" height="38" style="&E10;" width="38" y="806" x="383" />
    <rect id="11437668" height="37" style="&E13;" width="37" y="806" x="383" />
    <text id="11437669" style="&E18;" transform="matrix(1 0 0 1 0 0 ) " x="387" y="808">4</text>
    <rect id="11437671" height="38" style="&E10;" width="38" y="806" x="434" />
    <rect id="11437672" height="37" style="&E12;" width="37" y="806" x="434" />
    <text id="11437673" style="&E18;" transform="matrix(1 0 0 1 0 0 ) " x="438" y="808">3</text>
    <rect id="11437675" height="38" style="&E10;" width="38" y="806" x="486" />
    <rect id="11437676" height="37" style="&E13;" width="37" y="806" x="486" />
    <text id="11437677" style="&E18;" transform="matrix(1 0 0 1 0 0 ) " x="490" y="808">4</text>
    <rect id="11437679" height="38" style="&E10;" width="38" y="806" x="538" />
    <rect id="11437680" height="37" style="&E13;" width="37" y="806" x="538" />
    <text id="11437681" style="&E18;" transform="matrix(1 0 0 1 0 0 ) " x="542" y="808">4</text>
    <rect id="11437683" height="38" style="&E10;" width="38" y="806" x="592" />
    <rect id="11437684" height="37" style="&E12;" width="37" y="806" x="592" />
    <text id="11437685" style="&E18;" transform="matrix(1 0 0 1 0 0 ) " x="596" y="808">3</text>
    <rect id="11437687" height="38" style="&E10;" width="38" y="855" x="16" />
    <rect id="11437688" height="37" style="&E13;" width="37" y="855" x="16" />
    <text id="11437689" style="&E18;" transform="matrix(1 0 0 1 0 0 ) " x="20" y="857">4</text>
    <rect id="11437691" height="38" style="&E10;" width="38" y="855" x="68" />
    <rect id="11437692" height="37" style="&E11;" width="37" y="855" x="68" />
    <text id="11437693" style="&E18;" transform="matrix(1 0 0 1 0 0 ) " x="72" y="857">2</text>
    <rect id="11437695" height="38" style="&E10;" width="38" y="855" x="121" />
    <rect id="11437696" height="37" style="&E12;" width="37" y="855" x="121" />
    <text id="11437697" style="&E18;" transform="matrix(1 0 0 1 0 0 ) " x="125" y="857">3</text>
    <rect id="11437699" height="38" style="&E10;" width="38" y="855" x="174" />
    <rect id="11437700" height="37" style="&E14;" width="37" y="855" x="174" />
    <text id="11437701" style="&E18;" transform="matrix(1 0 0 1 0 0 ) " x="178" y="857">1</text>
    <rect id="11437703" height="38" style="&E10;" width="38" y="855" x="225" />
    <rect id="11437704" height="37" style="&E13;" width="37" y="855" x="225" />
    <text id="11437705" style="&E18;" transform="matrix(1 0 0 1 0 0 ) " x="229" y="857">4</text>
    <rect id="11437707" height="38" style="&E10;" width="38" y="855" x="278" />
    <rect id="11437708" height="37" style="&E14;" width="37" y="855" x="278" />
    <text id="11437709" style="&E18;" transform="matrix(1 0 0 1 0 0 ) " x="282" y="857">1</text>
    <rect id="11437711" height="38" style="&E10;" width="38" y="855" x="330" />
    <rect id="11437712" height="37" style="&E11;" width="37" y="855" x="330" />
    <text id="11437713" style="&E18;" transform="matrix(1 0 0 1 0 0 ) " x="334" y="857">2</text>
    <rect id="11437715" height="38" style="&E10;" width="38" y="855" x="383" />
    <rect id="11437716" height="37" style="&E14;" width="37" y="855" x="383" />
    <text id="11437717" style="&E18;" transform="matrix(1 0 0 1 0 0 ) " x="387" y="857">1</text>
    <rect id="11437719" height="38" style="&E10;" width="38" y="855" x="434" />
    <rect id="11437720" height="37" style="&E12;" width="37" y="855" x="434" />
    <text id="11437721" style="&E18;" transform="matrix(1 0 0 1 0 0 ) " x="438" y="857">3</text>
    <rect id="11437723" height="38" style="&E10;" width="38" y="855" x="486" />
    <rect id="11437724" height="37" style="&E12;" width="37" y="855" x="486" />
    <text id="11437725" style="&E18;" transform="matrix(1 0 0 1 0 0 ) " x="490" y="857">3</text>
    <rect id="11437727" height="38" style="&E10;" width="38" y="855" x="538" />
    <rect id="11437728" height="37" style="&E13;" width="37" y="855" x="538" />
    <text id="11437729" style="&E18;" transform="matrix(1 0 0 1 0 0 ) " x="542" y="857">4</text>
    <rect id="11437731" height="38" style="&E10;" width="38" y="855" x="592" />
    <rect id="11437732" height="37" style="&E12;" width="37" y="855" x="592" />
    <text id="11437733" style="&E18;" transform="matrix(1 0 0 1 0 0 ) " x="596" y="857">3</text>
    <rect id="11437735" height="38" style="&E10;" width="38" y="903" x="16" />
    <rect id="11437736" height="37" style="&E11;" width="37" y="903" x="16" />
    <text id="11437737" style="&E18;" transform="matrix(1 0 0 1 0 0 ) " x="20" y="905">2</text>
    <rect id="11437739" height="38" style="&E10;" width="38" y="903" x="68" />
    <rect id="11437740" height="37" style="&E11;" width="37" y="903" x="68" />
    <text id="11437741" style="&E18;" transform="matrix(1 0 0 1 0 0 ) " x="72" y="905">2</text>
  </g>
  <defs id="clips_hatches_and_gradients" />
</svg>