<?xml version="1.0" encoding="utf-8" standalone="yes"?>
<!DOCTYPE svg PUBLIC "-//W3C//DTD SVG 1.1//EN" "http://www.w3.org/Graphics/SVG/1.1/DTD/svg11.dtd"[
	<!ENTITY E11 'stroke:none;opacity:1;fill:rgb(62,198,124);'>
	<!ENTITY E2 'stroke:none;opacity:1;fill:rgb(255,255,255);'>
	<!ENTITY E10 'stroke:rgb(0,0,0);fill:none;stroke-linecap:round;stroke-miterlimit:9;opacity:1;stroke-width:2;stroke-linejoin:round;'>
	<!ENTITY E3 'stroke:none;opacity:1;fill:rgb(60,182,230);'>
	<!ENTITY E18 'stroke:none;font-size:26pt;fill:rgb(255,255,255);font-weight:bolder;baseline-shift:-86&#37;;font-family:微软雅黑;opacity:1;'>
	<!ENTITY E4 'stroke:none;font-size:18pt;fill:rgb(255,255,255);font-weight:bolder;baseline-shift:-86&#37;;font-family:微软雅黑;opacity:1;'>
	<!ENTITY E5 'stroke:none;opacity:1;fill:rgb(250,250,250);'>
	<!ENTITY E14 'stroke:none;opacity:1;fill:rgb(93,150,255);'>
	<!ENTITY E16 'stroke:none;font-size:22pt;fill:rgb(0,0,0);font-weight:bolder;baseline-shift:-86&#37;;font-family:微软雅黑;opacity:1;'>
	<!ENTITY E8 'stroke:rgb(60,182,230);fill:none;stroke-linecap:round;stroke-miterlimit:9;opacity:1;stroke-width:2;stroke-linejoin:round;'>
	<!ENTITY E6 'stroke:rgb(255,0,0);fill:none;stroke-linecap:round;stroke-miterlimit:9;opacity:1;stroke-width:2;stroke-linejoin:round;'>
	<!ENTITY E12 'stroke:none;opacity:1;fill:rgb(255,62,65);'>
	<!ENTITY E9 'stroke:none;font-size:18pt;fill:rgb(102,102,102);font-weight:bolder;baseline-shift:-86&#37;;font-family:微软雅黑;opacity:1;'>
	<!ENTITY E1 'text-rendering:auto;shape-rendering:geometricPrecision;'>
	<!ENTITY E17 'stroke:rgb(128,128,128);fill:none;stroke-linecap:butt;stroke-miterlimit:9;opacity:1;stroke-width:2;stroke-linejoin:miter;'>
	<!ENTITY E15 'stroke:none;opacity:1;fill:rgb(211,211,211);'>
	<!ENTITY E13 'stroke:none;opacity:1;fill:rgb(247,212,0);'>
	<!ENTITY E7 'stroke:none;font-family:微软雅黑;fill:rgb(102,102,102);font-size:16pt;baseline-shift:-86&#37;;opacity:1;'>
]>
<svg height="952" width="655" id="SvgGdi_output" xmlns="http://www.w3.org/2000/svg">
  <rect id="background" height="100%" style="fill:rgb(255,255,255);" width="100%" y="0" x="0" />
  <g style="&E1;" id="root_group">
    <rect id="11442679" height="635" style="&E2;" width="655" y="0" x="0" />
    <rect id="11442680" height="37" style="&E3;" width="655" y="0" x="0" />
    <text id="11442681" style="&E4;" transform="matrix(1 0 0 1 0 0 ) " x="15" y="3">期数</text>
    <text id="11442683" style="&E4;" transform="matrix(1 0 0 1 0 0 ) " x="89" y="3">时间</text>
    <text id="11442685" style="&E4;" transform="matrix(1 0 0 1 0 0 ) " x="373" y="3">结果</text>
    <text id="11442687" style="&E4;" transform="matrix(1 0 0 1 0 0 ) " x="520" y="3">番</text>
    <rect id="11442689" height="37" style="&E5;" width="655" y="38" x="0" />
    <rect id="11442690" height="37" style="&E5;" width="655" y="118" x="0" />
    <rect id="11442691" height="37" style="&E5;" width="655" y="198" x="0" />
    <rect id="11442692" height="37" style="&E5;" width="655" y="278" x="0" />
    <rect id="11442693" height="37" style="&E5;" width="655" y="358" x="0" />
    <rect id="11442694" height="37" style="&E5;" width="655" y="438" x="0" />
    <rect id="11442695" height="37" style="&E5;" width="655" y="518" x="0" />
    <rect id="11442696" height="37" style="&E5;" width="655" y="598" x="0" />
    <rect id="11442697" height="37" style="&E5;" width="655" y="678" x="0" />
    <rect id="11442698" height="37" style="&E5;" width="655" y="758" x="0" />
    <rect id="11442699" height="37" style="&E6;" width="655" y="38" x="0" />
    <text id="11442700" style="&E7;" transform="matrix(1 0 0 1 0 0 ) " x="10" y="45">42</text>
    <text id="11442702" style="&E7;" transform="matrix(1 0 0 1 0 0 ) " x="50" y="45">18:23:40</text>
    <ellipse id="11442704" cy="57" cx="192" rx="17" ry="17" style="&E8;" />
    <text id="11442705" style="&E9;" transform="matrix(1 0 0 1 0 0 ) " x="176" y="43">17</text>
    <ellipse id="11442707" cy="57" cx="232" rx="17" ry="17" style="&E8;" />
    <text id="11442708" style="&E9;" transform="matrix(1 0 0 1 0 0 ) " x="216" y="43">11</text>
    <ellipse id="11442710" cy="57" cx="272" rx="17" ry="17" style="&E8;" />
    <text id="11442711" style="&E9;" transform="matrix(1 0 0 1 0 0 ) " x="256" y="43">15</text>
    <ellipse id="11442713" cy="57" cx="312" rx="17" ry="17" style="&E8;" />
    <text id="11442714" style="&E9;" transform="matrix(1 0 0 1 0 0 ) " x="296" y="43">12</text>
    <ellipse id="11442716" cy="57" cx="352" rx="17" ry="17" style="&E8;" />
    <text id="11442717" style="&E9;" transform="matrix(1 0 0 1 0 0 ) " x="336" y="43">05</text>
    <ellipse id="11442719" cy="57" cx="392" rx="17" ry="17" style="&E8;" />
    <text id="11442720" style="&E9;" transform="matrix(1 0 0 1 0 0 ) " x="376" y="43">19</text>
    <ellipse id="11442722" cy="57" cx="432" rx="17" ry="17" style="&E8;" />
    <text id="11442723" style="&E9;" transform="matrix(1 0 0 1 0 0 ) " x="416" y="43">13</text>
    <ellipse id="11442725" cy="57" cx="472" rx="17" ry="17" style="&E6;" />
    <text id="11442726" style="&E9;" transform="matrix(1 0 0 1 0 0 ) " x="456" y="43">02</text>
    <rect id="11442728" height="36" style="&E10;" width="36" y="40" x="512" />
    <rect id="11442729" height="34" style="&E11;" width="34" y="41" x="513" />
    <text id="11442730" style="&E4;" transform="matrix(1 0 0 1 0 0 ) " x="520" y="45">2</text>
    <text id="11442732" style="&E9;" transform="matrix(1 0 0 1 0 0 ) " x="560" y="45">小</text>
    <text id="11442734" style="&E9;" transform="matrix(1 0 0 1 0 0 ) " x="600" y="45">双</text>
    <text id="11442736" style="&E7;" transform="matrix(1 0 0 1 0 0 ) " x="10" y="85">41</text>
    <text id="11442738" style="&E7;" transform="matrix(1 0 0 1 0 0 ) " x="50" y="85">18:18:40</text>
    <ellipse id="11442740" cy="97" cx="192" rx="17" ry="17" style="&E8;" />
    <text id="11442741" style="&E9;" transform="matrix(1 0 0 1 0 0 ) " x="176" y="83">03</text>
    <ellipse id="11442743" cy="97" cx="232" rx="17" ry="17" style="&E8;" />
    <text id="11442744" style="&E9;" transform="matrix(1 0 0 1 0 0 ) " x="216" y="83">08</text>
    <ellipse id="11442746" cy="97" cx="272" rx="17" ry="17" style="&E8;" />
    <text id="11442747" style="&E9;" transform="matrix(1 0 0 1 0 0 ) " x="256" y="83">19</text>
    <ellipse id="11442749" cy="97" cx="312" rx="17" ry="17" style="&E8;" />
    <text id="11442750" style="&E9;" transform="matrix(1 0 0 1 0 0 ) " x="296" y="83">15</text>
    <ellipse id="11442752" cy="97" cx="352" rx="17" ry="17" style="&E8;" />
    <text id="11442753" style="&E9;" transform="matrix(1 0 0 1 0 0 ) " x="336" y="83">09</text>
    <ellipse id="11442755" cy="97" cx="392" rx="17" ry="17" style="&E8;" />
    <text id="11442756" style="&E9;" transform="matrix(1 0 0 1 0 0 ) " x="376" y="83">07</text>
    <ellipse id="11442758" cy="97" cx="432" rx="17" ry="17" style="&E8;" />
    <text id="11442759" style="&E9;" transform="matrix(1 0 0 1 0 0 ) " x="416" y="83">13</text>
    <ellipse id="11442761" cy="97" cx="472" rx="17" ry="17" style="&E6;" />
    <text id="11442762" style="&E9;" transform="matrix(1 0 0 1 0 0 ) " x="456" y="83">02</text>
    <rect id="11442764" height="36" style="&E10;" width="36" y="80" x="512" />
    <rect id="11442765" height="34" style="&E11;" width="34" y="81" x="513" />
    <text id="11442766" style="&E4;" transform="matrix(1 0 0 1 0 0 ) " x="520" y="85">2</text>
    <text id="11442768" style="&E9;" transform="matrix(1 0 0 1 0 0 ) " x="560" y="85">小</text>
    <text id="11442770" style="&E9;" transform="matrix(1 0 0 1 0 0 ) " x="600" y="85">双</text>
    <text id="11442772" style="&E7;" transform="matrix(1 0 0 1 0 0 ) " x="10" y="125">40</text>
    <text id="11442774" style="&E7;" transform="matrix(1 0 0 1 0 0 ) " x="50" y="125">18:13:40</text>
    <ellipse id="11442776" cy="137" cx="192" rx="17" ry="17" style="&E8;" />
    <text id="11442777" style="&E9;" transform="matrix(1 0 0 1 0 0 ) " x="176" y="123">16</text>
    <ellipse id="11442779" cy="137" cx="232" rx="17" ry="17" style="&E8;" />
    <text id="11442780" style="&E9;" transform="matrix(1 0 0 1 0 0 ) " x="216" y="123">03</text>
    <ellipse id="11442782" cy="137" cx="272" rx="17" ry="17" style="&E8;" />
    <text id="11442783" style="&E9;" transform="matrix(1 0 0 1 0 0 ) " x="256" y="123">07</text>
    <ellipse id="11442785" cy="137" cx="312" rx="17" ry="17" style="&E8;" />
    <text id="11442786" style="&E9;" transform="matrix(1 0 0 1 0 0 ) " x="296" y="123">02</text>
    <ellipse id="11442788" cy="137" cx="352" rx="17" ry="17" style="&E8;" />
    <text id="11442789" style="&E9;" transform="matrix(1 0 0 1 0 0 ) " x="336" y="123">19</text>
    <ellipse id="11442791" cy="137" cx="392" rx="17" ry="17" style="&E8;" />
    <text id="11442792" style="&E9;" transform="matrix(1 0 0 1 0 0 ) " x="376" y="123">17</text>
    <ellipse id="11442794" cy="137" cx="432" rx="17" ry="17" style="&E8;" />
    <text id="11442795" style="&E9;" transform="matrix(1 0 0 1 0 0 ) " x="416" y="123">06</text>
    <ellipse id="11442797" cy="137" cx="472" rx="17" ry="17" style="&E6;" />
    <text id="11442798" style="&E9;" transform="matrix(1 0 0 1 0 0 ) " x="456" y="123">20</text>
    <rect id="11442800" height="36" style="&E10;" width="36" y="120" x="512" />
    <rect id="11442801" height="34" style="&E12;" width="34" y="121" x="513" />
    <text id="11442802" style="&E4;" transform="matrix(1 0 0 1 0 0 ) " x="520" y="125">4</text>
    <text id="11442804" style="&E9;" transform="matrix(1 0 0 1 0 0 ) " x="560" y="125">大</text>
    <text id="11442806" style="&E9;" transform="matrix(1 0 0 1 0 0 ) " x="600" y="125">双</text>
    <text id="11442808" style="&E7;" transform="matrix(1 0 0 1 0 0 ) " x="10" y="165">39</text>
    <text id="11442810" style="&E7;" transform="matrix(1 0 0 1 0 0 ) " x="50" y="165">18:08:40</text>
    <ellipse id="11442812" cy="177" cx="192" rx="17" ry="17" style="&E8;" />
    <text id="11442813" style="&E9;" transform="matrix(1 0 0 1 0 0 ) " x="176" y="163">06</text>
    <ellipse id="11442815" cy="177" cx="232" rx="17" ry="17" style="&E8;" />
    <text id="11442816" style="&E9;" transform="matrix(1 0 0 1 0 0 ) " x="216" y="163">08</text>
    <ellipse id="11442818" cy="177" cx="272" rx="17" ry="17" style="&E8;" />
    <text id="11442819" style="&E9;" transform="matrix(1 0 0 1 0 0 ) " x="256" y="163">10</text>
    <ellipse id="11442821" cy="177" cx="312" rx="17" ry="17" style="&E8;" />
    <text id="11442822" style="&E9;" transform="matrix(1 0 0 1 0 0 ) " x="296" y="163">07</text>
    <ellipse id="11442824" cy="177" cx="352" rx="17" ry="17" style="&E8;" />
    <text id="11442825" style="&E9;" transform="matrix(1 0 0 1 0 0 ) " x="336" y="163">05</text>
    <ellipse id="11442827" cy="177" cx="392" rx="17" ry="17" style="&E8;" />
    <text id="11442828" style="&E9;" transform="matrix(1 0 0 1 0 0 ) " x="376" y="163">20</text>
    <ellipse id="11442830" cy="177" cx="432" rx="17" ry="17" style="&E8;" />
    <text id="11442831" style="&E9;" transform="matrix(1 0 0 1 0 0 ) " x="416" y="163">14</text>
    <ellipse id="11442833" cy="177" cx="472" rx="17" ry="17" style="&E6;" />
    <text id="11442834" style="&E9;" transform="matrix(1 0 0 1 0 0 ) " x="456" y="163">16</text>
    <rect id="11442836" height="36" style="&E10;" width="36" y="160" x="512" />
    <rect id="11442837" height="34" style="&E12;" width="34" y="161" x="513" />
    <text id="11442838" style="&E4;" transform="matrix(1 0 0 1 0 0 ) " x="520" y="165">4</text>
    <text id="11442840" style="&E9;" transform="matrix(1 0 0 1 0 0 ) " x="560" y="165">大</text>
    <text id="11442842" style="&E9;" transform="matrix(1 0 0 1 0 0 ) " x="600" y="165">双</text>
    <text id="11442844" style="&E7;" transform="matrix(1 0 0 1 0 0 ) " x="10" y="205">38</text>
    <text id="11442846" style="&E7;" transform="matrix(1 0 0 1 0 0 ) " x="50" y="205">18:03:40</text>
    <ellipse id="11442848" cy="217" cx="192" rx="17" ry="17" style="&E8;" />
    <text id="11442849" style="&E9;" transform="matrix(1 0 0 1 0 0 ) " x="176" y="203">06</text>
    <ellipse id="11442851" cy="217" cx="232" rx="17" ry="17" style="&E8;" />
    <text id="11442852" style="&E9;" transform="matrix(1 0 0 1 0 0 ) " x="216" y="203">15</text>
    <ellipse id="11442854" cy="217" cx="272" rx="17" ry="17" style="&E8;" />
    <text id="11442855" style="&E9;" transform="matrix(1 0 0 1 0 0 ) " x="256" y="203">10</text>
    <ellipse id="11442857" cy="217" cx="312" rx="17" ry="17" style="&E8;" />
    <text id="11442858" style="&E9;" transform="matrix(1 0 0 1 0 0 ) " x="296" y="203">03</text>
    <ellipse id="11442860" cy="217" cx="352" rx="17" ry="17" style="&E8;" />
    <text id="11442861" style="&E9;" transform="matrix(1 0 0 1 0 0 ) " x="336" y="203">07</text>
    <ellipse id="11442863" cy="217" cx="392" rx="17" ry="17" style="&E8;" />
    <text id="11442864" style="&E9;" transform="matrix(1 0 0 1 0 0 ) " x="376" y="203">18</text>
    <ellipse id="11442866" cy="217" cx="432" rx="17" ry="17" style="&E8;" />
    <text id="11442867" style="&E9;" transform="matrix(1 0 0 1 0 0 ) " x="416" y="203">08</text>
    <ellipse id="11442869" cy="217" cx="472" rx="17" ry="17" style="&E6;" />
    <text id="11442870" style="&E9;" transform="matrix(1 0 0 1 0 0 ) " x="456" y="203">02</text>
    <rect id="11442872" height="36" style="&E10;" width="36" y="200" x="512" />
    <rect id="11442873" height="34" style="&E11;" width="34" y="201" x="513" />
    <text id="11442874" style="&E4;" transform="matrix(1 0 0 1 0 0 ) " x="520" y="205">2</text>
    <text id="11442876" style="&E9;" transform="matrix(1 0 0 1 0 0 ) " x="560" y="205">小</text>
    <text id="11442878" style="&E9;" transform="matrix(1 0 0 1 0 0 ) " x="600" y="205">双</text>
    <text id="11442880" style="&E7;" transform="matrix(1 0 0 1 0 0 ) " x="10" y="245">37</text>
    <text id="11442882" style="&E7;" transform="matrix(1 0 0 1 0 0 ) " x="50" y="245">17:58:40</text>
    <ellipse id="11442884" cy="257" cx="192" rx="17" ry="17" style="&E8;" />
    <text id="11442885" style="&E9;" transform="matrix(1 0 0 1 0 0 ) " x="176" y="243">18</text>
    <ellipse id="11442887" cy="257" cx="232" rx="17" ry="17" style="&E8;" />
    <text id="11442888" style="&E9;" transform="matrix(1 0 0 1 0 0 ) " x="216" y="243">10</text>
    <ellipse id="11442890" cy="257" cx="272" rx="17" ry="17" style="&E8;" />
    <text id="11442891" style="&E9;" transform="matrix(1 0 0 1 0 0 ) " x="256" y="243">19</text>
    <ellipse id="11442893" cy="257" cx="312" rx="17" ry="17" style="&E8;" />
    <text id="11442894" style="&E9;" transform="matrix(1 0 0 1 0 0 ) " x="296" y="243">13</text>
    <ellipse id="11442896" cy="257" cx="352" rx="17" ry="17" style="&E8;" />
    <text id="11442897" style="&E9;" transform="matrix(1 0 0 1 0 0 ) " x="336" y="243">05</text>
    <ellipse id="11442899" cy="257" cx="392" rx="17" ry="17" style="&E8;" />
    <text id="11442900" style="&E9;" transform="matrix(1 0 0 1 0 0 ) " x="376" y="243">08</text>
    <ellipse id="11442902" cy="257" cx="432" rx="17" ry="17" style="&E8;" />
    <text id="11442903" style="&E9;" transform="matrix(1 0 0 1 0 0 ) " x="416" y="243">01</text>
    <ellipse id="11442905" cy="257" cx="472" rx="17" ry="17" style="&E6;" />
    <text id="11442906" style="&E9;" transform="matrix(1 0 0 1 0 0 ) " x="456" y="243">06</text>
    <rect id="11442908" height="36" style="&E10;" width="36" y="240" x="512" />
    <rect id="11442909" height="34" style="&E11;" width="34" y="241" x="513" />
    <text id="11442910" style="&E4;" transform="matrix(1 0 0 1 0 0 ) " x="520" y="245">2</text>
    <text id="11442912" style="&E9;" transform="matrix(1 0 0 1 0 0 ) " x="560" y="245">小</text>
    <text id="11442914" style="&E9;" transform="matrix(1 0 0 1 0 0 ) " x="600" y="245">双</text>
    <text id="11442916" style="&E7;" transform="matrix(1 0 0 1 0 0 ) " x="10" y="285">36</text>
    <text id="11442918" style="&E7;" transform="matrix(1 0 0 1 0 0 ) " x="50" y="285">17:53:40</text>
    <ellipse id="11442920" cy="297" cx="192" rx="17" ry="17" style="&E8;" />
    <text id="11442921" style="&E9;" transform="matrix(1 0 0 1 0 0 ) " x="176" y="283">15</text>
    <ellipse id="11442923" cy="297" cx="232" rx="17" ry="17" style="&E8;" />
    <text id="11442924" style="&E9;" transform="matrix(1 0 0 1 0 0 ) " x="216" y="283">17</text>
    <ellipse id="11442926" cy="297" cx="272" rx="17" ry="17" style="&E8;" />
    <text id="11442927" style="&E9;" transform="matrix(1 0 0 1 0 0 ) " x="256" y="283">20</text>
    <ellipse id="11442929" cy="297" cx="312" rx="17" ry="17" style="&E8;" />
    <text id="11442930" style="&E9;" transform="matrix(1 0 0 1 0 0 ) " x="296" y="283">06</text>
    <ellipse id="11442932" cy="297" cx="352" rx="17" ry="17" style="&E8;" />
    <text id="11442933" style="&E9;" transform="matrix(1 0 0 1 0 0 ) " x="336" y="283">04</text>
    <ellipse id="11442935" cy="297" cx="392" rx="17" ry="17" style="&E8;" />
    <text id="11442936" style="&E9;" transform="matrix(1 0 0 1 0 0 ) " x="376" y="283">03</text>
    <ellipse id="11442938" cy="297" cx="432" rx="17" ry="17" style="&E8;" />
    <text id="11442939" style="&E9;" transform="matrix(1 0 0 1 0 0 ) " x="416" y="283">08</text>
    <ellipse id="11442941" cy="297" cx="472" rx="17" ry="17" style="&E6;" />
    <text id="11442942" style="&E9;" transform="matrix(1 0 0 1 0 0 ) " x="456" y="283">07</text>
    <rect id="11442944" height="36" style="&E10;" width="36" y="280" x="512" />
    <rect id="11442945" height="34" style="&E13;" width="34" y="281" x="513" />
    <text id="11442946" style="&E4;" transform="matrix(1 0 0 1 0 0 ) " x="520" y="285">3</text>
    <text id="11442948" style="&E9;" transform="matrix(1 0 0 1 0 0 ) " x="560" y="285">小</text>
    <text id="11442950" style="&E9;" transform="matrix(1 0 0 1 0 0 ) " x="600" y="285">单</text>
    <text id="11442952" style="&E7;" transform="matrix(1 0 0 1 0 0 ) " x="10" y="325">35</text>
    <text id="11442954" style="&E7;" transform="matrix(1 0 0 1 0 0 ) " x="50" y="325">17:48:40</text>
    <ellipse id="11442956" cy="337" cx="192" rx="17" ry="17" style="&E8;" />
    <text id="11442957" style="&E9;" transform="matrix(1 0 0 1 0 0 ) " x="176" y="323">01</text>
    <ellipse id="11442959" cy="337" cx="232" rx="17" ry="17" style="&E8;" />
    <text id="11442960" style="&E9;" transform="matrix(1 0 0 1 0 0 ) " x="216" y="323">02</text>
    <ellipse id="11442962" cy="337" cx="272" rx="17" ry="17" style="&E8;" />
    <text id="11442963" style="&E9;" transform="matrix(1 0 0 1 0 0 ) " x="256" y="323">06</text>
    <ellipse id="11442965" cy="337" cx="312" rx="17" ry="17" style="&E8;" />
    <text id="11442966" style="&E9;" transform="matrix(1 0 0 1 0 0 ) " x="296" y="323">09</text>
    <ellipse id="11442968" cy="337" cx="352" rx="17" ry="17" style="&E8;" />
    <text id="11442969" style="&E9;" transform="matrix(1 0 0 1 0 0 ) " x="336" y="323">05</text>
    <ellipse id="11442971" cy="337" cx="392" rx="17" ry="17" style="&E8;" />
    <text id="11442972" style="&E9;" transform="matrix(1 0 0 1 0 0 ) " x="376" y="323">03</text>
    <ellipse id="11442974" cy="337" cx="432" rx="17" ry="17" style="&E8;" />
    <text id="11442975" style="&E9;" transform="matrix(1 0 0 1 0 0 ) " x="416" y="323">17</text>
    <ellipse id="11442977" cy="337" cx="472" rx="17" ry="17" style="&E6;" />
    <text id="11442978" style="&E9;" transform="matrix(1 0 0 1 0 0 ) " x="456" y="323">20</text>
    <rect id="11442980" height="36" style="&E10;" width="36" y="320" x="512" />
    <rect id="11442981" height="34" style="&E12;" width="34" y="321" x="513" />
    <text id="11442982" style="&E4;" transform="matrix(1 0 0 1 0 0 ) " x="520" y="325">4</text>
    <text id="11442984" style="&E9;" transform="matrix(1 0 0 1 0 0 ) " x="560" y="325">大</text>
    <text id="11442986" style="&E9;" transform="matrix(1 0 0 1 0 0 ) " x="600" y="325">双</text>
    <text id="11442988" style="&E7;" transform="matrix(1 0 0 1 0 0 ) " x="10" y="365">34</text>
    <text id="11442990" style="&E7;" transform="matrix(1 0 0 1 0 0 ) " x="50" y="365">17:43:40</text>
    <ellipse id="11442992" cy="377" cx="192" rx="17" ry="17" style="&E8;" />
    <text id="11442993" style="&E9;" transform="matrix(1 0 0 1 0 0 ) " x="176" y="363">15</text>
    <ellipse id="11442995" cy="377" cx="232" rx="17" ry="17" style="&E8;" />
    <text id="11442996" style="&E9;" transform="matrix(1 0 0 1 0 0 ) " x="216" y="363">03</text>
    <ellipse id="11442998" cy="377" cx="272" rx="17" ry="17" style="&E8;" />
    <text id="11442999" style="&E9;" transform="matrix(1 0 0 1 0 0 ) " x="256" y="363">18</text>
    <ellipse id="11443001" cy="377" cx="312" rx="17" ry="17" style="&E8;" />
    <text id="11443002" style="&E9;" transform="matrix(1 0 0 1 0 0 ) " x="296" y="363">12</text>
    <ellipse id="11443004" cy="377" cx="352" rx="17" ry="17" style="&E8;" />
    <text id="11443005" style="&E9;" transform="matrix(1 0 0 1 0 0 ) " x="336" y="363">20</text>
    <ellipse id="11443007" cy="377" cx="392" rx="17" ry="17" style="&E8;" />
    <text id="11443008" style="&E9;" transform="matrix(1 0 0 1 0 0 ) " x="376" y="363">09</text>
    <ellipse id="11443010" cy="377" cx="432" rx="17" ry="17" style="&E8;" />
    <text id="11443011" style="&E9;" transform="matrix(1 0 0 1 0 0 ) " x="416" y="363">17</text>
    <ellipse id="11443013" cy="377" cx="472" rx="17" ry="17" style="&E6;" />
    <text id="11443014" style="&E9;" transform="matrix(1 0 0 1 0 0 ) " x="456" y="363">19</text>
    <rect id="11443016" height="36" style="&E10;" width="36" y="360" x="512" />
    <rect id="11443017" height="34" style="&E13;" width="34" y="361" x="513" />
    <text id="11443018" style="&E4;" transform="matrix(1 0 0 1 0 0 ) " x="520" y="365">3</text>
    <text id="11443020" style="&E9;" transform="matrix(1 0 0 1 0 0 ) " x="560" y="365">大</text>
    <text id="11443022" style="&E9;" transform="matrix(1 0 0 1 0 0 ) " x="600" y="365">单</text>
    <text id="11443024" style="&E7;" transform="matrix(1 0 0 1 0 0 ) " x="10" y="405">33</text>
    <text id="11443026" style="&E7;" transform="matrix(1 0 0 1 0 0 ) " x="50" y="405">17:38:40</text>
    <ellipse id="11443028" cy="417" cx="192" rx="17" ry="17" style="&E8;" />
    <text id="11443029" style="&E9;" transform="matrix(1 0 0 1 0 0 ) " x="176" y="403">10</text>
    <ellipse id="11443031" cy="417" cx="232" rx="17" ry="17" style="&E8;" />
    <text id="11443032" style="&E9;" transform="matrix(1 0 0 1 0 0 ) " x="216" y="403">05</text>
    <ellipse id="11443034" cy="417" cx="272" rx="17" ry="17" style="&E8;" />
    <text id="11443035" style="&E9;" transform="matrix(1 0 0 1 0 0 ) " x="256" y="403">06</text>
    <ellipse id="11443037" cy="417" cx="312" rx="17" ry="17" style="&E8;" />
    <text id="11443038" style="&E9;" transform="matrix(1 0 0 1 0 0 ) " x="296" y="403">13</text>
    <ellipse id="11443040" cy="417" cx="352" rx="17" ry="17" style="&E8;" />
    <text id="11443041" style="&E9;" transform="matrix(1 0 0 1 0 0 ) " x="336" y="403">08</text>
    <ellipse id="11443043" cy="417" cx="392" rx="17" ry="17" style="&E8;" />
    <text id="11443044" style="&E9;" transform="matrix(1 0 0 1 0 0 ) " x="376" y="403">04</text>
    <ellipse id="11443046" cy="417" cx="432" rx="17" ry="17" style="&E8;" />
    <text id="11443047" style="&E9;" transform="matrix(1 0 0 1 0 0 ) " x="416" y="403">09</text>
    <ellipse id="11443049" cy="417" cx="472" rx="17" ry="17" style="&E6;" />
    <text id="11443050" style="&E9;" transform="matrix(1 0 0 1 0 0 ) " x="456" y="403">19</text>
    <rect id="11443052" height="36" style="&E10;" width="36" y="400" x="512" />
    <rect id="11443053" height="34" style="&E13;" width="34" y="401" x="513" />
    <text id="11443054" style="&E4;" transform="matrix(1 0 0 1 0 0 ) " x="520" y="405">3</text>
    <text id="11443056" style="&E9;" transform="matrix(1 0 0 1 0 0 ) " x="560" y="405">大</text>
    <text id="11443058" style="&E9;" transform="matrix(1 0 0 1 0 0 ) " x="600" y="405">单</text>
    <text id="11443060" style="&E7;" transform="matrix(1 0 0 1 0 0 ) " x="10" y="445">32</text>
    <text id="11443062" style="&E7;" transform="matrix(1 0 0 1 0 0 ) " x="50" y="445">17:33:40</text>
    <ellipse id="11443064" cy="457" cx="192" rx="17" ry="17" style="&E8;" />
    <text id="11443065" style="&E9;" transform="matrix(1 0 0 1 0 0 ) " x="176" y="443">19</text>
    <ellipse id="11443067" cy="457" cx="232" rx="17" ry="17" style="&E8;" />
    <text id="11443068" style="&E9;" transform="matrix(1 0 0 1 0 0 ) " x="216" y="443">16</text>
    <ellipse id="11443070" cy="457" cx="272" rx="17" ry="17" style="&E8;" />
    <text id="11443071" style="&E9;" transform="matrix(1 0 0 1 0 0 ) " x="256" y="443">09</text>
    <ellipse id="11443073" cy="457" cx="312" rx="17" ry="17" style="&E8;" />
    <text id="11443074" style="&E9;" transform="matrix(1 0 0 1 0 0 ) " x="296" y="443">02</text>
    <ellipse id="11443076" cy="457" cx="352" rx="17" ry="17" style="&E8;" />
    <text id="11443077" style="&E9;" transform="matrix(1 0 0 1 0 0 ) " x="336" y="443">08</text>
    <ellipse id="11443079" cy="457" cx="392" rx="17" ry="17" style="&E8;" />
    <text id="11443080" style="&E9;" transform="matrix(1 0 0 1 0 0 ) " x="376" y="443">14</text>
    <ellipse id="11443082" cy="457" cx="432" rx="17" ry="17" style="&E8;" />
    <text id="11443083" style="&E9;" transform="matrix(1 0 0 1 0 0 ) " x="416" y="443">06</text>
    <ellipse id="11443085" cy="457" cx="472" rx="17" ry="17" style="&E6;" />
    <text id="11443086" style="&E9;" transform="matrix(1 0 0 1 0 0 ) " x="456" y="443">17</text>
    <rect id="11443088" height="36" style="&E10;" width="36" y="440" x="512" />
    <rect id="11443089" height="34" style="&E14;" width="34" y="441" x="513" />
    <text id="11443090" style="&E4;" transform="matrix(1 0 0 1 0 0 ) " x="520" y="445">1</text>
    <text id="11443092" style="&E9;" transform="matrix(1 0 0 1 0 0 ) " x="560" y="445">大</text>
    <text id="11443094" style="&E9;" transform="matrix(1 0 0 1 0 0 ) " x="600" y="445">单</text>
    <text id="11443096" style="&E7;" transform="matrix(1 0 0 1 0 0 ) " x="10" y="485">31</text>
    <text id="11443098" style="&E7;" transform="matrix(1 0 0 1 0 0 ) " x="50" y="485">17:28:40</text>
    <ellipse id="11443100" cy="497" cx="192" rx="17" ry="17" style="&E8;" />
    <text id="11443101" style="&E9;" transform="matrix(1 0 0 1 0 0 ) " x="176" y="483">17</text>
    <ellipse id="11443103" cy="497" cx="232" rx="17" ry="17" style="&E8;" />
    <text id="11443104" style="&E9;" transform="matrix(1 0 0 1 0 0 ) " x="216" y="483">11</text>
    <ellipse id="11443106" cy="497" cx="272" rx="17" ry="17" style="&E8;" />
    <text id="11443107" style="&E9;" transform="matrix(1 0 0 1 0 0 ) " x="256" y="483">16</text>
    <ellipse id="11443109" cy="497" cx="312" rx="17" ry="17" style="&E8;" />
    <text id="11443110" style="&E9;" transform="matrix(1 0 0 1 0 0 ) " x="296" y="483">05</text>
    <ellipse id="11443112" cy="497" cx="352" rx="17" ry="17" style="&E8;" />
    <text id="11443113" style="&E9;" transform="matrix(1 0 0 1 0 0 ) " x="336" y="483">08</text>
    <ellipse id="11443115" cy="497" cx="392" rx="17" ry="17" style="&E8;" />
    <text id="11443116" style="&E9;" transform="matrix(1 0 0 1 0 0 ) " x="376" y="483">06</text>
    <ellipse id="11443118" cy="497" cx="432" rx="17" ry="17" style="&E8;" />
    <text id="11443119" style="&E9;" transform="matrix(1 0 0 1 0 0 ) " x="416" y="483">10</text>
    <ellipse id="11443121" cy="497" cx="472" rx="17" ry="17" style="&E6;" />
    <text id="11443122" style="&E9;" transform="matrix(1 0 0 1 0 0 ) " x="456" y="483">18</text>
    <rect id="11443124" height="36" style="&E10;" width="36" y="480" x="512" />
    <rect id="11443125" height="34" style="&E11;" width="34" y="481" x="513" />
    <text id="11443126" style="&E4;" transform="matrix(1 0 0 1 0 0 ) " x="520" y="485">2</text>
    <text id="11443128" style="&E9;" transform="matrix(1 0 0 1 0 0 ) " x="560" y="485">大</text>
    <text id="11443130" style="&E9;" transform="matrix(1 0 0 1 0 0 ) " x="600" y="485">双</text>
    <text id="11443132" style="&E7;" transform="matrix(1 0 0 1 0 0 ) " x="10" y="525">30</text>
    <text id="11443134" style="&E7;" transform="matrix(1 0 0 1 0 0 ) " x="50" y="525">17:23:40</text>
    <ellipse id="11443136" cy="537" cx="192" rx="17" ry="17" style="&E8;" />
    <text id="11443137" style="&E9;" transform="matrix(1 0 0 1 0 0 ) " x="176" y="523">07</text>
    <ellipse id="11443139" cy="537" cx="232" rx="17" ry="17" style="&E8;" />
    <text id="11443140" style="&E9;" transform="matrix(1 0 0 1 0 0 ) " x="216" y="523">16</text>
    <ellipse id="11443142" cy="537" cx="272" rx="17" ry="17" style="&E8;" />
    <text id="11443143" style="&E9;" transform="matrix(1 0 0 1 0 0 ) " x="256" y="523">08</text>
    <ellipse id="11443145" cy="537" cx="312" rx="17" ry="17" style="&E8;" />
    <text id="11443146" style="&E9;" transform="matrix(1 0 0 1 0 0 ) " x="296" y="523">05</text>
    <ellipse id="11443148" cy="537" cx="352" rx="17" ry="17" style="&E8;" />
    <text id="11443149" style="&E9;" transform="matrix(1 0 0 1 0 0 ) " x="336" y="523">02</text>
    <ellipse id="11443151" cy="537" cx="392" rx="17" ry="17" style="&E8;" />
    <text id="11443152" style="&E9;" transform="matrix(1 0 0 1 0 0 ) " x="376" y="523">15</text>
    <ellipse id="11443154" cy="537" cx="432" rx="17" ry="17" style="&E8;" />
    <text id="11443155" style="&E9;" transform="matrix(1 0 0 1 0 0 ) " x="416" y="523">18</text>
    <ellipse id="11443157" cy="537" cx="472" rx="17" ry="17" style="&E6;" />
    <text id="11443158" style="&E9;" transform="matrix(1 0 0 1 0 0 ) " x="456" y="523">13</text>
    <rect id="11443160" height="36" style="&E10;" width="36" y="520" x="512" />
    <rect id="11443161" height="34" style="&E14;" width="34" y="521" x="513" />
    <text id="11443162" style="&E4;" transform="matrix(1 0 0 1 0 0 ) " x="520" y="525">1</text>
    <text id="11443164" style="&E9;" transform="matrix(1 0 0 1 0 0 ) " x="560" y="525">大</text>
    <text id="11443166" style="&E9;" transform="matrix(1 0 0 1 0 0 ) " x="600" y="525">单</text>
    <text id="11443168" style="&E7;" transform="matrix(1 0 0 1 0 0 ) " x="10" y="565">29</text>
    <text id="11443170" style="&E7;" transform="matrix(1 0 0 1 0 0 ) " x="50" y="565">17:18:40</text>
    <ellipse id="11443172" cy="577" cx="192" rx="17" ry="17" style="&E8;" />
    <text id="11443173" style="&E9;" transform="matrix(1 0 0 1 0 0 ) " x="176" y="563">15</text>
    <ellipse id="11443175" cy="577" cx="232" rx="17" ry="17" style="&E8;" />
    <text id="11443176" style="&E9;" transform="matrix(1 0 0 1 0 0 ) " x="216" y="563">04</text>
    <ellipse id="11443178" cy="577" cx="272" rx="17" ry="17" style="&E8;" />
    <text id="11443179" style="&E9;" transform="matrix(1 0 0 1 0 0 ) " x="256" y="563">03</text>
    <ellipse id="11443181" cy="577" cx="312" rx="17" ry="17" style="&E8;" />
    <text id="11443182" style="&E9;" transform="matrix(1 0 0 1 0 0 ) " x="296" y="563">09</text>
    <ellipse id="11443184" cy="577" cx="352" rx="17" ry="17" style="&E8;" />
    <text id="11443185" style="&E9;" transform="matrix(1 0 0 1 0 0 ) " x="336" y="563">17</text>
    <ellipse id="11443187" cy="577" cx="392" rx="17" ry="17" style="&E8;" />
    <text id="11443188" style="&E9;" transform="matrix(1 0 0 1 0 0 ) " x="376" y="563">11</text>
    <ellipse id="11443190" cy="577" cx="432" rx="17" ry="17" style="&E8;" />
    <text id="11443191" style="&E9;" transform="matrix(1 0 0 1 0 0 ) " x="416" y="563">02</text>
    <ellipse id="11443193" cy="577" cx="472" rx="17" ry="17" style="&E6;" />
    <text id="11443194" style="&E9;" transform="matrix(1 0 0 1 0 0 ) " x="456" y="563">12</text>
    <rect id="11443196" height="36" style="&E10;" width="36" y="560" x="512" />
    <rect id="11443197" height="34" style="&E12;" width="34" y="561" x="513" />
    <text id="11443198" style="&E4;" transform="matrix(1 0 0 1 0 0 ) " x="520" y="565">4</text>
    <text id="11443200" style="&E9;" transform="matrix(1 0 0 1 0 0 ) " x="560" y="565">大</text>
    <text id="11443202" style="&E9;" transform="matrix(1 0 0 1 0 0 ) " x="600" y="565">双</text>
    <text id="11443204" style="&E7;" transform="matrix(1 0 0 1 0 0 ) " x="10" y="605">28</text>
    <text id="11443206" style="&E7;" transform="matrix(1 0 0 1 0 0 ) " x="50" y="605">17:13:40</text>
    <ellipse id="11443208" cy="617" cx="192" rx="17" ry="17" style="&E8;" />
    <text id="11443209" style="&E9;" transform="matrix(1 0 0 1 0 0 ) " x="176" y="603">19</text>
    <ellipse id="11443211" cy="617" cx="232" rx="17" ry="17" style="&E8;" />
    <text id="11443212" style="&E9;" transform="matrix(1 0 0 1 0 0 ) " x="216" y="603">05</text>
    <ellipse id="11443214" cy="617" cx="272" rx="17" ry="17" style="&E8;" />
    <text id="11443215" style="&E9;" transform="matrix(1 0 0 1 0 0 ) " x="256" y="603">06</text>
    <ellipse id="11443217" cy="617" cx="312" rx="17" ry="17" style="&E8;" />
    <text id="11443218" style="&E9;" transform="matrix(1 0 0 1 0 0 ) " x="296" y="603">12</text>
    <ellipse id="11443220" cy="617" cx="352" rx="17" ry="17" style="&E8;" />
    <text id="11443221" style="&E9;" transform="matrix(1 0 0 1 0 0 ) " x="336" y="603">10</text>
    <ellipse id="11443223" cy="617" cx="392" rx="17" ry="17" style="&E8;" />
    <text id="11443224" style="&E9;" transform="matrix(1 0 0 1 0 0 ) " x="376" y="603">20</text>
    <ellipse id="11443226" cy="617" cx="432" rx="17" ry="17" style="&E8;" />
    <text id="11443227" style="&E9;" transform="matrix(1 0 0 1 0 0 ) " x="416" y="603">16</text>
    <ellipse id="11443229" cy="617" cx="472" rx="17" ry="17" style="&E6;" />
    <text id="11443230" style="&E9;" transform="matrix(1 0 0 1 0 0 ) " x="456" y="603">17</text>
    <rect id="11443232" height="36" style="&E10;" width="36" y="600" x="512" />
    <rect id="11443233" height="34" style="&E14;" width="34" y="601" x="513" />
    <text id="11443234" style="&E4;" transform="matrix(1 0 0 1 0 0 ) " x="520" y="605">1</text>
    <text id="11443236" style="&E9;" transform="matrix(1 0 0 1 0 0 ) " x="560" y="605">大</text>
    <text id="11443238" style="&E9;" transform="matrix(1 0 0 1 0 0 ) " x="600" y="605">单</text>
    <rect id="11443240" height="46" style="&E15;" width="627" y="656" x="10" />
    <text id="11443241" style="&E16;" transform="matrix(1 0 0 1 0 0 ) " x="229" y="666">路</text>
    <text id="11443243" style="&E16;" transform="matrix(1 0 0 1 0 0 ) " x="280" y="666">字</text>
    <text id="11443245" style="&E16;" transform="matrix(1 0 0 1 0 0 ) " x="332" y="666">图</text>
    <line y1="656" style="&E17;" id="11443247" x2="637" y2="656" x1="10" />
    <line y1="702" style="&E17;" id="11443248" x2="637" y2="702" x1="10" />
    <line y1="753" style="&E17;" id="11443249" x2="637" y2="753" x1="10" />
    <line y1="802" style="&E17;" id="11443250" x2="637" y2="802" x1="10" />
    <line y1="851" style="&E17;" id="11443251" x2="637" y2="851" x1="10" />
    <line y1="900" style="&E17;" id="11443252" x2="637" y2="900" x1="10" />
    <line y1="945" style="&E17;" id="11443253" x2="637" y2="945" x1="10" />
    <line y1="656" style="&E17;" id="11443254" x2="10" y2="945" x1="10" />
    <line y1="656" style="&E17;" id="11443255" x2="60" y2="945" x1="60" />
    <line y1="656" style="&E17;" id="11443256" x2="115" y2="945" x1="115" />
    <line y1="656" style="&E17;" id="11443257" x2="166" y2="945" x1="166" />
    <line y1="656" style="&E17;" id="11443258" x2="219" y2="945" x1="219" />
    <line y1="656" style="&E17;" id="11443259" x2="270" y2="945" x1="270" />
    <line y1="656" style="&E17;" id="11443260" x2="323" y2="945" x1="323" />
    <line y1="656" style="&E17;" id="11443261" x2="375" y2="945" x1="375" />
    <line y1="656" style="&E17;" id="11443262" x2="427" y2="945" x1="427" />
    <line y1="656" style="&E17;" id="11443263" x2="480" y2="945" x1="480" />
    <line y1="656" style="&E17;" id="11443264" x2="531" y2="945" x1="531" />
    <line y1="656" style="&E17;" id="11443265" x2="584" y2="945" x1="584" />
    <line y1="656" style="&E17;" id="11443266" x2="636" y2="945" x1="636" />
    <rect id="11443267" height="38" style="&E10;" width="38" y="708" x="16" />
    <rect id="11443268" height="37" style="&E13;" width="37" y="708" x="16" />
    <text id="11443269" style="&E18;" transform="matrix(1 0 0 1 0 0 ) " x="20" y="710">3</text>
    <rect id="11443271" height="38" style="&E10;" width="38" y="708" x="68" />
    <rect id="11443272" height="37" style="&E12;" width="37" y="708" x="68" />
    <text id="11443273" style="&E18;" transform="matrix(1 0 0 1 0 0 ) " x="72" y="710">4</text>
    <rect id="11443275" height="38" style="&E10;" width="38" y="708" x="121" />
    <rect id="11443276" height="37" style="&E14;" width="37" y="708" x="121" />
    <text id="11443277" style="&E18;" transform="matrix(1 0 0 1 0 0 ) " x="125" y="710">1</text>
    <rect id="11443279" height="38" style="&E10;" width="38" y="708" x="174" />
    <rect id="11443280" height="37" style="&E11;" width="37" y="708" x="174" />
    <text id="11443281" style="&E18;" transform="matrix(1 0 0 1 0 0 ) " x="178" y="710">2</text>
    <rect id="11443283" height="38" style="&E10;" width="38" y="708" x="225" />
    <rect id="11443284" height="37" style="&E12;" width="37" y="708" x="225" />
    <text id="11443285" style="&E18;" transform="matrix(1 0 0 1 0 0 ) " x="229" y="710">4</text>
    <rect id="11443287" height="38" style="&E10;" width="38" y="708" x="278" />
    <rect id="11443288" height="37" style="&E11;" width="37" y="708" x="278" />
    <text id="11443289" style="&E18;" transform="matrix(1 0 0 1 0 0 ) " x="282" y="710">2</text>
    <rect id="11443291" height="38" style="&E10;" width="38" y="708" x="330" />
    <rect id="11443292" height="37" style="&E11;" width="37" y="708" x="330" />
    <text id="11443293" style="&E18;" transform="matrix(1 0 0 1 0 0 ) " x="334" y="710">2</text>
    <rect id="11443295" height="38" style="&E10;" width="38" y="708" x="383" />
    <rect id="11443296" height="37" style="&E14;" width="37" y="708" x="383" />
    <text id="11443297" style="&E18;" transform="matrix(1 0 0 1 0 0 ) " x="387" y="710">1</text>
    <rect id="11443299" height="38" style="&E10;" width="38" y="708" x="434" />
    <rect id="11443300" height="37" style="&E11;" width="37" y="708" x="434" />
    <text id="11443301" style="&E18;" transform="matrix(1 0 0 1 0 0 ) " x="438" y="710">2</text>
    <rect id="11443303" height="38" style="&E10;" width="38" y="708" x="486" />
    <rect id="11443304" height="37" style="&E14;" width="37" y="708" x="486" />
    <text id="11443305" style="&E18;" transform="matrix(1 0 0 1 0 0 ) " x="490" y="710">1</text>
    <rect id="11443307" height="38" style="&E10;" width="38" y="708" x="538" />
    <rect id="11443308" height="37" style="&E12;" width="37" y="708" x="538" />
    <text id="11443309" style="&E18;" transform="matrix(1 0 0 1 0 0 ) " x="542" y="710">4</text>
    <rect id="11443311" height="38" style="&E10;" width="38" y="708" x="592" />
    <rect id="11443312" height="37" style="&E11;" width="37" y="708" x="592" />
    <text id="11443313" style="&E18;" transform="matrix(1 0 0 1 0 0 ) " x="596" y="710">2</text>
    <rect id="11443315" height="38" style="&E10;" width="38" y="758" x="16" />
    <rect id="11443316" height="37" style="&E13;" width="37" y="758" x="16" />
    <text id="11443317" style="&E18;" transform="matrix(1 0 0 1 0 0 ) " x="20" y="760">3</text>
    <rect id="11443319" height="38" style="&E10;" width="38" y="758" x="68" />
    <rect id="11443320" height="37" style="&E12;" width="37" y="758" x="68" />
    <text id="11443321" style="&E18;" transform="matrix(1 0 0 1 0 0 ) " x="72" y="760">4</text>
    <rect id="11443323" height="38" style="&E10;" width="38" y="758" x="121" />
    <rect id="11443324" height="37" style="&E11;" width="37" y="758" x="121" />
    <text id="11443325" style="&E18;" transform="matrix(1 0 0 1 0 0 ) " x="125" y="760">2</text>
    <rect id="11443327" height="38" style="&E10;" width="38" y="758" x="174" />
    <rect id="11443328" height="37" style="&E13;" width="37" y="758" x="174" />
    <text id="11443329" style="&E18;" transform="matrix(1 0 0 1 0 0 ) " x="178" y="760">3</text>
    <rect id="11443331" height="38" style="&E10;" width="38" y="758" x="225" />
    <rect id="11443332" height="37" style="&E14;" width="37" y="758" x="225" />
    <text id="11443333" style="&E18;" transform="matrix(1 0 0 1 0 0 ) " x="229" y="760">1</text>
    <rect id="11443335" height="38" style="&E10;" width="38" y="758" x="278" />
    <rect id="11443336" height="37" style="&E13;" width="37" y="758" x="278" />
    <text id="11443337" style="&E18;" transform="matrix(1 0 0 1 0 0 ) " x="282" y="760">3</text>
    <rect id="11443339" height="38" style="&E10;" width="38" y="758" x="330" />
    <rect id="11443340" height="37" style="&E12;" width="37" y="758" x="330" />
    <text id="11443341" style="&E18;" transform="matrix(1 0 0 1 0 0 ) " x="334" y="760">4</text>
    <rect id="11443343" height="38" style="&E10;" width="38" y="758" x="383" />
    <rect id="11443344" height="37" style="&E14;" width="37" y="758" x="383" />
    <text id="11443345" style="&E18;" transform="matrix(1 0 0 1 0 0 ) " x="387" y="760">1</text>
    <rect id="11443347" height="38" style="&E10;" width="38" y="758" x="434" />
    <rect id="11443348" height="37" style="&E13;" width="37" y="758" x="434" />
    <text id="11443349" style="&E18;" transform="matrix(1 0 0 1 0 0 ) " x="438" y="760">3</text>
    <rect id="11443351" height="38" style="&E10;" width="38" y="758" x="486" />
    <rect id="11443352" height="37" style="&E12;" width="37" y="758" x="486" />
    <text id="11443353" style="&E18;" transform="matrix(1 0 0 1 0 0 ) " x="490" y="760">4</text>
    <rect id="11443355" height="38" style="&E10;" width="38" y="758" x="538" />
    <rect id="11443356" height="37" style="&E14;" width="37" y="758" x="538" />
    <text id="11443357" style="&E18;" transform="matrix(1 0 0 1 0 0 ) " x="542" y="760">1</text>
    <rect id="11443359" height="38" style="&E10;" width="38" y="758" x="592" />
    <rect id="11443360" height="37" style="&E12;" width="37" y="758" x="592" />
    <text id="11443361" style="&E18;" transform="matrix(1 0 0 1 0 0 ) " x="596" y="760">4</text>
    <rect id="11443363" height="38" style="&E10;" width="38" y="806" x="16" />
    <rect id="11443364" height="37" style="&E13;" width="37" y="806" x="16" />
    <text id="11443365" style="&E18;" transform="matrix(1 0 0 1 0 0 ) " x="20" y="808">3</text>
    <rect id="11443367" height="38" style="&E10;" width="38" y="806" x="68" />
    <rect id="11443368" height="37" style="&E11;" width="37" y="806" x="68" />
    <text id="11443369" style="&E18;" transform="matrix(1 0 0 1 0 0 ) " x="72" y="808">2</text>
    <rect id="11443371" height="38" style="&E10;" width="38" y="806" x="121" />
    <rect id="11443372" height="37" style="&E14;" width="37" y="806" x="121" />
    <text id="11443373" style="&E18;" transform="matrix(1 0 0 1 0 0 ) " x="125" y="808">1</text>
    <rect id="11443375" height="38" style="&E10;" width="38" y="806" x="174" />
    <rect id="11443376" height="37" style="&E12;" width="37" y="806" x="174" />
    <text id="11443377" style="&E18;" transform="matrix(1 0 0 1 0 0 ) " x="178" y="808">4</text>
    <rect id="11443379" height="38" style="&E10;" width="38" y="806" x="225" />
    <rect id="11443380" height="37" style="&E13;" width="37" y="806" x="225" />
    <text id="11443381" style="&E18;" transform="matrix(1 0 0 1 0 0 ) " x="229" y="808">3</text>
    <rect id="11443383" height="38" style="&E10;" width="38" y="806" x="278" />
    <rect id="11443384" height="37" style="&E12;" width="37" y="806" x="278" />
    <text id="11443385" style="&E18;" transform="matrix(1 0 0 1 0 0 ) " x="282" y="808">4</text>
    <rect id="11443387" height="38" style="&E10;" width="38" y="806" x="330" />
    <rect id="11443388" height="37" style="&E12;" width="37" y="806" x="330" />
    <text id="11443389" style="&E18;" transform="matrix(1 0 0 1 0 0 ) " x="334" y="808">4</text>
    <rect id="11443391" height="38" style="&E10;" width="38" y="806" x="383" />
    <rect id="11443392" height="37" style="&E13;" width="37" y="806" x="383" />
    <text id="11443393" style="&E18;" transform="matrix(1 0 0 1 0 0 ) " x="387" y="808">3</text>
    <rect id="11443395" height="38" style="&E10;" width="38" y="806" x="434" />
    <rect id="11443396" height="37" style="&E12;" width="37" y="806" x="434" />
    <text id="11443397" style="&E18;" transform="matrix(1 0 0 1 0 0 ) " x="438" y="808">4</text>
    <rect id="11443399" height="38" style="&E10;" width="38" y="806" x="486" />
    <rect id="11443400" height="37" style="&E11;" width="37" y="806" x="486" />
    <text id="11443401" style="&E18;" transform="matrix(1 0 0 1 0 0 ) " x="490" y="808">2</text>
    <rect id="11443403" height="38" style="&E10;" width="38" y="806" x="538" />
    <rect id="11443404" height="37" style="&E13;" width="37" y="806" x="538" />
    <text id="11443405" style="&E18;" transform="matrix(1 0 0 1 0 0 ) " x="542" y="808">3</text>
    <rect id="11443407" height="38" style="&E10;" width="38" y="806" x="592" />
    <rect id="11443408" height="37" style="&E14;" width="37" y="806" x="592" />
    <text id="11443409" style="&E18;" transform="matrix(1 0 0 1 0 0 ) " x="596" y="808">1</text>
    <rect id="11443411" height="38" style="&E10;" width="38" y="855" x="16" />
    <rect id="11443412" height="37" style="&E12;" width="37" y="855" x="16" />
    <text id="11443413" style="&E18;" transform="matrix(1 0 0 1 0 0 ) " x="20" y="857">4</text>
    <rect id="11443415" height="38" style="&E10;" width="38" y="855" x="68" />
    <rect id="11443416" height="37" style="&E14;" width="37" y="855" x="68" />
    <text id="11443417" style="&E18;" transform="matrix(1 0 0 1 0 0 ) " x="72" y="857">1</text>
    <rect id="11443419" height="38" style="&E10;" width="38" y="855" x="121" />
    <rect id="11443420" height="37" style="&E11;" width="37" y="855" x="121" />
    <text id="11443421" style="&E18;" transform="matrix(1 0 0 1 0 0 ) " x="125" y="857">2</text>
    <rect id="11443423" height="38" style="&E10;" width="38" y="855" x="174" />
    <rect id="11443424" height="37" style="&E14;" width="37" y="855" x="174" />
    <text id="11443425" style="&E18;" transform="matrix(1 0 0 1 0 0 ) " x="178" y="857">1</text>
    <rect id="11443427" height="38" style="&E10;" width="38" y="855" x="225" />
    <rect id="11443428" height="37" style="&E13;" width="37" y="855" x="225" />
    <text id="11443429" style="&E18;" transform="matrix(1 0 0 1 0 0 ) " x="229" y="857">3</text>
    <rect id="11443431" height="38" style="&E10;" width="38" y="855" x="278" />
    <rect id="11443432" height="37" style="&E13;" width="37" y="855" x="278" />
    <text id="11443433" style="&E18;" transform="matrix(1 0 0 1 0 0 ) " x="282" y="857">3</text>
    <rect id="11443435" height="38" style="&E10;" width="38" y="855" x="330" />
    <rect id="11443436" height="37" style="&E12;" width="37" y="855" x="330" />
    <text id="11443437" style="&E18;" transform="matrix(1 0 0 1 0 0 ) " x="334" y="857">4</text>
    <rect id="11443439" height="38" style="&E10;" width="38" y="855" x="383" />
    <rect id="11443440" height="37" style="&E13;" width="37" y="855" x="383" />
    <text id="11443441" style="&E18;" transform="matrix(1 0 0 1 0 0 ) " x="387" y="857">3</text>
    <rect id="11443443" height="38" style="&E10;" width="38" y="855" x="434" />
    <rect id="11443444" height="37" style="&E11;" width="37" y="855" x="434" />
    <text id="11443445" style="&E18;" transform="matrix(1 0 0 1 0 0 ) " x="438" y="857">2</text>
    <rect id="11443447" height="38" style="&E10;" width="38" y="855" x="486" />
    <rect id="11443448" height="37" style="&E11;" width="37" y="855" x="486" />
    <text id="11443449" style="&E18;" transform="matrix(1 0 0 1 0 0 ) " x="490" y="857">2</text>
    <rect id="11443451" height="38" style="&E10;" width="38" y="855" x="538" />
    <rect id="11443452" height="37" style="&E12;" width="37" y="855" x="538" />
    <text id="11443453" style="&E18;" transform="matrix(1 0 0 1 0 0 ) " x="542" y="857">4</text>
    <rect id="11443455" height="38" style="&E10;" width="38" y="855" x="592" />
    <rect id="11443456" height="37" style="&E12;" width="37" y="855" x="592" />
    <text id="11443457" style="&E18;" transform="matrix(1 0 0 1 0 0 ) " x="596" y="857">4</text>
    <rect id="11443459" height="38" style="&E10;" width="38" y="903" x="16" />
    <rect id="11443460" height="37" style="&E11;" width="37" y="903" x="16" />
    <text id="11443461" style="&E18;" transform="matrix(1 0 0 1 0 0 ) " x="20" y="905">2</text>
    <rect id="11443463" height="38" style="&E10;" width="38" y="903" x="68" />
    <rect id="11443464" height="37" style="&E11;" width="37" y="903" x="68" />
    <text id="11443465" style="&E18;" transform="matrix(1 0 0 1 0 0 ) " x="72" y="905">2</text>
  </g>
  <defs id="clips_hatches_and_gradients" />
</svg>