<?xml version="1.0" encoding="utf-8" standalone="yes"?>
<!DOCTYPE svg PUBLIC "-//W3C//DTD SVG 1.1//EN" "http://www.w3.org/Graphics/SVG/1.1/DTD/svg11.dtd"[
	<!ENTITY E8 'stroke:none;opacity:1;fill:rgb(255,0,0);'>
	<!ENTITY E2 'stroke:none;opacity:1;fill:rgb(255,255,255);'>
	<!ENTITY E5 'stroke:rgb(60,182,230);fill:none;stroke-linecap:butt;stroke-miterlimit:9;opacity:1;stroke-width:2;stroke-linejoin:miter;'>
	<!ENTITY E3 'stroke:none;font-family:黑体;fill:rgb(255,0,0);font-size:30pt;baseline-shift:-86&#37;;opacity:1;'>
	<!ENTITY E1 'text-rendering:auto;shape-rendering:auto;'>
	<!ENTITY E7 'stroke:rgb(255,0,0);fill:none;stroke-linecap:butt;stroke-miterlimit:9;opacity:1;stroke-width:2;stroke-linejoin:miter;'>
	<!ENTITY E9 'stroke:none;font-size:50pt;fill:rgb(255,255,255);font-weight:bolder;baseline-shift:-86&#37;;font-family:黑体;opacity:1;'>
	<!ENTITY E6 'stroke:none;font-size:20pt;fill:rgb(0,0,0);font-weight:bolder;baseline-shift:-86&#37;;font-family:黑体;opacity:1;'>
	<!ENTITY E4 'stroke:none;font-family:黑体;fill:rgb(0,0,0);font-size:20pt;baseline-shift:-86&#37;;opacity:1;'>
]>
<svg height="220" width="440" id="SvgGdi_output" xmlns="http://www.w3.org/2000/svg">
  <rect id="background" height="100%" style="fill:rgb(255,255,255);" width="100%" y="0" x="0" />
  <g style="&E1;" id="root_group">
    <g id="11444083_BeginContainer">
      <rect id="11444084" height="200" style="&E2;" width="440" y="0" x="0" />
      <text id="11444085" style="&E3;" transform="matrix(1 0 0 1 0 0 ) " x="10" y="10">开盘结果</text>
      <text id="11444087" style="&E4;" transform="matrix(1 0 0 1 0 0 ) " x="190" y="15">第30877743期</text>
      <text id="11444089" style="&E4;" transform="matrix(1 0 0 1 0 0 ) " x="10" y="87">2021/10/23 18:29:06</text>
      <ellipse id="11444091" cy="172" cx="27" rx="17" ry="17" style="&E5;" />
      <text id="11444092" style="&E6;" transform="matrix(1 0 0 1 0 0 ) " x="10" y="160">11</text>
      <ellipse id="11444094" cy="172" cx="77" rx="17" ry="17" style="&E5;" />
      <text id="11444095" style="&E6;" transform="matrix(1 0 0 1 0 0 ) " x="60" y="160">01</text>
      <ellipse id="11444097" cy="172" cx="127" rx="17" ry="17" style="&E5;" />
      <text id="11444098" style="&E6;" transform="matrix(1 0 0 1 0 0 ) " x="110" y="160">20</text>
      <ellipse id="11444100" cy="172" cx="177" rx="17" ry="17" style="&E5;" />
      <text id="11444101" style="&E6;" transform="matrix(1 0 0 1 0 0 ) " x="160" y="160">15</text>
      <ellipse id="11444103" cy="172" cx="227" rx="17" ry="17" style="&E5;" />
      <text id="11444104" style="&E6;" transform="matrix(1 0 0 1 0 0 ) " x="210" y="160">19</text>
      <ellipse id="11444106" cy="172" cx="277" rx="17" ry="17" style="&E5;" />
      <text id="11444107" style="&E6;" transform="matrix(1 0 0 1 0 0 ) " x="260" y="160">08</text>
      <ellipse id="11444109" cy="172" cx="327" rx="17" ry="17" style="&E5;" />
      <text id="11444110" style="&E6;" transform="matrix(1 0 0 1 0 0 ) " x="310" y="160">05</text>
      <ellipse id="11444112" cy="172" cx="377" rx="17" ry="17" style="&E7;" />
      <text id="11444113" style="&E6;" transform="matrix(1 0 0 1 0 0 ) " x="360" y="160">16</text>
      <rect id="11444115" height="100" style="&E8;" width="120" y="45" x="290" />
      <text id="11444116" style="&E9;" transform="matrix(1 0 0 1 0 0 ) " x="290" y="65">4番</text>
    </g>
  </g>
  <defs id="clips_hatches_and_gradients" />
</svg>