<?xml version="1.0" encoding="utf-8" standalone="yes"?>
<!DOCTYPE svg PUBLIC "-//W3C//DTD SVG 1.1//EN" "http://www.w3.org/Graphics/SVG/1.1/DTD/svg11.dtd"[
	<!ENTITY E11 'stroke:none;opacity:1;fill:rgb(62,198,124);'>
	<!ENTITY E2 'stroke:none;opacity:1;fill:rgb(255,255,255);'>
	<!ENTITY E10 'stroke:rgb(0,0,0);fill:none;stroke-linecap:round;stroke-miterlimit:9;opacity:1;stroke-width:2;stroke-linejoin:round;'>
	<!ENTITY E3 'stroke:none;opacity:1;fill:rgb(60,182,230);'>
	<!ENTITY E18 'stroke:none;font-size:26pt;fill:rgb(255,255,255);font-weight:bolder;baseline-shift:-86&#37;;font-family:微软雅黑;opacity:1;'>
	<!ENTITY E4 'stroke:none;font-size:18pt;fill:rgb(255,255,255);font-weight:bolder;baseline-shift:-86&#37;;font-family:微软雅黑;opacity:1;'>
	<!ENTITY E5 'stroke:none;opacity:1;fill:rgb(250,250,250);'>
	<!ENTITY E14 'stroke:none;opacity:1;fill:rgb(93,150,255);'>
	<!ENTITY E16 'stroke:none;font-size:22pt;fill:rgb(0,0,0);font-weight:bolder;baseline-shift:-86&#37;;font-family:微软雅黑;opacity:1;'>
	<!ENTITY E8 'stroke:rgb(60,182,230);fill:none;stroke-linecap:round;stroke-miterlimit:9;opacity:1;stroke-width:2;stroke-linejoin:round;'>
	<!ENTITY E6 'stroke:rgb(255,0,0);fill:none;stroke-linecap:round;stroke-miterlimit:9;opacity:1;stroke-width:2;stroke-linejoin:round;'>
	<!ENTITY E12 'stroke:none;opacity:1;fill:rgb(255,62,65);'>
	<!ENTITY E9 'stroke:none;font-size:18pt;fill:rgb(102,102,102);font-weight:bolder;baseline-shift:-86&#37;;font-family:微软雅黑;opacity:1;'>
	<!ENTITY E1 'text-rendering:auto;shape-rendering:geometricPrecision;'>
	<!ENTITY E17 'stroke:rgb(128,128,128);fill:none;stroke-linecap:butt;stroke-miterlimit:9;opacity:1;stroke-width:2;stroke-linejoin:miter;'>
	<!ENTITY E15 'stroke:none;opacity:1;fill:rgb(211,211,211);'>
	<!ENTITY E13 'stroke:none;opacity:1;fill:rgb(247,212,0);'>
	<!ENTITY E7 'stroke:none;font-family:微软雅黑;fill:rgb(102,102,102);font-size:16pt;baseline-shift:-86&#37;;opacity:1;'>
]>
<svg height="952" width="655" id="SvgGdi_output" xmlns="http://www.w3.org/2000/svg">
  <rect id="background" height="100%" style="fill:rgb(255,255,255);" width="100%" y="0" x="0" />
  <g style="&E1;" id="root_group">
    <rect id="11441254" height="635" style="&E2;" width="655" y="0" x="0" />
    <rect id="11441255" height="37" style="&E3;" width="655" y="0" x="0" />
    <text id="11441256" style="&E4;" transform="matrix(1 0 0 1 0 0 ) " x="15" y="3">期数</text>
    <text id="11441258" style="&E4;" transform="matrix(1 0 0 1 0 0 ) " x="89" y="3">时间</text>
    <text id="11441260" style="&E4;" transform="matrix(1 0 0 1 0 0 ) " x="373" y="3">结果</text>
    <text id="11441262" style="&E4;" transform="matrix(1 0 0 1 0 0 ) " x="520" y="3">番</text>
    <rect id="11441264" height="37" style="&E5;" width="655" y="38" x="0" />
    <rect id="11441265" height="37" style="&E5;" width="655" y="118" x="0" />
    <rect id="11441266" height="37" style="&E5;" width="655" y="198" x="0" />
    <rect id="11441267" height="37" style="&E5;" width="655" y="278" x="0" />
    <rect id="11441268" height="37" style="&E5;" width="655" y="358" x="0" />
    <rect id="11441269" height="37" style="&E5;" width="655" y="438" x="0" />
    <rect id="11441270" height="37" style="&E5;" width="655" y="518" x="0" />
    <rect id="11441271" height="37" style="&E5;" width="655" y="598" x="0" />
    <rect id="11441272" height="37" style="&E5;" width="655" y="678" x="0" />
    <rect id="11441273" height="37" style="&E5;" width="655" y="758" x="0" />
    <rect id="11441274" height="37" style="&E6;" width="655" y="38" x="0" />
    <text id="11441275" style="&E7;" transform="matrix(1 0 0 1 0 0 ) " x="10" y="45">41</text>
    <text id="11441277" style="&E7;" transform="matrix(1 0 0 1 0 0 ) " x="50" y="45">18:18:40</text>
    <ellipse id="11441279" cy="57" cx="192" rx="17" ry="17" style="&E8;" />
    <text id="11441280" style="&E9;" transform="matrix(1 0 0 1 0 0 ) " x="176" y="43">03</text>
    <ellipse id="11441282" cy="57" cx="232" rx="17" ry="17" style="&E8;" />
    <text id="11441283" style="&E9;" transform="matrix(1 0 0 1 0 0 ) " x="216" y="43">08</text>
    <ellipse id="11441285" cy="57" cx="272" rx="17" ry="17" style="&E8;" />
    <text id="11441286" style="&E9;" transform="matrix(1 0 0 1 0 0 ) " x="256" y="43">19</text>
    <ellipse id="11441288" cy="57" cx="312" rx="17" ry="17" style="&E8;" />
    <text id="11441289" style="&E9;" transform="matrix(1 0 0 1 0 0 ) " x="296" y="43">15</text>
    <ellipse id="11441291" cy="57" cx="352" rx="17" ry="17" style="&E8;" />
    <text id="11441292" style="&E9;" transform="matrix(1 0 0 1 0 0 ) " x="336" y="43">09</text>
    <ellipse id="11441294" cy="57" cx="392" rx="17" ry="17" style="&E8;" />
    <text id="11441295" style="&E9;" transform="matrix(1 0 0 1 0 0 ) " x="376" y="43">07</text>
    <ellipse id="11441297" cy="57" cx="432" rx="17" ry="17" style="&E8;" />
    <text id="11441298" style="&E9;" transform="matrix(1 0 0 1 0 0 ) " x="416" y="43">13</text>
    <ellipse id="11441300" cy="57" cx="472" rx="17" ry="17" style="&E6;" />
    <text id="11441301" style="&E9;" transform="matrix(1 0 0 1 0 0 ) " x="456" y="43">02</text>
    <rect id="11441303" height="36" style="&E10;" width="36" y="40" x="512" />
    <rect id="11441304" height="34" style="&E11;" width="34" y="41" x="513" />
    <text id="11441305" style="&E4;" transform="matrix(1 0 0 1 0 0 ) " x="520" y="45">2</text>
    <text id="11441307" style="&E9;" transform="matrix(1 0 0 1 0 0 ) " x="560" y="45">小</text>
    <text id="11441309" style="&E9;" transform="matrix(1 0 0 1 0 0 ) " x="600" y="45">双</text>
    <text id="11441311" style="&E7;" transform="matrix(1 0 0 1 0 0 ) " x="10" y="85">40</text>
    <text id="11441313" style="&E7;" transform="matrix(1 0 0 1 0 0 ) " x="50" y="85">18:13:40</text>
    <ellipse id="11441315" cy="97" cx="192" rx="17" ry="17" style="&E8;" />
    <text id="11441316" style="&E9;" transform="matrix(1 0 0 1 0 0 ) " x="176" y="83">16</text>
    <ellipse id="11441318" cy="97" cx="232" rx="17" ry="17" style="&E8;" />
    <text id="11441319" style="&E9;" transform="matrix(1 0 0 1 0 0 ) " x="216" y="83">03</text>
    <ellipse id="11441321" cy="97" cx="272" rx="17" ry="17" style="&E8;" />
    <text id="11441322" style="&E9;" transform="matrix(1 0 0 1 0 0 ) " x="256" y="83">07</text>
    <ellipse id="11441324" cy="97" cx="312" rx="17" ry="17" style="&E8;" />
    <text id="11441325" style="&E9;" transform="matrix(1 0 0 1 0 0 ) " x="296" y="83">02</text>
    <ellipse id="11441327" cy="97" cx="352" rx="17" ry="17" style="&E8;" />
    <text id="11441328" style="&E9;" transform="matrix(1 0 0 1 0 0 ) " x="336" y="83">19</text>
    <ellipse id="11441330" cy="97" cx="392" rx="17" ry="17" style="&E8;" />
    <text id="11441331" style="&E9;" transform="matrix(1 0 0 1 0 0 ) " x="376" y="83">17</text>
    <ellipse id="11441333" cy="97" cx="432" rx="17" ry="17" style="&E8;" />
    <text id="11441334" style="&E9;" transform="matrix(1 0 0 1 0 0 ) " x="416" y="83">06</text>
    <ellipse id="11441336" cy="97" cx="472" rx="17" ry="17" style="&E6;" />
    <text id="11441337" style="&E9;" transform="matrix(1 0 0 1 0 0 ) " x="456" y="83">20</text>
    <rect id="11441339" height="36" style="&E10;" width="36" y="80" x="512" />
    <rect id="11441340" height="34" style="&E12;" width="34" y="81" x="513" />
    <text id="11441341" style="&E4;" transform="matrix(1 0 0 1 0 0 ) " x="520" y="85">4</text>
    <text id="11441343" style="&E9;" transform="matrix(1 0 0 1 0 0 ) " x="560" y="85">大</text>
    <text id="11441345" style="&E9;" transform="matrix(1 0 0 1 0 0 ) " x="600" y="85">双</text>
    <text id="11441347" style="&E7;" transform="matrix(1 0 0 1 0 0 ) " x="10" y="125">39</text>
    <text id="11441349" style="&E7;" transform="matrix(1 0 0 1 0 0 ) " x="50" y="125">18:08:40</text>
    <ellipse id="11441351" cy="137" cx="192" rx="17" ry="17" style="&E8;" />
    <text id="11441352" style="&E9;" transform="matrix(1 0 0 1 0 0 ) " x="176" y="123">06</text>
    <ellipse id="11441354" cy="137" cx="232" rx="17" ry="17" style="&E8;" />
    <text id="11441355" style="&E9;" transform="matrix(1 0 0 1 0 0 ) " x="216" y="123">08</text>
    <ellipse id="11441357" cy="137" cx="272" rx="17" ry="17" style="&E8;" />
    <text id="11441358" style="&E9;" transform="matrix(1 0 0 1 0 0 ) " x="256" y="123">10</text>
    <ellipse id="11441360" cy="137" cx="312" rx="17" ry="17" style="&E8;" />
    <text id="11441361" style="&E9;" transform="matrix(1 0 0 1 0 0 ) " x="296" y="123">07</text>
    <ellipse id="11441363" cy="137" cx="352" rx="17" ry="17" style="&E8;" />
    <text id="11441364" style="&E9;" transform="matrix(1 0 0 1 0 0 ) " x="336" y="123">05</text>
    <ellipse id="11441366" cy="137" cx="392" rx="17" ry="17" style="&E8;" />
    <text id="11441367" style="&E9;" transform="matrix(1 0 0 1 0 0 ) " x="376" y="123">20</text>
    <ellipse id="11441369" cy="137" cx="432" rx="17" ry="17" style="&E8;" />
    <text id="11441370" style="&E9;" transform="matrix(1 0 0 1 0 0 ) " x="416" y="123">14</text>
    <ellipse id="11441372" cy="137" cx="472" rx="17" ry="17" style="&E6;" />
    <text id="11441373" style="&E9;" transform="matrix(1 0 0 1 0 0 ) " x="456" y="123">16</text>
    <rect id="11441375" height="36" style="&E10;" width="36" y="120" x="512" />
    <rect id="11441376" height="34" style="&E12;" width="34" y="121" x="513" />
    <text id="11441377" style="&E4;" transform="matrix(1 0 0 1 0 0 ) " x="520" y="125">4</text>
    <text id="11441379" style="&E9;" transform="matrix(1 0 0 1 0 0 ) " x="560" y="125">大</text>
    <text id="11441381" style="&E9;" transform="matrix(1 0 0 1 0 0 ) " x="600" y="125">双</text>
    <text id="11441383" style="&E7;" transform="matrix(1 0 0 1 0 0 ) " x="10" y="165">38</text>
    <text id="11441385" style="&E7;" transform="matrix(1 0 0 1 0 0 ) " x="50" y="165">18:03:40</text>
    <ellipse id="11441387" cy="177" cx="192" rx="17" ry="17" style="&E8;" />
    <text id="11441388" style="&E9;" transform="matrix(1 0 0 1 0 0 ) " x="176" y="163">06</text>
    <ellipse id="11441390" cy="177" cx="232" rx="17" ry="17" style="&E8;" />
    <text id="11441391" style="&E9;" transform="matrix(1 0 0 1 0 0 ) " x="216" y="163">15</text>
    <ellipse id="11441393" cy="177" cx="272" rx="17" ry="17" style="&E8;" />
    <text id="11441394" style="&E9;" transform="matrix(1 0 0 1 0 0 ) " x="256" y="163">10</text>
    <ellipse id="11441396" cy="177" cx="312" rx="17" ry="17" style="&E8;" />
    <text id="11441397" style="&E9;" transform="matrix(1 0 0 1 0 0 ) " x="296" y="163">03</text>
    <ellipse id="11441399" cy="177" cx="352" rx="17" ry="17" style="&E8;" />
    <text id="11441400" style="&E9;" transform="matrix(1 0 0 1 0 0 ) " x="336" y="163">07</text>
    <ellipse id="11441402" cy="177" cx="392" rx="17" ry="17" style="&E8;" />
    <text id="11441403" style="&E9;" transform="matrix(1 0 0 1 0 0 ) " x="376" y="163">18</text>
    <ellipse id="11441405" cy="177" cx="432" rx="17" ry="17" style="&E8;" />
    <text id="11441406" style="&E9;" transform="matrix(1 0 0 1 0 0 ) " x="416" y="163">08</text>
    <ellipse id="11441408" cy="177" cx="472" rx="17" ry="17" style="&E6;" />
    <text id="11441409" style="&E9;" transform="matrix(1 0 0 1 0 0 ) " x="456" y="163">02</text>
    <rect id="11441411" height="36" style="&E10;" width="36" y="160" x="512" />
    <rect id="11441412" height="34" style="&E11;" width="34" y="161" x="513" />
    <text id="11441413" style="&E4;" transform="matrix(1 0 0 1 0 0 ) " x="520" y="165">2</text>
    <text id="11441415" style="&E9;" transform="matrix(1 0 0 1 0 0 ) " x="560" y="165">小</text>
    <text id="11441417" style="&E9;" transform="matrix(1 0 0 1 0 0 ) " x="600" y="165">双</text>
    <text id="11441419" style="&E7;" transform="matrix(1 0 0 1 0 0 ) " x="10" y="205">37</text>
    <text id="11441421" style="&E7;" transform="matrix(1 0 0 1 0 0 ) " x="50" y="205">17:58:40</text>
    <ellipse id="11441423" cy="217" cx="192" rx="17" ry="17" style="&E8;" />
    <text id="11441424" style="&E9;" transform="matrix(1 0 0 1 0 0 ) " x="176" y="203">18</text>
    <ellipse id="11441426" cy="217" cx="232" rx="17" ry="17" style="&E8;" />
    <text id="11441427" style="&E9;" transform="matrix(1 0 0 1 0 0 ) " x="216" y="203">10</text>
    <ellipse id="11441429" cy="217" cx="272" rx="17" ry="17" style="&E8;" />
    <text id="11441430" style="&E9;" transform="matrix(1 0 0 1 0 0 ) " x="256" y="203">19</text>
    <ellipse id="11441432" cy="217" cx="312" rx="17" ry="17" style="&E8;" />
    <text id="11441433" style="&E9;" transform="matrix(1 0 0 1 0 0 ) " x="296" y="203">13</text>
    <ellipse id="11441435" cy="217" cx="352" rx="17" ry="17" style="&E8;" />
    <text id="11441436" style="&E9;" transform="matrix(1 0 0 1 0 0 ) " x="336" y="203">05</text>
    <ellipse id="11441438" cy="217" cx="392" rx="17" ry="17" style="&E8;" />
    <text id="11441439" style="&E9;" transform="matrix(1 0 0 1 0 0 ) " x="376" y="203">08</text>
    <ellipse id="11441441" cy="217" cx="432" rx="17" ry="17" style="&E8;" />
    <text id="11441442" style="&E9;" transform="matrix(1 0 0 1 0 0 ) " x="416" y="203">01</text>
    <ellipse id="11441444" cy="217" cx="472" rx="17" ry="17" style="&E6;" />
    <text id="11441445" style="&E9;" transform="matrix(1 0 0 1 0 0 ) " x="456" y="203">06</text>
    <rect id="11441447" height="36" style="&E10;" width="36" y="200" x="512" />
    <rect id="11441448" height="34" style="&E11;" width="34" y="201" x="513" />
    <text id="11441449" style="&E4;" transform="matrix(1 0 0 1 0 0 ) " x="520" y="205">2</text>
    <text id="11441451" style="&E9;" transform="matrix(1 0 0 1 0 0 ) " x="560" y="205">小</text>
    <text id="11441453" style="&E9;" transform="matrix(1 0 0 1 0 0 ) " x="600" y="205">双</text>
    <text id="11441455" style="&E7;" transform="matrix(1 0 0 1 0 0 ) " x="10" y="245">36</text>
    <text id="11441457" style="&E7;" transform="matrix(1 0 0 1 0 0 ) " x="50" y="245">17:53:40</text>
    <ellipse id="11441459" cy="257" cx="192" rx="17" ry="17" style="&E8;" />
    <text id="11441460" style="&E9;" transform="matrix(1 0 0 1 0 0 ) " x="176" y="243">15</text>
    <ellipse id="11441462" cy="257" cx="232" rx="17" ry="17" style="&E8;" />
    <text id="11441463" style="&E9;" transform="matrix(1 0 0 1 0 0 ) " x="216" y="243">17</text>
    <ellipse id="11441465" cy="257" cx="272" rx="17" ry="17" style="&E8;" />
    <text id="11441466" style="&E9;" transform="matrix(1 0 0 1 0 0 ) " x="256" y="243">20</text>
    <ellipse id="11441468" cy="257" cx="312" rx="17" ry="17" style="&E8;" />
    <text id="11441469" style="&E9;" transform="matrix(1 0 0 1 0 0 ) " x="296" y="243">06</text>
    <ellipse id="11441471" cy="257" cx="352" rx="17" ry="17" style="&E8;" />
    <text id="11441472" style="&E9;" transform="matrix(1 0 0 1 0 0 ) " x="336" y="243">04</text>
    <ellipse id="11441474" cy="257" cx="392" rx="17" ry="17" style="&E8;" />
    <text id="11441475" style="&E9;" transform="matrix(1 0 0 1 0 0 ) " x="376" y="243">03</text>
    <ellipse id="11441477" cy="257" cx="432" rx="17" ry="17" style="&E8;" />
    <text id="11441478" style="&E9;" transform="matrix(1 0 0 1 0 0 ) " x="416" y="243">08</text>
    <ellipse id="11441480" cy="257" cx="472" rx="17" ry="17" style="&E6;" />
    <text id="11441481" style="&E9;" transform="matrix(1 0 0 1 0 0 ) " x="456" y="243">07</text>
    <rect id="11441483" height="36" style="&E10;" width="36" y="240" x="512" />
    <rect id="11441484" height="34" style="&E13;" width="34" y="241" x="513" />
    <text id="11441485" style="&E4;" transform="matrix(1 0 0 1 0 0 ) " x="520" y="245">3</text>
    <text id="11441487" style="&E9;" transform="matrix(1 0 0 1 0 0 ) " x="560" y="245">小</text>
    <text id="11441489" style="&E9;" transform="matrix(1 0 0 1 0 0 ) " x="600" y="245">单</text>
    <text id="11441491" style="&E7;" transform="matrix(1 0 0 1 0 0 ) " x="10" y="285">35</text>
    <text id="11441493" style="&E7;" transform="matrix(1 0 0 1 0 0 ) " x="50" y="285">17:48:40</text>
    <ellipse id="11441495" cy="297" cx="192" rx="17" ry="17" style="&E8;" />
    <text id="11441496" style="&E9;" transform="matrix(1 0 0 1 0 0 ) " x="176" y="283">01</text>
    <ellipse id="11441498" cy="297" cx="232" rx="17" ry="17" style="&E8;" />
    <text id="11441499" style="&E9;" transform="matrix(1 0 0 1 0 0 ) " x="216" y="283">02</text>
    <ellipse id="11441501" cy="297" cx="272" rx="17" ry="17" style="&E8;" />
    <text id="11441502" style="&E9;" transform="matrix(1 0 0 1 0 0 ) " x="256" y="283">06</text>
    <ellipse id="11441504" cy="297" cx="312" rx="17" ry="17" style="&E8;" />
    <text id="11441505" style="&E9;" transform="matrix(1 0 0 1 0 0 ) " x="296" y="283">09</text>
    <ellipse id="11441507" cy="297" cx="352" rx="17" ry="17" style="&E8;" />
    <text id="11441508" style="&E9;" transform="matrix(1 0 0 1 0 0 ) " x="336" y="283">05</text>
    <ellipse id="11441510" cy="297" cx="392" rx="17" ry="17" style="&E8;" />
    <text id="11441511" style="&E9;" transform="matrix(1 0 0 1 0 0 ) " x="376" y="283">03</text>
    <ellipse id="11441513" cy="297" cx="432" rx="17" ry="17" style="&E8;" />
    <text id="11441514" style="&E9;" transform="matrix(1 0 0 1 0 0 ) " x="416" y="283">17</text>
    <ellipse id="11441516" cy="297" cx="472" rx="17" ry="17" style="&E6;" />
    <text id="11441517" style="&E9;" transform="matrix(1 0 0 1 0 0 ) " x="456" y="283">20</text>
    <rect id="11441519" height="36" style="&E10;" width="36" y="280" x="512" />
    <rect id="11441520" height="34" style="&E12;" width="34" y="281" x="513" />
    <text id="11441521" style="&E4;" transform="matrix(1 0 0 1 0 0 ) " x="520" y="285">4</text>
    <text id="11441523" style="&E9;" transform="matrix(1 0 0 1 0 0 ) " x="560" y="285">大</text>
    <text id="11441525" style="&E9;" transform="matrix(1 0 0 1 0 0 ) " x="600" y="285">双</text>
    <text id="11441527" style="&E7;" transform="matrix(1 0 0 1 0 0 ) " x="10" y="325">34</text>
    <text id="11441529" style="&E7;" transform="matrix(1 0 0 1 0 0 ) " x="50" y="325">17:43:40</text>
    <ellipse id="11441531" cy="337" cx="192" rx="17" ry="17" style="&E8;" />
    <text id="11441532" style="&E9;" transform="matrix(1 0 0 1 0 0 ) " x="176" y="323">15</text>
    <ellipse id="11441534" cy="337" cx="232" rx="17" ry="17" style="&E8;" />
    <text id="11441535" style="&E9;" transform="matrix(1 0 0 1 0 0 ) " x="216" y="323">03</text>
    <ellipse id="11441537" cy="337" cx="272" rx="17" ry="17" style="&E8;" />
    <text id="11441538" style="&E9;" transform="matrix(1 0 0 1 0 0 ) " x="256" y="323">18</text>
    <ellipse id="11441540" cy="337" cx="312" rx="17" ry="17" style="&E8;" />
    <text id="11441541" style="&E9;" transform="matrix(1 0 0 1 0 0 ) " x="296" y="323">12</text>
    <ellipse id="11441543" cy="337" cx="352" rx="17" ry="17" style="&E8;" />
    <text id="11441544" style="&E9;" transform="matrix(1 0 0 1 0 0 ) " x="336" y="323">20</text>
    <ellipse id="11441546" cy="337" cx="392" rx="17" ry="17" style="&E8;" />
    <text id="11441547" style="&E9;" transform="matrix(1 0 0 1 0 0 ) " x="376" y="323">09</text>
    <ellipse id="11441549" cy="337" cx="432" rx="17" ry="17" style="&E8;" />
    <text id="11441550" style="&E9;" transform="matrix(1 0 0 1 0 0 ) " x="416" y="323">17</text>
    <ellipse id="11441552" cy="337" cx="472" rx="17" ry="17" style="&E6;" />
    <text id="11441553" style="&E9;" transform="matrix(1 0 0 1 0 0 ) " x="456" y="323">19</text>
    <rect id="11441555" height="36" style="&E10;" width="36" y="320" x="512" />
    <rect id="11441556" height="34" style="&E13;" width="34" y="321" x="513" />
    <text id="11441557" style="&E4;" transform="matrix(1 0 0 1 0 0 ) " x="520" y="325">3</text>
    <text id="11441559" style="&E9;" transform="matrix(1 0 0 1 0 0 ) " x="560" y="325">大</text>
    <text id="11441561" style="&E9;" transform="matrix(1 0 0 1 0 0 ) " x="600" y="325">单</text>
    <text id="11441563" style="&E7;" transform="matrix(1 0 0 1 0 0 ) " x="10" y="365">33</text>
    <text id="11441565" style="&E7;" transform="matrix(1 0 0 1 0 0 ) " x="50" y="365">17:38:40</text>
    <ellipse id="11441567" cy="377" cx="192" rx="17" ry="17" style="&E8;" />
    <text id="11441568" style="&E9;" transform="matrix(1 0 0 1 0 0 ) " x="176" y="363">10</text>
    <ellipse id="11441570" cy="377" cx="232" rx="17" ry="17" style="&E8;" />
    <text id="11441571" style="&E9;" transform="matrix(1 0 0 1 0 0 ) " x="216" y="363">05</text>
    <ellipse id="11441573" cy="377" cx="272" rx="17" ry="17" style="&E8;" />
    <text id="11441574" style="&E9;" transform="matrix(1 0 0 1 0 0 ) " x="256" y="363">06</text>
    <ellipse id="11441576" cy="377" cx="312" rx="17" ry="17" style="&E8;" />
    <text id="11441577" style="&E9;" transform="matrix(1 0 0 1 0 0 ) " x="296" y="363">13</text>
    <ellipse id="11441579" cy="377" cx="352" rx="17" ry="17" style="&E8;" />
    <text id="11441580" style="&E9;" transform="matrix(1 0 0 1 0 0 ) " x="336" y="363">08</text>
    <ellipse id="11441582" cy="377" cx="392" rx="17" ry="17" style="&E8;" />
    <text id="11441583" style="&E9;" transform="matrix(1 0 0 1 0 0 ) " x="376" y="363">04</text>
    <ellipse id="11441585" cy="377" cx="432" rx="17" ry="17" style="&E8;" />
    <text id="11441586" style="&E9;" transform="matrix(1 0 0 1 0 0 ) " x="416" y="363">09</text>
    <ellipse id="11441588" cy="377" cx="472" rx="17" ry="17" style="&E6;" />
    <text id="11441589" style="&E9;" transform="matrix(1 0 0 1 0 0 ) " x="456" y="363">19</text>
    <rect id="11441591" height="36" style="&E10;" width="36" y="360" x="512" />
    <rect id="11441592" height="34" style="&E13;" width="34" y="361" x="513" />
    <text id="11441593" style="&E4;" transform="matrix(1 0 0 1 0 0 ) " x="520" y="365">3</text>
    <text id="11441595" style="&E9;" transform="matrix(1 0 0 1 0 0 ) " x="560" y="365">大</text>
    <text id="11441597" style="&E9;" transform="matrix(1 0 0 1 0 0 ) " x="600" y="365">单</text>
    <text id="11441599" style="&E7;" transform="matrix(1 0 0 1 0 0 ) " x="10" y="405">32</text>
    <text id="11441601" style="&E7;" transform="matrix(1 0 0 1 0 0 ) " x="50" y="405">17:33:40</text>
    <ellipse id="11441603" cy="417" cx="192" rx="17" ry="17" style="&E8;" />
    <text id="11441604" style="&E9;" transform="matrix(1 0 0 1 0 0 ) " x="176" y="403">19</text>
    <ellipse id="11441606" cy="417" cx="232" rx="17" ry="17" style="&E8;" />
    <text id="11441607" style="&E9;" transform="matrix(1 0 0 1 0 0 ) " x="216" y="403">16</text>
    <ellipse id="11441609" cy="417" cx="272" rx="17" ry="17" style="&E8;" />
    <text id="11441610" style="&E9;" transform="matrix(1 0 0 1 0 0 ) " x="256" y="403">09</text>
    <ellipse id="11441612" cy="417" cx="312" rx="17" ry="17" style="&E8;" />
    <text id="11441613" style="&E9;" transform="matrix(1 0 0 1 0 0 ) " x="296" y="403">02</text>
    <ellipse id="11441615" cy="417" cx="352" rx="17" ry="17" style="&E8;" />
    <text id="11441616" style="&E9;" transform="matrix(1 0 0 1 0 0 ) " x="336" y="403">08</text>
    <ellipse id="11441618" cy="417" cx="392" rx="17" ry="17" style="&E8;" />
    <text id="11441619" style="&E9;" transform="matrix(1 0 0 1 0 0 ) " x="376" y="403">14</text>
    <ellipse id="11441621" cy="417" cx="432" rx="17" ry="17" style="&E8;" />
    <text id="11441622" style="&E9;" transform="matrix(1 0 0 1 0 0 ) " x="416" y="403">06</text>
    <ellipse id="11441624" cy="417" cx="472" rx="17" ry="17" style="&E6;" />
    <text id="11441625" style="&E9;" transform="matrix(1 0 0 1 0 0 ) " x="456" y="403">17</text>
    <rect id="11441627" height="36" style="&E10;" width="36" y="400" x="512" />
    <rect id="11441628" height="34" style="&E14;" width="34" y="401" x="513" />
    <text id="11441629" style="&E4;" transform="matrix(1 0 0 1 0 0 ) " x="520" y="405">1</text>
    <text id="11441631" style="&E9;" transform="matrix(1 0 0 1 0 0 ) " x="560" y="405">大</text>
    <text id="11441633" style="&E9;" transform="matrix(1 0 0 1 0 0 ) " x="600" y="405">单</text>
    <text id="11441635" style="&E7;" transform="matrix(1 0 0 1 0 0 ) " x="10" y="445">31</text>
    <text id="11441637" style="&E7;" transform="matrix(1 0 0 1 0 0 ) " x="50" y="445">17:28:40</text>
    <ellipse id="11441639" cy="457" cx="192" rx="17" ry="17" style="&E8;" />
    <text id="11441640" style="&E9;" transform="matrix(1 0 0 1 0 0 ) " x="176" y="443">17</text>
    <ellipse id="11441642" cy="457" cx="232" rx="17" ry="17" style="&E8;" />
    <text id="11441643" style="&E9;" transform="matrix(1 0 0 1 0 0 ) " x="216" y="443">11</text>
    <ellipse id="11441645" cy="457" cx="272" rx="17" ry="17" style="&E8;" />
    <text id="11441646" style="&E9;" transform="matrix(1 0 0 1 0 0 ) " x="256" y="443">16</text>
    <ellipse id="11441648" cy="457" cx="312" rx="17" ry="17" style="&E8;" />
    <text id="11441649" style="&E9;" transform="matrix(1 0 0 1 0 0 ) " x="296" y="443">05</text>
    <ellipse id="11441651" cy="457" cx="352" rx="17" ry="17" style="&E8;" />
    <text id="11441652" style="&E9;" transform="matrix(1 0 0 1 0 0 ) " x="336" y="443">08</text>
    <ellipse id="11441654" cy="457" cx="392" rx="17" ry="17" style="&E8;" />
    <text id="11441655" style="&E9;" transform="matrix(1 0 0 1 0 0 ) " x="376" y="443">06</text>
    <ellipse id="11441657" cy="457" cx="432" rx="17" ry="17" style="&E8;" />
    <text id="11441658" style="&E9;" transform="matrix(1 0 0 1 0 0 ) " x="416" y="443">10</text>
    <ellipse id="11441660" cy="457" cx="472" rx="17" ry="17" style="&E6;" />
    <text id="11441661" style="&E9;" transform="matrix(1 0 0 1 0 0 ) " x="456" y="443">18</text>
    <rect id="11441663" height="36" style="&E10;" width="36" y="440" x="512" />
    <rect id="11441664" height="34" style="&E11;" width="34" y="441" x="513" />
    <text id="11441665" style="&E4;" transform="matrix(1 0 0 1 0 0 ) " x="520" y="445">2</text>
    <text id="11441667" style="&E9;" transform="matrix(1 0 0 1 0 0 ) " x="560" y="445">大</text>
    <text id="11441669" style="&E9;" transform="matrix(1 0 0 1 0 0 ) " x="600" y="445">双</text>
    <text id="11441671" style="&E7;" transform="matrix(1 0 0 1 0 0 ) " x="10" y="485">30</text>
    <text id="11441673" style="&E7;" transform="matrix(1 0 0 1 0 0 ) " x="50" y="485">17:23:40</text>
    <ellipse id="11441675" cy="497" cx="192" rx="17" ry="17" style="&E8;" />
    <text id="11441676" style="&E9;" transform="matrix(1 0 0 1 0 0 ) " x="176" y="483">07</text>
    <ellipse id="11441678" cy="497" cx="232" rx="17" ry="17" style="&E8;" />
    <text id="11441679" style="&E9;" transform="matrix(1 0 0 1 0 0 ) " x="216" y="483">16</text>
    <ellipse id="11441681" cy="497" cx="272" rx="17" ry="17" style="&E8;" />
    <text id="11441682" style="&E9;" transform="matrix(1 0 0 1 0 0 ) " x="256" y="483">08</text>
    <ellipse id="11441684" cy="497" cx="312" rx="17" ry="17" style="&E8;" />
    <text id="11441685" style="&E9;" transform="matrix(1 0 0 1 0 0 ) " x="296" y="483">05</text>
    <ellipse id="11441687" cy="497" cx="352" rx="17" ry="17" style="&E8;" />
    <text id="11441688" style="&E9;" transform="matrix(1 0 0 1 0 0 ) " x="336" y="483">02</text>
    <ellipse id="11441690" cy="497" cx="392" rx="17" ry="17" style="&E8;" />
    <text id="11441691" style="&E9;" transform="matrix(1 0 0 1 0 0 ) " x="376" y="483">15</text>
    <ellipse id="11441693" cy="497" cx="432" rx="17" ry="17" style="&E8;" />
    <text id="11441694" style="&E9;" transform="matrix(1 0 0 1 0 0 ) " x="416" y="483">18</text>
    <ellipse id="11441696" cy="497" cx="472" rx="17" ry="17" style="&E6;" />
    <text id="11441697" style="&E9;" transform="matrix(1 0 0 1 0 0 ) " x="456" y="483">13</text>
    <rect id="11441699" height="36" style="&E10;" width="36" y="480" x="512" />
    <rect id="11441700" height="34" style="&E14;" width="34" y="481" x="513" />
    <text id="11441701" style="&E4;" transform="matrix(1 0 0 1 0 0 ) " x="520" y="485">1</text>
    <text id="11441703" style="&E9;" transform="matrix(1 0 0 1 0 0 ) " x="560" y="485">大</text>
    <text id="11441705" style="&E9;" transform="matrix(1 0 0 1 0 0 ) " x="600" y="485">单</text>
    <text id="11441707" style="&E7;" transform="matrix(1 0 0 1 0 0 ) " x="10" y="525">29</text>
    <text id="11441709" style="&E7;" transform="matrix(1 0 0 1 0 0 ) " x="50" y="525">17:18:40</text>
    <ellipse id="11441711" cy="537" cx="192" rx="17" ry="17" style="&E8;" />
    <text id="11441712" style="&E9;" transform="matrix(1 0 0 1 0 0 ) " x="176" y="523">15</text>
    <ellipse id="11441714" cy="537" cx="232" rx="17" ry="17" style="&E8;" />
    <text id="11441715" style="&E9;" transform="matrix(1 0 0 1 0 0 ) " x="216" y="523">04</text>
    <ellipse id="11441717" cy="537" cx="272" rx="17" ry="17" style="&E8;" />
    <text id="11441718" style="&E9;" transform="matrix(1 0 0 1 0 0 ) " x="256" y="523">03</text>
    <ellipse id="11441720" cy="537" cx="312" rx="17" ry="17" style="&E8;" />
    <text id="11441721" style="&E9;" transform="matrix(1 0 0 1 0 0 ) " x="296" y="523">09</text>
    <ellipse id="11441723" cy="537" cx="352" rx="17" ry="17" style="&E8;" />
    <text id="11441724" style="&E9;" transform="matrix(1 0 0 1 0 0 ) " x="336" y="523">17</text>
    <ellipse id="11441726" cy="537" cx="392" rx="17" ry="17" style="&E8;" />
    <text id="11441727" style="&E9;" transform="matrix(1 0 0 1 0 0 ) " x="376" y="523">11</text>
    <ellipse id="11441729" cy="537" cx="432" rx="17" ry="17" style="&E8;" />
    <text id="11441730" style="&E9;" transform="matrix(1 0 0 1 0 0 ) " x="416" y="523">02</text>
    <ellipse id="11441732" cy="537" cx="472" rx="17" ry="17" style="&E6;" />
    <text id="11441733" style="&E9;" transform="matrix(1 0 0 1 0 0 ) " x="456" y="523">12</text>
    <rect id="11441735" height="36" style="&E10;" width="36" y="520" x="512" />
    <rect id="11441736" height="34" style="&E12;" width="34" y="521" x="513" />
    <text id="11441737" style="&E4;" transform="matrix(1 0 0 1 0 0 ) " x="520" y="525">4</text>
    <text id="11441739" style="&E9;" transform="matrix(1 0 0 1 0 0 ) " x="560" y="525">大</text>
    <text id="11441741" style="&E9;" transform="matrix(1 0 0 1 0 0 ) " x="600" y="525">双</text>
    <text id="11441743" style="&E7;" transform="matrix(1 0 0 1 0 0 ) " x="10" y="565">28</text>
    <text id="11441745" style="&E7;" transform="matrix(1 0 0 1 0 0 ) " x="50" y="565">17:13:40</text>
    <ellipse id="11441747" cy="577" cx="192" rx="17" ry="17" style="&E8;" />
    <text id="11441748" style="&E9;" transform="matrix(1 0 0 1 0 0 ) " x="176" y="563">19</text>
    <ellipse id="11441750" cy="577" cx="232" rx="17" ry="17" style="&E8;" />
    <text id="11441751" style="&E9;" transform="matrix(1 0 0 1 0 0 ) " x="216" y="563">05</text>
    <ellipse id="11441753" cy="577" cx="272" rx="17" ry="17" style="&E8;" />
    <text id="11441754" style="&E9;" transform="matrix(1 0 0 1 0 0 ) " x="256" y="563">06</text>
    <ellipse id="11441756" cy="577" cx="312" rx="17" ry="17" style="&E8;" />
    <text id="11441757" style="&E9;" transform="matrix(1 0 0 1 0 0 ) " x="296" y="563">12</text>
    <ellipse id="11441759" cy="577" cx="352" rx="17" ry="17" style="&E8;" />
    <text id="11441760" style="&E9;" transform="matrix(1 0 0 1 0 0 ) " x="336" y="563">10</text>
    <ellipse id="11441762" cy="577" cx="392" rx="17" ry="17" style="&E8;" />
    <text id="11441763" style="&E9;" transform="matrix(1 0 0 1 0 0 ) " x="376" y="563">20</text>
    <ellipse id="11441765" cy="577" cx="432" rx="17" ry="17" style="&E8;" />
    <text id="11441766" style="&E9;" transform="matrix(1 0 0 1 0 0 ) " x="416" y="563">16</text>
    <ellipse id="11441768" cy="577" cx="472" rx="17" ry="17" style="&E6;" />
    <text id="11441769" style="&E9;" transform="matrix(1 0 0 1 0 0 ) " x="456" y="563">17</text>
    <rect id="11441771" height="36" style="&E10;" width="36" y="560" x="512" />
    <rect id="11441772" height="34" style="&E14;" width="34" y="561" x="513" />
    <text id="11441773" style="&E4;" transform="matrix(1 0 0 1 0 0 ) " x="520" y="565">1</text>
    <text id="11441775" style="&E9;" transform="matrix(1 0 0 1 0 0 ) " x="560" y="565">大</text>
    <text id="11441777" style="&E9;" transform="matrix(1 0 0 1 0 0 ) " x="600" y="565">单</text>
    <text id="11441779" style="&E7;" transform="matrix(1 0 0 1 0 0 ) " x="10" y="605">27</text>
    <text id="11441781" style="&E7;" transform="matrix(1 0 0 1 0 0 ) " x="50" y="605">17:08:40</text>
    <ellipse id="11441783" cy="617" cx="192" rx="17" ry="17" style="&E8;" />
    <text id="11441784" style="&E9;" transform="matrix(1 0 0 1 0 0 ) " x="176" y="603">12</text>
    <ellipse id="11441786" cy="617" cx="232" rx="17" ry="17" style="&E8;" />
    <text id="11441787" style="&E9;" transform="matrix(1 0 0 1 0 0 ) " x="216" y="603">08</text>
    <ellipse id="11441789" cy="617" cx="272" rx="17" ry="17" style="&E8;" />
    <text id="11441790" style="&E9;" transform="matrix(1 0 0 1 0 0 ) " x="256" y="603">09</text>
    <ellipse id="11441792" cy="617" cx="312" rx="17" ry="17" style="&E8;" />
    <text id="11441793" style="&E9;" transform="matrix(1 0 0 1 0 0 ) " x="296" y="603">17</text>
    <ellipse id="11441795" cy="617" cx="352" rx="17" ry="17" style="&E8;" />
    <text id="11441796" style="&E9;" transform="matrix(1 0 0 1 0 0 ) " x="336" y="603">07</text>
    <ellipse id="11441798" cy="617" cx="392" rx="17" ry="17" style="&E8;" />
    <text id="11441799" style="&E9;" transform="matrix(1 0 0 1 0 0 ) " x="376" y="603">05</text>
    <ellipse id="11441801" cy="617" cx="432" rx="17" ry="17" style="&E8;" />
    <text id="11441802" style="&E9;" transform="matrix(1 0 0 1 0 0 ) " x="416" y="603">18</text>
    <ellipse id="11441804" cy="617" cx="472" rx="17" ry="17" style="&E6;" />
    <text id="11441805" style="&E9;" transform="matrix(1 0 0 1 0 0 ) " x="456" y="603">15</text>
    <rect id="11441807" height="36" style="&E10;" width="36" y="600" x="512" />
    <rect id="11441808" height="34" style="&E13;" width="34" y="601" x="513" />
    <text id="11441809" style="&E4;" transform="matrix(1 0 0 1 0 0 ) " x="520" y="605">3</text>
    <text id="11441811" style="&E9;" transform="matrix(1 0 0 1 0 0 ) " x="560" y="605">大</text>
    <text id="11441813" style="&E9;" transform="matrix(1 0 0 1 0 0 ) " x="600" y="605">单</text>
    <rect id="11441815" height="46" style="&E15;" width="627" y="656" x="10" />
    <text id="11441816" style="&E16;" transform="matrix(1 0 0 1 0 0 ) " x="229" y="666">路</text>
    <text id="11441818" style="&E16;" transform="matrix(1 0 0 1 0 0 ) " x="280" y="666">字</text>
    <text id="11441820" style="&E16;" transform="matrix(1 0 0 1 0 0 ) " x="332" y="666">图</text>
    <line y1="656" style="&E17;" id="11441822" x2="637" y2="656" x1="10" />
    <line y1="702" style="&E17;" id="11441823" x2="637" y2="702" x1="10" />
    <line y1="753" style="&E17;" id="11441824" x2="637" y2="753" x1="10" />
    <line y1="802" style="&E17;" id="11441825" x2="637" y2="802" x1="10" />
    <line y1="851" style="&E17;" id="11441826" x2="637" y2="851" x1="10" />
    <line y1="900" style="&E17;" id="11441827" x2="637" y2="900" x1="10" />
    <line y1="945" style="&E17;" id="11441828" x2="637" y2="945" x1="10" />
    <line y1="656" style="&E17;" id="11441829" x2="10" y2="945" x1="10" />
    <line y1="656" style="&E17;" id="11441830" x2="60" y2="945" x1="60" />
    <line y1="656" style="&E17;" id="11441831" x2="115" y2="945" x1="115" />
    <line y1="656" style="&E17;" id="11441832" x2="166" y2="945" x1="166" />
    <line y1="656" style="&E17;" id="11441833" x2="219" y2="945" x1="219" />
    <line y1="656" style="&E17;" id="11441834" x2="270" y2="945" x1="270" />
    <line y1="656" style="&E17;" id="11441835" x2="323" y2="945" x1="323" />
    <line y1="656" style="&E17;" id="11441836" x2="375" y2="945" x1="375" />
    <line y1="656" style="&E17;" id="11441837" x2="427" y2="945" x1="427" />
    <line y1="656" style="&E17;" id="11441838" x2="480" y2="945" x1="480" />
    <line y1="656" style="&E17;" id="11441839" x2="531" y2="945" x1="531" />
    <line y1="656" style="&E17;" id="11441840" x2="584" y2="945" x1="584" />
    <line y1="656" style="&E17;" id="11441841" x2="636" y2="945" x1="636" />
    <rect id="11441842" height="38" style="&E10;" width="38" y="708" x="16" />
    <rect id="11441843" height="37" style="&E13;" width="37" y="708" x="16" />
    <text id="11441844" style="&E18;" transform="matrix(1 0 0 1 0 0 ) " x="20" y="710">3</text>
    <rect id="11441846" height="38" style="&E10;" width="38" y="708" x="68" />
    <rect id="11441847" height="37" style="&E13;" width="37" y="708" x="68" />
    <text id="11441848" style="&E18;" transform="matrix(1 0 0 1 0 0 ) " x="72" y="710">3</text>
    <rect id="11441850" height="38" style="&E10;" width="38" y="708" x="121" />
    <rect id="11441851" height="37" style="&E12;" width="37" y="708" x="121" />
    <text id="11441852" style="&E18;" transform="matrix(1 0 0 1 0 0 ) " x="125" y="710">4</text>
    <rect id="11441854" height="38" style="&E10;" width="38" y="708" x="174" />
    <rect id="11441855" height="37" style="&E14;" width="37" y="708" x="174" />
    <text id="11441856" style="&E18;" transform="matrix(1 0 0 1 0 0 ) " x="178" y="710">1</text>
    <rect id="11441858" height="38" style="&E10;" width="38" y="708" x="225" />
    <rect id="11441859" height="37" style="&E11;" width="37" y="708" x="225" />
    <text id="11441860" style="&E18;" transform="matrix(1 0 0 1 0 0 ) " x="229" y="710">2</text>
    <rect id="11441862" height="38" style="&E10;" width="38" y="708" x="278" />
    <rect id="11441863" height="37" style="&E12;" width="37" y="708" x="278" />
    <text id="11441864" style="&E18;" transform="matrix(1 0 0 1 0 0 ) " x="282" y="710">4</text>
    <rect id="11441866" height="38" style="&E10;" width="38" y="708" x="330" />
    <rect id="11441867" height="37" style="&E11;" width="37" y="708" x="330" />
    <text id="11441868" style="&E18;" transform="matrix(1 0 0 1 0 0 ) " x="334" y="710">2</text>
    <rect id="11441870" height="38" style="&E10;" width="38" y="708" x="383" />
    <rect id="11441871" height="37" style="&E11;" width="37" y="708" x="383" />
    <text id="11441872" style="&E18;" transform="matrix(1 0 0 1 0 0 ) " x="387" y="710">2</text>
    <rect id="11441874" height="38" style="&E10;" width="38" y="708" x="434" />
    <rect id="11441875" height="37" style="&E14;" width="37" y="708" x="434" />
    <text id="11441876" style="&E18;" transform="matrix(1 0 0 1 0 0 ) " x="438" y="710">1</text>
    <rect id="11441878" height="38" style="&E10;" width="38" y="708" x="486" />
    <rect id="11441879" height="37" style="&E11;" width="37" y="708" x="486" />
    <text id="11441880" style="&E18;" transform="matrix(1 0 0 1 0 0 ) " x="490" y="710">2</text>
    <rect id="11441882" height="38" style="&E10;" width="38" y="708" x="538" />
    <rect id="11441883" height="37" style="&E14;" width="37" y="708" x="538" />
    <text id="11441884" style="&E18;" transform="matrix(1 0 0 1 0 0 ) " x="542" y="710">1</text>
    <rect id="11441886" height="38" style="&E10;" width="38" y="708" x="592" />
    <rect id="11441887" height="37" style="&E12;" width="37" y="708" x="592" />
    <text id="11441888" style="&E18;" transform="matrix(1 0 0 1 0 0 ) " x="596" y="710">4</text>
    <rect id="11441890" height="38" style="&E10;" width="38" y="758" x="16" />
    <rect id="11441891" height="37" style="&E11;" width="37" y="758" x="16" />
    <text id="11441892" style="&E18;" transform="matrix(1 0 0 1 0 0 ) " x="20" y="760">2</text>
    <rect id="11441894" height="38" style="&E10;" width="38" y="758" x="68" />
    <rect id="11441895" height="37" style="&E13;" width="37" y="758" x="68" />
    <text id="11441896" style="&E18;" transform="matrix(1 0 0 1 0 0 ) " x="72" y="760">3</text>
    <rect id="11441898" height="38" style="&E10;" width="38" y="758" x="121" />
    <rect id="11441899" height="37" style="&E12;" width="37" y="758" x="121" />
    <text id="11441900" style="&E18;" transform="matrix(1 0 0 1 0 0 ) " x="125" y="760">4</text>
    <rect id="11441902" height="38" style="&E10;" width="38" y="758" x="174" />
    <rect id="11441903" height="37" style="&E11;" width="37" y="758" x="174" />
    <text id="11441904" style="&E18;" transform="matrix(1 0 0 1 0 0 ) " x="178" y="760">2</text>
    <rect id="11441906" height="38" style="&E10;" width="38" y="758" x="225" />
    <rect id="11441907" height="37" style="&E13;" width="37" y="758" x="225" />
    <text id="11441908" style="&E18;" transform="matrix(1 0 0 1 0 0 ) " x="229" y="760">3</text>
    <rect id="11441910" height="38" style="&E10;" width="38" y="758" x="278" />
    <rect id="11441911" height="37" style="&E14;" width="37" y="758" x="278" />
    <text id="11441912" style="&E18;" transform="matrix(1 0 0 1 0 0 ) " x="282" y="760">1</text>
    <rect id="11441914" height="38" style="&E10;" width="38" y="758" x="330" />
    <rect id="11441915" height="37" style="&E13;" width="37" y="758" x="330" />
    <text id="11441916" style="&E18;" transform="matrix(1 0 0 1 0 0 ) " x="334" y="760">3</text>
    <rect id="11441918" height="38" style="&E10;" width="38" y="758" x="383" />
    <rect id="11441919" height="37" style="&E12;" width="37" y="758" x="383" />
    <text id="11441920" style="&E18;" transform="matrix(1 0 0 1 0 0 ) " x="387" y="760">4</text>
    <rect id="11441922" height="38" style="&E10;" width="38" y="758" x="434" />
    <rect id="11441923" height="37" style="&E14;" width="37" y="758" x="434" />
    <text id="11441924" style="&E18;" transform="matrix(1 0 0 1 0 0 ) " x="438" y="760">1</text>
    <rect id="11441926" height="38" style="&E10;" width="38" y="758" x="486" />
    <rect id="11441927" height="37" style="&E13;" width="37" y="758" x="486" />
    <text id="11441928" style="&E18;" transform="matrix(1 0 0 1 0 0 ) " x="490" y="760">3</text>
    <rect id="11441930" height="38" style="&E10;" width="38" y="758" x="538" />
    <rect id="11441931" height="37" style="&E12;" width="37" y="758" x="538" />
    <text id="11441932" style="&E18;" transform="matrix(1 0 0 1 0 0 ) " x="542" y="760">4</text>
    <rect id="11441934" height="38" style="&E10;" width="38" y="758" x="592" />
    <rect id="11441935" height="37" style="&E14;" width="37" y="758" x="592" />
    <text id="11441936" style="&E18;" transform="matrix(1 0 0 1 0 0 ) " x="596" y="760">1</text>
    <rect id="11441938" height="38" style="&E10;" width="38" y="806" x="16" />
    <rect id="11441939" height="37" style="&E12;" width="37" y="806" x="16" />
    <text id="11441940" style="&E18;" transform="matrix(1 0 0 1 0 0 ) " x="20" y="808">4</text>
    <rect id="11441942" height="38" style="&E10;" width="38" y="806" x="68" />
    <rect id="11441943" height="37" style="&E13;" width="37" y="806" x="68" />
    <text id="11441944" style="&E18;" transform="matrix(1 0 0 1 0 0 ) " x="72" y="808">3</text>
    <rect id="11441946" height="38" style="&E10;" width="38" y="806" x="121" />
    <rect id="11441947" height="37" style="&E11;" width="37" y="806" x="121" />
    <text id="11441948" style="&E18;" transform="matrix(1 0 0 1 0 0 ) " x="125" y="808">2</text>
    <rect id="11441950" height="38" style="&E10;" width="38" y="806" x="174" />
    <rect id="11441951" height="37" style="&E14;" width="37" y="806" x="174" />
    <text id="11441952" style="&E18;" transform="matrix(1 0 0 1 0 0 ) " x="178" y="808">1</text>
    <rect id="11441954" height="38" style="&E10;" width="38" y="806" x="225" />
    <rect id="11441955" height="37" style="&E12;" width="37" y="806" x="225" />
    <text id="11441956" style="&E18;" transform="matrix(1 0 0 1 0 0 ) " x="229" y="808">4</text>
    <rect id="11441958" height="38" style="&E10;" width="38" y="806" x="278" />
    <rect id="11441959" height="37" style="&E13;" width="37" y="806" x="278" />
    <text id="11441960" style="&E18;" transform="matrix(1 0 0 1 0 0 ) " x="282" y="808">3</text>
    <rect id="11441962" height="38" style="&E10;" width="38" y="806" x="330" />
    <rect id="11441963" height="37" style="&E12;" width="37" y="806" x="330" />
    <text id="11441964" style="&E18;" transform="matrix(1 0 0 1 0 0 ) " x="334" y="808">4</text>
    <rect id="11441966" height="38" style="&E10;" width="38" y="806" x="383" />
    <rect id="11441967" height="37" style="&E12;" width="37" y="806" x="383" />
    <text id="11441968" style="&E18;" transform="matrix(1 0 0 1 0 0 ) " x="387" y="808">4</text>
    <rect id="11441970" height="38" style="&E10;" width="38" y="806" x="434" />
    <rect id="11441971" height="37" style="&E13;" width="37" y="806" x="434" />
    <text id="11441972" style="&E18;" transform="matrix(1 0 0 1 0 0 ) " x="438" y="808">3</text>
    <rect id="11441974" height="38" style="&E10;" width="38" y="806" x="486" />
    <rect id="11441975" height="37" style="&E12;" width="37" y="806" x="486" />
    <text id="11441976" style="&E18;" transform="matrix(1 0 0 1 0 0 ) " x="490" y="808">4</text>
    <rect id="11441978" height="38" style="&E10;" width="38" y="806" x="538" />
    <rect id="11441979" height="37" style="&E11;" width="37" y="806" x="538" />
    <text id="11441980" style="&E18;" transform="matrix(1 0 0 1 0 0 ) " x="542" y="808">2</text>
    <rect id="11441982" height="38" style="&E10;" width="38" y="806" x="592" />
    <rect id="11441983" height="37" style="&E13;" width="37" y="806" x="592" />
    <text id="11441984" style="&E18;" transform="matrix(1 0 0 1 0 0 ) " x="596" y="808">3</text>
    <rect id="11441986" height="38" style="&E10;" width="38" y="855" x="16" />
    <rect id="11441987" height="37" style="&E14;" width="37" y="855" x="16" />
    <text id="11441988" style="&E18;" transform="matrix(1 0 0 1 0 0 ) " x="20" y="857">1</text>
    <rect id="11441990" height="38" style="&E10;" width="38" y="855" x="68" />
    <rect id="11441991" height="37" style="&E12;" width="37" y="855" x="68" />
    <text id="11441992" style="&E18;" transform="matrix(1 0 0 1 0 0 ) " x="72" y="857">4</text>
    <rect id="11441994" height="38" style="&E10;" width="38" y="855" x="121" />
    <rect id="11441995" height="37" style="&E14;" width="37" y="855" x="121" />
    <text id="11441996" style="&E18;" transform="matrix(1 0 0 1 0 0 ) " x="125" y="857">1</text>
    <rect id="11441998" height="38" style="&E10;" width="38" y="855" x="174" />
    <rect id="11441999" height="37" style="&E11;" width="37" y="855" x="174" />
    <text id="11442000" style="&E18;" transform="matrix(1 0 0 1 0 0 ) " x="178" y="857">2</text>
    <rect id="11442002" height="38" style="&E10;" width="38" y="855" x="225" />
    <rect id="11442003" height="37" style="&E14;" width="37" y="855" x="225" />
    <text id="11442004" style="&E18;" transform="matrix(1 0 0 1 0 0 ) " x="229" y="857">1</text>
    <rect id="11442006" height="38" style="&E10;" width="38" y="855" x="278" />
    <rect id="11442007" height="37" style="&E13;" width="37" y="855" x="278" />
    <text id="11442008" style="&E18;" transform="matrix(1 0 0 1 0 0 ) " x="282" y="857">3</text>
    <rect id="11442010" height="38" style="&E10;" width="38" y="855" x="330" />
    <rect id="11442011" height="37" style="&E13;" width="37" y="855" x="330" />
    <text id="11442012" style="&E18;" transform="matrix(1 0 0 1 0 0 ) " x="334" y="857">3</text>
    <rect id="11442014" height="38" style="&E10;" width="38" y="855" x="383" />
    <rect id="11442015" height="37" style="&E12;" width="37" y="855" x="383" />
    <text id="11442016" style="&E18;" transform="matrix(1 0 0 1 0 0 ) " x="387" y="857">4</text>
    <rect id="11442018" height="38" style="&E10;" width="38" y="855" x="434" />
    <rect id="11442019" height="37" style="&E13;" width="37" y="855" x="434" />
    <text id="11442020" style="&E18;" transform="matrix(1 0 0 1 0 0 ) " x="438" y="857">3</text>
    <rect id="11442022" height="38" style="&E10;" width="38" y="855" x="486" />
    <rect id="11442023" height="37" style="&E11;" width="37" y="855" x="486" />
    <text id="11442024" style="&E18;" transform="matrix(1 0 0 1 0 0 ) " x="490" y="857">2</text>
    <rect id="11442026" height="38" style="&E10;" width="38" y="855" x="538" />
    <rect id="11442027" height="37" style="&E11;" width="37" y="855" x="538" />
    <text id="11442028" style="&E18;" transform="matrix(1 0 0 1 0 0 ) " x="542" y="857">2</text>
    <rect id="11442030" height="38" style="&E10;" width="38" y="855" x="592" />
    <rect id="11442031" height="37" style="&E12;" width="37" y="855" x="592" />
    <text id="11442032" style="&E18;" transform="matrix(1 0 0 1 0 0 ) " x="596" y="857">4</text>
    <rect id="11442034" height="38" style="&E10;" width="38" y="903" x="16" />
    <rect id="11442035" height="37" style="&E12;" width="37" y="903" x="16" />
    <text id="11442036" style="&E18;" transform="matrix(1 0 0 1 0 0 ) " x="20" y="905">4</text>
    <rect id="11442038" height="38" style="&E10;" width="38" y="903" x="68" />
    <rect id="11442039" height="37" style="&E11;" width="37" y="903" x="68" />
    <text id="11442040" style="&E18;" transform="matrix(1 0 0 1 0 0 ) " x="72" y="905">2</text>
  </g>
  <defs id="clips_hatches_and_gradients" />
</svg>