<?xml version="1.0" encoding="utf-8" standalone="yes"?>
<!DOCTYPE svg PUBLIC "-//W3C//DTD SVG 1.1//EN" "http://www.w3.org/Graphics/SVG/1.1/DTD/svg11.dtd"[
	<!ENTITY E12 'stroke:none;opacity:1;fill:rgb(62,198,124);'>
	<!ENTITY E2 'stroke:none;opacity:1;fill:rgb(255,255,255);'>
	<!ENTITY E10 'stroke:rgb(0,0,0);fill:none;stroke-linecap:round;stroke-miterlimit:9;opacity:1;stroke-width:2;stroke-linejoin:round;'>
	<!ENTITY E3 'stroke:none;opacity:1;fill:rgb(60,182,230);'>
	<!ENTITY E18 'stroke:none;font-size:26pt;fill:rgb(255,255,255);font-weight:bolder;baseline-shift:-86&#37;;font-family:微软雅黑;opacity:1;'>
	<!ENTITY E4 'stroke:none;font-size:18pt;fill:rgb(255,255,255);font-weight:bolder;baseline-shift:-86&#37;;font-family:微软雅黑;opacity:1;'>
	<!ENTITY E5 'stroke:none;opacity:1;fill:rgb(250,250,250);'>
	<!ENTITY E14 'stroke:none;opacity:1;fill:rgb(93,150,255);'>
	<!ENTITY E16 'stroke:none;font-size:22pt;fill:rgb(0,0,0);font-weight:bolder;baseline-shift:-86&#37;;font-family:微软雅黑;opacity:1;'>
	<!ENTITY E8 'stroke:rgb(60,182,230);fill:none;stroke-linecap:round;stroke-miterlimit:9;opacity:1;stroke-width:2;stroke-linejoin:round;'>
	<!ENTITY E6 'stroke:rgb(255,0,0);fill:none;stroke-linecap:round;stroke-miterlimit:9;opacity:1;stroke-width:2;stroke-linejoin:round;'>
	<!ENTITY E11 'stroke:none;opacity:1;fill:rgb(255,62,65);'>
	<!ENTITY E9 'stroke:none;font-size:18pt;fill:rgb(102,102,102);font-weight:bolder;baseline-shift:-86&#37;;font-family:微软雅黑;opacity:1;'>
	<!ENTITY E1 'text-rendering:auto;shape-rendering:geometricPrecision;'>
	<!ENTITY E17 'stroke:rgb(128,128,128);fill:none;stroke-linecap:butt;stroke-miterlimit:9;opacity:1;stroke-width:2;stroke-linejoin:miter;'>
	<!ENTITY E15 'stroke:none;opacity:1;fill:rgb(211,211,211);'>
	<!ENTITY E13 'stroke:none;opacity:1;fill:rgb(247,212,0);'>
	<!ENTITY E7 'stroke:none;font-family:微软雅黑;fill:rgb(102,102,102);font-size:16pt;baseline-shift:-86&#37;;opacity:1;'>
]>
<svg height="952" width="655" id="SvgGdi_output" xmlns="http://www.w3.org/2000/svg">
  <rect id="background" height="100%" style="fill:rgb(255,255,255);" width="100%" y="0" x="0" />
  <g style="&E1;" id="root_group">
    <rect id="11438366" height="635" style="&E2;" width="655" y="0" x="0" />
    <rect id="11438367" height="37" style="&E3;" width="655" y="0" x="0" />
    <text id="11438368" style="&E4;" transform="matrix(1 0 0 1 0 0 ) " x="15" y="3">期数</text>
    <text id="11438370" style="&E4;" transform="matrix(1 0 0 1 0 0 ) " x="89" y="3">时间</text>
    <text id="11438372" style="&E4;" transform="matrix(1 0 0 1 0 0 ) " x="373" y="3">结果</text>
    <text id="11438374" style="&E4;" transform="matrix(1 0 0 1 0 0 ) " x="520" y="3">番</text>
    <rect id="11438376" height="37" style="&E5;" width="655" y="38" x="0" />
    <rect id="11438377" height="37" style="&E5;" width="655" y="118" x="0" />
    <rect id="11438378" height="37" style="&E5;" width="655" y="198" x="0" />
    <rect id="11438379" height="37" style="&E5;" width="655" y="278" x="0" />
    <rect id="11438380" height="37" style="&E5;" width="655" y="358" x="0" />
    <rect id="11438381" height="37" style="&E5;" width="655" y="438" x="0" />
    <rect id="11438382" height="37" style="&E5;" width="655" y="518" x="0" />
    <rect id="11438383" height="37" style="&E5;" width="655" y="598" x="0" />
    <rect id="11438384" height="37" style="&E5;" width="655" y="678" x="0" />
    <rect id="11438385" height="37" style="&E5;" width="655" y="758" x="0" />
    <rect id="11438386" height="37" style="&E6;" width="655" y="38" x="0" />
    <text id="11438387" style="&E7;" transform="matrix(1 0 0 1 0 0 ) " x="10" y="45">39</text>
    <text id="11438389" style="&E7;" transform="matrix(1 0 0 1 0 0 ) " x="50" y="45">18:08:40</text>
    <ellipse id="11438391" cy="57" cx="192" rx="17" ry="17" style="&E8;" />
    <text id="11438392" style="&E9;" transform="matrix(1 0 0 1 0 0 ) " x="176" y="43">06</text>
    <ellipse id="11438394" cy="57" cx="232" rx="17" ry="17" style="&E8;" />
    <text id="11438395" style="&E9;" transform="matrix(1 0 0 1 0 0 ) " x="216" y="43">08</text>
    <ellipse id="11438397" cy="57" cx="272" rx="17" ry="17" style="&E8;" />
    <text id="11438398" style="&E9;" transform="matrix(1 0 0 1 0 0 ) " x="256" y="43">10</text>
    <ellipse id="11438400" cy="57" cx="312" rx="17" ry="17" style="&E8;" />
    <text id="11438401" style="&E9;" transform="matrix(1 0 0 1 0 0 ) " x="296" y="43">07</text>
    <ellipse id="11438403" cy="57" cx="352" rx="17" ry="17" style="&E8;" />
    <text id="11438404" style="&E9;" transform="matrix(1 0 0 1 0 0 ) " x="336" y="43">05</text>
    <ellipse id="11438406" cy="57" cx="392" rx="17" ry="17" style="&E8;" />
    <text id="11438407" style="&E9;" transform="matrix(1 0 0 1 0 0 ) " x="376" y="43">20</text>
    <ellipse id="11438409" cy="57" cx="432" rx="17" ry="17" style="&E8;" />
    <text id="11438410" style="&E9;" transform="matrix(1 0 0 1 0 0 ) " x="416" y="43">14</text>
    <ellipse id="11438412" cy="57" cx="472" rx="17" ry="17" style="&E6;" />
    <text id="11438413" style="&E9;" transform="matrix(1 0 0 1 0 0 ) " x="456" y="43">16</text>
    <rect id="11438415" height="36" style="&E10;" width="36" y="40" x="512" />
    <rect id="11438416" height="34" style="&E11;" width="34" y="41" x="513" />
    <text id="11438417" style="&E4;" transform="matrix(1 0 0 1 0 0 ) " x="520" y="45">4</text>
    <text id="11438419" style="&E9;" transform="matrix(1 0 0 1 0 0 ) " x="560" y="45">大</text>
    <text id="11438421" style="&E9;" transform="matrix(1 0 0 1 0 0 ) " x="600" y="45">双</text>
    <text id="11438423" style="&E7;" transform="matrix(1 0 0 1 0 0 ) " x="10" y="85">38</text>
    <text id="11438425" style="&E7;" transform="matrix(1 0 0 1 0 0 ) " x="50" y="85">18:03:40</text>
    <ellipse id="11438427" cy="97" cx="192" rx="17" ry="17" style="&E8;" />
    <text id="11438428" style="&E9;" transform="matrix(1 0 0 1 0 0 ) " x="176" y="83">06</text>
    <ellipse id="11438430" cy="97" cx="232" rx="17" ry="17" style="&E8;" />
    <text id="11438431" style="&E9;" transform="matrix(1 0 0 1 0 0 ) " x="216" y="83">15</text>
    <ellipse id="11438433" cy="97" cx="272" rx="17" ry="17" style="&E8;" />
    <text id="11438434" style="&E9;" transform="matrix(1 0 0 1 0 0 ) " x="256" y="83">10</text>
    <ellipse id="11438436" cy="97" cx="312" rx="17" ry="17" style="&E8;" />
    <text id="11438437" style="&E9;" transform="matrix(1 0 0 1 0 0 ) " x="296" y="83">03</text>
    <ellipse id="11438439" cy="97" cx="352" rx="17" ry="17" style="&E8;" />
    <text id="11438440" style="&E9;" transform="matrix(1 0 0 1 0 0 ) " x="336" y="83">07</text>
    <ellipse id="11438442" cy="97" cx="392" rx="17" ry="17" style="&E8;" />
    <text id="11438443" style="&E9;" transform="matrix(1 0 0 1 0 0 ) " x="376" y="83">18</text>
    <ellipse id="11438445" cy="97" cx="432" rx="17" ry="17" style="&E8;" />
    <text id="11438446" style="&E9;" transform="matrix(1 0 0 1 0 0 ) " x="416" y="83">08</text>
    <ellipse id="11438448" cy="97" cx="472" rx="17" ry="17" style="&E6;" />
    <text id="11438449" style="&E9;" transform="matrix(1 0 0 1 0 0 ) " x="456" y="83">02</text>
    <rect id="11438451" height="36" style="&E10;" width="36" y="80" x="512" />
    <rect id="11438452" height="34" style="&E12;" width="34" y="81" x="513" />
    <text id="11438453" style="&E4;" transform="matrix(1 0 0 1 0 0 ) " x="520" y="85">2</text>
    <text id="11438455" style="&E9;" transform="matrix(1 0 0 1 0 0 ) " x="560" y="85">小</text>
    <text id="11438457" style="&E9;" transform="matrix(1 0 0 1 0 0 ) " x="600" y="85">双</text>
    <text id="11438459" style="&E7;" transform="matrix(1 0 0 1 0 0 ) " x="10" y="125">37</text>
    <text id="11438461" style="&E7;" transform="matrix(1 0 0 1 0 0 ) " x="50" y="125">17:58:40</text>
    <ellipse id="11438463" cy="137" cx="192" rx="17" ry="17" style="&E8;" />
    <text id="11438464" style="&E9;" transform="matrix(1 0 0 1 0 0 ) " x="176" y="123">18</text>
    <ellipse id="11438466" cy="137" cx="232" rx="17" ry="17" style="&E8;" />
    <text id="11438467" style="&E9;" transform="matrix(1 0 0 1 0 0 ) " x="216" y="123">10</text>
    <ellipse id="11438469" cy="137" cx="272" rx="17" ry="17" style="&E8;" />
    <text id="11438470" style="&E9;" transform="matrix(1 0 0 1 0 0 ) " x="256" y="123">19</text>
    <ellipse id="11438472" cy="137" cx="312" rx="17" ry="17" style="&E8;" />
    <text id="11438473" style="&E9;" transform="matrix(1 0 0 1 0 0 ) " x="296" y="123">13</text>
    <ellipse id="11438475" cy="137" cx="352" rx="17" ry="17" style="&E8;" />
    <text id="11438476" style="&E9;" transform="matrix(1 0 0 1 0 0 ) " x="336" y="123">05</text>
    <ellipse id="11438478" cy="137" cx="392" rx="17" ry="17" style="&E8;" />
    <text id="11438479" style="&E9;" transform="matrix(1 0 0 1 0 0 ) " x="376" y="123">08</text>
    <ellipse id="11438481" cy="137" cx="432" rx="17" ry="17" style="&E8;" />
    <text id="11438482" style="&E9;" transform="matrix(1 0 0 1 0 0 ) " x="416" y="123">01</text>
    <ellipse id="11438484" cy="137" cx="472" rx="17" ry="17" style="&E6;" />
    <text id="11438485" style="&E9;" transform="matrix(1 0 0 1 0 0 ) " x="456" y="123">06</text>
    <rect id="11438487" height="36" style="&E10;" width="36" y="120" x="512" />
    <rect id="11438488" height="34" style="&E12;" width="34" y="121" x="513" />
    <text id="11438489" style="&E4;" transform="matrix(1 0 0 1 0 0 ) " x="520" y="125">2</text>
    <text id="11438491" style="&E9;" transform="matrix(1 0 0 1 0 0 ) " x="560" y="125">小</text>
    <text id="11438493" style="&E9;" transform="matrix(1 0 0 1 0 0 ) " x="600" y="125">双</text>
    <text id="11438495" style="&E7;" transform="matrix(1 0 0 1 0 0 ) " x="10" y="165">36</text>
    <text id="11438497" style="&E7;" transform="matrix(1 0 0 1 0 0 ) " x="50" y="165">17:53:40</text>
    <ellipse id="11438499" cy="177" cx="192" rx="17" ry="17" style="&E8;" />
    <text id="11438500" style="&E9;" transform="matrix(1 0 0 1 0 0 ) " x="176" y="163">15</text>
    <ellipse id="11438502" cy="177" cx="232" rx="17" ry="17" style="&E8;" />
    <text id="11438503" style="&E9;" transform="matrix(1 0 0 1 0 0 ) " x="216" y="163">17</text>
    <ellipse id="11438505" cy="177" cx="272" rx="17" ry="17" style="&E8;" />
    <text id="11438506" style="&E9;" transform="matrix(1 0 0 1 0 0 ) " x="256" y="163">20</text>
    <ellipse id="11438508" cy="177" cx="312" rx="17" ry="17" style="&E8;" />
    <text id="11438509" style="&E9;" transform="matrix(1 0 0 1 0 0 ) " x="296" y="163">06</text>
    <ellipse id="11438511" cy="177" cx="352" rx="17" ry="17" style="&E8;" />
    <text id="11438512" style="&E9;" transform="matrix(1 0 0 1 0 0 ) " x="336" y="163">04</text>
    <ellipse id="11438514" cy="177" cx="392" rx="17" ry="17" style="&E8;" />
    <text id="11438515" style="&E9;" transform="matrix(1 0 0 1 0 0 ) " x="376" y="163">03</text>
    <ellipse id="11438517" cy="177" cx="432" rx="17" ry="17" style="&E8;" />
    <text id="11438518" style="&E9;" transform="matrix(1 0 0 1 0 0 ) " x="416" y="163">08</text>
    <ellipse id="11438520" cy="177" cx="472" rx="17" ry="17" style="&E6;" />
    <text id="11438521" style="&E9;" transform="matrix(1 0 0 1 0 0 ) " x="456" y="163">07</text>
    <rect id="11438523" height="36" style="&E10;" width="36" y="160" x="512" />
    <rect id="11438524" height="34" style="&E13;" width="34" y="161" x="513" />
    <text id="11438525" style="&E4;" transform="matrix(1 0 0 1 0 0 ) " x="520" y="165">3</text>
    <text id="11438527" style="&E9;" transform="matrix(1 0 0 1 0 0 ) " x="560" y="165">小</text>
    <text id="11438529" style="&E9;" transform="matrix(1 0 0 1 0 0 ) " x="600" y="165">单</text>
    <text id="11438531" style="&E7;" transform="matrix(1 0 0 1 0 0 ) " x="10" y="205">35</text>
    <text id="11438533" style="&E7;" transform="matrix(1 0 0 1 0 0 ) " x="50" y="205">17:48:40</text>
    <ellipse id="11438535" cy="217" cx="192" rx="17" ry="17" style="&E8;" />
    <text id="11438536" style="&E9;" transform="matrix(1 0 0 1 0 0 ) " x="176" y="203">01</text>
    <ellipse id="11438538" cy="217" cx="232" rx="17" ry="17" style="&E8;" />
    <text id="11438539" style="&E9;" transform="matrix(1 0 0 1 0 0 ) " x="216" y="203">02</text>
    <ellipse id="11438541" cy="217" cx="272" rx="17" ry="17" style="&E8;" />
    <text id="11438542" style="&E9;" transform="matrix(1 0 0 1 0 0 ) " x="256" y="203">06</text>
    <ellipse id="11438544" cy="217" cx="312" rx="17" ry="17" style="&E8;" />
    <text id="11438545" style="&E9;" transform="matrix(1 0 0 1 0 0 ) " x="296" y="203">09</text>
    <ellipse id="11438547" cy="217" cx="352" rx="17" ry="17" style="&E8;" />
    <text id="11438548" style="&E9;" transform="matrix(1 0 0 1 0 0 ) " x="336" y="203">05</text>
    <ellipse id="11438550" cy="217" cx="392" rx="17" ry="17" style="&E8;" />
    <text id="11438551" style="&E9;" transform="matrix(1 0 0 1 0 0 ) " x="376" y="203">03</text>
    <ellipse id="11438553" cy="217" cx="432" rx="17" ry="17" style="&E8;" />
    <text id="11438554" style="&E9;" transform="matrix(1 0 0 1 0 0 ) " x="416" y="203">17</text>
    <ellipse id="11438556" cy="217" cx="472" rx="17" ry="17" style="&E6;" />
    <text id="11438557" style="&E9;" transform="matrix(1 0 0 1 0 0 ) " x="456" y="203">20</text>
    <rect id="11438559" height="36" style="&E10;" width="36" y="200" x="512" />
    <rect id="11438560" height="34" style="&E11;" width="34" y="201" x="513" />
    <text id="11438561" style="&E4;" transform="matrix(1 0 0 1 0 0 ) " x="520" y="205">4</text>
    <text id="11438563" style="&E9;" transform="matrix(1 0 0 1 0 0 ) " x="560" y="205">大</text>
    <text id="11438565" style="&E9;" transform="matrix(1 0 0 1 0 0 ) " x="600" y="205">双</text>
    <text id="11438567" style="&E7;" transform="matrix(1 0 0 1 0 0 ) " x="10" y="245">34</text>
    <text id="11438569" style="&E7;" transform="matrix(1 0 0 1 0 0 ) " x="50" y="245">17:43:40</text>
    <ellipse id="11438571" cy="257" cx="192" rx="17" ry="17" style="&E8;" />
    <text id="11438572" style="&E9;" transform="matrix(1 0 0 1 0 0 ) " x="176" y="243">15</text>
    <ellipse id="11438574" cy="257" cx="232" rx="17" ry="17" style="&E8;" />
    <text id="11438575" style="&E9;" transform="matrix(1 0 0 1 0 0 ) " x="216" y="243">03</text>
    <ellipse id="11438577" cy="257" cx="272" rx="17" ry="17" style="&E8;" />
    <text id="11438578" style="&E9;" transform="matrix(1 0 0 1 0 0 ) " x="256" y="243">18</text>
    <ellipse id="11438580" cy="257" cx="312" rx="17" ry="17" style="&E8;" />
    <text id="11438581" style="&E9;" transform="matrix(1 0 0 1 0 0 ) " x="296" y="243">12</text>
    <ellipse id="11438583" cy="257" cx="352" rx="17" ry="17" style="&E8;" />
    <text id="11438584" style="&E9;" transform="matrix(1 0 0 1 0 0 ) " x="336" y="243">20</text>
    <ellipse id="11438586" cy="257" cx="392" rx="17" ry="17" style="&E8;" />
    <text id="11438587" style="&E9;" transform="matrix(1 0 0 1 0 0 ) " x="376" y="243">09</text>
    <ellipse id="11438589" cy="257" cx="432" rx="17" ry="17" style="&E8;" />
    <text id="11438590" style="&E9;" transform="matrix(1 0 0 1 0 0 ) " x="416" y="243">17</text>
    <ellipse id="11438592" cy="257" cx="472" rx="17" ry="17" style="&E6;" />
    <text id="11438593" style="&E9;" transform="matrix(1 0 0 1 0 0 ) " x="456" y="243">19</text>
    <rect id="11438595" height="36" style="&E10;" width="36" y="240" x="512" />
    <rect id="11438596" height="34" style="&E13;" width="34" y="241" x="513" />
    <text id="11438597" style="&E4;" transform="matrix(1 0 0 1 0 0 ) " x="520" y="245">3</text>
    <text id="11438599" style="&E9;" transform="matrix(1 0 0 1 0 0 ) " x="560" y="245">大</text>
    <text id="11438601" style="&E9;" transform="matrix(1 0 0 1 0 0 ) " x="600" y="245">单</text>
    <text id="11438603" style="&E7;" transform="matrix(1 0 0 1 0 0 ) " x="10" y="285">33</text>
    <text id="11438605" style="&E7;" transform="matrix(1 0 0 1 0 0 ) " x="50" y="285">17:38:40</text>
    <ellipse id="11438607" cy="297" cx="192" rx="17" ry="17" style="&E8;" />
    <text id="11438608" style="&E9;" transform="matrix(1 0 0 1 0 0 ) " x="176" y="283">10</text>
    <ellipse id="11438610" cy="297" cx="232" rx="17" ry="17" style="&E8;" />
    <text id="11438611" style="&E9;" transform="matrix(1 0 0 1 0 0 ) " x="216" y="283">05</text>
    <ellipse id="11438613" cy="297" cx="272" rx="17" ry="17" style="&E8;" />
    <text id="11438614" style="&E9;" transform="matrix(1 0 0 1 0 0 ) " x="256" y="283">06</text>
    <ellipse id="11438616" cy="297" cx="312" rx="17" ry="17" style="&E8;" />
    <text id="11438617" style="&E9;" transform="matrix(1 0 0 1 0 0 ) " x="296" y="283">13</text>
    <ellipse id="11438619" cy="297" cx="352" rx="17" ry="17" style="&E8;" />
    <text id="11438620" style="&E9;" transform="matrix(1 0 0 1 0 0 ) " x="336" y="283">08</text>
    <ellipse id="11438622" cy="297" cx="392" rx="17" ry="17" style="&E8;" />
    <text id="11438623" style="&E9;" transform="matrix(1 0 0 1 0 0 ) " x="376" y="283">04</text>
    <ellipse id="11438625" cy="297" cx="432" rx="17" ry="17" style="&E8;" />
    <text id="11438626" style="&E9;" transform="matrix(1 0 0 1 0 0 ) " x="416" y="283">09</text>
    <ellipse id="11438628" cy="297" cx="472" rx="17" ry="17" style="&E6;" />
    <text id="11438629" style="&E9;" transform="matrix(1 0 0 1 0 0 ) " x="456" y="283">19</text>
    <rect id="11438631" height="36" style="&E10;" width="36" y="280" x="512" />
    <rect id="11438632" height="34" style="&E13;" width="34" y="281" x="513" />
    <text id="11438633" style="&E4;" transform="matrix(1 0 0 1 0 0 ) " x="520" y="285">3</text>
    <text id="11438635" style="&E9;" transform="matrix(1 0 0 1 0 0 ) " x="560" y="285">大</text>
    <text id="11438637" style="&E9;" transform="matrix(1 0 0 1 0 0 ) " x="600" y="285">单</text>
    <text id="11438639" style="&E7;" transform="matrix(1 0 0 1 0 0 ) " x="10" y="325">32</text>
    <text id="11438641" style="&E7;" transform="matrix(1 0 0 1 0 0 ) " x="50" y="325">17:33:40</text>
    <ellipse id="11438643" cy="337" cx="192" rx="17" ry="17" style="&E8;" />
    <text id="11438644" style="&E9;" transform="matrix(1 0 0 1 0 0 ) " x="176" y="323">19</text>
    <ellipse id="11438646" cy="337" cx="232" rx="17" ry="17" style="&E8;" />
    <text id="11438647" style="&E9;" transform="matrix(1 0 0 1 0 0 ) " x="216" y="323">16</text>
    <ellipse id="11438649" cy="337" cx="272" rx="17" ry="17" style="&E8;" />
    <text id="11438650" style="&E9;" transform="matrix(1 0 0 1 0 0 ) " x="256" y="323">09</text>
    <ellipse id="11438652" cy="337" cx="312" rx="17" ry="17" style="&E8;" />
    <text id="11438653" style="&E9;" transform="matrix(1 0 0 1 0 0 ) " x="296" y="323">02</text>
    <ellipse id="11438655" cy="337" cx="352" rx="17" ry="17" style="&E8;" />
    <text id="11438656" style="&E9;" transform="matrix(1 0 0 1 0 0 ) " x="336" y="323">08</text>
    <ellipse id="11438658" cy="337" cx="392" rx="17" ry="17" style="&E8;" />
    <text id="11438659" style="&E9;" transform="matrix(1 0 0 1 0 0 ) " x="376" y="323">14</text>
    <ellipse id="11438661" cy="337" cx="432" rx="17" ry="17" style="&E8;" />
    <text id="11438662" style="&E9;" transform="matrix(1 0 0 1 0 0 ) " x="416" y="323">06</text>
    <ellipse id="11438664" cy="337" cx="472" rx="17" ry="17" style="&E6;" />
    <text id="11438665" style="&E9;" transform="matrix(1 0 0 1 0 0 ) " x="456" y="323">17</text>
    <rect id="11438667" height="36" style="&E10;" width="36" y="320" x="512" />
    <rect id="11438668" height="34" style="&E14;" width="34" y="321" x="513" />
    <text id="11438669" style="&E4;" transform="matrix(1 0 0 1 0 0 ) " x="520" y="325">1</text>
    <text id="11438671" style="&E9;" transform="matrix(1 0 0 1 0 0 ) " x="560" y="325">大</text>
    <text id="11438673" style="&E9;" transform="matrix(1 0 0 1 0 0 ) " x="600" y="325">单</text>
    <text id="11438675" style="&E7;" transform="matrix(1 0 0 1 0 0 ) " x="10" y="365">31</text>
    <text id="11438677" style="&E7;" transform="matrix(1 0 0 1 0 0 ) " x="50" y="365">17:28:40</text>
    <ellipse id="11438679" cy="377" cx="192" rx="17" ry="17" style="&E8;" />
    <text id="11438680" style="&E9;" transform="matrix(1 0 0 1 0 0 ) " x="176" y="363">17</text>
    <ellipse id="11438682" cy="377" cx="232" rx="17" ry="17" style="&E8;" />
    <text id="11438683" style="&E9;" transform="matrix(1 0 0 1 0 0 ) " x="216" y="363">11</text>
    <ellipse id="11438685" cy="377" cx="272" rx="17" ry="17" style="&E8;" />
    <text id="11438686" style="&E9;" transform="matrix(1 0 0 1 0 0 ) " x="256" y="363">16</text>
    <ellipse id="11438688" cy="377" cx="312" rx="17" ry="17" style="&E8;" />
    <text id="11438689" style="&E9;" transform="matrix(1 0 0 1 0 0 ) " x="296" y="363">05</text>
    <ellipse id="11438691" cy="377" cx="352" rx="17" ry="17" style="&E8;" />
    <text id="11438692" style="&E9;" transform="matrix(1 0 0 1 0 0 ) " x="336" y="363">08</text>
    <ellipse id="11438694" cy="377" cx="392" rx="17" ry="17" style="&E8;" />
    <text id="11438695" style="&E9;" transform="matrix(1 0 0 1 0 0 ) " x="376" y="363">06</text>
    <ellipse id="11438697" cy="377" cx="432" rx="17" ry="17" style="&E8;" />
    <text id="11438698" style="&E9;" transform="matrix(1 0 0 1 0 0 ) " x="416" y="363">10</text>
    <ellipse id="11438700" cy="377" cx="472" rx="17" ry="17" style="&E6;" />
    <text id="11438701" style="&E9;" transform="matrix(1 0 0 1 0 0 ) " x="456" y="363">18</text>
    <rect id="11438703" height="36" style="&E10;" width="36" y="360" x="512" />
    <rect id="11438704" height="34" style="&E12;" width="34" y="361" x="513" />
    <text id="11438705" style="&E4;" transform="matrix(1 0 0 1 0 0 ) " x="520" y="365">2</text>
    <text id="11438707" style="&E9;" transform="matrix(1 0 0 1 0 0 ) " x="560" y="365">大</text>
    <text id="11438709" style="&E9;" transform="matrix(1 0 0 1 0 0 ) " x="600" y="365">双</text>
    <text id="11438711" style="&E7;" transform="matrix(1 0 0 1 0 0 ) " x="10" y="405">30</text>
    <text id="11438713" style="&E7;" transform="matrix(1 0 0 1 0 0 ) " x="50" y="405">17:23:40</text>
    <ellipse id="11438715" cy="417" cx="192" rx="17" ry="17" style="&E8;" />
    <text id="11438716" style="&E9;" transform="matrix(1 0 0 1 0 0 ) " x="176" y="403">07</text>
    <ellipse id="11438718" cy="417" cx="232" rx="17" ry="17" style="&E8;" />
    <text id="11438719" style="&E9;" transform="matrix(1 0 0 1 0 0 ) " x="216" y="403">16</text>
    <ellipse id="11438721" cy="417" cx="272" rx="17" ry="17" style="&E8;" />
    <text id="11438722" style="&E9;" transform="matrix(1 0 0 1 0 0 ) " x="256" y="403">08</text>
    <ellipse id="11438724" cy="417" cx="312" rx="17" ry="17" style="&E8;" />
    <text id="11438725" style="&E9;" transform="matrix(1 0 0 1 0 0 ) " x="296" y="403">05</text>
    <ellipse id="11438727" cy="417" cx="352" rx="17" ry="17" style="&E8;" />
    <text id="11438728" style="&E9;" transform="matrix(1 0 0 1 0 0 ) " x="336" y="403">02</text>
    <ellipse id="11438730" cy="417" cx="392" rx="17" ry="17" style="&E8;" />
    <text id="11438731" style="&E9;" transform="matrix(1 0 0 1 0 0 ) " x="376" y="403">15</text>
    <ellipse id="11438733" cy="417" cx="432" rx="17" ry="17" style="&E8;" />
    <text id="11438734" style="&E9;" transform="matrix(1 0 0 1 0 0 ) " x="416" y="403">18</text>
    <ellipse id="11438736" cy="417" cx="472" rx="17" ry="17" style="&E6;" />
    <text id="11438737" style="&E9;" transform="matrix(1 0 0 1 0 0 ) " x="456" y="403">13</text>
    <rect id="11438739" height="36" style="&E10;" width="36" y="400" x="512" />
    <rect id="11438740" height="34" style="&E14;" width="34" y="401" x="513" />
    <text id="11438741" style="&E4;" transform="matrix(1 0 0 1 0 0 ) " x="520" y="405">1</text>
    <text id="11438743" style="&E9;" transform="matrix(1 0 0 1 0 0 ) " x="560" y="405">大</text>
    <text id="11438745" style="&E9;" transform="matrix(1 0 0 1 0 0 ) " x="600" y="405">单</text>
    <text id="11438747" style="&E7;" transform="matrix(1 0 0 1 0 0 ) " x="10" y="445">29</text>
    <text id="11438749" style="&E7;" transform="matrix(1 0 0 1 0 0 ) " x="50" y="445">17:18:40</text>
    <ellipse id="11438751" cy="457" cx="192" rx="17" ry="17" style="&E8;" />
    <text id="11438752" style="&E9;" transform="matrix(1 0 0 1 0 0 ) " x="176" y="443">15</text>
    <ellipse id="11438754" cy="457" cx="232" rx="17" ry="17" style="&E8;" />
    <text id="11438755" style="&E9;" transform="matrix(1 0 0 1 0 0 ) " x="216" y="443">04</text>
    <ellipse id="11438757" cy="457" cx="272" rx="17" ry="17" style="&E8;" />
    <text id="11438758" style="&E9;" transform="matrix(1 0 0 1 0 0 ) " x="256" y="443">03</text>
    <ellipse id="11438760" cy="457" cx="312" rx="17" ry="17" style="&E8;" />
    <text id="11438761" style="&E9;" transform="matrix(1 0 0 1 0 0 ) " x="296" y="443">09</text>
    <ellipse id="11438763" cy="457" cx="352" rx="17" ry="17" style="&E8;" />
    <text id="11438764" style="&E9;" transform="matrix(1 0 0 1 0 0 ) " x="336" y="443">17</text>
    <ellipse id="11438766" cy="457" cx="392" rx="17" ry="17" style="&E8;" />
    <text id="11438767" style="&E9;" transform="matrix(1 0 0 1 0 0 ) " x="376" y="443">11</text>
    <ellipse id="11438769" cy="457" cx="432" rx="17" ry="17" style="&E8;" />
    <text id="11438770" style="&E9;" transform="matrix(1 0 0 1 0 0 ) " x="416" y="443">02</text>
    <ellipse id="11438772" cy="457" cx="472" rx="17" ry="17" style="&E6;" />
    <text id="11438773" style="&E9;" transform="matrix(1 0 0 1 0 0 ) " x="456" y="443">12</text>
    <rect id="11438775" height="36" style="&E10;" width="36" y="440" x="512" />
    <rect id="11438776" height="34" style="&E11;" width="34" y="441" x="513" />
    <text id="11438777" style="&E4;" transform="matrix(1 0 0 1 0 0 ) " x="520" y="445">4</text>
    <text id="11438779" style="&E9;" transform="matrix(1 0 0 1 0 0 ) " x="560" y="445">大</text>
    <text id="11438781" style="&E9;" transform="matrix(1 0 0 1 0 0 ) " x="600" y="445">双</text>
    <text id="11438783" style="&E7;" transform="matrix(1 0 0 1 0 0 ) " x="10" y="485">28</text>
    <text id="11438785" style="&E7;" transform="matrix(1 0 0 1 0 0 ) " x="50" y="485">17:13:40</text>
    <ellipse id="11438787" cy="497" cx="192" rx="17" ry="17" style="&E8;" />
    <text id="11438788" style="&E9;" transform="matrix(1 0 0 1 0 0 ) " x="176" y="483">19</text>
    <ellipse id="11438790" cy="497" cx="232" rx="17" ry="17" style="&E8;" />
    <text id="11438791" style="&E9;" transform="matrix(1 0 0 1 0 0 ) " x="216" y="483">05</text>
    <ellipse id="11438793" cy="497" cx="272" rx="17" ry="17" style="&E8;" />
    <text id="11438794" style="&E9;" transform="matrix(1 0 0 1 0 0 ) " x="256" y="483">06</text>
    <ellipse id="11438796" cy="497" cx="312" rx="17" ry="17" style="&E8;" />
    <text id="11438797" style="&E9;" transform="matrix(1 0 0 1 0 0 ) " x="296" y="483">12</text>
    <ellipse id="11438799" cy="497" cx="352" rx="17" ry="17" style="&E8;" />
    <text id="11438800" style="&E9;" transform="matrix(1 0 0 1 0 0 ) " x="336" y="483">10</text>
    <ellipse id="11438802" cy="497" cx="392" rx="17" ry="17" style="&E8;" />
    <text id="11438803" style="&E9;" transform="matrix(1 0 0 1 0 0 ) " x="376" y="483">20</text>
    <ellipse id="11438805" cy="497" cx="432" rx="17" ry="17" style="&E8;" />
    <text id="11438806" style="&E9;" transform="matrix(1 0 0 1 0 0 ) " x="416" y="483">16</text>
    <ellipse id="11438808" cy="497" cx="472" rx="17" ry="17" style="&E6;" />
    <text id="11438809" style="&E9;" transform="matrix(1 0 0 1 0 0 ) " x="456" y="483">17</text>
    <rect id="11438811" height="36" style="&E10;" width="36" y="480" x="512" />
    <rect id="11438812" height="34" style="&E14;" width="34" y="481" x="513" />
    <text id="11438813" style="&E4;" transform="matrix(1 0 0 1 0 0 ) " x="520" y="485">1</text>
    <text id="11438815" style="&E9;" transform="matrix(1 0 0 1 0 0 ) " x="560" y="485">大</text>
    <text id="11438817" style="&E9;" transform="matrix(1 0 0 1 0 0 ) " x="600" y="485">单</text>
    <text id="11438819" style="&E7;" transform="matrix(1 0 0 1 0 0 ) " x="10" y="525">27</text>
    <text id="11438821" style="&E7;" transform="matrix(1 0 0 1 0 0 ) " x="50" y="525">17:08:40</text>
    <ellipse id="11438823" cy="537" cx="192" rx="17" ry="17" style="&E8;" />
    <text id="11438824" style="&E9;" transform="matrix(1 0 0 1 0 0 ) " x="176" y="523">12</text>
    <ellipse id="11438826" cy="537" cx="232" rx="17" ry="17" style="&E8;" />
    <text id="11438827" style="&E9;" transform="matrix(1 0 0 1 0 0 ) " x="216" y="523">08</text>
    <ellipse id="11438829" cy="537" cx="272" rx="17" ry="17" style="&E8;" />
    <text id="11438830" style="&E9;" transform="matrix(1 0 0 1 0 0 ) " x="256" y="523">09</text>
    <ellipse id="11438832" cy="537" cx="312" rx="17" ry="17" style="&E8;" />
    <text id="11438833" style="&E9;" transform="matrix(1 0 0 1 0 0 ) " x="296" y="523">17</text>
    <ellipse id="11438835" cy="537" cx="352" rx="17" ry="17" style="&E8;" />
    <text id="11438836" style="&E9;" transform="matrix(1 0 0 1 0 0 ) " x="336" y="523">07</text>
    <ellipse id="11438838" cy="537" cx="392" rx="17" ry="17" style="&E8;" />
    <text id="11438839" style="&E9;" transform="matrix(1 0 0 1 0 0 ) " x="376" y="523">05</text>
    <ellipse id="11438841" cy="537" cx="432" rx="17" ry="17" style="&E8;" />
    <text id="11438842" style="&E9;" transform="matrix(1 0 0 1 0 0 ) " x="416" y="523">18</text>
    <ellipse id="11438844" cy="537" cx="472" rx="17" ry="17" style="&E6;" />
    <text id="11438845" style="&E9;" transform="matrix(1 0 0 1 0 0 ) " x="456" y="523">15</text>
    <rect id="11438847" height="36" style="&E10;" width="36" y="520" x="512" />
    <rect id="11438848" height="34" style="&E13;" width="34" y="521" x="513" />
    <text id="11438849" style="&E4;" transform="matrix(1 0 0 1 0 0 ) " x="520" y="525">3</text>
    <text id="11438851" style="&E9;" transform="matrix(1 0 0 1 0 0 ) " x="560" y="525">大</text>
    <text id="11438853" style="&E9;" transform="matrix(1 0 0 1 0 0 ) " x="600" y="525">单</text>
    <text id="11438855" style="&E7;" transform="matrix(1 0 0 1 0 0 ) " x="10" y="565">26</text>
    <text id="11438857" style="&E7;" transform="matrix(1 0 0 1 0 0 ) " x="50" y="565">17:03:40</text>
    <ellipse id="11438859" cy="577" cx="192" rx="17" ry="17" style="&E8;" />
    <text id="11438860" style="&E9;" transform="matrix(1 0 0 1 0 0 ) " x="176" y="563">16</text>
    <ellipse id="11438862" cy="577" cx="232" rx="17" ry="17" style="&E8;" />
    <text id="11438863" style="&E9;" transform="matrix(1 0 0 1 0 0 ) " x="216" y="563">19</text>
    <ellipse id="11438865" cy="577" cx="272" rx="17" ry="17" style="&E8;" />
    <text id="11438866" style="&E9;" transform="matrix(1 0 0 1 0 0 ) " x="256" y="563">04</text>
    <ellipse id="11438868" cy="577" cx="312" rx="17" ry="17" style="&E8;" />
    <text id="11438869" style="&E9;" transform="matrix(1 0 0 1 0 0 ) " x="296" y="563">20</text>
    <ellipse id="11438871" cy="577" cx="352" rx="17" ry="17" style="&E8;" />
    <text id="11438872" style="&E9;" transform="matrix(1 0 0 1 0 0 ) " x="336" y="563">10</text>
    <ellipse id="11438874" cy="577" cx="392" rx="17" ry="17" style="&E8;" />
    <text id="11438875" style="&E9;" transform="matrix(1 0 0 1 0 0 ) " x="376" y="563">02</text>
    <ellipse id="11438877" cy="577" cx="432" rx="17" ry="17" style="&E8;" />
    <text id="11438878" style="&E9;" transform="matrix(1 0 0 1 0 0 ) " x="416" y="563">01</text>
    <ellipse id="11438880" cy="577" cx="472" rx="17" ry="17" style="&E6;" />
    <text id="11438881" style="&E9;" transform="matrix(1 0 0 1 0 0 ) " x="456" y="563">06</text>
    <rect id="11438883" height="36" style="&E10;" width="36" y="560" x="512" />
    <rect id="11438884" height="34" style="&E12;" width="34" y="561" x="513" />
    <text id="11438885" style="&E4;" transform="matrix(1 0 0 1 0 0 ) " x="520" y="565">2</text>
    <text id="11438887" style="&E9;" transform="matrix(1 0 0 1 0 0 ) " x="560" y="565">小</text>
    <text id="11438889" style="&E9;" transform="matrix(1 0 0 1 0 0 ) " x="600" y="565">双</text>
    <text id="11438891" style="&E7;" transform="matrix(1 0 0 1 0 0 ) " x="10" y="605">25</text>
    <text id="11438893" style="&E7;" transform="matrix(1 0 0 1 0 0 ) " x="50" y="605">16:58:40</text>
    <ellipse id="11438895" cy="617" cx="192" rx="17" ry="17" style="&E8;" />
    <text id="11438896" style="&E9;" transform="matrix(1 0 0 1 0 0 ) " x="176" y="603">15</text>
    <ellipse id="11438898" cy="617" cx="232" rx="17" ry="17" style="&E8;" />
    <text id="11438899" style="&E9;" transform="matrix(1 0 0 1 0 0 ) " x="216" y="603">11</text>
    <ellipse id="11438901" cy="617" cx="272" rx="17" ry="17" style="&E8;" />
    <text id="11438902" style="&E9;" transform="matrix(1 0 0 1 0 0 ) " x="256" y="603">06</text>
    <ellipse id="11438904" cy="617" cx="312" rx="17" ry="17" style="&E8;" />
    <text id="11438905" style="&E9;" transform="matrix(1 0 0 1 0 0 ) " x="296" y="603">03</text>
    <ellipse id="11438907" cy="617" cx="352" rx="17" ry="17" style="&E8;" />
    <text id="11438908" style="&E9;" transform="matrix(1 0 0 1 0 0 ) " x="336" y="603">13</text>
    <ellipse id="11438910" cy="617" cx="392" rx="17" ry="17" style="&E8;" />
    <text id="11438911" style="&E9;" transform="matrix(1 0 0 1 0 0 ) " x="376" y="603">19</text>
    <ellipse id="11438913" cy="617" cx="432" rx="17" ry="17" style="&E8;" />
    <text id="11438914" style="&E9;" transform="matrix(1 0 0 1 0 0 ) " x="416" y="603">08</text>
    <ellipse id="11438916" cy="617" cx="472" rx="17" ry="17" style="&E6;" />
    <text id="11438917" style="&E9;" transform="matrix(1 0 0 1 0 0 ) " x="456" y="603">12</text>
    <rect id="11438919" height="36" style="&E10;" width="36" y="600" x="512" />
    <rect id="11438920" height="34" style="&E11;" width="34" y="601" x="513" />
    <text id="11438921" style="&E4;" transform="matrix(1 0 0 1 0 0 ) " x="520" y="605">4</text>
    <text id="11438923" style="&E9;" transform="matrix(1 0 0 1 0 0 ) " x="560" y="605">大</text>
    <text id="11438925" style="&E9;" transform="matrix(1 0 0 1 0 0 ) " x="600" y="605">双</text>
    <rect id="11438927" height="46" style="&E15;" width="627" y="656" x="10" />
    <text id="11438928" style="&E16;" transform="matrix(1 0 0 1 0 0 ) " x="229" y="666">路</text>
    <text id="11438930" style="&E16;" transform="matrix(1 0 0 1 0 0 ) " x="280" y="666">字</text>
    <text id="11438932" style="&E16;" transform="matrix(1 0 0 1 0 0 ) " x="332" y="666">图</text>
    <line y1="656" style="&E17;" id="11438934" x2="637" y2="656" x1="10" />
    <line y1="702" style="&E17;" id="11438935" x2="637" y2="702" x1="10" />
    <line y1="753" style="&E17;" id="11438936" x2="637" y2="753" x1="10" />
    <line y1="802" style="&E17;" id="11438937" x2="637" y2="802" x1="10" />
    <line y1="851" style="&E17;" id="11438938" x2="637" y2="851" x1="10" />
    <line y1="900" style="&E17;" id="11438939" x2="637" y2="900" x1="10" />
    <line y1="945" style="&E17;" id="11438940" x2="637" y2="945" x1="10" />
    <line y1="656" style="&E17;" id="11438941" x2="10" y2="945" x1="10" />
    <line y1="656" style="&E17;" id="11438942" x2="60" y2="945" x1="60" />
    <line y1="656" style="&E17;" id="11438943" x2="115" y2="945" x1="115" />
    <line y1="656" style="&E17;" id="11438944" x2="166" y2="945" x1="166" />
    <line y1="656" style="&E17;" id="11438945" x2="219" y2="945" x1="219" />
    <line y1="656" style="&E17;" id="11438946" x2="270" y2="945" x1="270" />
    <line y1="656" style="&E17;" id="11438947" x2="323" y2="945" x1="323" />
    <line y1="656" style="&E17;" id="11438948" x2="375" y2="945" x1="375" />
    <line y1="656" style="&E17;" id="11438949" x2="427" y2="945" x1="427" />
    <line y1="656" style="&E17;" id="11438950" x2="480" y2="945" x1="480" />
    <line y1="656" style="&E17;" id="11438951" x2="531" y2="945" x1="531" />
    <line y1="656" style="&E17;" id="11438952" x2="584" y2="945" x1="584" />
    <line y1="656" style="&E17;" id="11438953" x2="636" y2="945" x1="636" />
    <rect id="11438954" height="38" style="&E10;" width="38" y="708" x="16" />
    <rect id="11438955" height="37" style="&E14;" width="37" y="708" x="16" />
    <text id="11438956" style="&E18;" transform="matrix(1 0 0 1 0 0 ) " x="20" y="710">1</text>
    <rect id="11438958" height="38" style="&E10;" width="38" y="708" x="68" />
    <rect id="11438959" height="37" style="&E14;" width="37" y="708" x="68" />
    <text id="11438960" style="&E18;" transform="matrix(1 0 0 1 0 0 ) " x="72" y="710">1</text>
    <rect id="11438962" height="38" style="&E10;" width="38" y="708" x="121" />
    <rect id="11438963" height="37" style="&E13;" width="37" y="708" x="121" />
    <text id="11438964" style="&E18;" transform="matrix(1 0 0 1 0 0 ) " x="125" y="710">3</text>
    <rect id="11438966" height="38" style="&E10;" width="38" y="708" x="174" />
    <rect id="11438967" height="37" style="&E13;" width="37" y="708" x="174" />
    <text id="11438968" style="&E18;" transform="matrix(1 0 0 1 0 0 ) " x="178" y="710">3</text>
    <rect id="11438970" height="38" style="&E10;" width="38" y="708" x="225" />
    <rect id="11438971" height="37" style="&E11;" width="37" y="708" x="225" />
    <text id="11438972" style="&E18;" transform="matrix(1 0 0 1 0 0 ) " x="229" y="710">4</text>
    <rect id="11438974" height="38" style="&E10;" width="38" y="708" x="278" />
    <rect id="11438975" height="37" style="&E14;" width="37" y="708" x="278" />
    <text id="11438976" style="&E18;" transform="matrix(1 0 0 1 0 0 ) " x="282" y="710">1</text>
    <rect id="11438978" height="38" style="&E10;" width="38" y="708" x="330" />
    <rect id="11438979" height="37" style="&E12;" width="37" y="708" x="330" />
    <text id="11438980" style="&E18;" transform="matrix(1 0 0 1 0 0 ) " x="334" y="710">2</text>
    <rect id="11438982" height="38" style="&E10;" width="38" y="708" x="383" />
    <rect id="11438983" height="37" style="&E11;" width="37" y="708" x="383" />
    <text id="11438984" style="&E18;" transform="matrix(1 0 0 1 0 0 ) " x="387" y="710">4</text>
    <rect id="11438986" height="38" style="&E10;" width="38" y="708" x="434" />
    <rect id="11438987" height="37" style="&E12;" width="37" y="708" x="434" />
    <text id="11438988" style="&E18;" transform="matrix(1 0 0 1 0 0 ) " x="438" y="710">2</text>
    <rect id="11438990" height="38" style="&E10;" width="38" y="708" x="486" />
    <rect id="11438991" height="37" style="&E12;" width="37" y="708" x="486" />
    <text id="11438992" style="&E18;" transform="matrix(1 0 0 1 0 0 ) " x="490" y="710">2</text>
    <rect id="11438994" height="38" style="&E10;" width="38" y="708" x="538" />
    <rect id="11438995" height="37" style="&E14;" width="37" y="708" x="538" />
    <text id="11438996" style="&E18;" transform="matrix(1 0 0 1 0 0 ) " x="542" y="710">1</text>
    <rect id="11438998" height="38" style="&E10;" width="38" y="708" x="592" />
    <rect id="11438999" height="37" style="&E12;" width="37" y="708" x="592" />
    <text id="11439000" style="&E18;" transform="matrix(1 0 0 1 0 0 ) " x="596" y="710">2</text>
    <rect id="11439002" height="38" style="&E10;" width="38" y="758" x="16" />
    <rect id="11439003" height="37" style="&E14;" width="37" y="758" x="16" />
    <text id="11439004" style="&E18;" transform="matrix(1 0 0 1 0 0 ) " x="20" y="760">1</text>
    <rect id="11439006" height="38" style="&E10;" width="38" y="758" x="68" />
    <rect id="11439007" height="37" style="&E11;" width="37" y="758" x="68" />
    <text id="11439008" style="&E18;" transform="matrix(1 0 0 1 0 0 ) " x="72" y="760">4</text>
    <rect id="11439010" height="38" style="&E10;" width="38" y="758" x="121" />
    <rect id="11439011" height="37" style="&E12;" width="37" y="758" x="121" />
    <text id="11439012" style="&E18;" transform="matrix(1 0 0 1 0 0 ) " x="125" y="760">2</text>
    <rect id="11439014" height="38" style="&E10;" width="38" y="758" x="174" />
    <rect id="11439015" height="37" style="&E13;" width="37" y="758" x="174" />
    <text id="11439016" style="&E18;" transform="matrix(1 0 0 1 0 0 ) " x="178" y="760">3</text>
    <rect id="11439018" height="38" style="&E10;" width="38" y="758" x="225" />
    <rect id="11439019" height="37" style="&E11;" width="37" y="758" x="225" />
    <text id="11439020" style="&E18;" transform="matrix(1 0 0 1 0 0 ) " x="229" y="760">4</text>
    <rect id="11439022" height="38" style="&E10;" width="38" y="758" x="278" />
    <rect id="11439023" height="37" style="&E12;" width="37" y="758" x="278" />
    <text id="11439024" style="&E18;" transform="matrix(1 0 0 1 0 0 ) " x="282" y="760">2</text>
    <rect id="11439026" height="38" style="&E10;" width="38" y="758" x="330" />
    <rect id="11439027" height="37" style="&E13;" width="37" y="758" x="330" />
    <text id="11439028" style="&E18;" transform="matrix(1 0 0 1 0 0 ) " x="334" y="760">3</text>
    <rect id="11439030" height="38" style="&E10;" width="38" y="758" x="383" />
    <rect id="11439031" height="37" style="&E14;" width="37" y="758" x="383" />
    <text id="11439032" style="&E18;" transform="matrix(1 0 0 1 0 0 ) " x="387" y="760">1</text>
    <rect id="11439034" height="38" style="&E10;" width="38" y="758" x="434" />
    <rect id="11439035" height="37" style="&E13;" width="37" y="758" x="434" />
    <text id="11439036" style="&E18;" transform="matrix(1 0 0 1 0 0 ) " x="438" y="760">3</text>
    <rect id="11439038" height="38" style="&E10;" width="38" y="758" x="486" />
    <rect id="11439039" height="37" style="&E11;" width="37" y="758" x="486" />
    <text id="11439040" style="&E18;" transform="matrix(1 0 0 1 0 0 ) " x="490" y="760">4</text>
    <rect id="11439042" height="38" style="&E10;" width="38" y="758" x="538" />
    <rect id="11439043" height="37" style="&E14;" width="37" y="758" x="538" />
    <text id="11439044" style="&E18;" transform="matrix(1 0 0 1 0 0 ) " x="542" y="760">1</text>
    <rect id="11439046" height="38" style="&E10;" width="38" y="758" x="592" />
    <rect id="11439047" height="37" style="&E13;" width="37" y="758" x="592" />
    <text id="11439048" style="&E18;" transform="matrix(1 0 0 1 0 0 ) " x="596" y="760">3</text>
    <rect id="11439050" height="38" style="&E10;" width="38" y="806" x="16" />
    <rect id="11439051" height="37" style="&E11;" width="37" y="806" x="16" />
    <text id="11439052" style="&E18;" transform="matrix(1 0 0 1 0 0 ) " x="20" y="808">4</text>
    <rect id="11439054" height="38" style="&E10;" width="38" y="806" x="68" />
    <rect id="11439055" height="37" style="&E14;" width="37" y="806" x="68" />
    <text id="11439056" style="&E18;" transform="matrix(1 0 0 1 0 0 ) " x="72" y="808">1</text>
    <rect id="11439058" height="38" style="&E10;" width="38" y="806" x="121" />
    <rect id="11439059" height="37" style="&E11;" width="37" y="806" x="121" />
    <text id="11439060" style="&E18;" transform="matrix(1 0 0 1 0 0 ) " x="125" y="808">4</text>
    <rect id="11439062" height="38" style="&E10;" width="38" y="806" x="174" />
    <rect id="11439063" height="37" style="&E13;" width="37" y="806" x="174" />
    <text id="11439064" style="&E18;" transform="matrix(1 0 0 1 0 0 ) " x="178" y="808">3</text>
    <rect id="11439066" height="38" style="&E10;" width="38" y="806" x="225" />
    <rect id="11439067" height="37" style="&E12;" width="37" y="806" x="225" />
    <text id="11439068" style="&E18;" transform="matrix(1 0 0 1 0 0 ) " x="229" y="808">2</text>
    <rect id="11439070" height="38" style="&E10;" width="38" y="806" x="278" />
    <rect id="11439071" height="37" style="&E14;" width="37" y="806" x="278" />
    <text id="11439072" style="&E18;" transform="matrix(1 0 0 1 0 0 ) " x="282" y="808">1</text>
    <rect id="11439074" height="38" style="&E10;" width="38" y="806" x="330" />
    <rect id="11439075" height="37" style="&E11;" width="37" y="806" x="330" />
    <text id="11439076" style="&E18;" transform="matrix(1 0 0 1 0 0 ) " x="334" y="808">4</text>
    <rect id="11439078" height="38" style="&E10;" width="38" y="806" x="383" />
    <rect id="11439079" height="37" style="&E13;" width="37" y="806" x="383" />
    <text id="11439080" style="&E18;" transform="matrix(1 0 0 1 0 0 ) " x="387" y="808">3</text>
    <rect id="11439082" height="38" style="&E10;" width="38" y="806" x="434" />
    <rect id="11439083" height="37" style="&E11;" width="37" y="806" x="434" />
    <text id="11439084" style="&E18;" transform="matrix(1 0 0 1 0 0 ) " x="438" y="808">4</text>
    <rect id="11439086" height="38" style="&E10;" width="38" y="806" x="486" />
    <rect id="11439087" height="37" style="&E11;" width="37" y="806" x="486" />
    <text id="11439088" style="&E18;" transform="matrix(1 0 0 1 0 0 ) " x="490" y="808">4</text>
    <rect id="11439090" height="38" style="&E10;" width="38" y="806" x="538" />
    <rect id="11439091" height="37" style="&E13;" width="37" y="806" x="538" />
    <text id="11439092" style="&E18;" transform="matrix(1 0 0 1 0 0 ) " x="542" y="808">3</text>
    <rect id="11439094" height="38" style="&E10;" width="38" y="806" x="592" />
    <rect id="11439095" height="37" style="&E11;" width="37" y="806" x="592" />
    <text id="11439096" style="&E18;" transform="matrix(1 0 0 1 0 0 ) " x="596" y="808">4</text>
    <rect id="11439098" height="38" style="&E10;" width="38" y="855" x="16" />
    <rect id="11439099" height="37" style="&E12;" width="37" y="855" x="16" />
    <text id="11439100" style="&E18;" transform="matrix(1 0 0 1 0 0 ) " x="20" y="857">2</text>
    <rect id="11439102" height="38" style="&E10;" width="38" y="855" x="68" />
    <rect id="11439103" height="37" style="&E13;" width="37" y="855" x="68" />
    <text id="11439104" style="&E18;" transform="matrix(1 0 0 1 0 0 ) " x="72" y="857">3</text>
    <rect id="11439106" height="38" style="&E10;" width="38" y="855" x="121" />
    <rect id="11439107" height="37" style="&E14;" width="37" y="855" x="121" />
    <text id="11439108" style="&E18;" transform="matrix(1 0 0 1 0 0 ) " x="125" y="857">1</text>
    <rect id="11439110" height="38" style="&E10;" width="38" y="855" x="174" />
    <rect id="11439111" height="37" style="&E11;" width="37" y="855" x="174" />
    <text id="11439112" style="&E18;" transform="matrix(1 0 0 1 0 0 ) " x="178" y="857">4</text>
    <rect id="11439114" height="38" style="&E10;" width="38" y="855" x="225" />
    <rect id="11439115" height="37" style="&E14;" width="37" y="855" x="225" />
    <text id="11439116" style="&E18;" transform="matrix(1 0 0 1 0 0 ) " x="229" y="857">1</text>
    <rect id="11439118" height="38" style="&E10;" width="38" y="855" x="278" />
    <rect id="11439119" height="37" style="&E12;" width="37" y="855" x="278" />
    <text id="11439120" style="&E18;" transform="matrix(1 0 0 1 0 0 ) " x="282" y="857">2</text>
    <rect id="11439122" height="38" style="&E10;" width="38" y="855" x="330" />
    <rect id="11439123" height="37" style="&E14;" width="37" y="855" x="330" />
    <text id="11439124" style="&E18;" transform="matrix(1 0 0 1 0 0 ) " x="334" y="857">1</text>
    <rect id="11439126" height="38" style="&E10;" width="38" y="855" x="383" />
    <rect id="11439127" height="37" style="&E13;" width="37" y="855" x="383" />
    <text id="11439128" style="&E18;" transform="matrix(1 0 0 1 0 0 ) " x="387" y="857">3</text>
    <rect id="11439130" height="38" style="&E10;" width="38" y="855" x="434" />
    <rect id="11439131" height="37" style="&E13;" width="37" y="855" x="434" />
    <text id="11439132" style="&E18;" transform="matrix(1 0 0 1 0 0 ) " x="438" y="857">3</text>
    <rect id="11439134" height="38" style="&E10;" width="38" y="855" x="486" />
    <rect id="11439135" height="37" style="&E11;" width="37" y="855" x="486" />
    <text id="11439136" style="&E18;" transform="matrix(1 0 0 1 0 0 ) " x="490" y="857">4</text>
    <rect id="11439138" height="38" style="&E10;" width="38" y="855" x="538" />
    <rect id="11439139" height="37" style="&E13;" width="37" y="855" x="538" />
    <text id="11439140" style="&E18;" transform="matrix(1 0 0 1 0 0 ) " x="542" y="857">3</text>
    <rect id="11439142" height="38" style="&E10;" width="38" y="855" x="592" />
    <rect id="11439143" height="37" style="&E12;" width="37" y="855" x="592" />
    <text id="11439144" style="&E18;" transform="matrix(1 0 0 1 0 0 ) " x="596" y="857">2</text>
    <rect id="11439146" height="38" style="&E10;" width="38" y="903" x="16" />
    <rect id="11439147" height="37" style="&E12;" width="37" y="903" x="16" />
    <text id="11439148" style="&E18;" transform="matrix(1 0 0 1 0 0 ) " x="20" y="905">2</text>
    <rect id="11439150" height="38" style="&E10;" width="38" y="903" x="68" />
    <rect id="11439151" height="37" style="&E11;" width="37" y="903" x="68" />
    <text id="11439152" style="&E18;" transform="matrix(1 0 0 1 0 0 ) " x="72" y="905">4</text>
  </g>
  <defs id="clips_hatches_and_gradients" />
</svg>